<?xml version="1.0" encoding="UTF-8"?>
<svg width="25px" height="25px" viewBox="0 0 25 25" version="1.1" xmlns="http://www.w3.org/2000/svg" xmlns:xlink="http://www.w3.org/1999/xlink">
    <!-- Generator: Sketch 49.3 (51167) - http://www.bohemiancoding.com/sketch -->
    <title>Page 1</title>
    <desc>Created with Sketch.</desc>
    <defs></defs>
    <g id="Page-1" stroke="none" stroke-width="1" fill="none" fill-rule="evenodd">
        <g id="header-mobile-productpage" transform="translate(-14.000000, -46.000000)" fill="#000000" stroke="#000000">
            <path d="M26.4897782,47 C26.3742723,47 26.2587663,47.0439536 26.1708591,47.1318608 L15.1333941,58.1642149 C15.132883,58.164726 15.132883,58.1657482 15.1323719,58.1657482 C15.1185725,58.1795476 15.1124394,58.1979468 15.1006844,58.2132794 C15.0771743,58.2439447 15.0511088,58.2730768 15.0357762,58.309364 L15.0357762,58.3103862 C15.0132883,58.3640505 15,58.4228257 15,58.4846673 C15,58.6088618 15.0516199,58.7213013 15.132883,58.8025643 C15.1339052,58.8035865 15.1344162,58.8040976 15.1354384,58.8051198 L26.1698369,69.8400293 C26.2582552,69.9274254 26.3742723,69.9718901 26.4897782,69.9718901 C26.6052842,69.9718901 26.7202791,69.9274254 26.8086974,69.8390072 C26.9845118,69.6631927 26.9845118,69.3774943 26.8086974,69.202191 L16.5419537,58.9354473 L37.54922,58.9354473 C37.7986312,58.9354473 38,58.7335674 38,58.4846673 C38,58.2357673 37.7981201,58.0338874 37.54922,58.0338874 L16.5404204,58.0338874 L26.8092085,47.7696991 C26.9850229,47.5938847 26.985534,47.3076752 26.8092085,47.1318608 C26.7213013,47.0439536 26.6057953,47 26.4902893,47 L26.4897782,47 Z" id="Page-1"></path>
        </g>
    </g>
</svg>