<?xml version="1.0" encoding="UTF-8"?>
<svg width="13px" height="13px" viewBox="0 0 13 13" version="1.1" xmlns="http://www.w3.org/2000/svg" xmlns:xlink="http://www.w3.org/1999/xlink">
    <!-- Generator: Sketch 49.3 (51167) - http://www.bohemiancoding.com/sketch -->
    <title>bullet</title>
    <desc>Created with Sketch.</desc>
    <defs></defs>
    <g id="Page-1" stroke="none" stroke-width="1" fill="none" fill-rule="evenodd">
        <g id="product-page---open-tab" transform="translate(-758.000000, -756.000000)" stroke="#DFBBBB" stroke-width="0.8">
            <g id="Group-7" transform="translate(755.000000, 725.000000)">
                <path d="M9.49511133,32 C9.43986934,32 9.38462735,32.021047 9.34258477,32.063141 L4.06379716,37.3459408 C4.06355273,37.3461855 4.06355273,37.346675 4.0633083,37.346675 C4.05670859,37.3532828 4.05377539,37.3620931 4.04815342,37.3694351 C4.03690947,37.3841191 4.02444336,37.3980688 4.01711035,37.4154449 L4.01711035,37.4159343 C4.00635527,37.4416313 4,37.4697755 4,37.4993882 C4,37.5588582 4.02468779,37.6126994 4.06355273,37.6516119 C4.0640416,37.6521014 4.06428603,37.6523461 4.0647749,37.6528356 L9.34209591,42.936859 C9.38438292,42.9787083 9.43986934,43 9.49511133,43 C9.55035332,43 9.60535087,42.9787083 9.64763788,42.9363695 C9.73172303,42.8521815 9.73172303,42.7153759 9.64763788,42.6314326 L4.73745611,37.7152424 L14.7844096,37.7152424 C14.9036932,37.7152424 15,37.618573 15,37.4993882 C15,37.3802034 14.9034487,37.2835339 14.7844096,37.2835339 L4.73672281,37.2835339 L9.64788232,32.3685674 C9.73196747,32.2843794 9.7322119,32.1473291 9.64788232,32.063141 C9.60583974,32.021047 9.55059775,32 9.49535576,32 L9.49511133,32 Z" id="bullet" transform="translate(9.500000, 37.500000) rotate(180.000000) translate(-9.500000, -37.500000) "></path>
            </g>
        </g>
    </g>
</svg>