<?xml version="1.0" encoding="UTF-8"?>
<svg width="17px" height="13px" viewBox="0 0 17 13" version="1.1" xmlns="http://www.w3.org/2000/svg" xmlns:xlink="http://www.w3.org/1999/xlink">
    <!-- Generator: Sketch 52.1 (67048) - http://www.bohemiancoding.com/sketch -->
    <title>envio-icon</title>
    <desc>Created with Sketch.</desc>
    <g id="Product-page" stroke="none" stroke-width="1" fill="none" fill-rule="evenodd">
        <g id="product-page---open-tab" transform="translate(-756.000000, -344.000000)">
            <g id="Group" transform="translate(757.000000, 338.000000)" stroke="#61032E" stroke-linecap="round" stroke-linejoin="round">
                <g id="envio-icon" transform="translate(0.000000, 7.000000)">
                    <path d="M5.73333333,8.86666667 C5.73333333,9.8976 4.8976,10.7333333 3.86666667,10.7333333 C2.83573333,10.7333333 2,9.8976 2,8.86666667 C2,7.83573333 2.83573333,7 3.86666667,7 C4.8976,7 5.73333333,7.83573333 5.73333333,8.86666667 L5.73333333,8.86666667 Z" id="Stroke-175"></path>
                    <path d="M12.7333333,8.86666667 C12.7333333,9.8976 11.8976,10.7333333 10.8666667,10.7333333 C9.83573333,10.7333333 9,9.8976 9,8.86666667 C9,7.83573333 9.83573333,7 10.8666667,7 C11.8976,7 12.7333333,7.83573333 12.7333333,8.86666667 L12.7333333,8.86666667 Z" id="Stroke-177"></path>
                    <path d="M13.7061333,8 C13.9610667,8 14.1936,7.85706667 14.3077333,7.63146667 L14.9621333,6.33333333 C15.2938667,5.67573333 15.4666667,4.9504 15.4666667,4.21546667 C15.4666667,3.65653333 15.216,3.1264 14.7829333,2.76853333 L11.96,0.436266667 C11.6186667,0.154666667 11.1882667,0 10.744,0 L4.03466667,0 C3.41653333,0 2.8512,0.346133333 2.57493333,0.8944 L0.172266667,5.65813333 C0.0592,5.8832 0,6.13066667 0,6.38186667 C0,7.27573333 0.730666667,8 1.632,8 L2.0176,8" id="Stroke-179"></path>
                    <polygon id="Stroke-181" points="10.5333333 2 10 4.66666667 13.7333333 4.4"></polygon>
                    <path d="M6,8 L9.73333333,8" id="Stroke-183"></path>
                    <path d="M0,1 L4.8,1" id="Stroke-185"></path>
                    <path d="M0,3 L3.2,3" id="Stroke-187"></path>
                    <path d="M0,6 L2.13333333,6" id="Stroke-189"></path>
                </g>
            </g>
            <g id="Page"></g>
        </g>
        <g id="Page"></g>
    </g>
</svg>