<?xml version="1.0" encoding="UTF-8"?>
<svg width="12px" height="18px" viewBox="0 0 12 18" version="1.1" xmlns="http://www.w3.org/2000/svg" xmlns:xlink="http://www.w3.org/1999/xlink">
    <!-- Generator: Sketch 52.1 (67048) - http://www.bohemiancoding.com/sketch -->
    <title>garantia-icon</title>
    <desc>Created with Sketch.</desc>
    <g id="Product-page" stroke="none" stroke-width="1" fill="none" fill-rule="evenodd">
        <g id="product-page---open-tab" transform="translate(-759.000000, -380.000000)">
            <g id="Group" transform="translate(757.000000, 348.000000)" fill="#61032E">
                <g id="garantia-icon" transform="translate(2.000000, 32.000000)">
                    <polygon id="Fill-1" points="4.45971429 16.3684286 3.22821429 14.1430714 0.793928571 14.9935714 2.4585 10.4277857 3.26378571 10.7213571 2.21871429 13.5876429 3.62785714 13.0954286 4.29857143 14.3072143 5.39292857 11.3050714 6.19821429 11.5986429"></polygon>
                    <polygon id="Fill-2" points="8.31754286 11.0303571 9.78411429 15.0537857 8.37518571 14.5613571 7.70447143 15.7733571 6.06925714 11.2879286 5.26418571 11.5815 7.54332857 17.8343571 8.77482857 15.609 11.2089 16.4595 9.12261429 10.7367857"></polygon>
                    <g id="Group-7" transform="translate(0.000000, 0.048643)">
                        <path d="M5.84142857,1.02278571 C3.09321429,1.02278571 0.857142857,3.25885714 0.857142857,6.00707143 C0.857142857,8.75528571 3.09321429,10.9915714 5.84142857,10.9915714 C8.58964286,10.9915714 10.8257143,8.7555 10.8257143,6.00728571 C10.8257143,3.25907143 8.58964286,1.02278571 5.84142857,1.02278571 M5.84142857,11.8487143 C2.6205,11.8487143 0,9.22821429 0,6.00728571 C0,2.78635714 2.6205,0.165642857 5.84142857,0.165642857 C9.06235714,0.165642857 11.6828571,2.78614286 11.6828571,6.00707143 C11.6828571,9.228 9.06235714,11.8487143 5.84142857,11.8487143" id="Fill-3"></path>
                        <polygon id="Fill-5" points="5.55942857 9.07328571 3.00878571 6.36107143 3.63321429 5.77392857 5.42335714 7.67742857 7.98064286 3.60278571 8.70685714 4.05835714"></polygon>
                    </g>
                </g>
            </g>
            <g id="Page"></g>
        </g>
        <g id="Page"></g>
    </g>
</svg>