<svg id="Capa_1" data-name="Capa 1" xmlns="http://www.w3.org/2000/svg" viewBox="0 0 681 681"><defs><style>.cls-1{fill:#fff;}.cls-2{fill:none;stroke:#000;stroke-linecap:round;stroke-linejoin:round;stroke-width:0;}</style></defs><title>iconos_home2</title><path class="cls-1" d="M144,513.81a19,19,0,0,1,2,8.14,11,11,0,0,1-.13,1.95c0,.15-.06.29-.08.43s-.07.15-.1.24a2.07,2.07,0,0,1-.28.32,3.19,3.19,0,0,1-2.05.77,12.89,12.89,0,0,1,3.72,0c.83.19,1.52.71,2.9,1.19-2.58.67-1.88,2.5-1.67,3.5a11,11,0,0,0,1.85-2.63,19.37,19.37,0,0,0,.93-2.65,3.19,3.19,0,0,1-.89-.31,1.63,1.63,0,0,1-.34-.21c-.1-.1-.18-.06-.26-.43a15.07,15.07,0,0,1-.51-3.63,55.18,55.18,0,0,1,.58-8.14c.65-5.56,1.24-11.07-1.81-14.49C146.49,502.86,142.56,507.7,144,513.81Z"/><path class="cls-1" d="M127.11,548c.51,0,1,0,1.53-.07q-1.21-5.43-2.42-11.89a21.74,21.74,0,0,1,1.59,6.27C128.1,544.7,128,547.05,127.11,548Z"/><path d="M163.77,551.6c-1.25,2.77,5.14,4.63,4.92,7.21,0-5.68,10.16-.79,15.75-1.29l2.39-4.27c-2.64-1.68-7.38-2.3-12.9-2.6-2.76-.16-5.72-.23-8.7-.32l-4.49-.15-2.22-.1-2.07-.14.82.21.93.2,1.85.42Z"/><path class="cls-1" d="M174.05,555.2l3.75-2.65C174.73,553.17,167.66,553.34,174.05,555.2Z"/><path class="cls-1" d="M166.81,539.61c-9-.7,5.37,2.07-3.76,2.66C166.13,541.64,169.66,541.56,166.81,539.61Z"/><polygon points="204.28 549.73 184.99 551.1 192.87 553.29 204.28 549.73"/><path d="M205,559.05c-2.51-.12-6.4-1.86-2.75-3.24,6.74,3.7,11.18-1,17.47,2.16l-6.16,1.24c.7,3.65,12.88-3.23,12.33,3.19,8.43-4.23-6.07-5.71,4.77-8.54-10.16.79-17.58-.86-26-2.31,2.41,1.41,3.42,1.2,6.85,2.4-6,0-14.26,1.62-21.33,1.79C193.81,560.05,199.16,556.44,205,559.05Z"/><path d="M235.58,561.07c6.51.59,16.55,1.08,18.47-3.73-6.74-3.69-8.11.37-11.28,2.29-2-.87-8.46-1.46-5.72-3.91C238,556.81,232.71,559.12,235.58,561.07Z"/><path d="M261.14,562.85l4.91-4.15-3.09.62-.24-3.1c-.57.75-3.06,6.3-9.56,5.72C256.46,564.43,257.73,561.65,261.14,562.85Z"/><path d="M263.48,541.54c4.34,2.29,7,1.12,12.1.08-7.08.17-17.11-.33-19.29,1.37l.58-.74a60.06,60.06,0,0,0-11.53,4.85C252.65,544.36,265.33,549.37,263.48,541.54Z"/><path d="M254.47,540.84l5.24-2.32Z"/><polygon points="281.34 562.55 271.42 560.78 273.81 562.19 281.34 562.55"/><path d="M269.9,549.09c8,.9-4.24-3.57,3.28-3.2,2.06-.42-11.05-.28-11.74,1.75C263.38,548.5,269.2,545.44,269.9,549.09Z"/><path d="M287.84,563.14l8.33-2.95Z"/><path d="M308.29,566l1.7-2.25c7.88,2.2,18.72-.62,24.33,4.57-1.26-2.91,3.52-5.77-3.44-6.88-1.15,1.49-3.65,1.36-3.31,3.19-3-.67-2.28-2.7-4.24-3.57-5.22,2.32-13.11.13-17.32,2.24,2-.41,2.51.13,4,.45-8.89,3.7-10.06-6.16-14.14.35C299,562.14,304.18,566.78,308.29,566Z"/><path d="M308.14,550.2l-7-1.12c2.28-3,8.57.16,9.82-2.62-.36-1.82-7.31-2.94-4.71-4.1-1.11,7.17-9.58,0-6.24,8.21-9.13.58-2.64-4.52-12.23-4.47L285,549.83C295.69,548.29,297.4,551.73,308.14,550.2Z"/><path d="M335.18,552.31l3.32,2.48-1.72-3.44c15.64,0,24.31,14.18,33.82,12.57,12-4.14,22.67,3.05,34.73,2.79,6-2.71-5.57-1.92-6.12-3.74,1.89-5.64,5.6,3.21,8.5-1.37.92-4.1-12.15-4.9-17.23-7.58-4.51.42-4.49,1.71-6,4-1-2.34-5.6-3.21-6.66-5.56-9.48,2.9-14.16-3.39-23.5-.24-2.76-3.24,6.92-.36,3.89-.94l-5-.11.51.53c-7,2.95-19.48-.47-23.81-2.75,3.41,1.2,5.72,3.89,1.6,4.72l-3.21-3.77-9,5C326.16,551.6,333.62,558.94,335.18,552.31Z"/><path d="M325.69,545.38c-10.4-2.32,1.05,5.48-10.37,3.36l12.1.08Z"/><path class="cls-1" d="M375.45,556.28l5.08,2.69C377.9,553.75,369.51,560.29,375.45,556.28Z"/><polygon class="cls-1" points="394.55 556.94 391.64 561.52 396.62 559.05 394.55 556.94"/><path d="M411.78,563.23c4-2.24-.6-4.39-5.12-4C410.71,559.6,412.75,561.71,411.78,563.23Z"/><path class="cls-1" d="M440.17,573.3c-8.78-.31,7.74,1.45,1.28,5.43C442.66,576.78,447.2,574.28,440.17,573.3Z"/><path d="M468.17,585.42c-3.21.78-4.47-.09-4.86-1.25C465.61,584.35,467.44,584.68,468.17,585.42Z"/><path d="M359.17,567a18.63,18.63,0,0,1-3.08-.24Z"/><path d="M361.18,567.11l-2-.16A18.43,18.43,0,0,1,361.18,567.11Z"/><path d="M426,579.52h0c-.23-.17-.44-.27-.67-.47Z"/><path d="M147,557.24a32.07,32.07,0,0,1-4.75.11l4.71-.15Z"/><path d="M144.89,550.65c2-.68,3.13-.57,4.09,0A15.37,15.37,0,0,1,151.7,553a11.09,11.09,0,0,0,4.16,2.64,13.48,13.48,0,0,0,3.11.68,16.52,16.52,0,0,0,3.9-.15l-3.59.33c-1.22.1-2.39.19-3.81.27q-4.11.24-8.51.4c-1.48-1.22-1.67-2-1.45-2.47s.91-.77,1.47-1,1-.48.76-.92S146.65,551.71,144.89,550.65Z"/><path d="M241.28,548.59c.15-.05.27-.06.41-.12C242.41,548.33,242,548.47,241.28,548.59Z"/><polygon class="cls-1" points="126.56 250.31 125.27 250.25 126.91 243.8 126.56 250.31"/><path class="cls-1" d="M124.23,251.21l-2.46,11-.74-64.9,1.77,2.1C125.14,198.46,122.15,253.12,124.23,251.21Z"/><path class="cls-1" d="M126.26,254.33c5.33,6.3-2,10.47,1.82,18.2-2.51-5.16-5.3-8.82-3.94-13.79Z"/><path class="cls-2" d="M136.55,276c-1.08,3.47,1.19,7.61.39,9.57C132.83,284.33,136,279,136.55,276Z"/><path d="M152.15,285.29a7.24,7.24,0,0,1,0,1.61,11.76,11.76,0,0,0-.77-1.65Z"/><path d="M151.42,285.25l-1.84-.09C150.29,284,150.87,284.34,151.42,285.25Z"/><path d="M152.19,286.9a16.83,16.83,0,0,0,2,4l.27-1.49c.49,2,2,5.64,1,6.6.31-4-1-4.08-3.56-4.2l-.34,6.52C145.34,297.11,151.8,292.7,152.19,286.9Z"/><path class="cls-2" d="M153.67,307.49l-3.52-6.71C153.53,298.94,153.7,305,153.67,307.49Z"/><path d="M149.68,317.36c-1-1.56-.67-8.08-2.27-4.13-.69-1.07-.55-2.33-.53-3.67C147.71,314,151.85,309.82,149.68,317.36Z"/><path d="M146.88,309.56a9.68,9.68,0,0,1-.18-1.89A7.62,7.62,0,0,1,146.88,309.56Z"/><path class="cls-2" d="M131.61,239.5c-.48.81-.93.78-1.35.43Z"/><path d="M145.89,330.76l0,2.51a14.22,14.22,0,0,0-.17-2Z"/><path d="M113.27,122.38c-1.07,8.76-2.22,17.07.09,29.72,4.39-.29,1.23,5.09,5.86,5.83-.61-13.12,2.75,49.39,4.69,38.93l-2-3.13,4.6,3.25c-1.16,6.28-4.83,14.88-2.18,19.15-1.45,1.18-.26-53.56-1.56-51.49,5.31-4.85,5.14,73.28,7.52,75.29l-2.8.87c3,9.71,7,15.94,9,24.1l-3.38,1.85c1.11-6-1.19-7.62-2.65-13.73.63,10.59-1.45,12.51-.78,20.59,4.38-.29,2.14-6.94,4.59,3.24-1.84,2.93-6.65-3.84-5.74,5.26-1.17,11,5.3,8.8,5.69,18.39L135.8,294c.21,3.53,1.16,10.12-1.21,13.53.31-4-2.14-14.2-6.53-13.91,1,4.07-.68,13-.47,16.58l-3.06-2.16c-2.89,3.88,1.46,6.11-1.18,11,1.75,4.61,4.42-2.81,5.68-.23-1,1-2.71,9.93-.69,13,6.48-2.19-1.92-10.65,4.35-16.38l-1.15,8.5c6.38,5.34-.08-13.59,5-10.83,6.62,6.38-6.36,13.29,2.07,19.22,1.6-3.94,1.76-16.51,4.07-14.9-2.4,4.44,2.15,7.62,3,13.74l-3,7.4c2,3.13,2.05.61,3.37-1.84-3.75,10.88.65,29.21-3.93,44.58.91,9.11,2.82,1.15,5.09,5.29-3.93,4.84-.69,13-.75,18.06-.28,1.5,3.55,4.21,5.12,2.78l-2.41-12.7c2.05.62,5.43-1.24,5-5.78-7.52,3.14,4.62-17.89-3.88-18.81l3.87.18-2.63-16.23-.52.48c1.28.06-2.67-13.72-1-22.69,1.26,2.58-.23,17.59,4,8.75,2.23,6.65-1.27,18.56.38,30.7l2.61-2.37c3.7,12.76-1.16,29.63-.31,43.75l-3.56-4.2c-1.35,5-4.27,11.36-1.24,16-.18-6.05,1.85-2.94,3.38-1.85,1.95,8.15-.26,20.12,1.14,31.26,0,0-.77-.54-1.29-.07l2.17,11.68c-.58,5.51-2.67,7.41-5,10.81.49,2,.42,7.09,2.52,5.17a7.46,7.46,0,0,0,.19-2.89c3.9,5.9-1.15,4.13,1.24,11.51-3.28-5.7-4.67,1.78-8,1.11,1.44,8.63,5.93.8,7.46,1.88-1.93,10.48-4.79,11.83-5.44,22.37,2.05.6,1.39-7.47,3.71-8.37-.55,3-.34,6.52.43,7.06l1.63-6.46a94.4,94.4,0,0,0-2.27,16.37l0,.22v0l0,.08,0,.17a1.66,1.66,0,0,0,0,.32,2.25,2.25,0,0,0,.1.64,1.33,1.33,0,0,0,.81.87l1.05-.69-.1.75a36.07,36.07,0,0,1-3.84,2.48c.31.06.19.41,0,.88a9.73,9.73,0,0,0-.62,1.39c.22.11.75-.11,1.94-1.22a2.7,2.7,0,0,1,0-.28,19.26,19.26,0,0,0,1.91-1.15,35.53,35.53,0,0,1-4.37,3.64c.07.41.8.25,1.69-.21a14.61,14.61,0,0,0,2.85-2,17.74,17.74,0,0,0,2.11-2.27c.49-.6.72-1,.94-.79a4.49,4.49,0,0,1-.5,2.56,3.47,3.47,0,0,1-1.53,1.06,13.87,13.87,0,0,0-2.37,1.31,18.51,18.51,0,0,0-3.53,3.3,2.71,2.71,0,0,0,1.73,1.34,2.33,2.33,0,0,0,2.51-.78c.43-1.8-.34-1.86-1.16-1.92a5.19,5.19,0,0,1,2.81-1.13,5.62,5.62,0,0,1,1.16.1l.59.11.15,0,.5.05,1,.08c5.32.42,10.23.54,13.25-2.28l-6.85-2.4c8.09-.38,13,6.83,15.87,3.1L175,538c8.32-2.94,18.81-1.91,26.57-4.11.34-3.84-11.07-.28-10.5-1l3.75-2.65c11.88,2.64,3.33,2.48,17.71,5.26l.23-2.58c4.69,4.11,17.9-3,12.78,3.73l-3.87-1.73.22,3.1,16.79-1.5c-1.71,2.25,6.39,1.87,4.11,4.86l6.27-2.53c2.64,4.51-11.52,4.85-12.29,8.17.14,2,3,1.88,4.48,1.65-7.54,3-10.92-4.81-18.3-5.17l-3.77,2.65.34-3.85a12.91,12.91,0,0,0-7,4.56c-7.1-5.52-15.17.54-26.14-1,9.23-1.87-5.71-3.9-4.12-4.85-5-.25-17.68,6.1-21.79,1.24-2.87-1.95,6.26-2.53-.71-3.64-2.71.13-3.08.74-3.84,1.5a2,2,0,0,0-.1,2.68,47,47,0,0,1-8.13.29c-2.81-.1-5.59-.32-8.32-.5.05-1.65.07-3.25.05-4.78a15.85,15.85,0,0,0,2.54-.36c1.08-2.74.74-4.07-.22-5.32a19.62,19.62,0,0,0-3.94-3.31c1.05-.87.28-1,1.81-.64,1.06-1.59,1.26-2.58,1-3.61a18.92,18.92,0,0,0-1.9-5.05c-1.72-3.55-3.86-7.8-3.38-15.07-3.62.83-4,7.35-2.22,11.95l-4.11-1.2c-.16,12.57.69,27,3.13,33.7a15,15,0,0,1-3-1.78c-1.66,3.94-1.84,6-1.45,6.8,1.91-.38,3.89-1.54,5.53-2a3.5,3.5,0,0,1,2.25-.08,4.34,4.34,0,0,1,2,2c3.6-.6,2.74-1.17,1.9-1.76s-1.74-1.23.94-2c1.52.64.22,2.38-.74,4s-1.42,3.16,2.68,3.44c-5.86.17-12,.24-18.48.25-.27-6.5-.46-13.35-.61-20.38-.11-6.62-.22-13.31-.33-20-.17-12-.28-24.05-.55-35.67-.77-.54-1,1-1.32,2.45-5.55-9.83,9.36-89.05-1.43-91.6,1.57-1.43,3.31,3.18,3.13-2.86-.77-.55-1.78-2.1-3.34-.67,5.87-15.31-.32-35.74,3.53-54.16-1.8.41-2.79-3.66-4.07-3.73,4.21-6.32-.3-17.11,2.1-23l-2.09,1.91V291.23c-.77-.55-.8,2-1.08,3.47-1-4.07,1.36-5,3.16-5.37L116.33,281c7.53-24.27-4.19-54.54.56-82.48-3.56-4.19-5.06-7.79-5.48-14.86l-1.08,3.47c-3-7.19,1.81-.42.34-6.53-2.27-4.14-5.4-1.26-3.4,4.37-1.22,3.52-2.46,1.35-3.33-1.17C104.31,161.42,106.72,140.54,113.27,122.38Z"/><path d="M546,597c-2.37-1.76,9.68-1.12,3.91-4.94-18.49-7.66-49.15-3.19-71.16-9.49-5.82-2.94-7.39-3.07-12.68-4.73a3.94,3.94,0,0,0,.07,2c-6-.46-15.86.23-21.83-1.74-1.75.68-3.11,3.44.2,2.89-9.28,2.12-15.66-5.78-20.92-3.76,4.39,2-4.54,2.5.74,4.17-9.65,0-8.42-9.82-16-11.27-.48.76-1,1.53.55,1.82-8.15-4.56-25.59,1.52-26.25-5.46l-3.46,2.77c-3.57-2.4-2.61-3.92-8.66-5.08-4,.95.06,2.58-1.43,3.58-1.57-2.87-12.25-2-16.95-6.1-.12-4.39,8.41,6.18,13.36,2.41.18-.86-.5-1.14-1.48-1.28,25.17,2,43.93,14.94,64.79,12.41,4.44,3.25,8.05.5,10.19-2.45-3.69-1.53-14.26-4.85-14.73,1.26l-6.34-4.21c-2.48.21-2.2-6-3.22-7,4.54.87,9.94-4.95,3.85-7.39,12.06-.27-4.35,12.88,6.36,11.7l1.72-4.37c-2.1,2.29,7,4.68,10.54,3.32l-1.4-.93c28.28,3.12,66.19,2.52,97.6,2.21,7.3,11.26,23.14-3,30.06,6.15,3.51-1.36-4.77-4.08,1.9-5.18,3.34-.55,3.53,2.34,3.35,3.15l3.07-.77C573.76,581.46,567.61,590.74,546,597Z"/><path class="cls-1" d="M518.66,118.56a20.78,20.78,0,0,1,8.52-2,15.7,15.7,0,0,1,4.25.59c1.45.42,2.25,1.09,2.09,2,.31-1.93.45-2.89,1.89-3.72s4.16-1.52,10.13-2.89c-1,2.57,8.76,1.87,15.08,1.66-2-.92-4.76-1.46-8.88-1.85s-9.52-.61-16.87-.92a23.37,23.37,0,0,1-2.72.88c-.47.13-.95.24-1.44.34l-.74.14a4.46,4.46,0,0,0-.48.13,17.61,17.61,0,0,1-3.8.51,63.29,63.29,0,0,1-8.51-.58c-5.82-.66-11.59-1.24-15.17,1.8C507.2,116.1,512.27,120,518.66,118.56Z"/><path class="cls-1" d="M551.7,135.49,554,134q-7.59,1.22-14.11,2.42a30.14,30.14,0,0,1,7.29-1.59C550,134.49,552.23,134.58,551.7,135.49Z"/><path d="M561.61,170.48c-2.82-1.2-4.45,5.55-7,5.42,5.68-.25,1.16,10.58,1.87,16.41l4.35,2.34c1.58-2.82,2-7.8,2.13-13.59.05-2.89,0-6,0-9.11,0-1.56,0-3.13,0-4.69,0-.78,0-1.55,0-2.32l.06-2.36Z"/><path class="cls-1" d="M558.38,181.36l2.79,3.82C560.44,182,560,174.61,558.38,181.36Z"/><path class="cls-1" d="M573.7,173.2c.37-9.45-1.88,5.69-2.79-3.83C571.64,172.57,571.85,176.26,573.7,173.2Z"/><polygon points="564.95 212.75 562.88 192.65 560.98 200.96 564.95 212.75"/><path d="M555.66,213.85c0-2.63,1.63-6.76,3.13-3-3.44,7.19,1.41,11.65-1.52,18.35l-1.46-6.4c-3.62.88,3.7,13.35-2.74,13,4.53,8.65,5.49-6.57,8.71,4.66-1.16-10.59.22-18.41,1.36-27.3-1.32,2.57-1.07,3.62-2.15,7.25-.18-6.32-2.14-14.84-2.56-22.23C554.26,202.2,558.05,207.65,555.66,213.85Z"/><path d="M554.75,245.9c-.35,6.83-.48,17.35,4.4,19.17,3.44-7.19-.67-8.46-2.69-11.71.79-2.07,1.14-8.89,3.69-6.12C559.1,248.24,556.59,242.83,554.75,245.9Z"/><path d="M553.9,272.69l4.32,5-.73-3.19,3.09-.38c-.77-.56-6.4-3-6.06-9.78C552.15,267.86,555,269.08,553.9,272.69Z"/><path d="M575.28,274.33c-2.13,4.63-.86,7.33.36,12.65-.43-7.4-.3-17.9-2.07-20.12l.76.59a63.9,63.9,0,0,0-5.27-11.87C572.06,263.12,567.52,276.56,575.28,274.33Z"/><path d="M575.65,264.88l2.52,5.39Z"/><polygon points="554.93 293.8 556.34 283.36 555.02 285.91 554.93 293.8"/><path d="M568,281.33c-.62,8.37,3.41-4.57,3.32,3.31.49,2.13-.12-11.57-2.18-12.21C568.32,274.49,571.59,280.46,568,281.33Z"/><path d="M554.58,300.62l3.25,8.59Z"/><path d="M552.51,322.1l2.31,1.69c-1.91,8.32,1.3,19.55-3.68,25.6,2.86-1.42,5.89,3.46,6.75-3.86-1.53-1.13-1.5-3.75-3.31-3.33.56-3.12,2.61-2.48,3.42-4.57-2.52-5.37-.61-13.7-2.88-18,.5,2.12,0,2.63-.3,4.18-4-9.15,5.8-10.75-.86-14.76C556,312.27,551.54,317.83,552.51,322.1Z"/><path d="M568.25,321.34l.86-7.34c3.07,2.28.15,9,3,10.17,1.81-.45,2.68-7.75,3.93-5.07-7.2-.9-.39-10-8.43-6.22-.91-9.52,4.42-2.93,4-13l-3.83-2.83C569.7,308.25,566.33,310.18,568.25,321.34Z"/><path d="M567.12,349.69l-2.36,3.56,3.38-1.93c.57,16.36-13.29,25.95-11.34,35.84,4.57,12.34-2.22,23.82-1.53,36.4,2.93,6.14,1.72-5.89,3.52-6.53,5.7,1.76-3,6,1.67,8.84,4.14.8,4.46-12.9,6.95-18.3-.58-4.71-1.87-4.64-4.21-6.07,2.31-1.19,3-6,5.32-7.17-3.25-9.81,2.87-14.94-.62-24.59,3.14-3,.62,7.23,1.08,4l-.07-5.26-.51.56c-3.2-7.16-.23-20.38,1.89-25-1.08,3.61-3.68,6.13-4.66,1.86l3.65-3.5L564,333.21C567.5,340.24,560.44,348.31,567.12,349.69Z"/><path d="M573.7,339.51c1.94-11-5.44,1.3-3.74-10.71l.36,12.65Z"/><path class="cls-1" d="M564.61,391.93l-2.5,5.42C567.22,394.4,560.39,385.88,564.61,391.93Z"/><polygon class="cls-1" points="564.65 411.93 559.96 409.06 562.61 414.17 564.65 411.93"/><path d="M559,430.18c2.38,4.06,4.37-.8,3.79-5.51C562.58,428.92,560.54,431.13,559,430.18Z"/><path class="cls-1" d="M550,460.23c0-9.18-1.17,8.15-5.39,1.55C546.56,463,549.22,467.63,550,460.23Z"/><path d="M538.85,490c-.89-3.33-.06-4.68,1.08-5.13C539.83,487.25,539.57,489.18,538.85,490Z"/><path d="M553.36,375.32a20.32,20.32,0,0,1,.12-3.22C553.44,373.2,553.4,374.23,553.36,375.32Z"/><path d="M553.27,377.43l.09-2.11A19.1,19.1,0,0,1,553.27,377.43Z"/><path d="M543.22,445.66s0,0,0,0c.16-.24.26-.47.45-.72Z"/><path d="M555.37,155.51a17.17,17.17,0,0,1-.29-3.59c.11,1.18.21,2.37.32,3.54C555.39,155.49,555.38,155.49,555.37,155.51Z"/><path d="M561.87,148.17a7,7,0,0,1,.2,5,20.21,20.21,0,0,1-2.33,4.55,23.27,23.27,0,0,0-2.49,4.78,14.79,14.79,0,0,0-.27,7.22c-.15-1.23-.31-2.48-.46-3.74s-.27-2.47-.41-3.72c-.26-2.29-.49-4.55-.71-6.79,1.17-1.89,1.91-2.72,2.42-2.89s.81.27,1.07.65.52.67,1,.13S560.87,151.44,561.87,148.17Z"/><path d="M567.43,251.39a3.59,3.59,0,0,0,.14.43C567.73,252.56,567.58,252.18,567.43,251.39Z"/><polygon class="cls-1" points="243.03 136.03 242.96 137.32 236.22 135.68 243.03 136.03"/><path class="cls-1" d="M244,138.36l11.45,2.46-67.89.75,2.2-1.78C188.79,137.46,246,140.45,244,138.36Z"/><path class="cls-1" d="M247.23,136.33c6.59-5.33,11,1.95,19-1.82-5.4,2.52-9.23,5.3-14.43,4Z"/><path class="cls-2" d="M269.87,126.05c3.63,1.07,8-1.2,10-.39C278.61,129.76,273,126.6,269.87,126.05Z"/><path d="M279.62,110.44a7.88,7.88,0,0,1,1.68,0,12.42,12.42,0,0,0-1.72.77Z"/><path d="M279.58,111.17l-.1,1.85C278.3,112.3,278.63,111.72,279.58,111.17Z"/><path d="M281.3,110.4a17.92,17.92,0,0,0,4.2-2l-1.56-.28c2.13-.49,5.89-2,6.9-.94-4.2-.31-4.27,1-4.39,3.55l6.82.35C292,117.26,287.37,110.8,281.3,110.4Z"/><path class="cls-2" d="M302.84,108.92l-7,3.52C293.89,109.07,300.22,108.89,302.84,108.92Z"/><path d="M313.17,112.91c-1.63,1-8.46.68-4.33,2.28-1.11.69-2.44.54-3.84.53C309.62,114.88,305.28,110.74,313.17,112.91Z"/><path d="M305,115.72a9.67,9.67,0,0,1-2,.17A7.8,7.8,0,0,1,305,115.72Z"/><path class="cls-2" d="M231.72,131c.85.48.82.92.45,1.34Z"/><path d="M327.19,116.7l2.62,0a15.7,15.7,0,0,0-2.12.17Z"/><path d="M109.2,149.32c9.17,1.07,17.86,2.23,31.1-.08-.31-4.4,5.32-1.24,6.09-5.86-13.72.6,51.67-2.75,40.73-4.7l-3.28,2,3.4-4.6c6.58,1.16,15.57,4.83,20,2.19,1.22,1.44-56,.25-53.87,1.55-5.07-5.31,76.65-5.14,78.76-7.52l.91,2.8c10.16-3,16.67-7,25.21-9l1.93,3.38c-6.26-1.11-8,1.19-14.36,2.65,11.08-.63,13.09,1.46,21.54.78-.3-4.38-7.26-2.14,3.39-4.59,3.06,1.84-4,6.65,5.5,5.74,11.51,1.18,9.21-5.3,19.24-5.69l-6.76-1.63c3.69-.22,10.59-1.16,14.15,1.2-4.19-.31-14.85,2.14-14.55,6.53,4.26-1,13.65.68,17.35.47l-2.26,3.06c4.05,2.89,6.38-1.46,11.51,1.18,4.83-1.74-2.93-4.42-.24-5.68,1,1.05,10.39,2.71,13.65.69-2.29-6.47-11.15,1.92-17.14-4.34l8.89,1.14c5.58-6.38-14.22.09-11.33-5,6.67-6.62,13.9,6.36,20.1-2.07-4.11-1.6-17.26-1.76-15.58-4.06,4.64,2.39,8-2.15,14.37-3l7.75,3c3.27-2,.63-2.06-1.93-3.38,11.38,3.75,30.56-.65,46.64,3.93,9.52-.91,1.19-2.82,5.52-5.08,5.07,3.92,13.64.68,18.9.74,1.57.28,4.4-3.55,2.9-5.12l-13.28,2.42c.64-2.06-1.3-5.43-6.05-5,3.29,7.52-18.71-4.61-19.67,3.88l.19-3.86-17,2.63.5.52c.07-1.29-14.35,2.66-23.73,1,2.7-1.25,18.4.23,9.15-4,7-2.23,19.41,1.27,32.11-.38l-2.48-2.61c13.35-3.69,31,1.16,45.77.31l-4.39,3.56c5.19,1.35,11.88,4.28,16.77,1.24-6.32.18-3.07-1.84-1.93-3.38,8.53-1.95,21,.27,32.7-1.14,0,0-.57.77-.07,1.3l12.21-2.18c5.77.59,7.75,2.68,11.31,5,2.14-.49,7.41-.42,5.4-2.51a7.91,7.91,0,0,0-3-.19c6.17-3.9,4.32,1.14,12-1.25-6,3.28,1.86,4.67,1.15,8,9-1.44.84-5.93,2-7.46,11,1.94,12.38,4.79,23.4,5.44.63-2-7.82-1.38-8.75-3.71,3.13.55,6.82.34,7.39-.43l-6.76-1.63a103.8,103.8,0,0,0,17.12,2.28l.74,0,1,0,2,0,4,0c2.71,0,5.45,0,8.24-.1,5.58-.13,11.38-.4,17.59-.81l-1.28-1,15,.09q-4.32,1.92-8.26,3.84a31.16,31.16,0,0,1,6.91,0c2.09.21,4,.52,5.82.62-.13,2.66.08,4.6,1.28,5.14l.28-3.08,1.22,8.72c-1.27-2.42-2.53-4.62-3.8-6.57a31.89,31.89,0,0,0,.28,9.33c.5,3.09,1.31,6.32,2.15,10s1.71,7.77,2.34,12.37a91.34,91.34,0,0,1,.83,14.93c-1.3,1.14-2.06-.56-2.58-3.6s-.8-7.49-1.12-12.06a103,103,0,0,0-1.4-12.62c-.7-3.38-1.75-5.37-3.42-4.74a111,111,0,0,0-1.27,11.28c-.19,3.71,0,6.92.86,8.44,1.82-1.23,1.85-5.67,1.88-10.09a61.11,61.11,0,0,1,1.23,13c0,2.4,0,4.85,0,7.29,0,1.22-.07,2.44-.1,3.65,0,.73-.06,1.46-.09,2.17-.23,5.59-.17,10.72,2.76,13.77l2.15-7.25c.67,8.44-6.36,13.87-2.52,16.71l-6.63-6.66c3.25,8.58,2.6,19.6,5.08,27.62,3.85.21-.12-11.58.65-11l2.79,3.83c-2.22,12.51-2.37,3.57-4.62,18.71l2.58.14c-3.93,5.06,3.63,18.6-3.26,13.5l1.59-4.11-3.09.35,2.1,17.49c-2.3-1.7-1.63,6.75-4.7,4.49l2.76,6.45c-4.42,2.94-5.27-11.85-8.61-12.54-2,.23-1.78,3.26-1.49,4.75-3.26-7.77,4.41-11.6,4.51-19.32l-2.79-3.85,3.86.21a13.6,13.6,0,0,0-4.81-7.09c5.25-7.63-1.1-15.84.08-27.36,2.2,9.57,3.69-6.13,4.7-4.49.06-5.26-6.74-18.25-2-22.74,1.85-3.07,2.76,6.45,3.62-.87q-.09-.9-.24-1.71c-.1-.56-.23-.94-.37-1.75a12.08,12.08,0,0,0-1-3.21c-.79-1.44-1.76-1.31-2.68.87-.45-5.67-.59-11.62-.59-17.84s.13-12.69.2-19.1c-3.46,0-6.92-.07-10.35,0,1.88-.84,3.85-1.69,5.89-2.54-4.39-1.08-10.14-.73-15.11.23a47.71,47.71,0,0,0-12.07,3.93c-1.09-1-2-.28-.21-1.81a18.06,18.06,0,0,0-8.2-1,20.43,20.43,0,0,0-5.3,1.9c-3.7,1.73-8.15,3.86-15.76,3.38.87,3.62,7.69,4,12.5,2.22L520,133.53a234.81,234.81,0,0,0,41.89-3.13q-4.21,1.51-7.92,3a3.75,3.75,0,0,0,4.09,1.51c.4,1.08,1.66.79,2.26,1.59a2.83,2.83,0,0,1,.21,2.23,21.66,21.66,0,0,1-1.92,5.13c.73,2.67,1.26,1.29,1.82-.51s1.17-3.93,2-1.86c-.59,2.9-2.37,3.59-4,4.68a6.39,6.39,0,0,0-3.35,5.72c-.38-4.36-.68-8.68-.92-13.09-5.25.27-10.36.46-15.42.6l-7.56.19-9.06.15c-12.53.17-25.09.27-37.22.54-.57.77,1,1.05,2.56,1.33-10.28,5.54-93.14-9.37-95.81,1.43-1.49-1.57,3.33-3.32-3-3.14-.58.77-2.2,1.78-.71,3.35-16-5.87-37.38.31-56.65-3.54.43,1.81-3.83,2.79-3.9,4.08-6.61-4.21-17.9.29-24.09-2.11l2,2.09-19.48,0c-.58.76,2.07.79,3.63,1.07-4.26,1-5.2-1.35-5.62-3.16l-8.66,4.53c-25.4-7.53-57.05,4.19-86.28-.56-4.39,3.56-8.15,5.06-15.55,5.49l3.63,1.07c-7.52,3-.44-1.81-6.83-.34-4.33,2.27-1.32,5.4,4.57,3.41,3.68,1.21,1.41,2.45-1.23,3.32C150,158.28,128.2,155.88,109.2,149.32Z"/><path d="M530.09,571.73c1.68-2.54,1.48,10.08,5.08,3.91,7-19.63,1.41-51.51,6.91-74.75,2.73-6.2,2.79-7.85,4.26-13.43a3.78,3.78,0,0,0-2,.14c.25-6.33-.79-16.57.95-22.89-.74-1.8-3.55-3.12-2.88.33-2.45-9.62,5.22-16.6,3-22-1.85,4.67-2.66-4.65-4.14.94-.38-10.09,9.51-9.18,10.69-17.15-.78-.47-1.57-1-1.8.65,4.26-8.7-2.46-26.7,4.5-27.66l-2.9-3.51c2.27-3.82,3.83-2.87,4.77-9.24-1.09-4.15-2.58.17-3.63-1.35,2.81-1.75,1.55-12.89,5.48-18,4.39-.29-5.87,9-1.93,14.06.87.16,1.13-.57,1.23-1.6-1.07,26.39-13.33,46.5-10,68.2-3.09,4.77-.21,8.44,2.82,10.56,1.39-3.92,4.33-15.09-1.8-15.35l4-6.79c-.3-2.58,5.88-2.52,6.9-3.63-.71,4.79,5.31,10.2,7.53,3.75.7,12.59-13-4.06-11.47,7.09l4.44,1.63c-2.38-2.11-4.43,7.54-2.94,11.15l.88-1.5c-2.1,29.68-.13,69.28,1.33,102.11-11,8.06,3.86,24.07-5.06,31.66,1.48,3.61,3.91-5.15,5.25,1.79.67,3.46-2.21,3.78-3,3.62.28,1,.57,2.1.87,3.18C546.65,600.19,537.14,594.12,530.09,571.73Z"/><path class="cls-1" d="M415.87,208.12c1.49-2.52,2.59-3.61,1.58.45a43.32,43.32,0,0,1,2.29-7c-.57,2.7.15,1.87.5,1.61,0-1.86-.28-2.14-.67-2.7-1,3-1.43,2.31-1.59,1.68s-.18-1.23-2.17,2.16c-.13.71-.54,2.11-.67,3.1S415.16,209,415.87,208.12Z"/><path class="cls-1" d="M419,224.77l.43-1.61c-1.25,1-2.6,2-4.05,3.06C416.42,224.79,419,222.94,419,224.77Z"/><path d="M430.25,218.88c.11,2.83,2.17,4.16,2.53,6.72-.93-5.6,2.67-1.58,4.13-2.52l0-4.4c-2-2.89-5.62-1-8.93-.85Z"/><path class="cls-1" d="M433.67,221.62l.6-2.92C433.53,219.56,431.61,220.28,433.67,221.62Z"/><path class="cls-1" d="M429.14,206.82c-2.59,0,1.82,1.62-.6,2.92C429.29,208.88,430.25,208.52,429.14,206.82Z"/><path d="M440.57,213.91c-.64.45-1.32.9-2,1.36L436,216.7l2.52,1.54A28.42,28.42,0,0,0,440.57,213.91Z"/><path d="M443.19,222.91a2.08,2.08,0,0,1-1.63-2.92c1.4,1.53,2.2,1,2.86.53s1.22-1.1,2.75.14c-.42.56-.86,1.12-1.34,1.69.74,1.72,1.49.67,2.22,0s1.5-1,2.94,2c.33-2.35-.92-3.54-1.84-4.62s-1.6-2-1-3.75a4.64,4.64,0,0,1-3.44.71,21.23,21.23,0,0,1-3.6-1c.95,1.18,1.13.91,2.37,1.81a7.94,7.94,0,0,0-2.44,1.58,12,12,0,0,1-2.85,1.82c.86,2,1.48,2,2.26,1.73A2.28,2.28,0,0,1,443.19,222.91Z"/><path d="M453.35,222.27c2.28,0,5.84-.42,2.73-4.88-2.2-1.4-2.56-1.18-2.43-.34s.8,2.29,1,3.3c-1.13-.64-3.22-.67-3.88-3.14a6.75,6.75,0,0,1,.95,2.28A5.4,5.4,0,0,0,453.35,222.27Z"/><path d="M462.31,221.75q-.93-2.06-2.05-4.06-.13.39-.3.78l-2.6-2.73a31.61,31.61,0,0,1,2.05,3.18c.72,1.37,1,2.66-.2,2.68,1.41,1,1.73.81,1.9.5S461.32,221.35,462.31,221.75Z"/><path d="M445.51,202.7c2.31,1.79,1.72.61,1.2-.55-.5.51-1.85.58-.84,2.22l-.49-.69s.79,2.13,1.82,5c-.31-1.47.79-1.25,1.32-1.54S448.82,206.11,445.51,202.7Z"/><path d="M444.09,202.54c-.4-.79-.83-1.57-1.31-2.34C443.26,201,443.69,201.75,444.09,202.54Z"/><path d="M468,219.83c-1.54-.24-3-.49-4.48-.74l2,1Z"/><path d="M452.75,209c1.07.15.07-.56-1-1.33s-2.08-1.61-1.42-1.66c-.11-.48-1.66.38-.2,2.23.5.32.36-.28.46-.56S451.08,207.4,452.75,209Z"/><path d="M468.72,218.31c-1.08-1.78-2.17-3.47-3.25-5.07C466.55,214.84,467.64,216.53,468.72,218.31Z"/><path d="M470.79,212.8l-2.31-1.93c1-.75.63-2.52.69-4s.5-2.59,3-2.75a24.77,24.77,0,0,1-4.12-1.55c-1.23-.47-2.2-.61-2.63.26,1.53.91,1.5,1.7,3.31,2.33-.56.75-2.61-.36-3.42-.14a5.37,5.37,0,0,1,1.53,3.51,5.48,5.48,0,0,0,1.35,3.41c-.49-1,0-.79.3-1.12,2,2.66.56,2.69-.56,2.53s-1.91-.34,1.42,2.71c-1-1.25-.41-1.48.33-1.75S471.28,213.81,470.79,212.8Z"/><path d="M455.05,203.39a10.43,10.43,0,0,1-.86.79c-1.54-1.25-1.57-1.63-1.58-2s0-.67-1.39-1.59c-1.81-1-2.68-.58-3.93-1.72,3.6,2.33,3.7,2.79,3.9,3.21s.51.89,4.53,3.34c.91,2.51-4.42-2.63-4-.75q1.92,1.78,3.84,3.66c-1-1.86-.6-2.13-.24-2.51S456,205.05,455.05,203.39Z"/><path d="M456.18,198.45c.79,0,1.57.06,2.36.05-1.12-.22-2.25-.45-3.38-.71-.14-.82.62-1.26,1.81-1.68s2.8-.79,4.38-1.26c3.15-.9,6.12-2.31,5.15-3.8-4.57-3.37,2.22-6.48,1.53-9.91-2.93-1.67-1.72,1.61-3.52,1.78-5.7-.48,3-1.63-1.67-2.4-4.14-.22-4.46,3.5-6.95,5,.58,1.28,1.87,1.26,4.21,1.65-2.31.33-3,1.63-5.31,2a2,2,0,0,1,1,1.8A2.22,2.22,0,0,1,455,192c-.69.68-1.35,1.18.4,2.36-3.14,0-.61-1.4-1.08-.91l.07,1h.51c1.6.94,1.66,2.07,1.05,2.82a3.67,3.67,0,0,1-2.93,1.08c1.07-.14,3.68.21,4.66,1.49-1.22-.22-2.44-.49-3.66-.79a67.13,67.13,0,0,1,5.31,4.32c-1.77-1.67-.88-2-.39-2.52S459.52,199.76,456.18,198.45Z"/><path d="M449.6,197.55c-1,.28.39.89,1.78,1.55s2.81,1.35,2,2l-.36-2.34C451.85,198.35,450.73,198,449.6,197.55Z"/><path class="cls-1" d="M458.69,189.75l2.5-1.48C456.08,189.07,462.91,191.39,458.69,189.75Z"/><polygon class="cls-1" points="458.65 184.31 463.34 185.09 460.69 183.7 458.65 184.31"/><path d="M464.32,179.34c-2.38-1.1-4.37.22-3.79,1.5C460.72,179.69,462.76,179.08,464.32,179.34Z"/><path class="cls-1" d="M473.35,171.17c0,2.5,1.16-2.22,5.38-.42C476.74,170.42,474.08,169.16,473.35,171.17Z"/><path d="M484.45,163.08c.9.91.06,1.27-1.07,1.4A1.49,1.49,0,0,1,484.45,163.08Z"/><path d="M469.94,194.93a2.11,2.11,0,0,1-.12,1C469.85,195.61,469.91,195.28,469.94,194.93Z"/><path d="M470,194.25l-.09.68A2,2,0,0,1,470,194.25Z"/><path d="M480.08,175.13h0c-.16.07-.26.13-.45.2Z"/><path d="M426.87,225.72a2.29,2.29,0,0,1-1.21.47c.41-.17.86-.33,1.19-.5Z"/><path d="M424.64,219.48c.68-1.62,1.51,0,2.49,1.77s2.14,3.56,3.62,2.24a29.18,29.18,0,0,1-3.9,2.2c-1.32-2.17-1-2.84-.85-3.41S426.17,221.26,424.64,219.48Z"/><path d="M447.43,210.35c0-.06,0-.07,0-.14S447.49,210.19,447.43,210.35Z"/><polygon class="cls-1" points="389.87 170.19 388.57 170.17 390.21 168.34 389.87 170.19"/><path class="cls-1" d="M387.53,170.44l-2.46,3.12-.74-18.47,1.78.6C388.44,155.44,385.44,171,387.53,170.44Z"/><path class="cls-1" d="M389.56,171.33c5.33,1.79-1.94,3,1.82,5.18-2.51-1.47-5.3-2.51-3.94-3.92Z"/><path class="cls-2" d="M399.85,177.49c-1.08,1,1.19,2.16.39,2.72C396.13,179.87,399.29,178.34,399.85,177.49Z"/><path d="M415.45,180.14a.62.62,0,0,1,0,.46,4.82,4.82,0,0,0-.77-.47Z"/><path d="M414.72,180.13l-1.84,0A2,2,0,0,1,414.72,180.13Z"/><path d="M415.49,180.6a7.81,7.81,0,0,0,1.95,1.14l.28-.42c.49.58,2,1.6.95,1.87.31-1.14-1-1.16-3.56-1.19l-.34,1.85C408.64,183.5,415.1,182.25,415.49,180.6Z"/><path class="cls-2" d="M417,186.46l-3.52-1.91C416.83,184,417,185.74,417,186.46Z"/><path d="M413,189.27c-1-.45-.67-2.3-2.27-1.18-.69-.3-.55-.66-.53-1C411,188.3,415.15,187.12,413,189.27Z"/><path d="M410.18,187.05a.94.94,0,0,1-.18-.54A.74.74,0,0,1,410.18,187.05Z"/><path class="cls-2" d="M394.91,167.11a2,2,0,0,1-1.35.12Z"/><path d="M409.19,193l0,.3c0-.09-.08-.16-.17-.24Z"/><path d="M376.57,133.79c-1.07,2.49-2.22,4.86.09,8.46,4.39-.09,1.23,1.44,5.86,1.65-.61-3.73,2.75,14.06,4.69,11.08l-2-.89,4.6.93c-1.16,1.78-4.83,4.23-2.18,5.44-1.45.34-.26-15.24-1.56-14.65,5.31-1.38,5.14,20.85,7.52,21.42l-2.8.25c3,2.76,7,4.54,9,6.86l-3.37.52c1.1-1.7-1.2-2.16-2.66-3.9.63,3-1.45,3.56-.78,5.86,4.38-.09,2.14-2,4.59.92-1.84.83-6.65-1.09-5.74,1.49-1.17,3.14,5.3,2.51,5.69,5.24l1.64-1.84c.21,1,1.16,2.88-1.21,3.85.31-1.14-2.14-4-6.53-4,1,1.16-.68,3.71-.47,4.72l-3.06-.62c-2.89,1.11,1.46,1.74-1.18,3.14,1.75,1.31,4.42-.8,5.68-.07-1,.28-2.71,2.82-.69,3.72,6.48-.64-1.92-3,4.35-4.67l-1.15,2.42c6.38,1.52-.08-3.87,5-3.08,3.31.91,1.72,1.85.36,2.78-.69.46-1.31.92-1.24,1.37,0,.23.25.45.71.67a8.77,8.77,0,0,0,2.24.45,2.47,2.47,0,0,0,.54-.34,4.76,4.76,0,0,0,.45-.66c.27-.49.51-1,.78-1.52.53-1,1.14-1.75,2.3-1.52-1.2.63-.66,1.17.28,1.77.47.3,1,.62,1.54,1a5.55,5.55,0,0,1,.69.55c.19.19.36.44.46.48a25.34,25.34,0,0,0-3,1.13c2,.28,2.05-.12,3.37-.48-1.87.77-1.71,1.84-1.65,2.84s0,2-2.28,4.32c.46.48,1.16.12,2-.4a16.4,16.4,0,0,1,3-1.55c-2,1.33-2.14,1.9-1.83,2.1s1.11.05,1.08.35c-.28.41,3.55-2.22,5.12-3.51a11.71,11.71,0,0,1-2.41.7c2.05-1.26,5.43-3.47,5-3.34-3.76,2.26-2.6,1.25-1.57.48s1.94-1.28-2.31.3l3.86-1.49a8.53,8.53,0,0,1-2.62,0l-.52.15c.64-.15,0-.2-.64-.45s-1.19-.73-.36-1.11c.63.09.57.41.89.6s1,.12,3.12-.31c1.12,0,.8.15.41.44s-.86.73,0,.64c.87-.37,1.74-.73,2.61-1.06,1.85-.64,1.56-.71.91-.29s-1.65,1.24-1.22,1c-1.19.93-2.37,1.81-3.56,2.64a28.55,28.55,0,0,0-2.26,2.29c-.52.63-.5.87,1-.38-.18-.21,1.85-1.77,3.38-3.13.88-.69.91-.68.81-.47s-.33.58,0,.29c.1-.09.22-.21.38-.38l-1.26,1.5a32.61,32.61,0,0,0,2.2-2.54c-.45.66-2.1,3-3.7,5.67a11.27,11.27,0,0,0,2.06-2.86c.1-.22.22-.43.05-.2,1.49-2.2,1.25-1.88,1-1.35s-.68,1.26.15-.08c-1.08,1.83-1.87,3.13-2.55,4.42s-1.28,2.59-2.32,4.44a17.23,17.23,0,0,0,2.48-4.12c.8-1.63,1.64-3.29,2.12-4.14-.87,2.1-2.07,5.17-1.52,5.75.81-2.2,0-1.41,1.06-3.92-.12.57.14.32.45-.5.14-.58.3-1.15.5-1.73-.89,2.63-.14,3.17.52,1.4l.11-1.07.18.07c-.11,1.31-.25,2.63-.42,3.95.16-.53.24.08.36.41s.25.4.29-1.16l-.08-.27a11.65,11.65,0,0,0,.22-1.27c0,1.29-.1,2.58-.24,3.88.26.79.59-.84.65-2.56,0-.42,0-.86,0-1.26v-.59c.13-.2.28-.4.42-.58a2.5,2.5,0,0,1,2-1.14c.71,2.51-.5,3.16-1.8,4l-.25.16,0,.14-.08.32c-.05.23-.1.51-.15.87a24.66,24.66,0,0,0-.1,3.48,2.46,2.46,0,0,0,.82,1.17c.29.14.43-.05.71-1a3.35,3.35,0,0,0-.35-1c-.13-.24-.3-.39-.33-.51a.36.36,0,0,0-.37-.22,4.42,4.42,0,0,1,.21-1s0-.05,0-.07l.12-.08.26-.14a5.05,5.05,0,0,1,.55-.18A10.56,10.56,0,0,1,426,201c1.54,0,2.91-.29,3.28-3.3L427,195.91c2.17-1,4.7,5.71,4.88,1.8l-.78,6.82a8.07,8.07,0,0,1,3.34-3.37l.9-.55.45-.29.21-.15c.09,0,.15-.1.15-.15a4.29,4.29,0,0,0,.25-1.44c-.43-1.88-.56-1.83-.65-1.4l0,.18c0,.06-.14.15-.21.22l-.42.43c-.24.24-.4.37-.39.18l.61-2.92a14.28,14.28,0,0,1,.92,2.18,5.18,5.18,0,0,0,1.38,2.14l-.82-2.48c.79,1.86.87.93.84.39s0-.72,1.41,2.56c-.36-.48-.7-1-1-1.46l1.3,2.94a8.68,8.68,0,0,0,.59-2.23c1.13,2.16,1.6,1.41,3.25,4.26a24.34,24.34,0,0,0-1-2.63,9.78,9.78,0,0,1,2.46,4.38,10.78,10.78,0,0,0,1.07,3.79c1.16,1.87,1.64,1.54,1.75,1.24.21,1.62-1.08.7-2.38-.64s-2.67-3.1-3.27-3.05c.2.91.37,1.82.5,2.74l-1.47-3.68a23.11,23.11,0,0,0,.56,4.78c-1.55-2.42-2-2.07-2.62-1.19a6.91,6.91,0,0,1-1.06,1.44,2.64,2.64,0,0,1-2.14.56c2.24-2.57-2.2-3.39-1.92-4.45-1.42.15-3.88,7.41-5.8,2.95-1.11-1.7,1.31-3-.79-3.54-1.21.65-1.78,2.78-.67,4.48a8.26,8.26,0,0,1-2.11.85,6.29,6.29,0,0,1-1.51.27,25.26,25.26,0,0,0-3,.25c.23-.9.45-1.79.64-2.68-.45-1-.93-.59-1.56.48s-1.39,2.78-2.08,4.3c.06-1.07-.21-.26.35-1.88-.25-2.11-1-.67-2.23,1.27s-3,4.37-4.44,4.1c-1.63,3.92,0,4,1.79,2l-1.87,4.45c3.45-.37,7.78-1.9,10.38-4.77-.42,1.09-.89,2.18-1.39,3.28,1.06,2.64,1.68,1.19,2.07-.12s.69-2.51,2,.46c.82-.87.44-1.34.06-1.86a1.58,1.58,0,0,1-.26-2c.58.51.67,2.3.84,4s.43,3.18,1.62,3.13a85.2,85.2,0,0,1-14.23,3.94c-5,1-10.13,1.91-15.24,3-.73.88-.4,1.11-.06,1.34-2.74,2.56-7.53,2.43-11.86,1.82,1-5.89,2.35-11.93,2.56-15.81.11-2-.05-3.43-.67-4.23s-1.66-1-3.33-.11c1.57-1.44,3.31-.88,3.13-2.86a6.57,6.57,0,0,0-3.34,1.66c2.93-4.51,2.85-7.33,2.52-10.55a37.53,37.53,0,0,1-.34-4.93,10.46,10.46,0,0,1,1.35-5.06c-1.8.24-2.79-1.21-4.07-1.25,4.21-1.91-.29-4.9,2.1-6.61l-2.09.55v-5.3c-.77-.16-.8.56-1.08,1-1-1.16,1.36-1.42,3.16-1.53l-4.53-2.36c7.53-6.9-4.19-15.51.56-23.46-3.56-1.2-5.06-2.22-5.48-4.23l-1.08,1c-3-2,1.81-.11.34-1.85-2.27-1.18-5.4-.36-3.4,1.24-1.22,1-2.46.38-3.33-.33C367.61,144.9,370,139,376.57,133.79Z"/><path d="M493.21,140.84c-1.68.69-1.48-2.74-5.08-1.06-7,5.34-1.41,14-6.91,20.33a15,15,0,0,0-4.26,3.66,13.73,13.73,0,0,0,2-.05c-.25,1.73.8,4.51-1,6.23.74.49,3.55.85,2.88-.09,2.45,2.62-5.21,4.52-3,6,1.85-1.27,2.66,1.27,4.14-.25.38,2.74-9.51,2.49-10.68,4.66.77.13,1.56.26,1.79-.18-4.26,2.37,2.46,7.26-4.5,7.52l2.9,1c-2.27,1-3.83.77-4.77,2.53,1.09,1.27,2.58,0,3.63.46-1.4.27-1.79,1.27-2.32,2.35a4,4,0,0,1-3.16,2.58c-2.19-.38-.73-.67.8-1.3s3.1-1.66,1.13-2.53c-.87-.09-1.13.1-1.23.39a8.82,8.82,0,0,1,.87-2.72,16.9,16.9,0,0,1,1.61-2.48c1.25-1.61,2.78-3.15,4.18-4.66,2.79-3,5-5.84,3.4-8.79,3.08-1.3.2-2.3-2.82-2.87-1.4,1.06-4.34,4.1,1.79,4.17l-4,1.85c.3.7-5.88.68-6.9,1,.71-1.3-5.31-2.77-7.53-1-.7-3.42,13,1.11,11.47-1.92l-4.43-.45c2.37.58,4.42-2,2.93-3l-.88.41c2.1-8.07.13-18.85-1.33-27.77,11-2.2-3.86-6.55,5.06-8.61-1.48-1-3.91,1.39-5.25-.49-.67-.94,2.21-1,3-1l-.88-.86C476.65,133.1,486.16,134.75,493.21,140.84Z"/><path class="cls-1" d="M316.56,297c1.28-2.86,5.45-5.3,6.65-1.63-1.2-3.67-1.2-3.67.93-7.35.79,2.45,3.3.82,5,0-2.05-1.23-4.13-.82-8.29,0-1.74,6.53-12,1.22-13.38,8.16C310.34,296.57,314,299.43,316.56,297Z"/><path class="cls-1" d="M338.4,307.2l0-1.63L333,310.06C333.82,308.43,337.59,305.57,338.4,307.2Z"/><path d="M357.21,296.18c.38,2.86,4.1,3.27,4.9,5.72-2-5.31,4.6-2.85,7.1-4.49l-.35-4.49c-3.71-2-10,1.63-15.8,3.26Z"/><path class="cls-1" d="M363.41,297.41l.87-3.27C363,295.37,359.69,297,363.41,297.41Z"/><path class="cls-1" d="M354.45,284.33c-4.57,1.23,3.31.82-.86,3.27C354.84,286.38,356.51,285.56,354.45,284.33Z"/><polygon points="376 285.98 367.22 291.29 371.78 291.69 376 285.98"/><path d="M379.62,294.56c-1.24.41-3.72-.41-2.46-2.46,4.54,2,5-3.26,9.15-1.62l-2.52,2.44c1.62,3.27,5-5.71,7,.41,2.56-5.71-4.92-4.08-.71-9-4.6,2.86-8.75,2.86-13.31,3.26,1.65.82,2.06.41,4.13.82-2.91,1.23-6.28,4.49-9.61,6.12C374.6,297.82,375.9,293.33,379.62,294.56Z"/><path d="M395,290.07c3.33-.81,8.33-2.44,7.56-7.35-4.54-2-3.76,2-4.62,4.5-1.24-.41-4.57.4-4.11-2.46C394.67,285.58,393,288.84,395,290.07Z"/><path d="M407.92,286.4l.9-4.9-1.26,1.22-1.21-2.85c0,.81.75,6.53-2.58,7.35C406.23,288.85,405.86,286,407.92,286.4Z"/><path d="M401.56,266c2.88,1.24,3.74-.41,5.83-2.44-3.34,1.63-8.33,3.26-8.78,5.3l0-.81A28.54,28.54,0,0,0,394.8,275C397.35,270.87,405.2,272.92,401.56,266Z"/><path d="M397,267.2l1.7-3.27Z"/><polygon points="417.52 281.91 412.13 282.32 413.77 283.14 417.52 281.91"/><path d="M407.29,271.7c4.15-.82-3.29-2.45.45-3.68.85-.82-5.41,2-5,4.08C404,272.51,405.67,268.43,407.29,271.7Z"/><path d="M420.85,281.1l3-4.5Z"/><path d="M431.65,279.47l0-2.46c4.56.41,8.77-4.49,13.28-.81-1.62-2.45-.33-6.12-4.06-5.71,0,1.63-1.27,2-.47,3.67-1.66,0-2-2.05-3.29-2.45-1.69,3.26-6.25,2.85-7.53,5.71.83-.82,1.25-.41,2.07-.41-3,5.31-7-3.67-6.67,3.27C425.87,277.83,430,281.1,431.65,279.47Z"/><path d="M426.05,264.76l-3.75.41c.05-3.27,4.17-1.64,3.79-4.5-.81-1.63-4.54-1.22-3.7-2.85,2,6.94-4.59,2-.11,9-4.18,2.45-2.86-3.68-7.45-1.64l-.05,4.09C419.4,265.57,421.43,268.43,426.05,264.76Z"/><path d="M439.77,261.09l2.47,1.64-2-2.87c7.51-3.26,16.66,8.2,20.66,4.71,4.29-6.36,12-1.88,17.66-4.63,1.91-3.79-3.35-.64-4.25-2.22-1.08-5.68,3.82,1.83,3.6-3.06-1-4-7.56-2-10.94-3.5-2,1.34-1.56,2.54-1.45,5-1.33-2-3.82-1.83-5.15-3.81-3.54,4.69-8-.22-11.38,4.68-2.46-2.45,3.2-1.78,1.54-1.69l-2.45.95.43.39c-2.3,4.21-9.52,3.62-12.4,2.39,2.06.41,4.11,2.44,2.43,4.08l-2.87-2.86-2.57,6.54C435.19,262.31,441.35,267.63,439.77,261.09Z"/><path d="M432.78,256.59c-5.81,0,2.43,4.91-3.8,5.31l5.84-2.45Z"/><path class="cls-1" d="M460.5,256.42l3.39,1.44C460.79,253.54,459.06,261.4,460.5,256.42Z"/><polygon class="cls-1" points="469.91 253.04 470.12 257.94 471.64 254.59 469.91 253.04"/><path d="M480.39,255.34c1.12-2.92-1.83-4-3.85-2.65A3,3,0,0,1,480.39,255.34Z"/><path class="cls-1" d="M497.56,258.83c-4.32,1.55,4.23-.25,2.53,4.82C500,261.58,501.29,258.29,497.56,258.83Z"/><path d="M515.27,264.34c-1.26,1.4-2.18.84-2.77-.16C513.67,263.87,514.66,263.79,515.27,264.34Z"/><path d="M456.44,269.79a5,5,0,0,1-1.56.42C455.4,270.05,455.91,269.94,456.44,269.79Z"/><path d="M457.46,269.52l-1,.27A4.56,4.56,0,0,1,457.46,269.52Z"/><path d="M493,267.61h0a3.81,3.81,0,0,1-.49-.3Z"/><path d="M351.71,304.76a6.48,6.48,0,0,1-1.92,1c.63-.33,1.27-.65,1.88-1Z"/><path d="M347.2,299.45c2.55-4.09,6.16,5.3,11.19,1.23-2.1,1.43-4.37,2.76-6.72,4.05C346.81,301.49,353.39,301.49,347.2,299.45Z"/><path d="M393.37,277.2c.05-.08.11-.11.16-.2C393.82,276.72,393.69,276.93,393.37,277.2Z"/><polygon class="cls-1" points="192.58 359.43 192.98 360.66 189.25 360.24 192.58 359.43"/><path class="cls-1" d="M193.8,361.47l6.21.41-31.72,12,.44-2C167.51,369.82,195.44,363.1,193.8,361.47Z"/><path class="cls-1" d="M194.66,359c1.32-6.12,5.8,0,8.35-4.89-1.7,3.27-2.57,6.54-5.47,6.12Z"/><path class="cls-2" d="M201.88,345.54c2.07.41,3.35-2.45,4.59-2C207.24,347.58,203.54,345.54,201.88,345.54Z"/><path d="M201.27,329.2a1.88,1.88,0,0,1,.78-.31,5.72,5.72,0,0,0-.56,1Z"/><path d="M201.49,329.9l.57,1.75A1.26,1.26,0,0,1,201.49,329.9Z"/><path d="M202.05,328.89a8.63,8.63,0,0,0,1.32-2.55h-.83c.85-.81,2.12-2.85,2.94-2-2.08.41-1.68,1.63-.88,4.09l3.32-.82C209.36,333.57,205,328.24,202.05,328.89Z"/><path class="cls-2" d="M211.7,323.9l-2.13,4.49C207.53,325.53,210.45,324.31,211.7,323.9Z"/><path d="M217.89,325.94c-.43,1.23-3.75,2-1.27,2.86-.3.84-1,.92-1.64,1.14C216.88,328.38,213.45,325.21,217.89,325.94Z"/><path d="M215,329.94a2.62,2.62,0,0,1-.87.5A2.14,2.14,0,0,1,215,329.94Z"/><path class="cls-2" d="M185.57,356.56a1.15,1.15,0,0,1,.66,1.19Z"/><path d="M225.76,327.17l1.25-.41a3.56,3.56,0,0,0-.94.52Z"/><path d="M134,394.28c4.67-.52,9.15-.88,14.62-5.27-1.62-4.09,2.09-2.05.91-6.54-6.26,2.86,23.41-11.21,17.61-11.21l-.86,2.45.06-4.9c3.49,0,8.95,1.95,10.17-1.28,1.06,1.15-26.31,9.58-24.85,10.45-4.17-4.16,34.38-17.63,34.58-20.23l1.36,2.49c3.79-4.49,5.51-9.39,8.88-12.66l2,2.86c-3.32,0-3.36,2.45-5.88,4.9,5-2.45,6.65-.81,10.4-2.86-1.6-4.08-4.13-.81.07-4.89,2.06,1.22.33,6.94,4.5,4.49,5.82-.81,2.57-6.53,7.16-8.58l-3.72-.41c1.67-.81,4.6-2.86,7.06-1.22-2.07.41-6.28,4.49-4.67,8.58,1.68-1.64,6.66-1.63,8.33-2.45l0,3.26c2.87,2.05,2.51-2.44,5.81-.81,1.69-2.45-2.86-3.68-2-5.31.82.82,5.8.82,6.66-1.63-3.24-5.72-4.61,3.67-9.52-1.23l4.57-.41c.5-6.94-6.67,2.45-7-2.86.93-7.35,8.67,3.68,8.78-5.3-2.48-.82-8.72,1.22-8.7-1.23,3,1.48,3-3.36,5.78-5.2l4.64,1.52c.87-2.45-.38-2-2-2.85,6.61,1.63,14.17-5.71,23.27-4.08,4.18-2.45-.37-2.86.91-5.72,3.69,2.86,6.65-1.62,9.15-2.44.83,0,.88-4.09-.35-5.31l-5.44,4.49c-.39-2.05-2.43-4.9-4.51-3.69,4.06,6.55-10.36-1.22-8,6.95l-1.2-3.68-7.12,5.31.41.41c-.4-1.22-5.87,4.9-10.85,4.89.85-1.63,8.75-2.85,3-5.3,2.53-3.27,9.57-2,15-5.71l-2-2.05c5.05-5.71,15-4.08,21.66-7.34l-.88,4.08c2.9.41,7,2.05,8.31-1.63-2.92,1.23-2.06-1.22-2-2.86,3.37-3.26,10-3.26,15-6.53a2,2,0,0,0,.4,1.23l5-4.08c2.91-.41,4.54,1.22,7,2.86.84-.82,3.35-1.64,1.7-3.27-.6,0-1.2,0-1.48.32,1.6-4.7,2.41.36,5.25-3.18-1.71,4.09,2.44,4.09,3.22,7.36,3.78-2.86-1.58-5.72-1.56-7.36,5.81,0,7.43,2.46,12.84,1.23-.39-2-4.15,0-5.36-2,1.66,0,3.32-.81,3.33-1.63l-3.72-.41a25.82,25.82,0,0,0,17.06-4.49l-.82-.82,3.75-1.22-.06,4.09c1.68-1.64,5,.81,5-2.45h-.83l2.1-2-1.31,4.49c3.73.41,5.5-8.58,10.91-9.8,2.85,4.49-8.35,4.89-6.78,11.43,2.07.41,5.38.42,5.83-1.63-.82-1.64-2.06-1.23-3.31-.82,3.38-4.89,12.05-2,13-8.57l-4.14-.82c3.75-2,8.66,3.68,8.71-.4l-.92,7.35c3-4.49,8.36-5.72,11.32-9.39-1.2-3.67-5.42,2-5.41,1.22l.87-3.26c6.63,0,2.47,1.63,10.35,1.22l-.79-2.45c3.69,2.86,7.54-6.53,7.44.82l-2.47-.81,1.2,2.86,7.54-4.91c0,2.46,3.72.42,3.68,3.69l2.12-3.68c2.86,3.67-3.82,6.94-3,10.21.78,1.87,2.13,1.13,2.73.61-2.57,4.37-6.93-2.22-10.6-1l-.88,3.26-1.19-3.67c-1.27,1.22-1.72,4.08-1.74,5.71-5.34-3.67-7.09,3.68-12.91,4.49,3.77-3.67-4.12-2.45-3.68-3.67-2.5.81-6.35,9.39-10,5.71-2.06-1.23,2.11-3.68-1.62-3.27-2.09,1.23-3,3.68-.89,4.9-4.6,2.86-10.84,4.09-16.26,6.12l.46-2.86c-4.14-.81-6.28,3.68-7.14,7-.82-.82-.83,0-.81-1.63-5.78-2.46-3.83,6.93-11.31,8.56,1.62,3.27,4.94,2.46,6.63,0l.78,4.08c6.25-2,12.92-5.3,17.12-9.39L338,305.16c6.18,3.68,1.33-6.12,7.49-1.63,2.52-2.45-2.89-1.23-1.2-3.68,2.53.36,1.83,6.9,5.49,5.88-12.7,6.7-28.07,11.79-41.87,17.39,0,.82.82.81,1.65.82-3,6.94-47,6.7-44.65,17.33-1.23-1.23.46-3.68-2.45-2.46,0,.82-.44,2.05.78,3.27-9.5-2.86-17.5,6.53-27.86,6.12.8,1.63-.87,3.27-.48,4.49-4.52-2.86-8.33,3.26-12,2l1.65,1.64-9.18,3.26c0,.82,1.24.4,2.07.4-1.67,1.64-2.9-.41-3.7-2l-2.57,5.72c-14.47-2.86-25.46,13.47-40.82,13.86-.87,4.09-2.14,6.14-5.49,7.77l2.07.41c-2.54,4.08-.81-1.64-3.33.81-1.28,2.87,1.18,5.31,3.29,2.45,2.14.53,1.49,2.08.53,3.34C156.21,395.92,145.13,397.29,134,394.28Z"/><path d="M556.71,259c-1.76-1.16,4.25-3.08.14-5.44-11.58-3.32-24.73,7.26-37.51,6-3.83-1.53-4.63-1.32-7.75-1.77a7.42,7.42,0,0,0,.74,1.87c-3.06.82-7.54,3.51-11.1,2.92-.6,1-.28,3.87,1.12,2.66-3.71,3.92-9.56-2.14-11.37.85,2.81,1-1.3,3.29,1.82,3.74-4.62,2-7.5-7.43-11.64-7.21,0,.81.07,1.64.9,1.59-5.51-2.56-11.75,6.77-14.52.37l-.69,3.32c-2.56-1.5-2.63-3.13-5.94-3-1.59,1.72.93,2.41.57,3.65-1.76-2.35-6.59.69-10.29-2.17-1.6-4.09,6.21,4,7.27-.53-.22-.84-.65-1-1.16-.89,12.78-3.39,26.35,4.81,35.47-1.9,3.28,2.11,4-1.21,4-4.42-2.31-.66-8.55-1.56-6.63,4.25l-4.52-2.61c-1.12.71-3.15-5.13-4-5.9,2.49-.13,3-6.71-.74-7.72,5.69-2.77,2.43,13,7.16,9.62l-.71-4.45c-.2,2.59,5,2.91,6.23.91l-1-.58c14.68-3,32.67-11.44,47.65-18.29,7.46,9,10-7.66,16.6-.51,1.2-2-3.73-2.83-.91-5.24,1.41-1.21,2.51,1.45,2.71,2.24l1.21-1.35C564.58,238.6,564.9,248.58,556.71,259Z"/><path class="cls-1" d="M386.55,490.21c.68-2.64,3.53-4.62,4.76-1-1.23-3.66-1.23-3.66,0-7,.82,2.45,2.52,1.1,3.67.47-1.63-1.38-3.12-1.18-6.12-.78-.67,6.16-8.77.07-9.12,6.66C381.92,489.24,384.92,492.35,386.55,490.21Z"/><path class="cls-1" d="M403.62,502.12l-.14-1.57-3.6,3.84C400.36,502.89,402.88,500.47,403.62,502.12Z"/><path d="M416.48,493.21c.55,2.8,3.33,3.54,4.15,6-2-5.32,3.13-2.34,4.83-3.69l-.67-4.38c-2.94-2.31-7.22.66-11.37,1.7Z"/><path class="cls-1" d="M421.18,495l.34-3.07C420.7,493,418.39,494.23,421.18,495Z"/><path class="cls-1" d="M413.35,481.5c-3.26.76,2.52,1.09-.34,3.08C413.83,483.51,415,482.88,413.35,481.5Z"/><polygon points="429.41 485.09 423.42 489.4 426.82 490.22 429.41 485.09"/><path d="M432.88,493.72a1.87,1.87,0,0,1-2-2.6c3.54,2.4,3.4-2.7,6.6-.73l-1.64,2.13c1.5,3.32,3.2-5,5.24,1.06,1.36-5.29-4-4.41-1.36-8.76-3.13,2.34-6.19,1.95-9.52,1.92,1.29.94,1.56.59,3.13,1.18-2,.91-4.22,3.76-6.53,5C429.48,496.41,430,492.19,432.88,493.72Z"/><path d="M443.83,490.81c2.39-.48,5.92-1.6,4.9-6.41-3.54-2.4-2.59,1.63-3,3.92-1-.51-3.34,0-3.27-2.76C443.16,486.43,442.2,489.43,443.83,490.81Z"/><path d="M453,488.46l.2-4.66-.81,1.06L451.25,482c.07.79,1.16,6.39-1.23,6.87C452,490.67,451.46,487.86,453,488.46Z"/><path d="M446.42,468.11c2.25,1.46,2.72-.05,4.08-1.83-2.31,1.27-5.85,2.39-6,4.32l-.06-.79a24,24,0,0,0-2.18,6.36C443.77,472.46,449.75,475.16,446.42,468.11Z"/><path d="M443.16,468.87l.95-3Z"/><polygon points="459.68 485 455.74 484.9 457.03 485.84 459.68 485"/><path d="M451.19,474.17c3-.4-2.66-2.67,0-3.51.54-.71-3.81,1.47-3.33,3.48C448.8,474.65,449.69,470.86,451.19,474.17Z"/><path d="M462.06,484.52l1.77-4.07Z"/><path d="M469.89,484l-.21-2.38c3.4.83,6.06-3.52,9.74.46-1.43-2.53-.82-6-3.54-5.91.13,1.58-.75,1.85,0,3.51-1.23-.16-1.7-2.17-2.66-2.68-1,3-4.35,2.19-5,4.83.54-.71.89-.28,1.49-.21-1.7,4.87-5.5-4.2-4.62,2.55C465.47,481.83,468.8,485.37,469.89,484Z"/><path d="M464.39,469.21l-2.73,0c-.27-3.16,2.93-1.19,2.38-4-.75-1.66-3.46-1.61-3-3.11,2.11,6.9-3.2,1.55.75,8.68-2.86,2-2.45-3.83-5.65-2.27l.34,3.94C459.55,469.38,461.32,472.33,464.39,469.21Z"/><path d="M474.18,466.93l2,1.81-1.77-3c5.25-2.46,13.06,9.47,15.69,6.47,2.58-5.76,8.66-.71,12.61-2.84,1.06-3.49-2.54-.93-3.35-2.55-1.32-5.58,3,2.13,2.38-2.62-1.12-4-5.77-2.68-8.4-4.4-1.37,1.11-.92,2.31-.61,4.69-1.17-2-3-2.13-4.16-4.17-2.17,4.21-5.92-.95-8,3.47-2.05-2.6,2.19-1.42,1-1.49l-1.72.69.35.42c-1.31,3.86-6.69,2.61-8.93,1.16,1.55.59,3.26,2.75,2.17,4.17l-2.38-3-1.29,6.09C470.91,467.68,476,473.4,474.18,466.93Z"/><path d="M468.6,461.93c-4.29-.54,2.25,5-2.31,4.78l4.08-1.83Z"/><path class="cls-1" d="M489.05,464.33l2.64,1.71C489,461.57,488.45,469,489.05,464.33Z"/><polygon class="cls-1" points="495.68 461.94 496.29 466.69 497.11 463.59 495.68 461.94"/><path d="M503.63,465.13c.56-2.72-1.72-4-3.09-2.92C502,461.89,503.43,463.55,503.63,465.13Z"/><path class="cls-1" d="M516.63,470.1c-3,1.1,3.1.15,2.31,4.9C518.68,473,519.33,469.93,516.63,470.1Z"/><path d="M530.22,477.07c-.81,1.24-1.53.61-2.06-.41A1.94,1.94,0,0,1,530.22,477.07Z"/><path d="M487.29,476.89a2.62,2.62,0,0,1-1.11.26C486.55,477.05,486.92,477,487.29,476.89Z"/><path d="M488,476.72l-.73.17A2.08,2.08,0,0,1,488,476.72Z"/><path d="M514,478.17h0c-.13-.12-.24-.19-.38-.34Z"/><path d="M413.22,501a3.29,3.29,0,0,1-1.33.77c.44-.26.88-.51,1.3-.79Z"/><path d="M409.4,495.44c1.51-3.71,5,5.7,8.38,2.23a44.28,44.28,0,0,1-4.59,3.3C409.3,497.38,414.16,498,409.4,495.44Z"/><path d="M441.42,478.21c0-.08.07-.1.1-.18C441.71,477.78,441.63,478,441.42,478.21Z"/><polygon class="cls-1" points="300.82 539.11 301.23 540.34 298.44 539.59 300.82 539.11"/><path class="cls-1" d="M301.91,541.2l4.62,1-22.3,8.68.14-1.93C283.28,546.84,303.27,542.93,301.91,541.2Z"/><path class="cls-1" d="M302.31,538.91c.41-5.8,4.29.54,5.72-4-.95,3-1.29,6.08-3.48,5.41Z"/><path class="cls-2" d="M306.4,526.55c1.56.58,2.25-2.06,3.19-1.55C310.55,529,307.62,526.7,306.4,526.55Z"/><path d="M304.43,510.69a1,1,0,0,1,.55-.23,4.59,4.59,0,0,0-.32.92Z"/><path d="M304.66,511.38l.58,1.75A1.64,1.64,0,0,1,304.66,511.38Z"/><path d="M305,510.46a8,8,0,0,0,.74-2.34l-.61-.08c.54-.71,1.29-2.57,2-1.7-1.5.2-1.09,1.42-.27,3.87l2.38-.48C310.81,515.66,307.12,510.11,305,510.46Z"/><path class="cls-2" d="M311.64,506.52l-1.16,4.15C308.71,507.71,310.76,506.8,311.64,506.52Z"/><path d="M316.4,509.07c-.2,1.15-2.58,1.63-.68,2.65-.14.79-.63.8-1.1.95C315.88,511.34,313.06,508,316.4,509.07Z"/><path d="M314.62,512.67a1.35,1.35,0,0,1-.6.4A1.2,1.2,0,0,1,314.62,512.67Z"/><path class="cls-2" d="M295.38,535.69a1.5,1.5,0,0,1,.59,1.22Z"/><path d="M322.32,511l.88-.28a2.13,2.13,0,0,0-.64.41Z"/><path d="M260.8,567.39c3.4-.07,6.67,0,10.3-3.74-1.57-4.11,1.36-1.79.07-6.24-4.36,2.18,16.24-8.67,12-9.21l-.41,2.29-.41-4.73c2.57.32,6.79,2.72,7.39-.3.89,1.21-18.53,6.83-17.38,7.8-3.46-4.41,23.75-13.86,23.65-16.35l1.24,2.53c2.38-4,3.2-8.57,5.38-11.42l1.77,3c-2.45-.31-2.25,2.06-3.88,4.2,3.47-1.9,4.83-.17,7.41-1.8-1.56-4.1-3.12-1.17-.41-4.73,1.64,1.37.89,6.74,3.75,4.76,4.21-.25,1.29-6.08,4.49-7.63l-2.79-.74c1.16-.64,3.13-2.34,5.1-.53-1.49.2-4.22,3.76-2.65,7.86,1.08-1.42,4.76-1,5.92-1.59l.27,3.15c2.31,2.25,1.63-2.13,4.22-.24,1-2.22-2.45-3.83-2-5.33.69.87,4.36,1.33,4.76-1-2.92-5.83-3.05,3.13-7.14-2.07l3.34,0c-.28-6.67-4.7,1.75-5.45-3.42,0-7,6.74,4.36,6-4.31-1.9-1-6.32.37-6.53-2,2.34,1.71,1.92-3,3.78-4.5l3.57,1.91c.41-2.29-.48-2-1.77-2.95,5,2.19,9.94-4.21,16.81-1.78,2.86-2-.55-2.8.13-5.45,3,3.11,4.76-1,6.53-1.52.61.08.28-3.87-.74-5.16L343.48,500c-.47-2-2.25-5-3.67-4,3.6,6.71-7.76-2.14-5.24,6l-1.23-3.67-4.76,4.48.34.43c-.41-1.22-3.88,4.2-7.55,3.73.47-1.5,6.19-2,1.7-4.86,1.57-2.92,6.87-1.08,10.54-4.13l-1.7-2.17c3.2-5.05,10.69-2.55,15.31-5.09l-.27,3.87c2.18.66,5.38,2.63,6-.81-2,.91-1.64-1.38-1.77-2.95,2.18-2.85,7.08-2.23,10.48-4.93a2.81,2.81,0,0,0,.41,1.23l3.33-3.49c2.11-.12,3.47,1.61,5.44,3.42.55-.71,2.32-1.27.95-3-.44-.06-.88-.11-1.06.17.75-4.4,1.81.57,3.58-2.58-.88,3.79,2.18,4.18,3.06,7.41,2.52-2.42-1.7-5.68-1.83-7.26,4.29.54,5.71,3.06,9.59,2.38-.48-2-3.06-.39-4.15-2.47,1.23.15,2.38-.48,2.31-1.27l-2.79-.74c4.63,1,8.51.29,12.18-2.76l-.68-.87,2.66-.83.34,3.94c1.08-1.42,3.74,1.25,3.47-1.9l-.62-.08,1.37-1.78-.55,4.23c2.79.74,3.27-7.79,7.14-8.47,2.52,4.61-5.71,4-3.94,10.43,1.56.59,4,.9,4.15-1-.75-1.66-1.63-1.38-2.52-1.1,2-4.42,8.71-.85,8.78-7.08l-3.13-1.18c2.58-1.63,6.73,4.36,6.4.42v7c1.77-4.07,5.65-4.75,7.49-8-1.22-3.66-3.81,1.47-3.88.68l.34-3.08c4.89.62,2,1.81,7.76,2.15l-.82-2.45c3,3.11,5-5.61,5.58,1.49l-1.9-1,1.15,2.88,5.1-4c.21,2.38,2.79.75,3.06,3.91l1.23-3.36c2.45,3.82-2.18,6.36-1.29,9.59.75,1.88,1.67,1.29,2.07.85-1.49,4-5.32-2.8-7.92-2l-.35,3.08-1.22-3.66c-.82,1.06-.88,3.79-.75,5.36-4.29-4.05-4.89,2.9-9.12,3.15,2.45-3.2-3.26-2.76-3.06-3.9-1.76.56-3.81,8.5-6.87,4.59-1.63-1.37,1.22-3.35-1.5-3.3a2.92,2.92,0,0,0-.2,4.65c-3.13,2.34-7.62,2.95-11.43,4.42l.07-2.73c-3.13-1.17-4.29,3-4.63,6.05-.68-.86-.61-.08-.75-1.65-4.49-2.91-2.18,6.36-7.55,7.24,1.5,3.31,3.88,2.83,4.89.62l1,4c4.42-1.4,9.05-3.93,11.77-7.49l-.62,3.43c4.91,4.13.42-5.79,5.38-.88,1.64-2.14-2.24-1.45-1.22-3.67,1.9.58,2,6.85,4.59,6.2-8.75,5.3-19.62,8.8-29.29,12.93.07.79.68.87,1.29.95-1.56,6.43-34.07,2.13-31.35,12.62-1-1.3,0-3.52-2-2.6a4.74,4.74,0,0,0,.88,3.23c-7.28-3.65-12.31,4.7-20,3.33.75,1.66-.34,3.09.07,4.31-3.61-3.19-5.85,2.38-8.71.85l1.36,1.73-6.47,2.31c.07.79,1,.51,1.57.58-1.09,1.43-2.18-.66-2.92-2.31L314.91,545c-11-4.1-17.55,10.67-28.85,9.63-.27,3.87-1,5.73-3.33,7l1.57.59c-1.5,3.71-.75-1.66-2.39.48-.68,2.65,1.37,5.24,2.66,2.67,1.63.71,1.29,2.15.7,3.28C277.36,571,269.3,571.33,260.8,567.39Z"/><path d="M560.31,475.71c-1.41-1.28,2.85-2.58-.4-5.25-8.86-4.28-17.58,4.73-27.14,2.28-3-1.84-3.54-1.71-5.89-2.43a10.1,10.1,0,0,0,.72,1.87c-2.18.52-5.24,2.71-7.92,1.8-.35.92.15,3.71,1.07,2.68-2.38,3.44-7.25-3-8.31-.24,2.17,1.19-.66,3.06,1.69,3.79-3.22,1.55-6.22-7.88-9.26-8,.1.79.2,1.59.81,1.62-4.31-3-8.05,5.45-10.69-1l-.2,3.15c-2-1.69-2.23-3.27-4.66-3.41-1,1.51.92,2.41.76,3.58-1.52-2.44-4.79.06-7.79-3.06-1.56-4.09,5,4.47,5.31.17-.24-.84-.56-1-.94-1,9.12-2.1,19.9,7.1,26,1.45,2.62,2.35,2.87-.8,2.57-3.9-1.77-.86-6.46-2.31-4.5,3.5L508,470.35c-.76.58-2.8-5.25-3.51-6.08,1.82.1,1.61-6.2-1.27-7.54,3.95-2.14,3,12.76,6.18,10l-.94-4.36c.09,2.48,4,3.28,4.69,1.45l-.79-.65c10.55-1.51,23-8,33.47-13.27,6.35,9.41,6.71-6.48,12.21,1,.7-1.82-3-3.08-1.16-5.15.93-1,2,1.64,2.21,2.42.26-.39.51-.79.77-1.2C564.23,456.75,565.39,466.43,560.31,475.71Z"/></svg>