<svg id="Capa_1" data-name="Capa 1" xmlns="http://www.w3.org/2000/svg" viewBox="0 0 681 681"><defs><style>.cls-1{fill:#fff;}.cls-2{fill:none;stroke:#000;stroke-linecap:round;stroke-linejoin:round;stroke-width:0;}</style></defs><title>iconos_home2</title><path class="cls-1" d="M141.31,513.81a19.19,19.19,0,0,1,2,8.14,13.3,13.3,0,0,1-.13,1.95c0,.15-.06.29-.08.43s-.07.15-.11.24a1.58,1.58,0,0,1-.27.32,3.19,3.19,0,0,1-2.05.77,12.91,12.91,0,0,1,3.72,0c.83.19,1.52.71,2.9,1.19-2.58.67-1.88,2.5-1.67,3.5a11.35,11.35,0,0,0,1.85-2.63,19.41,19.41,0,0,0,.92-2.65,3.24,3.24,0,0,1-.88-.31,1.63,1.63,0,0,1-.34-.21c-.1-.1-.19-.06-.27-.43a16.14,16.14,0,0,1-.51-3.63,58.05,58.05,0,0,1,.58-8.14c.66-5.56,1.24-11.07-1.8-14.49C143.77,502.86,139.84,507.7,141.31,513.81Z"/><path class="cls-1" d="M124.38,548c.51,0,1,0,1.54-.07q-1.22-5.43-2.42-11.89a21.74,21.74,0,0,1,1.59,6.27C125.38,544.7,125.29,547.05,124.38,548Z"/><path d="M161.05,551.6c-1.25,2.77,5.14,4.63,4.92,7.21,0-5.68,10.16-.79,15.75-1.29l2.39-4.27c-2.64-1.68-7.38-2.3-12.9-2.6-2.76-.16-5.72-.23-8.71-.32l-4.48-.15-2.22-.1-2.07-.14.82.21.92.2,1.86.42Z"/><path class="cls-1" d="M171.33,555.2l3.75-2.65C172,553.17,164.94,553.34,171.33,555.2Z"/><path class="cls-1" d="M164.08,539.61c-9-.7,5.37,2.07-3.75,2.66C163.41,541.64,166.94,541.56,164.08,539.61Z"/><polygon points="201.55 549.73 182.27 551.1 190.15 553.29 201.55 549.73"/><path d="M202.27,559.05c-2.51-.12-6.4-1.86-2.76-3.24,6.75,3.7,11.19-1,17.48,2.16l-6.16,1.24c.7,3.65,12.88-3.23,12.33,3.19,8.43-4.23-6.08-5.71,4.77-8.54-10.16.79-17.58-.86-26-2.31,2.41,1.41,3.42,1.2,6.85,2.4-6,0-14.26,1.62-21.33,1.79C191.09,560.05,196.43,556.44,202.27,559.05Z"/><path d="M232.86,561.07c6.5.59,16.55,1.08,18.47-3.73-6.74-3.69-8.11.37-11.29,2.29-1.95-.87-8.45-1.46-5.71-3.91C235.25,556.81,230,559.12,232.86,561.07Z"/><path d="M258.42,562.85l4.91-4.15-3.09.62-.24-3.1c-.57.75-3.06,6.3-9.57,5.72C253.74,564.43,255,561.65,258.42,562.85Z"/><path d="M260.76,541.54c4.34,2.29,7,1.12,12.09.08-7.07.17-17.11-.33-19.29,1.37l.59-.74a60.06,60.06,0,0,0-11.53,4.85C249.93,544.36,262.61,549.37,260.76,541.54Z"/><path d="M251.74,540.84l5.25-2.32Z"/><polygon points="278.62 562.55 268.7 560.78 271.09 562.19 278.62 562.55"/><path d="M267.18,549.09c8,.9-4.25-3.57,3.28-3.2,2.06-.42-11.06-.28-11.74,1.75C260.66,548.5,266.48,545.44,267.18,549.09Z"/><path d="M285.12,563.14l8.33-2.95Z"/><path d="M305.57,566l1.7-2.25c7.88,2.2,18.72-.62,24.32,4.57-1.25-2.91,3.53-5.77-3.44-6.88-1.14,1.49-3.64,1.36-3.3,3.19-3-.67-2.28-2.7-4.24-3.57-5.23,2.32-13.12.13-17.32,2.24,2-.41,2.5.13,4,.45-8.89,3.7-10.06-6.16-14.14.35C296.31,562.14,301.46,566.78,305.57,566Z"/><path d="M305.42,550.2l-7-1.12c2.29-3,8.57.16,9.82-2.62-.35-1.82-7.3-2.94-4.7-4.1-1.11,7.17-9.59,0-6.25,8.21-9.12.58-2.63-4.52-12.22-4.47l-2.84,3.73C293,548.29,294.68,551.73,305.42,550.2Z"/><path d="M332.46,552.31l3.32,2.48-1.72-3.44c15.64,0,24.3,14.18,33.82,12.57,12-4.14,22.67,3.05,34.72,2.79,6-2.71-5.57-1.92-6.11-3.74,1.89-5.64,5.6,3.21,8.5-1.37.92-4.1-12.15-4.9-17.23-7.58-4.52.42-4.49,1.71-5.95,4-1.05-2.34-5.6-3.21-6.66-5.56-9.48,2.9-14.16-3.39-23.51-.24-2.76-3.24,6.93-.36,3.89-.94l-5-.11.52.53c-7,2.95-19.48-.47-23.81-2.75,3.41,1.2,5.72,3.89,1.6,4.72l-3.21-3.77-9,5C323.44,551.6,330.9,558.94,332.46,552.31Z"/><path d="M323,545.38c-10.4-2.32,1,5.48-10.37,3.36l12.1.08Z"/><path class="cls-1" d="M372.73,556.28l5.08,2.69C375.18,553.75,366.79,560.29,372.73,556.28Z"/><polygon class="cls-1" points="391.83 556.94 388.92 561.52 393.9 559.05 391.83 556.94"/><path d="M409.06,563.23c4-2.24-.6-4.39-5.13-4C408,559.6,410,561.71,409.06,563.23Z"/><path class="cls-1" d="M437.45,573.3c-8.78-.31,7.73,1.45,1.27,5.43C439.94,576.78,444.48,574.28,437.45,573.3Z"/><path d="M465.45,585.42c-3.21.78-4.47-.09-4.86-1.25C462.89,584.35,464.72,584.68,465.45,585.42Z"/><path d="M356.45,567a18.63,18.63,0,0,1-3.08-.24Z"/><path d="M358.45,567.11l-2-.16A18.23,18.23,0,0,1,358.45,567.11Z"/><path d="M423.28,579.52h0c-.23-.17-.44-.27-.67-.47Z"/><path d="M144.28,557.24a32.07,32.07,0,0,1-4.75.11l4.71-.15Z"/><path d="M142.17,550.65c2-.68,3.13-.57,4.09,0A15.73,15.73,0,0,1,149,553a11.09,11.09,0,0,0,4.16,2.64,13.51,13.51,0,0,0,3.1.68,16.59,16.59,0,0,0,3.91-.15l-3.59.33c-1.22.1-2.39.19-3.81.27q-4.11.24-8.51.4c-1.48-1.22-1.67-2-1.45-2.47s.91-.77,1.46-1,1-.48.77-.92S143.93,551.71,142.17,550.65Z"/><path d="M238.56,548.59c.15-.05.27-.06.41-.12C239.69,548.33,239.32,548.47,238.56,548.59Z"/><polygon class="cls-1" points="123.84 250.31 122.55 250.25 124.19 243.8 123.84 250.31"/><path class="cls-1" d="M121.51,251.21l-2.46,11-.75-64.9,1.78,2.1C122.41,198.46,119.42,253.12,121.51,251.21Z"/><path class="cls-1" d="M123.54,254.33c5.33,6.3-2,10.47,1.82,18.2-2.52-5.16-5.3-8.82-4-13.79Z"/><path class="cls-2" d="M133.82,276c-1.07,3.47,1.2,7.61.39,9.57C130.11,284.33,133.27,279,133.82,276Z"/><path d="M149.43,285.29a7.24,7.24,0,0,1,0,1.61,11.76,11.76,0,0,0-.77-1.65Z"/><path d="M148.7,285.25l-1.85-.09C147.57,284,148.15,284.34,148.7,285.25Z"/><path d="M149.47,286.9a16.84,16.84,0,0,0,1.95,4l.28-1.49c.49,2,2,5.64.94,6.6.31-4-1-4.08-3.55-4.2l-.34,6.52C142.61,297.11,149.08,292.7,149.47,286.9Z"/><path class="cls-2" d="M151,307.49l-3.52-6.71C150.8,298.94,151,305,151,307.49Z"/><path d="M147,317.36c-1-1.56-.68-8.08-2.28-4.13-.69-1.07-.54-2.33-.53-3.67C145,314,149.13,309.82,147,317.36Z"/><path d="M144.15,309.56a9,9,0,0,1-.17-1.89A7.16,7.16,0,0,1,144.15,309.56Z"/><path class="cls-2" d="M128.88,239.5c-.48.81-.92.78-1.34.43Z"/><path d="M143.17,330.76l0,2.51a14.22,14.22,0,0,0-.17-2Z"/><path d="M110.55,122.38c-1.07,8.76-2.22,17.07.08,29.72,4.4-.29,1.24,5.09,5.86,5.83-.6-13.12,2.76,49.39,4.7,38.93l-2-3.13,4.6,3.25c-1.16,6.28-4.83,14.88-2.19,19.15-1.44,1.18-.25-53.56-1.55-51.49,5.31-4.85,5.14,73.28,7.52,75.29l-2.8.87c3,9.71,7,15.94,9,24.1l-3.38,1.85c1.11-6-1.19-7.62-2.65-13.73.63,10.59-1.46,12.51-.78,20.59,4.38-.29,2.14-6.94,4.59,3.24-1.84,2.93-6.65-3.84-5.74,5.26-1.17,11,5.3,8.8,5.69,18.39l1.64-6.46c.21,3.53,1.15,10.12-1.21,13.53.31-4-2.14-14.2-6.53-13.91,1,4.07-.68,13-.47,16.58l-3.06-2.16c-2.89,3.88,1.46,6.11-1.18,11,1.74,4.61,4.42-2.81,5.68-.23-1,1-2.71,9.93-.69,13,6.47-2.19-1.92-10.65,4.34-16.38l-1.14,8.5c6.38,5.34-.08-13.59,5-10.83,6.62,6.38-6.36,13.29,2.07,19.22,1.6-3.94,1.76-16.51,4.06-14.9-2.39,4.44,2.15,7.62,3,13.74l-3,7.4c2,3.13,2.06.61,3.38-1.84-3.75,10.88.65,29.21-3.93,44.58.91,9.11,2.82,1.15,5.09,5.29-3.93,4.84-.69,13-.75,18.06-.28,1.5,3.55,4.21,5.12,2.78l-2.42-12.7c2.06.62,5.43-1.24,5-5.78-7.52,3.14,4.61-17.89-3.88-18.81l3.86.18-2.63-16.23-.52.48c1.29.06-2.66-13.72-1-22.69,1.25,2.58-.23,17.59,4,8.75,2.23,6.65-1.27,18.56.38,30.7l2.61-2.37c3.69,12.76-1.16,29.63-.31,43.75l-3.56-4.2c-1.35,5-4.28,11.36-1.24,16-.18-6.05,1.84-2.94,3.38-1.85,1.95,8.15-.27,20.12,1.14,31.26,0,0-.77-.54-1.3-.07l2.18,11.68c-.59,5.51-2.68,7.41-5,10.81.49,2,.42,7.09,2.51,5.17a7.27,7.27,0,0,0,.19-2.89c3.9,5.9-1.14,4.13,1.25,11.51-3.28-5.7-4.67,1.78-8,1.11,1.44,8.63,5.93.8,7.46,1.88-1.93,10.48-4.79,11.83-5.44,22.37,2.05.6,1.38-7.47,3.71-8.37-.55,3-.34,6.52.43,7.06l1.63-6.46A95.39,95.39,0,0,0,151,524.22v.26l0,.08,0,.17a1.66,1.66,0,0,0,0,.32,2,2,0,0,0,.1.64,1.33,1.33,0,0,0,.81.87l1.05-.69-.1.75a36.07,36.07,0,0,1-3.84,2.48c.31.06.19.41,0,.88a9.73,9.73,0,0,0-.62,1.39c.22.11.75-.11,1.94-1.22a2.7,2.7,0,0,1,0-.28,19.26,19.26,0,0,0,1.91-1.15,35.53,35.53,0,0,1-4.37,3.64c.06.41.79.25,1.69-.21a14.61,14.61,0,0,0,2.85-2,18.5,18.5,0,0,0,2.11-2.27c.49-.6.72-1,.94-.79a4.58,4.58,0,0,1-.5,2.56,3.45,3.45,0,0,1-1.54,1.06,14.26,14.26,0,0,0-2.37,1.31,18.81,18.81,0,0,0-3.52,3.3,2.69,2.69,0,0,0,1.73,1.34,2.33,2.33,0,0,0,2.51-.78c.42-1.8-.35-1.86-1.16-1.92a5.16,5.16,0,0,1,2.81-1.13,5.68,5.68,0,0,1,1.16.1l.58.11.16,0,.5.05,1,.08c5.33.42,10.24.54,13.26-2.28l-6.86-2.4c8.1-.38,13,6.83,15.88,3.1l-6.6,6.38c8.31-2.94,18.81-1.91,26.57-4.11.33-3.84-11.07-.28-10.51-1l3.76-2.65c11.87,2.64,3.33,2.48,17.71,5.26l.23-2.58c4.69,4.11,17.9-3,12.78,3.73L219,534.84l.22,3.1,16.79-1.5c-1.71,2.25,6.38,1.87,4.11,4.86l6.27-2.53c2.64,4.51-11.52,4.85-12.3,8.17.15,2,3.06,1.88,4.49,1.65-7.54,3-10.92-4.81-18.3-5.17l-3.77,2.65.34-3.85a12.91,12.91,0,0,0-7,4.56c-7.1-5.52-15.17.54-26.14-1,9.23-1.87-5.72-3.9-4.12-4.85-5-.25-17.68,6.1-21.8,1.24-2.86-1.95,6.26-2.53-.7-3.64-2.71.13-3.08.74-3.84,1.5a1.94,1.94,0,0,0-.1,2.68,47,47,0,0,1-8.13.29c-2.81-.1-5.59-.32-8.32-.5,0-1.65.07-3.25.05-4.78a16,16,0,0,0,2.54-.36c1.08-2.74.73-4.07-.23-5.32a19.55,19.55,0,0,0-3.93-3.31c1-.87.28-1,1.81-.64,1.06-1.59,1.26-2.58,1-3.61a18.92,18.92,0,0,0-1.9-5.05c-1.73-3.55-3.86-7.8-3.38-15.07-3.62.83-4,7.35-2.22,11.95l-4.11-1.2c-.16,12.57.69,27,3.13,33.7a15,15,0,0,1-3-1.78c-1.66,3.94-1.85,6-1.46,6.8,1.92-.38,3.9-1.54,5.54-2a3.47,3.47,0,0,1,2.24-.08,4.4,4.4,0,0,1,2,2c3.6-.6,2.74-1.17,1.89-1.76s-1.73-1.23,1-2c1.51.64.22,2.38-.74,4s-1.42,3.16,2.68,3.44c-5.87.17-12,.24-18.48.25-.27-6.5-.46-13.35-.61-20.38-.11-6.62-.22-13.31-.33-20-.18-12-.28-24.05-.55-35.67-.77-.54-1,1-1.33,2.45-5.54-9.83,9.37-89.05-1.43-91.6,1.57-1.43,3.32,3.18,3.14-2.86-.77-.55-1.78-2.1-3.35-.67,5.87-15.31-.31-35.74,3.54-54.16-1.81.41-2.79-3.66-4.08-3.73,4.21-6.32-.29-17.11,2.11-23l-2.09,1.91,0-18.62c-.76-.55-.79,2-1.07,3.47-1-4.07,1.35-5,3.16-5.37L113.61,281c7.53-24.27-4.19-54.54.56-82.48-3.56-4.19-5.06-7.79-5.49-14.86l-1.07,3.47c-3-7.19,1.81-.42.34-6.53-2.27-4.14-5.4-1.26-3.41,4.37-1.21,3.52-2.45,1.35-3.32-1.17C101.59,161.42,104,140.54,110.55,122.38Z"/><path d="M543.25,597c-2.38-1.76,9.68-1.12,3.91-4.94-18.49-7.66-49.15-3.19-71.16-9.49-5.82-2.94-7.4-3.07-12.68-4.73a3.94,3.94,0,0,0,.07,2c-6-.46-15.86.23-21.84-1.74-1.74.68-3.11,3.44.21,2.89-9.28,2.12-15.67-5.78-20.92-3.76,4.39,2-4.54,2.5.74,4.17-9.65,0-8.42-9.82-16-11.27-.48.76-1,1.53.55,1.82-8.15-4.56-25.6,1.52-26.26-5.46l-3.46,2.77c-3.56-2.4-2.6-3.92-8.65-5.08-4,.95.06,2.58-1.43,3.58-1.57-2.87-12.25-2-16.95-6.1-.12-4.39,8.41,6.18,13.36,2.41.18-.86-.51-1.14-1.49-1.28,25.18,2,43.94,14.94,64.79,12.41,4.45,3.25,8.06.5,10.2-2.45-3.7-1.53-14.26-4.85-14.73,1.26l-6.34-4.21c-2.48.21-2.2-6-3.22-7,4.54.87,9.94-4.95,3.85-7.39,12.05-.27-4.35,12.88,6.36,11.7l1.72-4.37c-2.11,2.29,7,4.68,10.54,3.32l-1.4-.93c28.28,3.12,66.19,2.52,97.6,2.21,7.3,11.26,23.14-3,30.06,6.15,3.51-1.36-4.77-4.08,1.9-5.18,3.34-.55,3.53,2.34,3.35,3.15l3.07-.77C571,581.46,564.89,590.74,543.25,597Z"/><path class="cls-1" d="M515.94,118.56a20.77,20.77,0,0,1,8.51-2,15.72,15.72,0,0,1,4.26.59c1.45.42,2.24,1.09,2.09,2,.31-1.93.45-2.89,1.89-3.72s4.16-1.52,10.13-2.89c-1,2.57,8.76,1.87,15.08,1.66-2-.92-4.77-1.46-8.88-1.85s-9.53-.61-16.87-.92a23.37,23.37,0,0,1-2.72.88c-.47.13-.95.24-1.44.34l-.74.14a4.73,4.73,0,0,0-.49.13,17.51,17.51,0,0,1-3.79.51,63.29,63.29,0,0,1-8.51-.58c-5.83-.66-11.59-1.24-15.17,1.8C504.48,116.1,509.55,120,515.94,118.56Z"/><path class="cls-1" d="M549,135.49l2.33-1.54q-7.6,1.22-14.11,2.42a30.14,30.14,0,0,1,7.29-1.59C547.23,134.49,549.51,134.58,549,135.49Z"/><path d="M558.89,170.48c-2.82-1.2-4.45,5.55-7,5.42,5.68-.25,1.16,10.58,1.87,16.41l4.34,2.34c1.59-2.82,2-7.8,2.14-13.59,0-2.89,0-6,0-9.11,0-1.56,0-3.13,0-4.69l0-2.32.06-2.36Z"/><path class="cls-1" d="M555.66,181.36l2.79,3.82C557.71,182,557.29,174.61,555.66,181.36Z"/><path class="cls-1" d="M571,173.2c.37-9.45-1.88,5.69-2.79-3.83C568.92,172.57,569.13,176.26,571,173.2Z"/><polygon points="562.23 212.75 560.16 192.65 558.26 200.96 562.23 212.75"/><path d="M552.94,213.85c0-2.63,1.63-6.76,3.13-3-3.44,7.19,1.4,11.65-1.52,18.35l-1.46-6.4c-3.63.88,3.7,13.35-2.74,13,4.53,8.65,5.49-6.57,8.7,4.66-1.16-10.59.23-18.41,1.37-27.3-1.32,2.57-1.07,3.62-2.15,7.25-.18-6.32-2.14-14.84-2.56-22.23C551.53,202.2,555.33,207.65,552.94,213.85Z"/><path d="M552,245.9c-.34,6.83-.47,17.35,4.41,19.17,3.44-7.19-.67-8.46-2.7-11.71.8-2.07,1.15-8.89,3.69-6.12C556.38,248.24,553.87,242.83,552,245.9Z"/><path d="M551.17,272.69l4.33,5-.73-3.19,3.09-.38c-.77-.56-6.41-3-6.06-9.78C549.43,267.86,552.25,269.08,551.17,272.69Z"/><path d="M572.56,274.33c-2.13,4.63-.87,7.33.36,12.65-.43-7.4-.3-17.9-2.07-20.12l.76.59a63.9,63.9,0,0,0-5.27-11.87C569.34,263.12,564.8,276.56,572.56,274.33Z"/><path d="M572.93,264.88l2.51,5.39Z"/><polygon points="552.21 293.8 553.62 283.36 552.3 285.91 552.21 293.8"/><path d="M565.25,281.33c-.62,8.37,3.41-4.57,3.32,3.31.48,2.13-.12-11.57-2.18-12.21C565.6,274.49,568.87,280.46,565.25,281.33Z"/><path d="M551.86,300.62l3.25,8.59Z"/><path d="M549.79,322.1l2.31,1.69c-1.91,8.32,1.3,19.55-3.68,25.6,2.85-1.42,5.89,3.46,6.75-3.86-1.53-1.13-1.5-3.75-3.31-3.33.56-3.12,2.61-2.48,3.41-4.57-2.51-5.37-.6-13.7-2.87-18,.49,2.12,0,2.63-.3,4.18-4-9.15,5.79-10.75-.86-14.76C553.26,312.27,548.81,317.83,549.79,322.1Z"/><path d="M565.52,321.34l.87-7.34c3.07,2.28.15,9,3,10.17,1.81-.45,2.67-7.75,3.93-5.07-7.21-.9-.39-10-8.43-6.22-.91-9.52,4.42-2.93,4-13l-3.84-2.83C567,308.25,563.6,310.18,565.52,321.34Z"/><path d="M564.4,349.69,562,353.25l3.37-1.93c.58,16.36-13.28,25.95-11.33,35.84,4.57,12.34-2.23,23.82-1.53,36.4,2.93,6.14,1.72-5.89,3.52-6.53,5.7,1.76-3,6,1.67,8.84,4.14.8,4.46-12.9,7-18.3-.58-4.71-1.87-4.64-4.21-6.07,2.31-1.19,3-6,5.31-7.17-3.24-9.81,2.88-14.94-.61-24.59,3.14-3,.61,7.23,1.08,4l-.07-5.26-.52.56c-3.19-7.16-.23-20.38,1.89-25-1.07,3.61-3.68,6.13-4.66,1.86l3.66-3.5-5.31-9.22C564.78,340.24,557.71,348.31,564.4,349.69Z"/><path d="M571,339.51c1.94-11-5.44,1.3-3.74-10.71l.36,12.65Z"/><path class="cls-1" d="M561.89,391.93l-2.5,5.42C564.5,394.4,557.67,385.88,561.89,391.93Z"/><polygon class="cls-1" points="561.92 411.93 557.24 409.06 559.89 414.17 561.92 411.93"/><path d="M556.26,430.18c2.38,4.06,4.37-.8,3.79-5.51C559.85,428.92,557.82,431.13,556.26,430.18Z"/><path class="cls-1" d="M547.23,460.23c0-9.18-1.16,8.15-5.38,1.55C543.84,463,546.5,467.63,547.23,460.23Z"/><path d="M536.13,490c-.9-3.33-.06-4.68,1.07-5.13C537.11,487.25,536.85,489.18,536.13,490Z"/><path d="M550.64,375.32a20.32,20.32,0,0,1,.12-3.22C550.72,373.2,550.68,374.23,550.64,375.32Z"/><path d="M550.55,377.43l.09-2.11A19.1,19.1,0,0,1,550.55,377.43Z"/><path d="M540.5,445.66s0,0,0,0c.16-.24.26-.47.45-.72Z"/><path d="M552.64,155.51a17.77,17.77,0,0,1-.28-3.59c.11,1.18.21,2.37.32,3.54C552.67,155.49,552.66,155.49,552.64,155.51Z"/><path d="M559.15,148.17a7,7,0,0,1,.2,5,20.21,20.21,0,0,1-2.33,4.55,22.33,22.33,0,0,0-2.49,4.78,14.79,14.79,0,0,0-.27,7.22c-.15-1.23-.31-2.48-.46-3.74s-.27-2.47-.41-3.72q-.39-3.44-.71-6.79c1.17-1.89,1.91-2.72,2.42-2.89s.8.27,1.07.65.52.67.94.13S558.15,151.44,559.15,148.17Z"/><path d="M564.71,251.39a3.59,3.59,0,0,0,.14.43C565,252.56,564.86,252.18,564.71,251.39Z"/><polygon class="cls-1" points="240.31 136.03 240.24 137.32 233.49 135.68 240.31 136.03"/><path class="cls-1" d="M241.24,138.36l11.46,2.46-67.89.75,2.2-1.78C186.07,137.46,243.24,140.45,241.24,138.36Z"/><path class="cls-1" d="M244.51,136.33c6.59-5.33,11,1.95,19-1.82-5.39,2.52-9.22,5.3-14.42,4Z"/><path class="cls-2" d="M267.14,126.05c3.63,1.07,8-1.2,10-.39C275.89,129.76,270.26,126.6,267.14,126.05Z"/><path d="M276.9,110.44a7.88,7.88,0,0,1,1.68,0,11.9,11.9,0,0,0-1.72.77Z"/><path d="M276.86,111.17l-.1,1.85C275.58,112.3,275.9,111.72,276.86,111.17Z"/><path d="M278.58,110.4a18.11,18.11,0,0,0,4.2-2l-1.56-.28c2.13-.49,5.89-2,6.9-.94-4.2-.31-4.27,1-4.39,3.55l6.81.35C289.26,117.26,284.65,110.8,278.58,110.4Z"/><path class="cls-2" d="M300.12,108.92l-7,3.52C291.17,109.07,297.5,108.89,300.12,108.92Z"/><path d="M310.45,112.91c-1.64,1-8.46.68-4.33,2.28-1.12.69-2.44.54-3.84.53C306.89,114.88,302.56,110.74,310.45,112.91Z"/><path d="M302.28,115.72a9.85,9.85,0,0,1-2,.17A7.92,7.92,0,0,1,302.28,115.72Z"/><path class="cls-2" d="M229,131c.85.48.82.92.44,1.34Z"/><path d="M324.46,116.7l2.63,0a15.7,15.7,0,0,0-2.12.17Z"/><path d="M106.48,149.32c9.17,1.07,17.86,2.23,31.1-.08-.31-4.4,5.32-1.24,6.09-5.86-13.72.6,51.67-2.75,40.73-4.7l-3.28,2,3.4-4.6c6.57,1.16,15.57,4.83,20,2.19,1.23,1.44-56,.25-53.86,1.55-5.08-5.31,76.65-5.14,78.75-7.52l.91,2.8c10.16-3,16.68-7,25.22-9l1.93,3.38c-6.26-1.11-8,1.19-14.36,2.65,11.07-.63,13.08,1.46,21.53.78-.3-4.38-7.25-2.14,3.4-4.59,3.06,1.84-4,6.65,5.5,5.74,11.51,1.18,9.21-5.3,19.23-5.69l-6.75-1.63c3.69-.22,10.59-1.16,14.15,1.2-4.2-.31-14.85,2.14-14.55,6.53,4.25-1,13.64.68,17.34.47l-2.26,3.06c4.06,2.89,6.39-1.46,11.52,1.18,4.83-1.74-2.93-4.42-.24-5.68,1,1.05,10.38,2.71,13.64.69-2.29-6.47-11.14,1.92-17.13-4.34l8.89,1.14c5.58-6.38-14.22.09-11.33-5,6.67-6.62,13.9,6.36,20.1-2.07-4.11-1.6-17.26-1.76-15.58-4.06,4.64,2.39,8-2.15,14.37-3l7.75,3c3.27-2,.63-2.06-1.93-3.38,11.38,3.75,30.55-.65,46.64,3.93,9.51-.91,1.19-2.82,5.52-5.08,5.07,3.92,13.64.68,18.9.74,1.56.28,4.4-3.55,2.9-5.12l-13.28,2.42c.64-2.06-1.3-5.43-6.05-5,3.29,7.52-18.71-4.61-19.68,3.88l.2-3.86-17,2.63.5.52c.07-1.29-14.35,2.66-23.73,1,2.69-1.25,18.4.23,9.15-4,7-2.23,19.41,1.27,32.11-.38l-2.48-2.61c13.34-3.69,31,1.16,45.76.31l-4.39,3.56c5.2,1.35,11.89,4.28,16.78,1.24-6.32.18-3.07-1.84-1.93-3.38,8.52-1.95,21,.27,32.7-1.14,0,0-.57.77-.07,1.3l12.21-2.18c5.77.59,7.75,2.68,11.31,5,2.14-.49,7.41-.42,5.4-2.51a7.92,7.92,0,0,0-3-.19c6.17-3.9,4.32,1.14,12-1.25-6,3.28,1.87,4.67,1.16,8,9-1.44.84-5.93,2-7.46,11,1.94,12.38,4.79,23.4,5.44.63-2-7.82-1.38-8.75-3.71,3.13.55,6.82.34,7.38-.43l-6.75-1.63a103.8,103.8,0,0,0,17.12,2.28l.74,0,1,0,2,0,4,0c2.7,0,5.44,0,8.24-.1,5.58-.13,11.38-.4,17.59-.81l-1.28-1,15,.09q-4.32,1.92-8.26,3.84a31.16,31.16,0,0,1,6.91,0c2.09.21,4,.52,5.82.62-.13,2.66.08,4.6,1.28,5.14l.28-3.08,1.21,8.72c-1.26-2.42-2.53-4.62-3.79-6.57a31.89,31.89,0,0,0,.28,9.33c.49,3.09,1.31,6.32,2.15,10s1.71,7.77,2.33,12.37a89.16,89.16,0,0,1,.83,14.93c-1.29,1.14-2.06-.56-2.57-3.6s-.8-7.49-1.12-12.06a103,103,0,0,0-1.4-12.62c-.7-3.38-1.75-5.37-3.42-4.74a111,111,0,0,0-1.28,11.28c-.19,3.71,0,6.92.87,8.44,1.81-1.23,1.84-5.67,1.88-10.09a61.77,61.77,0,0,1,1.23,13c0,2.4,0,4.85-.06,7.29l-.09,3.65c0,.73-.06,1.46-.09,2.17-.23,5.59-.17,10.72,2.76,13.77l2.15-7.25c.67,8.44-6.36,13.87-2.53,16.71l-6.62-6.66c3.25,8.58,2.59,19.6,5.07,27.62,3.86.21-.11-11.58.66-11l2.78,3.83c-2.21,12.51-2.36,3.57-4.61,18.71l2.58.14c-3.93,5.06,3.63,18.6-3.27,13.5l1.6-4.11-3.1.35,2.11,17.49c-2.3-1.7-1.63,6.75-4.7,4.49l2.76,6.45c-4.42,2.94-5.27-11.85-8.61-12.54-2,.23-1.78,3.26-1.49,4.75-3.27-7.77,4.41-11.6,4.5-19.32l-2.78-3.85,3.86.21a13.6,13.6,0,0,0-4.81-7.09c5.25-7.63-1.1-15.84.08-27.36,2.2,9.57,3.69-6.13,4.7-4.49.06-5.26-6.74-18.25-2-22.74,1.85-3.07,2.76,6.45,3.62-.87q-.09-.9-.24-1.71c-.11-.56-.23-.94-.37-1.75a12.08,12.08,0,0,0-1-3.21c-.8-1.44-1.76-1.31-2.68.87-.46-5.67-.59-11.62-.59-17.84s.13-12.69.2-19.1c-3.47,0-6.93-.07-10.35,0,1.88-.84,3.85-1.69,5.89-2.54-4.39-1.08-10.14-.73-15.12.23a47.76,47.76,0,0,0-12.06,3.93c-1.09-1-2-.28-.22-1.81a18,18,0,0,0-8.19-1,20.3,20.3,0,0,0-5.3,1.9c-3.71,1.73-8.16,3.86-15.76,3.38.86,3.62,7.69,4,12.5,2.22l-1.26,4.11a235,235,0,0,0,41.9-3.13q-4.21,1.51-7.92,3a3.75,3.75,0,0,0,4.09,1.51c.4,1.08,1.66.79,2.25,1.59a2.79,2.79,0,0,1,.21,2.23,20.79,20.79,0,0,1-1.92,5.13c.74,2.67,1.27,1.29,1.83-.51s1.17-3.93,2-1.86c-.59,2.9-2.37,3.59-4,4.68a6.4,6.4,0,0,0-3.34,5.72c-.38-4.36-.68-8.68-.92-13.09-5.25.27-10.36.46-15.43.6l-7.55.19-9.06.15c-12.53.17-25.09.27-37.22.54-.57.77,1,1.05,2.56,1.33-10.28,5.54-93.14-9.37-95.82,1.43-1.49-1.57,3.34-3.32-3-3.14-.57.77-2.19,1.78-.7,3.35-16-5.87-37.38.31-56.65-3.54.43,1.81-3.83,2.79-3.9,4.08-6.61-4.21-17.9.29-24.1-2.11l2,2.09-19.49,0c-.57.76,2.07.79,3.64,1.07-4.26,1-5.2-1.35-5.62-3.16l-8.67,4.53c-25.39-7.53-57,4.19-86.27-.56-4.39,3.56-8.15,5.06-15.55,5.49l3.63,1.07c-7.52,3-.44-1.81-6.83-.34-4.34,2.27-1.32,5.4,4.57,3.41,3.68,1.21,1.41,2.45-1.23,3.32C147.32,158.28,125.48,155.88,106.48,149.32Z"/><path d="M527.37,571.73c1.68-2.54,1.48,10.08,5.08,3.91,7-19.63,1.41-51.51,6.91-74.75,2.72-6.2,2.79-7.85,4.26-13.43a3.78,3.78,0,0,0-2,.14c.24-6.33-.8-16.57.95-22.89-.74-1.8-3.55-3.12-2.88.33-2.45-9.62,5.21-16.6,3-22-1.85,4.67-2.67-4.65-4.14.94-.38-10.09,9.51-9.18,10.68-17.15-.77-.47-1.56-1-1.8.65,4.26-8.7-2.45-26.7,4.5-27.66L549,396.29c2.27-3.82,3.83-2.87,4.77-9.24-1.09-4.15-2.58.17-3.64-1.35,2.81-1.75,1.55-12.89,5.49-18,4.38-.29-5.87,9-1.93,14.06.87.16,1.13-.57,1.23-1.6-1.07,26.39-13.34,46.5-10.06,68.2-3.08,4.77-.2,8.44,2.82,10.56,1.4-3.92,4.34-15.09-1.79-15.35l4-6.79c-.29-2.58,5.89-2.52,6.91-3.63-.71,4.79,5.3,10.2,7.53,3.75.7,12.59-13-4.06-11.47,7.09l4.43,1.63c-2.37-2.11-4.42,7.54-2.93,11.15l.88-1.5c-2.1,29.68-.13,69.28,1.33,102.11-11,8.06,3.86,24.07-5.06,31.66,1.48,3.61,3.91-5.15,5.25,1.79.66,3.46-2.21,3.78-3,3.62l.88,3.18C543.92,600.19,534.42,594.12,527.37,571.73Z"/><path class="cls-1" d="M413.15,208.12c1.49-2.52,2.59-3.61,1.58.45a42.36,42.36,0,0,1,2.29-7c-.57,2.7.15,1.87.5,1.61,0-1.86-.28-2.14-.67-2.7-1,3-1.44,2.31-1.59,1.68s-.18-1.23-2.17,2.16c-.13.71-.54,2.11-.67,3.1S412.44,209,413.15,208.12Z"/><path class="cls-1" d="M416.24,224.77l.43-1.61c-1.25,1-2.6,2-4.05,3.06C413.69,224.79,416.27,222.94,416.24,224.77Z"/><path d="M427.53,218.88c.11,2.83,2.17,4.16,2.53,6.72-.93-5.6,2.67-1.58,4.12-2.52l0-4.4c-2-2.89-5.63-1-8.94-.85Z"/><path class="cls-1" d="M431,221.62l.6-2.92C430.8,219.56,428.88,220.28,431,221.62Z"/><path class="cls-1" d="M426.42,206.82c-2.6,0,1.82,1.62-.6,2.92C426.56,208.88,427.53,208.52,426.42,206.82Z"/><path d="M437.84,213.91c-.64.45-1.31.9-2,1.36l-2.53,1.43,2.52,1.54A27.41,27.41,0,0,0,437.84,213.91Z"/><path d="M440.46,222.91a2.08,2.08,0,0,1-1.62-2.92c1.39,1.53,2.2,1,2.86.53s1.22-1.1,2.75.14c-.42.56-.87,1.12-1.34,1.69.74,1.72,1.49.67,2.21,0s1.51-1,2.95,2c.33-2.35-.92-3.54-1.84-4.62s-1.6-2-1-3.75a4.64,4.64,0,0,1-3.44.71,20.72,20.72,0,0,1-3.6-1c.95,1.18,1.13.91,2.37,1.81a8.09,8.09,0,0,0-2.45,1.58,11.76,11.76,0,0,1-2.84,1.82c.86,2,1.48,2,2.26,1.73A2.26,2.26,0,0,1,440.46,222.91Z"/><path d="M450.62,222.27c2.28,0,5.84-.42,2.74-4.88-2.2-1.4-2.56-1.18-2.44-.34s.81,2.29,1,3.3c-1.13-.64-3.22-.67-3.88-3.14a6.56,6.56,0,0,1,.94,2.28A5.47,5.47,0,0,0,450.62,222.27Z"/><path d="M459.59,221.75q-.93-2.06-2-4.06c-.1.26-.19.52-.3.78l-2.61-2.73a29.5,29.5,0,0,1,2.06,3.18c.72,1.37,1,2.66-.2,2.68,1.41,1,1.73.81,1.9.5S458.59,221.35,459.59,221.75Z"/><path d="M442.78,202.7c2.32,1.79,1.73.61,1.21-.55-.5.51-1.85.58-.84,2.22l-.49-.69s.79,2.13,1.81,5c-.3-1.47.8-1.25,1.33-1.54S446.1,206.11,442.78,202.7Z"/><path d="M441.36,202.54c-.39-.79-.83-1.57-1.3-2.34C440.53,201,441,201.75,441.36,202.54Z"/><path d="M465.27,219.83c-1.53-.24-3-.49-4.47-.74l2,1Z"/><path d="M450,209c1.07.15.07-.56-1-1.33S447,206,447.65,206c-.11-.48-1.66.38-.21,2.23.5.32.37-.28.47-.56S448.36,207.4,450,209Z"/><path d="M466,218.31q-1.63-2.67-3.25-5.07Q464.37,215.64,466,218.31Z"/><path d="M468.07,212.8l-2.31-1.93c1-.75.63-2.52.69-4s.5-2.59,3-2.75a24.77,24.77,0,0,1-4.12-1.55c-1.23-.47-2.2-.61-2.63.26,1.53.91,1.5,1.7,3.31,2.33-.56.75-2.61-.36-3.42-.14a5.37,5.37,0,0,1,1.53,3.51,5.48,5.48,0,0,0,1.35,3.41c-.5-1,0-.79.3-1.12,2,2.66.56,2.69-.56,2.53s-1.91-.34,1.42,2.71c-1-1.25-.41-1.48.33-1.75S468.56,213.81,468.07,212.8Z"/><path d="M452.33,203.39c-.29.29-.58.55-.86.79-1.54-1.25-1.58-1.63-1.58-2s0-.67-1.39-1.59c-1.82-1-2.68-.58-3.93-1.72,3.6,2.33,3.7,2.79,3.9,3.21s.51.89,4.53,3.34c.91,2.51-4.43-2.63-4-.75q1.92,1.78,3.83,3.66c-1-1.86-.6-2.13-.23-2.51S453.29,205.05,452.33,203.39Z"/><path d="M453.46,198.45c.78,0,1.57.06,2.36.05-1.12-.22-2.25-.45-3.38-.71-.14-.82.62-1.26,1.81-1.68s2.8-.79,4.38-1.26c3.15-.9,6.12-2.31,5.15-3.8-4.57-3.37,2.22-6.48,1.53-9.91-2.93-1.67-1.72,1.61-3.52,1.78-5.7-.48,3-1.63-1.67-2.4-4.14-.22-4.46,3.5-7,5,.59,1.28,1.88,1.26,4.22,1.65-2.31.33-3,1.63-5.32,2a2,2,0,0,1,1,1.8,2.22,2.22,0,0,1-.76,1.08c-.69.68-1.35,1.18.39,2.36-3.13,0-.61-1.4-1.07-.91l.07,1h.51c1.6.94,1.66,2.07,1.05,2.82a3.69,3.69,0,0,1-2.94,1.08c1.08-.14,3.68.21,4.66,1.49-1.21-.22-2.43-.49-3.65-.79a65.26,65.26,0,0,1,5.3,4.32c-1.76-1.67-.88-2-.39-2.52S456.8,199.76,453.46,198.45Z"/><path d="M446.88,197.55c-1,.28.39.89,1.78,1.55s2.81,1.35,2,2l-.36-2.34C449.13,198.35,448,198,446.88,197.55Z"/><path class="cls-1" d="M456,189.75l2.5-1.48C453.35,189.07,460.19,191.39,456,189.75Z"/><polygon class="cls-1" points="455.93 184.31 460.62 185.09 457.97 183.7 455.93 184.31"/><path d="M461.6,179.34c-2.38-1.1-4.37.22-3.79,1.5C458,179.69,460,179.08,461.6,179.34Z"/><path class="cls-1" d="M470.62,171.17c0,2.5,1.17-2.22,5.39-.42C474,170.42,471.36,169.16,470.62,171.17Z"/><path d="M481.73,163.08c.89.91.06,1.27-1.08,1.4A1.51,1.51,0,0,1,481.73,163.08Z"/><path d="M467.22,194.93a2,2,0,0,1-.13,1C467.12,195.61,467.18,195.28,467.22,194.93Z"/><path d="M467.31,194.25l-.09.68A2,2,0,0,1,467.31,194.25Z"/><path d="M477.36,175.13h0c-.16.07-.26.13-.45.2Z"/><path d="M424.15,225.72a2.29,2.29,0,0,1-1.21.47c.41-.17.86-.33,1.19-.5Z"/><path d="M421.92,219.48c.68-1.62,1.5,0,2.49,1.77s2.14,3.56,3.62,2.24a29.18,29.18,0,0,1-3.9,2.2c-1.32-2.17-1-2.84-.85-3.41S423.45,221.26,421.92,219.48Z"/><path d="M444.71,210.35c0-.06,0-.07,0-.14S444.77,210.19,444.71,210.35Z"/><polygon class="cls-1" points="387.14 170.19 385.85 170.17 387.49 168.34 387.14 170.19"/><path class="cls-1" d="M384.81,170.44l-2.46,3.12-.75-18.47,1.78.6C385.72,155.44,382.72,171,384.81,170.44Z"/><path class="cls-1" d="M386.84,171.33c5.33,1.79-1.95,3,1.82,5.18-2.51-1.47-5.3-2.51-3.94-3.92Z"/><path class="cls-2" d="M397.12,177.49c-1.07,1,1.2,2.16.39,2.72C393.41,179.87,396.57,178.34,397.12,177.49Z"/><path d="M412.73,180.14a.62.62,0,0,1,0,.46,4.82,4.82,0,0,0-.77-.47Z"/><path d="M412,180.13l-1.85,0A2.06,2.06,0,0,1,412,180.13Z"/><path d="M412.77,180.6a7.81,7.81,0,0,0,2,1.14l.28-.42c.49.58,2,1.6.94,1.87.31-1.14-1-1.16-3.55-1.19l-.34,1.85C405.91,183.5,412.38,182.25,412.77,180.6Z"/><path class="cls-2" d="M414.25,186.46l-3.52-1.91C414.1,184,414.28,185.74,414.25,186.46Z"/><path d="M410.26,189.27c-1-.45-.68-2.3-2.28-1.18-.69-.3-.54-.66-.53-1C408.29,188.3,412.43,187.12,410.26,189.27Z"/><path d="M407.45,187.05a.87.87,0,0,1-.17-.54A.69.69,0,0,1,407.45,187.05Z"/><path class="cls-2" d="M392.18,167.11a1.92,1.92,0,0,1-1.34.12Z"/><path d="M406.47,193l0,.3c0-.09-.08-.16-.17-.24Z"/><path d="M373.85,133.79c-1.07,2.49-2.22,4.86.08,8.46,4.4-.09,1.24,1.44,5.86,1.65-.6-3.73,2.76,14.06,4.7,11.08l-2-.89,4.6.93c-1.16,1.78-4.83,4.23-2.19,5.44-1.44.34-.25-15.24-1.55-14.65,5.31-1.38,5.14,20.85,7.52,21.42l-2.8.25c3,2.76,7,4.54,9,6.86l-3.38.52c1.11-1.7-1.19-2.16-2.65-3.9.63,3-1.46,3.56-.78,5.86,4.38-.09,2.14-2,4.59.92-1.84.83-6.65-1.09-5.74,1.49-1.17,3.14,5.3,2.51,5.69,5.24l1.64-1.84c.21,1,1.15,2.88-1.21,3.85.31-1.14-2.14-4-6.53-4,1,1.16-.68,3.71-.47,4.72l-3.06-.62c-2.89,1.11,1.46,1.74-1.18,3.14,1.74,1.31,4.42-.8,5.68-.07-1.05.28-2.71,2.82-.69,3.72,6.48-.64-1.92-3,4.34-4.67l-1.14,2.42c6.38,1.52-.08-3.87,5-3.08,3.31.91,1.72,1.85.35,2.78-.68.46-1.3.92-1.23,1.37,0,.23.25.45.71.67a8.77,8.77,0,0,0,2.24.45,2.47,2.47,0,0,0,.54-.34,4,4,0,0,0,.44-.66c.28-.49.52-1,.79-1.52.52-1,1.14-1.75,2.29-1.52-1.19.63-.66,1.17.28,1.77.47.3,1,.62,1.55,1a4.79,4.79,0,0,1,.68.55c.2.19.36.44.47.48a26.17,26.17,0,0,0-3,1.13c2,.28,2.06-.12,3.38-.48-1.88.77-1.71,1.84-1.65,2.84s0,2-2.28,4.32c.45.48,1.16.12,2-.4a17,17,0,0,1,3.05-1.55c-2,1.33-2.13,1.9-1.82,2.1s1.11.05,1.08.35c-.28.41,3.55-2.22,5.12-3.51a11.62,11.62,0,0,1-2.42.7,43,43,0,0,0,5-3.34c-3.76,2.26-2.61,1.25-1.58.48s1.94-1.28-2.3.3l3.86-1.49a8.59,8.59,0,0,1-2.63,0l-.52.15c.65-.15,0-.2-.64-.45s-1.18-.73-.35-1.11c.63.09.57.41.88.6s1,.12,3.13-.31c1.12,0,.8.15.41.44s-.86.73,0,.64c.87-.37,1.74-.73,2.61-1.06,1.85-.64,1.56-.71.91-.29s-1.65,1.24-1.22,1c-1.19.93-2.37,1.81-3.56,2.64a28.73,28.73,0,0,0-2.27,2.29c-.52.63-.49.87,1-.38-.18-.21,1.84-1.77,3.38-3.13.88-.69.91-.68.81-.47s-.33.58,0,.29c.09-.09.22-.21.37-.38l-1.25,1.5A32.61,32.61,0,0,0,418,194c-.46.66-2.11,3-3.7,5.67a11.27,11.27,0,0,0,2.06-2.86c.1-.22.21-.43,0-.2,1.5-2.2,1.26-1.88,1-1.35s-.67,1.26.16-.08c-1.09,1.83-1.88,3.13-2.55,4.42s-1.28,2.59-2.32,4.44a17.91,17.91,0,0,0,2.48-4.12c.8-1.63,1.64-3.29,2.11-4.14-.86,2.1-2.06,5.17-1.51,5.75.81-2.2,0-1.41,1.06-3.92-.13.57.14.32.45-.5.14-.58.3-1.15.5-1.73-.89,2.63-.14,3.17.52,1.4l.11-1.07.18.07c-.11,1.31-.25,2.63-.43,3.95.17-.53.25.08.36.41s.25.4.3-1.16l-.08-.27c.09-.43.17-.85.22-1.27,0,1.29-.1,2.58-.24,3.88.26.79.59-.84.64-2.56,0-.42,0-.86,0-1.26v-.59a6.13,6.13,0,0,1,.42-.58,2.5,2.5,0,0,1,2-1.14c.71,2.51-.5,3.16-1.81,4l-.24.16,0,.14-.08.32c0,.23-.1.51-.15.87a24.66,24.66,0,0,0-.1,3.48,2.52,2.52,0,0,0,.81,1.17c.3.14.44-.05.72-1a4,4,0,0,0-.35-1,4.36,4.36,0,0,1-.33-.51.36.36,0,0,0-.37-.22,5.3,5.3,0,0,1,.2-1s0-.05,0-.07l.13-.08.26-.14a5.05,5.05,0,0,1,.55-.18,10.53,10.53,0,0,1,2.32-.1c1.53,0,2.91-.29,3.28-3.3l-2.28-1.83c2.17-1,4.7,5.71,4.88,1.8l-.78,6.82a8,8,0,0,1,3.34-3.37l.9-.55.44-.29.22-.15c.08,0,.15-.1.14-.15a4.06,4.06,0,0,0,.25-1.44c-.42-1.88-.55-1.83-.64-1.4l0,.18c0,.06-.15.15-.21.22l-.42.43c-.25.24-.4.37-.39.18l.6-2.92a13.57,13.57,0,0,1,.93,2.18,5.18,5.18,0,0,0,1.38,2.14l-.82-2.48c.79,1.86.87.93.83.39s.05-.72,1.41,2.56c-.35-.48-.69-1-1-1.46l1.3,2.94a8.68,8.68,0,0,0,.59-2.23c1.13,2.16,1.6,1.41,3.25,4.26a24.34,24.34,0,0,0-1-2.63,9.88,9.88,0,0,1,2.46,4.38,10.78,10.78,0,0,0,1.07,3.79c1.16,1.87,1.64,1.54,1.75,1.24.21,1.62-1.09.7-2.38-.64s-2.68-3.1-3.27-3.05c.2.91.37,1.82.5,2.74l-1.47-3.68a23,23,0,0,0,.55,4.78c-1.54-2.42-2-2.07-2.61-1.19a6.91,6.91,0,0,1-1.06,1.44,2.64,2.64,0,0,1-2.14.56c2.24-2.57-2.21-3.39-1.92-4.45-1.42.15-3.88,7.41-5.8,2.95-1.11-1.7,1.31-3-.79-3.54-1.21.65-1.78,2.78-.67,4.48a8.56,8.56,0,0,1-2.11.85,6.29,6.29,0,0,1-1.51.27,25.26,25.26,0,0,0-3,.25c.23-.9.45-1.79.64-2.68-.45-1-.93-.59-1.56.48s-1.4,2.78-2.08,4.3c.06-1.07-.21-.26.34-1.88-.24-2.11-.95-.67-2.22,1.27s-3,4.37-4.44,4.1c-1.63,3.92,0,4,1.78,2l-1.86,4.45c3.44-.37,7.78-1.9,10.37-4.77-.41,1.09-.88,2.18-1.39,3.28,1.07,2.64,1.69,1.19,2.08-.12s.69-2.51,2,.46c.82-.87.44-1.34.06-1.86a1.59,1.59,0,0,1-.27-2c.59.51.68,2.3.84,4s.44,3.18,1.63,3.13a85.2,85.2,0,0,1-14.23,3.94c-5,1-10.13,1.91-15.24,3-.73.88-.4,1.11-.06,1.34-2.74,2.56-7.53,2.43-11.86,1.82,1-5.89,2.34-11.93,2.56-15.81.11-2-.06-3.43-.67-4.23s-1.66-1-3.34-.11c1.57-1.44,3.32-.88,3.14-2.86A6.57,6.57,0,0,0,379.9,215c2.93-4.51,2.85-7.33,2.52-10.55a37.53,37.53,0,0,1-.34-4.93,10.35,10.35,0,0,1,1.35-5.06c-1.81.24-2.79-1.21-4.08-1.25,4.21-1.91-.29-4.9,2.11-6.61l-2.09.55,0-5.3c-.76-.16-.79.56-1.07,1-1-1.16,1.36-1.42,3.16-1.53l-4.53-2.36c7.53-6.9-4.19-15.51.56-23.46-3.56-1.2-5.06-2.22-5.49-4.23l-1.07,1c-3-2,1.81-.11.34-1.85-2.27-1.18-5.4-.36-3.41,1.24-1.21,1-2.45.38-3.32-.33C364.89,144.9,367.29,139,373.85,133.79Z"/><path d="M490.49,140.84c-1.68.69-1.48-2.74-5.08-1.06-7,5.34-1.41,14-6.91,20.33a15,15,0,0,0-4.26,3.66,13.73,13.73,0,0,0,2-.05c-.25,1.73.79,4.51-.95,6.23.74.49,3.54.85,2.88-.09,2.45,2.62-5.22,4.52-3,6,1.84-1.27,2.66,1.27,4.14-.25.38,2.74-9.51,2.49-10.69,4.66.78.13,1.57.26,1.8-.18-4.26,2.37,2.46,7.26-4.5,7.52l2.9,1c-2.27,1-3.83.77-4.77,2.53,1.09,1.27,2.58,0,3.63.46-1.4.27-1.79,1.27-2.32,2.35a4,4,0,0,1-3.16,2.58c-2.19-.38-.73-.67.8-1.3s3.1-1.66,1.13-2.53c-.87-.09-1.13.1-1.23.39a8.82,8.82,0,0,1,.87-2.72,16.12,16.12,0,0,1,1.61-2.48c1.25-1.61,2.78-3.15,4.18-4.66,2.79-3,5-5.84,3.39-8.79,3.09-1.3.21-2.3-2.82-2.87-1.39,1.06-4.33,4.1,1.8,4.17l-4,1.85c.3.7-5.88.68-6.9,1,.71-1.3-5.31-2.77-7.53-1-.7-3.42,13,1.11,11.47-1.92l-4.44-.45c2.37.58,4.43-2,2.94-3l-.88.41c2.1-8.07.13-18.85-1.33-27.77,11-2.2-3.87-6.55,5.06-8.61-1.49-1-3.91,1.39-5.25-.49-.67-.94,2.21-1,3-1l-.87-.86C473.93,133.1,483.44,134.75,490.49,140.84Z"/><path class="cls-1" d="M216.49,556.11c2.92.54,3.89.92-1.7.5,3.83.31,5,.41,6.6.6l3,.33c-3.71-.24-2.5,0-2.09.17a13.81,13.81,0,0,0,3.35-.19l.29,0c-3.91-.4-2.63-.52-1.56-.55s2,0-1.93-.76C220.47,556,214.82,555.58,216.49,556.11Z"/><path class="cls-1" d="M192.93,557l2.24.18q-2.31-.74-4.71-1.58C192.54,556,195.41,557,192.93,557Z"/><path d="M202.35,561.23c-3.66.17-5,1.08-8.22,1.42,3.5-.37,4.11-.13,4.05.29s-.78,1-.06,1.32l5.36-.58c1.61-.59,1.74-1.1,1.39-1.64s-1.18-1.1-1.42-1.66C203.07,560.65,202.7,560.93,202.35,561.23Z"/><path class="cls-1" d="M199.35,562.74l3.74,0C201.93,562.52,200.71,561.81,199.35,562.74Z"/><path class="cls-1" d="M217.64,560.05c0-.27-.52-.15-1.23,0a5.07,5.07,0,0,1-2.46.09A8.87,8.87,0,0,0,217.64,560.05Z"/><path d="M209.74,564.37c-1.28-.38-2.6-.8-4-1.28-.52.37-1,.76-1.52,1.17C206.13,564.35,208,564.39,209.74,564.37Z"/><path d="M199.46,566.9c-.25-.33,1.15-1.17,3.21-1.14-1.59.82-.88,1.07-.15,1.25s1.51.33.28,1.15l-2.23-.27c-1.92.58-.55.72.4.9s1.48.45-1.9,1.53a12.32,12.32,0,0,0,5.2-1.5,8.49,8.49,0,0,1,4.3-1c-2.12-.61-1.38-1.85-.82-2.92-1.26.58-.89.61-1.76,1.26-.74-.54-3.72-.91-5-1.62-2.24.64-2.09,1-1.67,1.21S200.47,566.23,199.46,566.9Z"/><path d="M201.92,570.94c.38.94,1.48,2.32,6.27.33,2.63-2.21-1.41-.55-3.77-.12.57-.57.25-1.43,3.09-2.1C206.56,569.57,203.48,569.91,201.92,570.94Z"/><path d="M204,574.52c1.52-.47,3-1,4.49-1.49h-1l2.82-1.5c-.75.32-6.21,2.71-6.66,1.7C201.85,574.72,204.66,573.6,204,574.52Z"/><path d="M223.91,564.58c-1.75,1.23-.43.8.86.4a3.17,3.17,0,0,0-2.79,0l.75-.32L217,566.24c1.7-.36,1.62.12,2,.29S220.4,566.48,223.91,564.58Z"/><path d="M223.87,564c.87-.29,1.72-.59,2.56-.91C225.59,563.38,224.74,563.68,223.87,564Z"/><path d="M207.27,576.54c0-.67.08-1.32.14-1.95l-.91,1Z"/><path d="M217.64,568.55c0,.46.68-.06,1.43-.6s1.56-1.11,1.74-.85c.55-.12-.73-.62-2.69.27C217.53,567.91,220.85,566.7,217.64,568.55Z"/><path d="M207.72,577.54c1.22-.28,2.4-.58,3.56-.92C210.12,577,208.94,577.26,207.72,577.54Z"/><path d="M208.47,581.43l1.95-1.28a1.41,1.41,0,0,0,.22,1.25c.21.29.46.47.67.73.39.52.47,1.26-1.09,3.25,2-2.07,4.68-3.61,4.62-5-1.23.92-1.46.63-2.75,1.89.11-.7,1.69-2,2.09-2.77-2.35,1.15-1.77-1-4-.09.6-.06.25.33.21.69-2,.74-1.24-.53-.56-1.45s1.18-1.54-1.73.21c1-.41.74.21.42,1S207.85,581.47,208.47,581.43Z"/><path d="M220.5,571.27c.06-.36.13-.71.21-1.06,2.55-1.75.66.51,2.89-1.23,1.34-1.22,1.69-2.12,2.79-2.78-5.66,4.5-.79-.28-7,4.87-1.38-.15,3.37-2.86,2.5-3.23-1.12.67-2.25,1.32-3.4,2,1.18-.13,1.07.29,1,.74S219.39,571.48,220.5,571.27Z"/><path d="M222.05,574.64l-1.41,2,2.31-2.48c2,1.3-7.36,11.64-5,11.34,4.53-1.81.6,4,2.3,4.79,2.74-1.35.71-1.77,2-3,4.38-3.66-1.66,2.65,2.07-.22,3.13-2.7,2.07-4.33,3.41-6.57-.88-.09-1.82.78-3.68,2.21,1.59-1.67,1.65-2.64,3.24-4.32-3.31,1.18.72-3.48-2.76-2.12,2-2.43,1.13.33,1.17-.31l-.55-.5-.32.41c-3,1.42-2.09-1.95-1-3.85-.45,1.09-2.14,3.11-3.27,3.33l2.37-2.83-4.78,2.63C221.44,573.4,217,579,222.05,574.64Z"/><path d="M226,569.15c.2-1.22-.77-.27-1.78.69a8.44,8.44,0,0,1-1.4,1.17c-.36.23-.67.1-.51-.35a4.65,4.65,0,0,1,.65.44l.73.53Z"/><path class="cls-1" d="M224.17,580.69l-1.33,2.24C226.34,579.18,220.49,582.91,224.17,580.69Z"/><polygon class="cls-1" points="226.09 582.73 222.35 585.59 224.79 584.33 226.09 582.73"/><path d="M223.62,588.43c2.14-1.19,3.15-3,2.28-3.12C226.16,585.87,224.86,587.47,223.62,588.43Z"/><path class="cls-1" d="M219.78,597.61c-.87-.93-.09,1.63-3.83,3.79C217.54,600.18,219.94,598.87,219.78,597.61Z"/><path d="M214.39,608.17c-1,.26-.49-.44.31-1.26C214.86,607.22,214.84,607.6,214.39,608.17Z"/><path d="M214.3,586.56a.48.48,0,0,1-.21-.42C214.17,586.28,214.23,586.42,214.3,586.56Z"/><path d="M214.44,586.84l-.14-.28A.5.5,0,0,1,214.44,586.84Z"/><path d="M213.44,600.65h0l.26-.37Z"/><path d="M192.8,560c-.51-.2-.76-.36-.83-.49.29.16.56.33.87.48Z"/><path d="M200.87,559.23c2.3.29.13.53-2,.93s-4.36.92-2.37,1.5a30.18,30.18,0,0,1-3.62-1.63,13.39,13.39,0,0,1,4.45-.31A8.76,8.76,0,0,0,200.87,559.23Z"/><path d="M215.13,566.6l.17,0C215.51,566.57,215.33,566.6,215.13,566.6Z"/><polygon class="cls-1" points="223.67 527.66 222.86 526.65 224.63 527.32 223.67 527.66"/><path class="cls-1" d="M222.1,525.93l-2.8-.89,6.86-6.58.89,1.57C228.63,521.75,220.56,524.5,222.1,525.93Z"/><path class="cls-1" d="M223,527.79c2.66,4.71-2.42-.53-.9,3.1-1-2.43-2.37-4.92-.95-4.33Z"/><path class="cls-2" d="M227.1,537.75c-1.08-.51-.11,1.63-.84,1.19C223.8,535.65,226.41,537.6,227.1,537.75Z"/><path d="M235.93,550.69a.18.18,0,0,1-.16.18c-.09-.25-.19-.51-.3-.75Z"/><path d="M235.47,550.12l-1.16-1.43A3.88,3.88,0,0,1,235.47,550.12Z"/><path d="M235.77,550.87a11,11,0,0,0,.78,1.89l.35.07c.08.57.62,2.06-.15,1.34.65-.13-.16-1.13-1.78-3.14l-.95.34C230.27,546.51,234.86,551.1,235.77,550.87Z"/><path class="cls-2" d="M234.38,553.92l-1.47-3.34C235.25,553,234.68,553.71,234.38,553.92Z"/><path d="M230.76,551.73c-.51-.89.47-1.26-1-2.12-.31-.64-.08-.64.08-.75C229.88,549.9,232.94,552.75,230.76,551.73Z"/><path d="M229.84,548.86a.38.38,0,0,1,.1-.32A.29.29,0,0,1,229.84,548.86Z"/><path class="cls-2" d="M228.09,530.56a3.65,3.65,0,0,1-.9-1Z"/><path d="M227.72,549.32l-.14.07s0-.11,0-.2Z"/><path d="M229.72,505.53c-1.67,0-3.34-.14-3.31,2.82,2.82,3.37.21,1.42,3.05,5.07,1.1-1.68-3.84,6.7-1.43,7.24l-.92-1.86,2.54,3.86c-1.45-.32-4.74-2.36-3.55.08-1-1,5.9-5.15,4.84-6,3.91,3.66-5,10.76-3.75,12.79l-1.87-2.09c.78,3.2,2.64,6.9,3,9.17l-2.34-2.44c1.38.3.1-1.63-.13-3.33-.8,1.47-2.34,0-2.83,1.3,2.81,3.37,2.15,1,2.55,3.86-1.5-1.16-3.78-5.5-4.23-3.95-2,.1,2.36,4.91,1.52,6.1l1.77.67c-.27.49-.41,1.83-2.3.31.65-.13.26-3-2.56-6.33.17,1.13-1.9.68-2.17,1.17l-1.7-2.57c-2.28-1.87.28,1.66-2,.14a5.52,5.52,0,0,0,1.86,2.38,7.19,7.19,0,0,1,1.81,2c-.75-.74-3-1.08-1.94.69,2.36,2.25,2.29,1.69,2.28,1s0-1.38,2.35.79c-.56,0-1.06-.12-1.61-.16,1.85,2.6,2.16,2.32,2.38,1.92.09-.2.23-.47.52-.44s.71.42,1.44,1.47c.88,1.42.92,1.94.71,1.92a6.65,6.65,0,0,1-1.41-.89c-1.14-.82-2.26-1.37.42,1.88,1.41.91,2.35.35,3.7,2.22-1.82-1.6.92,2,1.23,2.84-.81-.63-1.64-1.24-2.5-1.82a10,10,0,0,0,2.5,2.31c-1.59-1.12-1.9-.65-2.26-.28s-.8.66-3.28-.27c.12.49.75.89,1.55,1.36a26.6,26.6,0,0,1,2.71,1.73c-1.87-1-2.21-.94-2.08-.65s.74.83.6.9a44.9,44.9,0,0,0,4.9,2.61,22.85,22.85,0,0,1-1.93-1.54c1.91,1.09,5.09,2.84,4.73,2.56-3.47-2-2.28-1.51-1.27-1s1.84,1-1.7-1.6l3.24,2.35a16.31,16.31,0,0,1-1.79-1.93l-.42-.33c.5.42.07-.08-.26-.62s-.52-1.1.2-.62c.78,1-.66.25,2.63,3,.76.83.49.64.11.44s-.88-.38-.28.19l2.21,1.57c1.52,1.14,1.35.91.74.57s-1.62-.8-1.24-.56c-1.18-.57-2.35-1.15-3.49-1.75-1.39-.61-4.64-1.72-1.61-.28,0-.2,2,.77,3.56,1.45,1,.46.89.45.69.44s-.48,0,.29.23l-1.5-.44c.79.28,1.62.54,2.48.78-.72-.17-3.29-.76-6.32-1.34a14.35,14.35,0,0,0,3.07.73c.27,0,.53.09.28,0,2.42.54,2.07.46,1.45.35s-1.49-.25,0,.05c-2.1-.39-3.6-.68-5.15-.93s-3.14-.48-5.31-.86a34,34,0,0,0,4.72.91c2,.29,4,.61,5,.78a53.93,53.93,0,0,0-7.83-.63c2.86.32,2.14,0,5.33.44-.8,0-.59,0,.48.16.79.06,1.56.12,2.32.2a12.86,12.86,0,0,0-3.61-.1,5.44,5.44,0,0,0,1.46.26l1.46.05-.07.07L227,558c1.43.11-3.13.17,1.1.26l.36,0,1.73.1c-1.73,0-3.48-.07-5.26-.14-1,.1,1.23.24,3.54.28s4.71,0,4.33,0a25.2,25.2,0,0,1-4.9.11c-1-.08-2.18-.2-6.72-.2-1.32.14-2.5.49-.1.49s2.32-.2,2.27-.29c2.45.1,1.9.27,1.77.47s.12.37,3.77,0q1.25-.23,2.55-.39a25.11,25.11,0,0,1-2.85.5c-1.4.24-2.29.45,0,.15-2.68.33-5.42.61-8.19.84a32,32,0,0,1,3.89.08,12.33,12.33,0,0,0,3-.07c2.17-.48,2.09-.53,1.56-.5s-1.53.13-1.08.06c1.11-.16,2.21-.34,3.3-.52-1.18.35-1.82.53-2.46.7a9.46,9.46,0,0,0-2.32.91l2.82-.74c-2.09.63-1,.51-.33.41s.87-.1-2.81,1c.51-.23,1-.44,1.56-.65l-3.27,1a24.26,24.26,0,0,0,2.74-.12c-2.38.82-1.4.89-4.52,2,1-.26,2-.54,3-.85a19.88,19.88,0,0,1-4.81,1.71,31,31,0,0,0-4.33,1.06c-2,.77-1.56.91-1.18.91-1.9.35-1-.33.36-1.08s3.24-1.59,3.09-1.82c-1.05.22-2.11.44-3.18.64l4.13-1.19c-.93.06-3.84.64-5.6,1,2.63-1,2.14-1.15,1-1.26s-3-.18-2.67-.72a6.85,6.85,0,0,0,3.34-.49,6.56,6.56,0,0,1,2-.65c-.08-.15-2.34-.12-4-.27s-2.59-.42.26-.78c2.19-.34,3.8.07,4.54-.39a22.41,22.41,0,0,0-5.77.08c-2.14-.62-1.7-1.51-2.52-2.25l3.69.27c1.31-.16.68-.35-.85-.6s-4-.56-6.1-.84a14.93,14.93,0,0,1,2.59.15l.58,0c2.49-.06.6-.34-1.51-.79s-4.44-1.06-3.19-1.49c-5-.62-6.15-.09-4.16.53l-5.62-.71a3.34,3.34,0,0,0-1.21,1.32,20,20,0,0,0,6.16,2.48c-1.53-.17-3.07-.36-4.62-.56-3.4.38-1.37.63.46.79s3.48.29-.34.77c2.56.62,2.43-.49,5.2,0A32.26,32.26,0,0,1,196,559c-2.21,0-4.22.14-4,.59a38.44,38.44,0,0,1-6.78-5c1.7-1.8,3.82-3.63,5.5-5.46a3.81,3.81,0,0,0-2,0c-1.42-.63-.51-1.51,1.34-2.45a71.29,71.29,0,0,1,7-2.74c4.8-1.75,8.2-3.21,3.48-6.32,1.65.68,2.63,2.13,3.29,1.36A10.82,10.82,0,0,0,200.8,537c3.8.68,4.87-.29,5.92-1.58s2-2.85,4.66-2.51c-1.33-1.24-1.43-2.43-2.29-3.39,1.92,1.15,2.45.62,2.88-.12a5.38,5.38,0,0,1,.53-.92c.2-.19.51-.23,1.06.1L212,527.15l2.1-1.74c-.43-.64-.73-.43-1.08-.51-.16-1.13,1.42.59,2.61,2l-1.93-4.27c7.51,3.58,3.51-8.29,9.68-7.2-1.78-3.14-2.33-4.64-1.8-5.62l-1.07-.51c-1.09-3,1.19,1.36.95-.34-1-2.14-3.27-4.29-2.65-2.23a4.25,4.25,0,0,1-2-2.68C219.63,502.21,223.51,502.14,229.72,505.53Z"/><path d="M215.62,622.51c1-1.4,2,0,4.12-3,3.31-6.73-3.81-6.26-1.94-12.36a16.48,16.48,0,0,0,1.88-4.26c-.45.38-1,.89-1.47,1.37-.42-.82-2.15-1.17-1.46-3-.71.31-2.91,2.07-2.09,2-2.72.66,2.29-5.23.14-4.29-.92,1.73-2.4,1.32-3,2.89-1.23-.79,6.16-7.36,6.28-9-.62.48-1.25,1-1.27,1.28,2.33-3.77-4.33-1.09.72-5.88l-2.47,1.59c1.32-1.93,2.56-2.88,2.65-4.17-1.2.31-1.89,1.76-2.81,2.31,1.91-2.07-.07-2.37,2.36-5.55,3.21-3-3.48,4.89-.1,2.75.66-.57.78-.82.76-1,1.69,3.44-5.47,13.78-1,13.81-1.83,2.57.65,1,3.08-.81.66-1.35,1.78-4.48-2.77-.38l2.3-3.38c-.47-.06,4.1-4.22,4.75-5-.07,1,4.88-2.53,5.91-4.7,1.71.83-10,8.37-7.79,8.47l3.42-2.82c-2,1.38-2.55,3.76-1.12,3.13l.51-.75c1.25,4.47,6.43,7.23,10.6,9.63-7.36,8.24,5.12-.12-.75,6.68,1.43-.63,2.4-3.17,4-3.36.82-.09-1.28,1.88-1.89,2.42l.94-.27C230.52,614.28,222.93,620.06,215.62,622.51Z"/><path class="cls-1" d="M551,280.49c.54-2.91.92-3.88.5,1.7.3-3.82.4-5,.6-6.6.07-.67.18-1.6.33-3-.25,3.71,0,2.5.17,2.1a15.13,15.13,0,0,0-.19-3.36c0-.08,0-.18,0-.29-.4,3.92-.52,2.64-.56,1.56s0-2-.75,1.93C551,276.52,550.51,282.16,551,280.49Z"/><path class="cls-1" d="M551.94,304.05l.18-2.24q-.74,2.31-1.58,4.72C551,304.44,552,301.58,551.94,304.05Z"/><path d="M556.16,294.63c.17,3.67,1.08,5,1.42,8.23-.37-3.51-.13-4.12.29-4.05s1,.77,1.32.05l-.58-5.36c-.59-1.61-1.1-1.74-1.64-1.39s-1.1,1.19-1.66,1.43C555.58,293.91,555.86,294.28,556.16,294.63Z"/><path class="cls-1" d="M557.67,297.63l0-3.74C557.45,295.05,556.73,296.27,557.67,297.63Z"/><path class="cls-1" d="M555,279.35c-.27,0-.15.51,0,1.23a5.06,5.06,0,0,1,.09,2.46A8.87,8.87,0,0,0,555,279.35Z"/><path d="M559.3,287.24c-.38,1.28-.8,2.61-1.28,4,.37.53.76,1,1.16,1.52Q559.33,289.91,559.3,287.24Z"/><path d="M561.83,297.52c-.33.26-1.17-1.14-1.14-3.21.82,1.59,1.07.89,1.25.16s.33-1.51,1.15-.29l-.27,2.23c.58,1.93.71.55.9-.39s.44-1.48,1.52,1.89a12.4,12.4,0,0,0-1.49-5.2,8.49,8.49,0,0,1-1-4.3c-.61,2.13-1.85,1.39-2.92.82.57,1.26.61.9,1.26,1.76-.54.74-.91,3.73-1.63,4.95.65,2.24.95,2.09,1.22,1.67S561.16,296.51,561.83,297.52Z"/><path d="M565.87,295.06c.93-.38,2.32-1.47.33-6.26-2.21-2.64-.55,1.41-.13,3.77-.56-.57-1.42-.26-2.09-3.09C564.5,290.42,564.84,293.51,565.87,295.06Z"/><path d="M569.45,292.94c-.47-1.51-1-3-1.49-4.48v1l-1.5-2.81c.32.74,2.7,6.2,1.7,6.65C569.64,295.13,568.53,292.33,569.45,292.94Z"/><path d="M559.5,273.07c1.24,1.75.81.44.41-.85a3.18,3.18,0,0,0,0,2.79l-.31-.75s.81,2.95,1.56,5.71c-.36-1.7.12-1.62.29-2.06S561.41,276.58,559.5,273.07Z"/><path d="M558.9,273.12c-.29-.87-.59-1.73-.91-2.57C558.31,271.39,558.61,272.25,558.9,273.12Z"/><path d="M571.46,289.71c-.66,0-1.31-.07-2-.13l1,.9Z"/><path d="M563.48,279.34c.46,0-.06-.68-.61-1.43s-1.11-1.56-.85-1.73c-.12-.55-.61.72.28,2.69C562.84,279.45,561.62,276.13,563.48,279.34Z"/><path d="M572.46,289.27c-.27-1.22-.57-2.41-.91-3.57C571.89,286.86,572.19,288.05,572.46,289.27Z"/><path d="M576.36,288.51l-1.28-1.95a1.37,1.37,0,0,0,1.24-.22c.3-.21.48-.46.74-.66.52-.39,1.26-.47,3.25,1.08-2.07-2-3.61-4.67-4.95-4.62.92,1.24.62,1.46,1.89,2.76-.7-.12-2-1.7-2.77-2.09,1.15,2.34-1,1.77-.09,4-.07-.61.32-.26.69-.22.74,2-.53,1.24-1.45.56s-1.54-1.18.21,1.73c-.41-1,.21-.74.95-.42S576.4,289.14,576.36,288.51Z"/><path d="M566.2,276.49l-1.06-.21c-1.75-2.56.51-.67-1.23-2.9-1.22-1.34-2.12-1.69-2.78-2.78,4.49,5.65-.29.78,4.87,7-.16,1.37-2.86-3.38-3.23-2.51.66,1.12,1.32,2.26,2,3.4-.14-1.18.28-1.07.74-1S566.41,277.59,566.2,276.49Z"/><path d="M569.56,274.93l2,1.41L569.05,274c1.3-2,11.63,7.37,11.34,5-1.81-4.53,4-.6,4.78-2.3-1.34-2.74-1.76-.71-3-2-3.66-4.38,2.64,1.65-.22-2.07-2.71-3.14-4.33-2.08-6.57-3.41-.09.87.78,1.81,2.21,3.68-1.68-1.59-2.64-1.66-4.32-3.25,1.17,3.32-3.48-.72-2.12,2.77-2.43-2,.33-1.14-.32-1.18l-.49.55.4.33c1.42,3-1.94,2.09-3.85.95,1.1.46,3.12,2.15,3.34,3.27L567.36,274l2.63,4.79C568.33,275.54,573.93,280,569.56,274.93Z"/><path d="M564.08,271c-1.22-.2-.27.78.69,1.78a8.87,8.87,0,0,1,1.17,1.4c.23.36.1.68-.35.51a5.33,5.33,0,0,1,.44-.65l.53-.72Z"/><path class="cls-1" d="M575.62,272.81l2.24,1.33C574.11,270.65,577.84,276.49,575.62,272.81Z"/><polygon class="cls-1" points="577.65 270.9 580.52 274.63 579.25 272.19 577.65 270.9"/><path d="M583.35,273.36c-1.18-2.14-3-3.15-3.12-2.27C580.8,270.83,582.4,272.12,583.35,273.36Z"/><path class="cls-1" d="M592.54,277.2c-.94.87,1.63.09,3.79,3.83C595.11,279.45,593.8,277,592.54,277.2Z"/><path d="M603.09,282.6c.27,1-.43.49-1.25-.31C602.15,282.13,602.53,282.14,603.09,282.6Z"/><path d="M581.49,282.68a.45.45,0,0,1-.42.21Z"/><path d="M581.76,282.55l-.27.13A.41.41,0,0,1,581.76,282.55Z"/><path d="M595.58,283.55h0c-.13-.09-.22-.14-.37-.26Z"/><path d="M555,304.18c-.2.51-.36.76-.49.83.16-.29.32-.56.48-.87A.06.06,0,0,0,555,304.18Z"/><path d="M554.16,296.11c.29-2.29.53-.13.92,2s.92,4.36,1.5,2.37a28.66,28.66,0,0,1-1.62,3.62,13.09,13.09,0,0,1-.31-4.45A8.77,8.77,0,0,0,554.16,296.11Z"/><path d="M561.53,281.86a1.22,1.22,0,0,0,0-.17C561.49,281.48,561.53,281.65,561.53,281.86Z"/><polygon class="cls-1" points="522.59 273.31 521.58 274.12 522.25 272.35 522.59 273.31"/><path class="cls-1" d="M520.86,274.89l-.89,2.8-6.58-6.87,1.57-.89C516.68,268.35,519.42,276.43,520.86,274.89Z"/><path class="cls-1" d="M522.72,274c4.71-2.67-.54,2.41,3.1.9-2.43,1-4.93,2.36-4.33.94Z"/><path class="cls-2" d="M532.68,269.89c-.51,1.07,1.63.1,1.19.83C530.58,273.19,532.53,270.58,532.68,269.89Z"/><path d="M545.62,261.06a.18.18,0,0,1,.18.16,5.33,5.33,0,0,0-.75.3Z"/><path d="M545.05,261.52l-1.43,1.15A3.75,3.75,0,0,1,545.05,261.52Z"/><path d="M545.8,261.22a11.51,11.51,0,0,0,1.88-.79l.08-.34c.57-.08,2.06-.62,1.34.14-.13-.65-1.13.16-3.14,1.78l.34,1C541.44,266.71,546,262.12,545.8,261.22Z"/><path class="cls-2" d="M548.85,262.6l-3.35,1.48C548,261.73,548.64,262.3,548.85,262.6Z"/><path d="M546.66,266.23c-.9.51-1.26-.48-2.13,1-.63.32-.63.08-.75-.08C544.83,267.1,547.67,264,546.66,266.23Z"/><path d="M543.78,267.14a.34.34,0,0,1-.31-.1C543.66,267,543.73,267.07,543.78,267.14Z"/><path class="cls-2" d="M525.48,268.89a3.37,3.37,0,0,1-1,.9Z"/><path d="M544.25,269.26l.07.14s-.11,0-.2,0Z"/><path d="M500.46,267.27c0,1.67-.14,3.34,2.82,3.3,3.37-2.81,1.42-.2,5.07-3.05-1.68-1.1,6.7,3.84,7.23,1.43l-1.85.93,3.86-2.55c-.32,1.45-2.36,4.74.08,3.55-1,1.05-5.16-5.89-6-4.83,3.66-3.92,10.76,5,12.78,3.74l-2.08,1.88c3.19-.79,6.9-2.64,9.17-3l-2.44,2.35c.3-1.38-1.63-.11-3.33.13,1.47.79,0,2.33,1.3,2.82,3.37-2.81,1-2.14,3.86-2.55-1.16,1.5-5.5,3.78-4,4.23.11,2,4.92-2.36,6.11-1.52l.66-1.77c.49.27,1.84.42.32,2.3-.13-.65-3-.25-6.34,2.56,1.14-.16.68,1.91,1.17,2.17l-2.57,1.7c-1.86,2.29,1.67-.28.15,2a5.52,5.52,0,0,0,2.38-1.86,7.09,7.09,0,0,1,2-1.8c-.74.74-1.07,2.95.7,1.93,2.25-2.36,1.69-2.28,1-2.28s-1.38,0,.78-2.35c0,.57-.11,1.06-.15,1.62,2.6-1.86,2.32-2.17,1.91-2.38-.19-.1-.47-.23-.43-.52s.42-.71,1.47-1.44c1.42-.89,1.94-.93,1.92-.72a6.18,6.18,0,0,1-.89,1.41c-.82,1.15-1.37,2.27,1.88-.42.91-1.41.35-2.35,2.22-3.7-1.6,1.82,2-.92,2.84-1.22-.63.8-1.24,1.63-1.82,2.5a10.23,10.23,0,0,0,2.31-2.51c-1.12,1.59-.66,1.9-.29,2.26s.67.8-.26,3.28c.49-.12.89-.75,1.36-1.55a26.6,26.6,0,0,1,1.73-2.71c-1,1.87-.95,2.22-.65,2.08s.82-.73.9-.59a45.74,45.74,0,0,0,2.6-4.9,22.36,22.36,0,0,1-1.53,1.93c1.09-1.91,2.84-5.1,2.56-4.74-2,3.47-1.51,2.29-1,1.27s1-1.83-1.59,1.7l2.35-3.24a16.31,16.31,0,0,1-1.93,1.79l-.33.42c.42-.5-.09-.06-.62.26s-1.1.52-.62-.2c1-.78.25.67,3-2.63.82-.76.63-.49.44-.1s-.39.87.19.27l1.56-2.21c1.15-1.52.91-1.35.58-.74s-.81,1.62-.56,1.25c-.57,1.18-1.15,2.34-1.75,3.48-.61,1.4-1.72,4.65-.28,1.61-.21,0,.77-2,1.45-3.56.46-1,.45-.88.44-.69s0,.49.23-.28l-.44,1.5c.28-.8.54-1.63.77-2.49-.16.72-.75,3.3-1.33,6.32a14.35,14.35,0,0,0,.73-3.07c0-.26.08-.52,0-.27.54-2.42.46-2.08.35-1.46s-.25,1.5,0,0c-.39,2.11-.68,3.6-.93,5.15s-.48,3.14-.86,5.32a33,33,0,0,0,.9-4.73c.3-2,.61-4,.79-5A54,54,0,0,0,552,272c.31-2.85,0-2.14.44-5.33-.06.81,0,.59.16-.48,0-.78.12-1.56.2-2.32a12.48,12.48,0,0,0-.1,3.62A5.68,5.68,0,0,0,553,266l0-1.46.07.07-.2,5.38c.11-1.43.17,3.13.26-1.1l0-.35.1-1.74c0,1.73-.07,3.48-.14,5.26.09,1,.24-1.22.28-3.54s0-4.71,0-4.33a25.2,25.2,0,0,1,.11,4.9c-.08.95-.2,2.19-.2,6.72.14,1.33.49,2.51.49.1s-.2-2.31-.29-2.27c.09-2.45.26-1.89.46-1.77s.38-.12,0-3.77c-.15-.83-.28-1.68-.4-2.55a23.94,23.94,0,0,1,.51,2.85c.24,1.4.45,2.29.15,0q.5,4,.84,8.2a31.89,31.89,0,0,1,.08-3.89,12.46,12.46,0,0,0-.08-3c-.47-2.18-.52-2.1-.49-1.56s.13,1.53.06,1.07c-.17-1.11-.34-2.21-.52-3.3.34,1.19.53,1.82.7,2.47a9.42,9.42,0,0,0,.91,2.31l-.74-2.82c.63,2.09.51,1,.41.33s-.1-.86,1,2.82c-.23-.52-.44-1-.65-1.57l1,3.28c0-1,0-1.88-.12-2.75.82,2.38.88,1.41,2,4.52-.26-1-.55-2-.85-2.95a19.73,19.73,0,0,1,1.71,4.81,31,31,0,0,0,1.05,4.32c.78,2,.92,1.57.92,1.19.34,1.89-.33,1-1.08-.37s-1.59-3.24-1.83-3.09c.23,1.05.45,2.12.65,3.19l-1.19-4.14c.06.93.64,3.85,1,5.6-1-2.62-1.15-2.13-1.25-1s-.18,3-.72,2.66a6.82,6.82,0,0,0-.49-3.33,7.06,7.06,0,0,1-.66-2c-.14.09-.11,2.34-.26,4s-.42,2.59-.78-.26c-.34-2.19.07-3.79-.4-4.54a22.61,22.61,0,0,0,.09,5.78c-.62,2.13-1.52,1.7-2.25,2.52l.27-3.7c-.16-1.31-.35-.67-.6.86s-.56,3.95-.84,6.09a13.85,13.85,0,0,1,.15-2.58c0-.21,0-.41,0-.58-.06-2.49-.34-.61-.8,1.5s-1,4.45-1.48,3.19c-.62,5-.09,6.16.53,4.16l-.71,5.62a3.2,3.2,0,0,0,1.32,1.21,19.8,19.8,0,0,0,2.48-6.16c-.17,1.53-.36,3.07-.57,4.63.39,3.39.64,1.36.8-.46s.29-3.49.77.33c.62-2.55-.49-2.42,0-5.2a32.35,32.35,0,0,1,.28,5.21c.05,2.21.14,4.23.59,4a38.44,38.44,0,0,1-5,6.78c-1.8-1.7-3.63-3.82-5.47-5.49a4,4,0,0,0,0,2c-.62,1.43-1.51.52-2.44-1.33a71.53,71.53,0,0,1-2.74-7c-1.76-4.8-3.21-8.2-6.32-3.48.68-1.65,2.13-2.62,1.36-3.28a10.56,10.56,0,0,0-1.91,2.94c.68-3.8-.29-4.86-1.58-5.92s-2.85-2-2.51-4.66c-1.24,1.34-2.44,1.43-3.39,2.3,1.15-1.93.61-2.46-.12-2.88a5.38,5.38,0,0,1-.92-.53c-.19-.21-.23-.52.1-1.07L522.08,285l-1.74-2.09c-.64.42-.43.73-.51,1.07-1.13.16.59-1.42,1.95-2.61l-4.27,1.93c3.58-7.51-8.29-3.5-7.2-9.67-3.14,1.78-4.64,2.32-5.62,1.79l-.51,1.08c-3,1.08,1.36-1.2-.34-1-2.14,1-4.3,3.28-2.23,2.65a4.25,4.25,0,0,1-2.68,2C497.14,277.36,497.07,273.47,500.46,267.27Z"/><path d="M617.43,281.37c-1.39-1,.05-2-3-4.12-6.74-3.31-6.26,3.81-12.37,1.94a16.43,16.43,0,0,0-4.25-1.89c.38.45.89,1,1.37,1.47-.82.42-1.18,2.15-3,1.46.31.72,2.06,2.91,2,2.09.66,2.72-5.23-2.28-4.29-.14,1.72.93,1.31,2.41,2.88,3-.78,1.23-7.35-6.16-9-6.27.48.62,1,1.24,1.28,1.26-3.77-2.32-1.1,4.33-5.88-.72l1.59,2.47c-1.93-1.31-2.88-2.55-4.17-2.65.31,1.2,1.75,1.89,2.31,2.81-2.08-1.91-2.38.07-5.55-2.36-3-3.21,4.89,3.49,2.75.11-.57-.66-.82-.78-1-.76,3.44-1.7,13.78,5.47,13.81,1,2.57,1.83,1-.64-.81-3.08-1.35-.66-4.48-1.77-.38,2.77l-3.38-2.29c-.06.46-4.23-4.11-5-4.76,1,.07-2.52-4.88-4.69-5.91.83-1.7,8.37,10,8.46,7.8l-2.82-3.43c1.39,1.95,3.76,2.56,3.13,1.12l-.74-.51c4.47-1.24,7.23-6.43,9.63-10.6,8.24,7.36-.12-5.12,6.67.76-.62-1.44-3.16-2.4-3.35-4.05-.09-.82,1.88,1.28,2.41,1.9-.08-.31-.17-.63-.26-.95C609.21,266.46,615,274.05,617.43,281.37Z"/></svg>