<?xml version="1.0" encoding="UTF-8" standalone="no"?>
<svg
   xmlns:dc="http://purl.org/dc/elements/1.1/"
   xmlns:cc="http://creativecommons.org/ns#"
   xmlns:rdf="http://www.w3.org/1999/02/22-rdf-syntax-ns#"
   xmlns:svg="http://www.w3.org/2000/svg"
   xmlns="http://www.w3.org/2000/svg"
   version="1.1"
   viewBox="0 0 681 681"
   data-name="Capa 1"
   id="Capa_1">
  <metadata
     id="metadata5313">
    <rdf:RDF>
      <cc:Work
         rdf:about="">
        <dc:format>image/svg+xml</dc:format>
        <dc:type
           rdf:resource="http://purl.org/dc/dcmitype/StillImage" />
        <dc:title>iconos_home</dc:title>
      </cc:Work>
    </rdf:RDF>
  </metadata>
  <defs
     id="defs4875">
    <style
       id="style4877">.cls-1{fill:#fff;}.cls-2{fill:none;stroke:#000;stroke-linecap:round;stroke-linejoin:round;stroke-width:0;}</style>
  </defs>
  <title
     id="title4879">iconos_home</title>
  <path
     style="fill:#000000;stroke-width:8;stroke-miterlimit:4;stroke-dasharray:none;stroke:#000000;stroke-opacity:1"
     id="path4881"
     d="M126.41,575.57c.57,4.14.79,13.23-.17,13,1,.18,1,.18,1.65,6.37-.64-.13-.47,5.43-.41,9,.46-2.92.53-6.93.69-15-1.39-7.31.72-22.49-.81-29.34C127,564.62,126,569.46,126.41,575.57Z"
     class="cls-1" />
  <path
     style="fill:#000000;stroke-width:8;stroke-miterlimit:4;stroke-dasharray:none;stroke:#000000;stroke-opacity:1"
     id="path4883"
     d="M122.18,608.5l.38,1-.6-12.7C122.27,599.43,122.63,608,122.18,608.5Z"
     class="cls-1" />
  <path
     style="fill:#000000;stroke-width:8;stroke-miterlimit:4;stroke-dasharray:none;stroke:#000000;stroke-opacity:1"
     id="path4885"
     d="M157.5,615.17c-1.17.66,5.27,1.3,5.12,1.94-.19-1.43,10.12.08,15.69.1l2.28-1c-5.37-1-19-1.14-30.56-1.66Z" />
  <path
     style="fill:#000000;stroke-width:8;stroke-miterlimit:4;stroke-dasharray:none;stroke:#000000;stroke-opacity:1"
     id="path4887"
     d="M167.87,616.35l3.68-.56C168.49,615.86,161.43,615.71,167.87,616.35Z"
     class="cls-1" />
  <path
     style="fill:#000000;stroke-width:8;stroke-miterlimit:4;stroke-dasharray:none;stroke:#000000;stroke-opacity:1"
     id="path4889"
     d="M160.21,612.24c-9-.42,5.42.67-3.68.57C159.59,612.73,163.12,612.81,160.21,612.24Z"
     class="cls-1" />
  <polygon
     style="fill:#000000;stroke-width:8;stroke-miterlimit:4;stroke-dasharray:none;stroke:#000000;stroke-opacity:1"
     id="polygon4891"
     points="197.92 615.8 178.69 615.62 186.62 616.38 197.92 615.8" />
  <path
     style="fill:#000000;stroke-width:8;stroke-miterlimit:4;stroke-dasharray:none;stroke:#000000;stroke-opacity:1"
     id="path4893"
     d="M198.88,618.16c-2.5-.1-6.44-.64-2.84-.89,6.85,1.11,11.15.05,17.52,1l-6.12.14c.8.94,12.78-.46,12.41,1.14,8.3-.84-6.23-1.6,4.53-2-10.13-.07-17.59-.69-26.07-1.29,2.45.42,3.45.4,6.91.79-6-.17-14.2,0-21.26-.13C187.74,618.1,193,617.34,198.88,618.16Z" />
  <path
     style="fill:#000000;stroke-width:8;stroke-miterlimit:4;stroke-dasharray:none;stroke:#000000;stroke-opacity:1"
     id="path4895"
     d="M229.5,619.5c6.51.32,16.56.72,18.35-.44-6.84-1.11-8.09-.12-11.21.27-2-.27-8.49-.6-5.82-1.14C231.77,618.49,226.58,618.93,229.5,619.5Z" />
  <path
     style="fill:#000000;stroke-width:8;stroke-miterlimit:4;stroke-dasharray:none;stroke:#000000;stroke-opacity:1"
     id="path4897"
     d="M255.08,620.64l4.79-.91-3.06.07-.33-.78c-.55.17-2.88,1.49-9.4,1.17C250.45,620.91,251.64,620.24,255.08,620.64Z" />
  <path
     style="fill:#000000;stroke-width:8;stroke-miterlimit:4;stroke-dasharray:none;stroke:#000000;stroke-opacity:1"
     id="path4899"
     d="M256.85,615.35c4.39.69,7,.47,12.08.35-7.07-.15-17.11-.54-19.24-.18l.57-.17s-6.67.32-11.39.91C246.1,615.77,258.9,617.37,256.85,615.35Z" />
  <path
     style="fill:#000000;stroke-width:8;stroke-miterlimit:4;stroke-dasharray:none;stroke:#000000;stroke-opacity:1"
     id="path4901"
     d="M247.82,614.93l5.17-.44Z" />
  <polygon
     style="fill:#000000;stroke-width:8;stroke-miterlimit:4;stroke-dasharray:none;stroke:#000000;stroke-opacity:1"
     id="polygon4903"
     points="275.26 621.11 265.3 620.4 267.72 620.82 275.26 621.11" />
  <path
     style="fill:#000000;stroke-width:8;stroke-miterlimit:4;stroke-dasharray:none;stroke:#000000;stroke-opacity:1"
     id="path4905"
     d="M263.46,617.42c8,.45-4.34-1,3.19-.71,2.05-.05-11-.37-11.68.12C256.93,617.1,262.66,616.49,263.46,617.42Z" />
  <path
     style="fill:#000000;stroke-width:8;stroke-miterlimit:4;stroke-dasharray:none;stroke:#000000;stroke-opacity:1"
     id="path4907"
     d="M281.77,621.44l8.24-.52Z" />
  <path
     style="fill:#000000;stroke-width:8;stroke-miterlimit:4;stroke-dasharray:none;stroke:#000000;stroke-opacity:1"
     id="path4909"
     d="M302.27,622.7l1.64-.52c7.93.77,18.69.35,24.42,1.81-1.33-.77,3.36-1.35-3.62-1.82-1.1.34-3.6.24-3.21.71-3-.25-2.36-.74-4.34-1-5.16.44-13.1-.33-17.24.09a26.46,26.46,0,0,1,4,.22c-8.78.69-10.22-1.82-14.12-.3C292.91,621.49,298.19,622.79,302.27,622.7Z" />
  <path
     style="fill:#000000;stroke-width:8;stroke-miterlimit:4;stroke-dasharray:none;stroke:#000000;stroke-opacity:1"
     id="path4911"
     d="M301.69,618.74l-7-.47c2.21-.69,8.57.27,9.74-.39-.4-.47-7.38-.94-4.8-1.16-.92,1.77-9.58-.25-6,1.89-9.1-.1-2.76-1.2-12.34-1.45l-2.74.86C289.2,617.92,291,618.83,301.69,618.74Z" />
  <path
     style="fill:#000000;stroke-width:8;stroke-miterlimit:4;stroke-dasharray:none;stroke:#000000;stroke-opacity:1"
     id="path4913"
     d="M328.76,620l3.39.72-1.82-.91c15.63.42,24.67,4.22,34.13,4.07,11.84-.71,22.74,1.38,34.77,1.65,5.89-.52-5.62-.64-6.21-1.11,1.74-1.36,5.68,1,8.46-.11.8-1-12.28-1.56-17.42-2.37-4.5,0-4.45.31-5.84.84-1.11-.62-5.68-1-6.8-1.58-9.4.47-14.25-1.23-23.49-.69-2.85-.89,6.9.09,3.86-.13l-5-.17.53.15c-6.87.55-19.48-.65-23.86-1.34,3.43.39,5.81,1.13,1.73,1.23l-3.31-1-8.85,1C319.73,619.58,327.38,621.63,328.76,620Z" />
  <path
     style="fill:#000000;stroke-width:8;stroke-miterlimit:4;stroke-dasharray:none;stroke:#000000;stroke-opacity:1"
     id="path4915"
     d="M319.09,618c-10.45-.87,1.2,1.4-10.26.56l12.09.35Z" />
  <path
     style="fill:#000000;stroke-width:8;stroke-miterlimit:4;stroke-dasharray:none;stroke:#000000;stroke-opacity:1"
     id="path4917"
     d="M369.1,622.1l5.15.81C371.48,621.53,363.28,622.94,369.1,622.1Z"
     class="cls-1" />
  <polygon
     style="fill:#000000;stroke-width:8;stroke-miterlimit:4;stroke-dasharray:none;stroke:#000000;stroke-opacity:1"
     id="polygon4919"
     points="388.2 622.78 385.42 623.85 390.32 623.37 388.2 622.78"
     class="cls-1" />
  <path
     style="fill:#000000;stroke-width:8;stroke-miterlimit:4;stroke-dasharray:none;stroke:#000000;stroke-opacity:1"
     id="path4921"
     d="M405.58,624.83c3.91-.45-.72-1.12-5.22-1.14C404.41,623.89,406.51,624.47,405.58,624.83Z" />
  <path
     style="fill:#000000;stroke-width:8;stroke-miterlimit:4;stroke-dasharray:none;stroke:#000000;stroke-opacity:1"
     id="path4923"
     d="M434.22,628.13c-8.78-.32,7.77.57,1.42,1.4C436.8,629.07,441.27,628.57,434.22,628.13Z"
     class="cls-1" />
  <path
     style="fill:#000000;stroke-width:8;stroke-miterlimit:4;stroke-dasharray:none;stroke:#000000;stroke-opacity:1"
     id="path4925"
     d="M462.52,631.93c-3.18.11-4.47-.14-4.88-.44A31.57,31.57,0,0,1,462.52,631.93Z" />
  <path
     style="fill:#000000;stroke-width:8;stroke-miterlimit:4;stroke-dasharray:none;stroke:#000000;stroke-opacity:1"
     id="path4927"
     d="M353.13,624.33c-1,0-2.1-.07-3.08-.14Z" />
  <path
     style="fill:#000000;stroke-width:8;stroke-miterlimit:4;stroke-dasharray:none;stroke:#000000;stroke-opacity:1"
     id="path4929"
     d="M355.14,624.43l-2-.1C353.88,624.36,354.55,624.39,355.14,624.43Z" />
  <path
     style="fill:#000000;stroke-width:8;stroke-miterlimit:4;stroke-dasharray:none;stroke:#000000;stroke-opacity:1"
     id="path4931"
     d="M420.23,629.31h0c-.23,0-.45-.08-.68-.14Z" />
  <path
     style="fill:#000000;stroke-width:8;stroke-miterlimit:4;stroke-dasharray:none;stroke:#000000;stroke-opacity:1"
     id="path4933"
     d="M142.05,616.17c-1.7,0-3,0-4.08-.08l4,.07Z" />
  <path
     style="fill:#000000;stroke-width:8;stroke-miterlimit:4;stroke-dasharray:none;stroke:#000000;stroke-opacity:1"
     id="path4935"
     d="M137.39,614.37c7.23-.49,7.63,2,19.34,1.93-4.72,0-9.66-.07-14.72-.14C135.36,614.75,147.2,615.72,137.39,614.37Z" />
  <path
     style="fill:#000000;stroke-width:8;stroke-miterlimit:4;stroke-dasharray:none;stroke:#000000;stroke-opacity:1"
     id="path4937"
     d="M234.86,616.52l.41,0C236,616.48,235.61,616.51,234.86,616.52Z" />
  <polygon
     style="fill:#000000;stroke-width:8;stroke-miterlimit:4;stroke-dasharray:none;stroke:#000000;stroke-opacity:1"
     id="polygon4939"
     points="122.04 312.08 121.72 312.01 122.13 305.56 122.04 312.08"
     class="cls-1" />
  <path
     style="fill:#000000;stroke-width:8;stroke-miterlimit:4;stroke-dasharray:none;stroke:#000000;stroke-opacity:1"
     id="path4941"
     d="M121.46,313l-.62,10.95-.18-64.9.44,2.1C121.68,260.22,120.94,314.88,121.46,313Z"
     class="cls-1" />
  <path
     style="fill:#000000;stroke-width:8;stroke-miterlimit:4;stroke-dasharray:none;stroke:#000000;stroke-opacity:1"
     id="path4943"
     d="M122,316.09c1.33,6.3-.49,10.47.45,18.2-.63-5.16-1.32-8.82-1-13.79Z"
     class="cls-1" />
  <path
     style="fill:#000000;stroke-width:8;stroke-miterlimit:4;stroke-dasharray:none;stroke:#000000;stroke-opacity:1"
     id="path4945"
     d="M124.54,337.73c-.27,3.47.3,7.61.09,9.57C123.61,346.09,124.4,340.71,124.54,337.73Z"
     class="cls-2" />
  <path
     style="fill:#000000;stroke-width:8;stroke-miterlimit:4;stroke-dasharray:none;stroke:#000000;stroke-opacity:1"
     id="path4947"
     d="M128.44,347.05c0,.55,0,1.08,0,1.61-.07-.63-.13-1.21-.19-1.65Z" />
  <path
     style="fill:#000000;stroke-width:8;stroke-miterlimit:4;stroke-dasharray:none;stroke:#000000;stroke-opacity:1"
     id="path4949"
     d="M128.26,347l-.47-.09C128,345.79,128.12,346.1,128.26,347Z" />
  <path
     style="fill:#000000;stroke-width:8;stroke-miterlimit:4;stroke-dasharray:none;stroke:#000000;stroke-opacity:1"
     id="path4951"
     d="M128.45,348.66c.15,1.43.3,3.13.49,4l.07-1.49c.12,2,.49,5.64.23,6.6.08-4-.24-4.08-.89-4.2l-.08,6.52C126.73,358.87,128.35,354.46,128.45,348.66Z" />
  <path
     style="fill:#000000;stroke-width:8;stroke-miterlimit:4;stroke-dasharray:none;stroke:#000000;stroke-opacity:1"
     id="path4953"
     d="M128.82,369.25l-.88-6.7C128.78,360.7,128.83,366.75,128.82,369.25Z"
     class="cls-2" />
  <path
     style="fill:#000000;stroke-width:8;stroke-miterlimit:4;stroke-dasharray:none;stroke:#000000;stroke-opacity:1"
     id="path4955"
     d="M127.82,379.13c-.25-1.56-.17-8.09-.57-4.14a25,25,0,0,1-.13-3.67C127.33,375.73,128.36,371.59,127.82,379.13Z" />
  <path
     style="fill:#000000;stroke-width:8;stroke-miterlimit:4;stroke-dasharray:none;stroke:#000000;stroke-opacity:1"
     id="path4957"
     d="M127.12,371.32c0-.52-.05-1.11,0-1.89C127.12,370.06,127.12,370.71,127.12,371.32Z" />
  <path
     style="fill:#000000;stroke-width:8;stroke-miterlimit:4;stroke-dasharray:none;stroke:#000000;stroke-opacity:1"
     id="path4959"
     d="M123.3,301.26c-.12.81-.23.78-.33.43Z"
     class="cls-2" />
  <path
     style="fill:#000000;stroke-width:8;stroke-miterlimit:4;stroke-dasharray:none;stroke:#000000;stroke-opacity:1"
     id="path4961"
     d="M126.87,392.53V395c0-.72,0-1.39-.05-2Z" />
  <path
     style="fill:#000000;stroke-width:8;stroke-miterlimit:4;stroke-dasharray:none;stroke:#000000;stroke-opacity:1"
     id="path4963"
     d="M118.72,184.14c-.27,8.76-.56,17.07,0,29.73,1.1-.3.31,5.08,1.46,5.82-.15-13.11.69,49.4,1.18,38.93l-.51-3.13,1.15,3.25c-.29,6.29-1.21,14.89-.55,19.16-.36,1.17-.06-53.57-.38-51.5,1.32-4.85,1.28,73.28,1.88,75.29l-.7.87c.74,9.71,1.75,15.94,2.24,24.1l-.85,1.85c.28-6-.29-7.62-.66-13.73.16,10.59-.36,12.51-.2,20.59,1.1-.29.54-6.94,1.15,3.24-.46,2.93-1.66-3.84-1.43,5.26-.3,11,1.32,8.8,1.42,18.39l.41-6.46c.05,3.53.29,10.13-.3,13.53.08-4-.54-14.2-1.63-13.91.24,4.07-.17,13-.12,16.58l-.77-2.16c-.72,3.88.37,6.11-.29,11,.43,4.62,1.1-2.8,1.42-.23a70.12,70.12,0,0,0-.17,13c1.61-2.19-.48-10.65,1.08-16.37l-.28,8.49c1.59,5.34,0-13.59,1.26-10.83,1.65,6.38-1.59,13.29.51,19.22.4-3.94.44-16.51,1-14.9-.6,4.44.54,7.62.74,13.74l-.75,7.41c.51,3.12.52.6.85-1.85-.94,10.88.16,29.21-1,44.59.22,9.1.7,1.14,1.27,5.28-1,4.84-.17,13-.19,18.06-.07,1.5.89,4.21,1.28,2.78l-.6-12.7c.51.62,1.35-1.24,1.24-5.78-1.88,3.14,1.15-17.89-1-18.81l1,.18-.66-16.23-.13.48c.16,0,0-3.4-.16-7.95s-.3-10.25-.09-14.74c.31,2.58-.06,17.59,1,8.76.56,6.64-.31,18.55.1,30.69l.65-2.37c.92,12.76-.29,29.63-.08,43.75l-.89-4.2c-.34,5-1.07,11.36-.31,16,0-6,.46-2.93.85-1.85.49,8.16-.07,20.12.28,31.26,0,0-.19-.54-.32-.06l.54,11.67a56.24,56.24,0,0,1-1.26,10.82c.13,2,.11,7.08.63,5.16,0-1.09.1-2.18,0-2.89,1,5.9-.29,4.13.31,11.51-.82-5.7-1.17,1.78-2,1.11.36,8.64,1.48.8,1.86,1.88-.48,10.48-1.2,11.83-1.36,22.37.51.61.35-7.47.93-8.36a41.11,41.11,0,0,0,.11,7.06l.4-6.46c-.61,10.94-.78,21.48-.36,33.64l.26-1,0,3.77v1.57a1.32,1.32,0,0,1-.48-.06l-.24-.09-.12-.06a1.86,1.86,0,0,1-.12-.3l0,.23c0,.1,0,.06,0,.1v.1a1.48,1.48,0,0,1,0,.21c0,.14,0,.28,0,.44a8,8,0,0,0-.16.94,1.19,1.19,0,0,0,1-.29l-.24-.08a7.66,7.66,0,0,0,1-.26,4.31,4.31,0,0,1-1.52.89,3.23,3.23,0,0,0,1.48,0l2.85-.13,3.18-.19a128.67,128.67,0,0,1,14.52-.26c2.22,1.38-18.19-.2-19.6,1.42,3.46.39,9.42.89,11.55.52-.41-.47-2.92-.57-5.44-.67,9.26-.53,23,1.36,28.89.11l-6.91-.79c8.07.13,13.2,2.07,15.94,1.21l-6.42,1.43c8.23-.51,18.74,0,26.43-.31.23-1-11.06-.37-10.52-.55l3.68-.56c11.94,1,3.39.71,17.84,1.8l.15-.64c4.8,1.16,17.8-.26,12.87,1.29l-3.91-.54.31.78,16.73.08c-1.65.52,6.43.64,4.24,1.33l6.19-.46c2.76,1.2-11.37.9-12.06,1.71.2.52,3.1.56,4.53.54-7.46.54-11-1.51-18.43-1.8l-3.7.57.24-1a28,28,0,0,0-6.81.95c-7.25-1.57-15.15-.27-26.15-1,9.17-.21-5.81-1.13-4.25-1.32-5-.2-17.49,1-21.73-.28-2.92-.57,6.18-.47-.81-.94-4.55,0-7.69.34-4.77.91-3.95,0-8.18-.15-12.53-.31l-10.66-.44,0-4.89.07.33c0,.11.06.15.08.23l.16.38c.11.25.22.48.32.69l.09-.73,0-.34v-.5c0-.85,0-1.7,0-2.53,0-1.66-.1-3.27-.22-4.77a70,70,0,0,0-1-7.42c.26-1,.07-1.5.45-.43,1.06-8.84-1.31-11.32-1.07-25.86-.91.83-1,7.35-.56,11.95l-1-1.2c0,6.29,0,13,.14,19.34.07,3.19.15,6.3.25,9.25.06,1.41.12,2.78.18,4.1l.21,3.46c-.25-1.16-.51-2.48-.76-4a26,26,0,0,0-.36,5.75c1.57-.06,2.64-.33,3.86-.42a17.44,17.44,0,0,1,5.49.63c6.13-.14-4.4-.69.23-1,4.31.46-1.18,1.74,6.06,2.07l-7.59-.15-9-.22c0-6.16-.1-12.45-.15-18.8,0-5.94,0-11.94-.08-17.95,0-12-.1-24.05-.14-35.67-.19-.54-.26,1-.33,2.45-1.39-9.83,2.34-89-.36-91.6.39-1.42.83,3.18.79-2.86-.2-.55-.45-2.1-.84-.67,1.47-15.31-.08-35.74.88-54.16-.45.41-.69-3.66-1-3.73,1.06-6.32-.07-17.11.53-23l-.52,1.91V353c-.19-.55-.19,2-.26,3.47-.25-4.07.33-5,.79-5.37l-1.14-8.28c1.89-24.28-1-54.54.14-82.48a70.27,70.27,0,0,1-1.37-14.87l-.27,3.47c-.75-7.19.46-.41.09-6.53-.57-4.14-1.35-1.26-.85,4.37-.31,3.52-.62,1.35-.83-1.17C116.48,223.18,117.08,202.3,118.72,184.14Z" />
  <path
     style="fill:#000000;stroke-width:8;stroke-miterlimit:4;stroke-dasharray:none;stroke:#000000;stroke-opacity:1"
     id="path4965"
     d="M540.56,637c-2.42-.51,9.64,0,3.78-1.14-18.69-2.42-49.2-2.13-71.36-4.31-5.89-.9-7.47-1-12.79-1.53-.11.14-.13.33.12.5-6-.28-15.83-.37-21.86-1-1.72.12-3,.78.29.73-9.21.28-15.81-1.88-21-1.51,4.45.62-4.47.5.86,1.06-9.64-.25-8.68-2.69-16.29-3.26-.45.18-.93.36.6.47-8.26-1.36-25.52-.31-26.37-2.08l-3.38.6c-3.63-.7-2.71-1.05-8.79-1.51-4,.13.13.65-1.33.86-1.64-.76-12.29-.83-17.1-2-.24-1.11,8.57,1.78,13.41,1,.16-.21-.53-.3-1.51-.37,25.2,1.19,44.3,5,65.06,4.88A19.62,19.62,0,0,0,433,628c-3.72-.48-14.37-1.6-14.68-.08l-6.45-1.23c-2.46,0-2.35-1.56-3.4-1.85,4.56.34,9.79-1,3.65-1.75,12,.26-4,3.11,6.67,3.11l1.59-1c-2,.52,7.17,1.37,10.63,1.12l-1.42-.27c28.33,1.55,66.18,2.43,97.56,3.21,7.6,3,23-.13,30.2,2.36,3.46-.25-4.88-1.16,1.75-1.25,3.32,0,3.59.68,3.44.88l3-.11C567.9,633.81,562,636,540.56,637Z" />
  <path
     style="fill:#000000;stroke-width:8;stroke-miterlimit:4;stroke-dasharray:none;stroke:#000000;stroke-opacity:1"
     id="path4967"
     d="M512.46,191.74c4.33-.56,13.83-.79,13.64.17.19-1,.19-1,6.67-1.65-.14.64,5.68.47,9.37.42-3-.47-7.24-.54-15.63-.7-7.65,1.4-23.54-.71-30.7.81C501,191.13,506.07,192.11,512.46,191.74Z"
     class="cls-1" />
  <path
     style="fill:#000000;stroke-width:8;stroke-miterlimit:4;stroke-dasharray:none;stroke:#000000;stroke-opacity:1"
     id="path4969"
     d="M546.77,196l1.18-.39-13.26.61c1.35-.16,4.28-.33,6.93-.4S546.64,195.75,546.77,196Z"
     class="cls-1" />
  <path
     style="fill:#000000;stroke-width:8;stroke-miterlimit:4;stroke-dasharray:none;stroke:#000000;stroke-opacity:1"
     id="path4971"
     d="M553.6,232.24c-.7-1.2-1.11,5.55-1.76,5.42,1.42-.24.29,10.59.47,16.41l1.09,2.34c.79-5.65.45-19.91.55-32Z" />
  <path
     style="fill:#000000;stroke-width:8;stroke-miterlimit:4;stroke-dasharray:none;stroke:#000000;stroke-opacity:1"
     id="path4973"
     d="M552.79,243.12l.7,3.82C553.31,243.76,553.2,236.37,552.79,243.12Z"
     class="cls-1" />
  <path
     style="fill:#000000;stroke-width:8;stroke-miterlimit:4;stroke-dasharray:none;stroke:#000000;stroke-opacity:1"
     id="path4975"
     d="M556.62,235c.1-9.45-.46,5.69-.69-3.82C556.11,234.33,556.16,238,556.62,235Z"
     class="cls-1" />
  <polygon
     style="fill:#000000;stroke-width:8;stroke-miterlimit:4;stroke-dasharray:none;stroke:#000000;stroke-opacity:1"
     id="polygon4977"
     points="554.44 274.51 553.92 254.41 553.44 262.73 554.44 274.51" />
  <path
     style="fill:#000000;stroke-width:8;stroke-miterlimit:4;stroke-dasharray:none;stroke:#000000;stroke-opacity:1"
     id="path4979"
     d="M552.11,275.61c0-2.62.41-6.76.79-3-.86,7.19.35,11.65-.38,18.35l-.37-6.4c-.9.88.93,13.35-.68,13,1.13,8.65,1.37-6.57,2.17,4.66-.29-10.59.06-18.41.34-27.3-.32,2.57-.26,3.63-.53,7.26-.05-6.32-.54-14.85-.64-22.24C551.76,264,552.71,269.42,552.11,275.61Z" />
  <path
     style="fill:#000000;stroke-width:8;stroke-miterlimit:4;stroke-dasharray:none;stroke:#000000;stroke-opacity:1"
     id="path4981"
     d="M551.89,307.67c-.09,6.82-.12,17.34,1.1,19.16.86-7.19-.17-8.46-.68-11.71.2-2.07.29-8.89.93-6.12C553,310,552.35,304.59,551.89,307.67Z" />
  <path
     style="fill:#000000;stroke-width:8;stroke-miterlimit:4;stroke-dasharray:none;stroke:#000000;stroke-opacity:1"
     id="path4983"
     d="M551.67,334.45l1.08,5-.18-3.2.77-.37c-.19-.57-1.6-3-1.51-9.79C551.24,329.63,551.94,330.84,551.67,334.45Z" />
  <path
     style="fill:#000000;stroke-width:8;stroke-miterlimit:4;stroke-dasharray:none;stroke:#000000;stroke-opacity:1"
     id="path4985"
     d="M557,336.1c-.53,4.62-.22,7.32.09,12.64-.11-7.39-.07-17.9-.52-20.11l.19.58s-.56-7-1.31-11.87C556.22,324.88,555.08,338.32,557,336.1Z" />
  <path
     style="fill:#000000;stroke-width:8;stroke-miterlimit:4;stroke-dasharray:none;stroke:#000000;stroke-opacity:1"
     id="path4987"
     d="M557.11,326.64l.63,5.39Z" />
  <polygon
     style="fill:#000000;stroke-width:8;stroke-miterlimit:4;stroke-dasharray:none;stroke:#000000;stroke-opacity:1"
     id="polygon4989"
     points="551.93 355.56 552.28 345.12 551.95 347.67 551.93 355.56" />
  <path
     style="fill:#000000;stroke-width:8;stroke-miterlimit:4;stroke-dasharray:none;stroke:#000000;stroke-opacity:1"
     id="path4991"
     d="M555.19,343.09c-.15,8.38.85-4.57.83,3.31.12,2.13,0-11.57-.54-12.21C555.28,336.25,556.1,342.22,555.19,343.09Z" />
  <path
     style="fill:#000000;stroke-width:8;stroke-miterlimit:4;stroke-dasharray:none;stroke:#000000;stroke-opacity:1"
     id="path4993"
     d="M551.84,362.38l.82,8.59Z" />
  <path
     style="fill:#000000;stroke-width:8;stroke-miterlimit:4;stroke-dasharray:none;stroke:#000000;stroke-opacity:1"
     id="path4995"
     d="M551.33,383.86l.57,1.69c-.47,8.32.33,19.55-.92,25.6.72-1.42,1.48,3.47,1.69-3.85-.38-1.14-.37-3.76-.83-3.33.14-3.13.66-2.49.86-4.57-.63-5.38-.15-13.71-.72-18a28.74,28.74,0,0,1-.08,4.18c-1-9.15,1.45-10.74-.21-14.76C552.2,374,551.08,379.6,551.33,383.86Z" />
  <path
     style="fill:#000000;stroke-width:8;stroke-miterlimit:4;stroke-dasharray:none;stroke:#000000;stroke-opacity:1"
     id="path4997"
     d="M555.26,383.11l.22-7.35c.76,2.28,0,9,.74,10.17.45-.44.67-7.75,1-5.07-1.8-.89-.1-10-2.1-6.22-.23-9.52,1.1-2.93,1-13l-1-2.82C555.62,370,554.78,371.94,555.26,383.11Z" />
  <path
     style="fill:#000000;stroke-width:8;stroke-miterlimit:4;stroke-dasharray:none;stroke:#000000;stroke-opacity:1"
     id="path4999"
     d="M555,411.45l-.59,3.57.84-1.94c.15,16.36-3.32,25.95-2.83,35.84,1.14,12.34-.56,23.82-.38,36.4.73,6.14.43-5.89.88-6.53,1.42,1.76-.76,6,.41,8.84,1,.8,1.12-12.9,1.74-18.3-.14-4.71-.47-4.64-1-6.07.58-1.19.75-6,1.33-7.17-.81-9.81.72-14.94-.15-24.59.78-3,.15,7.23.26,4v-5.26l-.13.56c-.8-7.16-.06-20.38.47-25-.27,3.6-.92,6.12-1.16,1.85l.91-3.5L554.19,395C555.08,402,553.31,410.07,555,411.45Z" />
  <path
     style="fill:#000000;stroke-width:8;stroke-miterlimit:4;stroke-dasharray:none;stroke:#000000;stroke-opacity:1"
     id="path5001"
     d="M556.62,401.27c.49-11-1.36,1.3-.93-10.71l.09,12.65Z" />
  <path
     style="fill:#000000;stroke-width:8;stroke-miterlimit:4;stroke-dasharray:none;stroke:#000000;stroke-opacity:1"
     id="path5003"
     d="M554.35,453.7l-.62,5.41C555,456.17,553.3,447.64,554.35,453.7Z"
     class="cls-1" />
  <polygon
     style="fill:#000000;stroke-width:8;stroke-miterlimit:4;stroke-dasharray:none;stroke:#000000;stroke-opacity:1"
     id="polygon5005"
     points="554.36 473.69 553.19 470.82 553.85 475.93 554.36 473.69"
     class="cls-1" />
  <path
     style="fill:#000000;stroke-width:8;stroke-miterlimit:4;stroke-dasharray:none;stroke:#000000;stroke-opacity:1"
     id="path5007"
     d="M552.94,491.94c.6,4.07,1.1-.8.95-5.51C553.84,490.68,553.33,492.9,552.94,491.94Z" />
  <path
     style="fill:#000000;stroke-width:8;stroke-miterlimit:4;stroke-dasharray:none;stroke:#000000;stroke-opacity:1"
     id="path5009"
     d="M550.69,522c0-9.19-.29,8.14-1.35,1.54C549.84,524.73,550.5,529.39,550.69,522Z"
     class="cls-1" />
  <path
     style="fill:#000000;stroke-width:8;stroke-miterlimit:4;stroke-dasharray:none;stroke:#000000;stroke-opacity:1"
     id="path5011"
     d="M547.91,551.73c-.22-3.33,0-4.68.27-5.13A34,34,0,0,1,547.91,551.73Z" />
  <path
     style="fill:#000000;stroke-width:8;stroke-miterlimit:4;stroke-dasharray:none;stroke:#000000;stroke-opacity:1"
     id="path5013"
     d="M551.54,437.08c0-1.05,0-2.19,0-3.22C551.56,435,551.55,436,551.54,437.08Z" />
  <path
     style="fill:#000000;stroke-width:8;stroke-miterlimit:4;stroke-dasharray:none;stroke:#000000;stroke-opacity:1"
     id="path5015"
     d="M551.52,439.19c0-.7,0-1.41,0-2.11C551.54,437.87,551.53,438.58,551.52,439.19Z" />
  <path
     style="fill:#000000;stroke-width:8;stroke-miterlimit:4;stroke-dasharray:none;stroke:#000000;stroke-opacity:1"
     id="path5017"
     d="M549,507.42v0c0-.24.07-.47.11-.72Z" />
  <path
     style="fill:#000000;stroke-width:8;stroke-miterlimit:4;stroke-dasharray:none;stroke:#000000;stroke-opacity:1"
     id="path5019"
     d="M552,216.13c-.06-1.78-.08-3.17-.07-4.27,0,1.4,0,2.83.08,4.22C552.05,216.11,552,216.11,552,216.13Z" />
  <path
     style="fill:#000000;stroke-width:8;stroke-miterlimit:4;stroke-dasharray:none;stroke:#000000;stroke-opacity:1"
     id="path5021"
     d="M553.67,211.18c.75,7.54-1.77,8.06-1.23,20.29-.16-4.93-.28-10.1-.39-15.39C553.22,209.08,552.67,221.5,553.67,211.18Z" />
  <path
     style="fill:#000000;stroke-width:8;stroke-miterlimit:4;stroke-dasharray:none;stroke:#000000;stroke-opacity:1"
     id="path5023"
     d="M555.06,313.16l0,.42C555.13,314.32,555.09,313.94,555.06,313.16Z" />
  <polygon
     style="fill:#000000;stroke-width:8;stroke-miterlimit:4;stroke-dasharray:none;stroke:#000000;stroke-opacity:1"
     id="polygon5025"
     points="236.83 196.11 236.76 196.43 230.01 196.02 236.83 196.11"
     class="cls-1" />
  <path
     style="fill:#000000;stroke-width:8;stroke-miterlimit:4;stroke-dasharray:none;stroke:#000000;stroke-opacity:1"
     id="path5027"
     d="M237.76,196.69l11.46.62-67.89.19,2.2-.45C182.59,196.47,239.76,197.22,237.76,196.69Z"
     class="cls-1" />
  <path
     style="fill:#000000;stroke-width:8;stroke-miterlimit:4;stroke-dasharray:none;stroke:#000000;stroke-opacity:1"
     id="path5029"
     d="M241,196.19c6.59-1.34,10.95.48,19-.46-5.39.63-9.22,1.33-14.42,1Z"
     class="cls-1" />
  <path
     style="fill:#000000;stroke-width:8;stroke-miterlimit:4;stroke-dasharray:none;stroke:#000000;stroke-opacity:1"
     id="path5031"
     d="M263.66,193.62c3.63.26,8-.3,10-.1C272.41,194.54,266.78,193.75,263.66,193.62Z"
     class="cls-2" />
  <path
     style="fill:#000000;stroke-width:8;stroke-miterlimit:4;stroke-dasharray:none;stroke:#000000;stroke-opacity:1"
     id="path5033"
     d="M273.42,189.71c.57,0,1.12,0,1.68,0-.67.06-1.27.12-1.72.19Z" />
  <path
     style="fill:#000000;stroke-width:8;stroke-miterlimit:4;stroke-dasharray:none;stroke:#000000;stroke-opacity:1"
     id="path5035"
     d="M273.38,189.9l-.1.46C272.1,190.18,272.42,190,273.38,189.9Z" />
  <path
     style="fill:#000000;stroke-width:8;stroke-miterlimit:4;stroke-dasharray:none;stroke:#000000;stroke-opacity:1"
     id="path5037"
     d="M275.1,189.71c1.5-.15,3.27-.3,4.2-.49l-1.56-.07c2.13-.13,5.89-.5,6.9-.24-4.2-.08-4.27.24-4.39.89l6.81.09C285.78,191.42,281.17,189.8,275.1,189.71Z" />
  <path
     style="fill:#000000;stroke-width:8;stroke-miterlimit:4;stroke-dasharray:none;stroke:#000000;stroke-opacity:1"
     id="path5039"
     d="M296.64,189.33l-7,.88C287.69,189.37,294,189.33,296.64,189.33Z"
     class="cls-2" />
  <path
     style="fill:#000000;stroke-width:8;stroke-miterlimit:4;stroke-dasharray:none;stroke:#000000;stroke-opacity:1"
     id="path5041"
     d="M307,190.33c-1.64.26-8.46.17-4.33.57a26,26,0,0,1-3.84.13C303.41,190.82,299.08,189.79,307,190.33Z" />
  <path
     style="fill:#000000;stroke-width:8;stroke-miterlimit:4;stroke-dasharray:none;stroke:#000000;stroke-opacity:1"
     id="path5043"
     d="M298.8,191c-.55,0-1.16.05-2,.05C297.49,191,298.16,191,298.8,191Z" />
  <path
     style="fill:#000000;stroke-width:8;stroke-miterlimit:4;stroke-dasharray:none;stroke:#000000;stroke-opacity:1"
     id="path5045"
     d="M225.52,194.85c.85.12.82.23.44.34Z"
     class="cls-2" />
  <path
     style="fill:#000000;stroke-width:8;stroke-miterlimit:4;stroke-dasharray:none;stroke:#000000;stroke-opacity:1"
     id="path5047"
     d="M321,191.28h2.63c-.75,0-1.45,0-2.12,0Z" />
  <path
     style="fill:#000000;stroke-width:8;stroke-miterlimit:4;stroke-dasharray:none;stroke:#000000;stroke-opacity:1"
     id="path5049"
     d="M103,199.43c9.17.27,17.86.56,31.1,0-.31-1.1,5.32-.31,6.09-1.46-13.72.15,51.67-.69,40.73-1.18l-3.28.51,3.4-1.15c6.57.29,15.57,1.21,20,.55,1.23.36-56,.06-53.86.39-5.08-1.33,76.65-1.29,78.75-1.88l.91.7c10.16-.75,16.68-1.76,25.22-2.25l1.93.85c-6.26-.28-8,.3-14.36.66,11.07-.16,13.08.37,21.53.2-.29-1.1-7.25-.54,3.4-1.15,3.06.46-4,1.66,5.5,1.43,11.51.3,9.21-1.32,19.24-1.42l-6.76-.41c3.69-.05,10.59-.29,14.15.3-4.2-.07-14.85.54-14.55,1.64,4.25-.25,13.64.17,17.34.11l-2.26.77c4.06.72,6.39-.37,11.52.29,4.83-.43-2.93-1.1-.24-1.42a76.53,76.53,0,0,0,13.64.18c-2.29-1.62-11.14.48-17.13-1.09l8.89.29c5.58-1.6-14.22,0-11.33-1.26,6.67-1.66,13.9,1.59,20.1-.52-4.11-.4-17.26-.44-15.58-1,4.64.6,8-.53,14.37-.74l7.75.75c3.27-.51.63-.52-1.93-.85,11.38.94,30.55-.16,46.64,1,9.51-.23,1.19-.71,5.52-1.27,5.07,1,13.64.17,18.9.18,1.56.07,4.4-.89,2.9-1.28l-13.28.61c.64-.52-1.3-1.36-6.05-1.25,3.29,1.88-18.71-1.15-19.68,1l.2-1-17,.65.5.13a9.87,9.87,0,0,0-2.36,0l-6,.2c-4.77.16-10.72.3-15.41.09,2.69-.31,18.4.06,9.15-1,7-.56,19.41.32,32.11-.1L361,188.5c13.34-.92,31,.29,45.76.08l-4.39.89c5.2.34,11.89,1.07,16.78.31-6.32,0-3.07-.46-1.93-.85,8.52-.48,21,.07,32.7-.28,0,0-.57.19-.07.32l12.21-.54a62.16,62.16,0,0,1,11.31,1.26c2.14-.12,7.41-.11,5.4-.63-1.14-.05-2.27-.1-3-.05,6.17-1,4.32.29,12.05-.31-6,.82,1.86,1.17,1.15,2,9-.36.84-1.48,2-1.87,11,.49,12.38,1.2,23.4,1.36.63-.51-7.82-.34-8.75-.93a46.47,46.47,0,0,0,7.38-.1l-6.75-.41c11.45.61,22.47.78,35.19.37l-1-.26,10.29,0-2.78.48-1.33.24-.64.12-.31.06-.18.06.72,0,.88,0h1.74l3.44,0,6.29.16a31.58,31.58,0,0,0,.32,6.1l.07-2.87.31,9.63q-.48-5.06-1-9.42c-.11,3-.06,6.13.07,9.5.12,2,.32,4.15.53,6.43a139.65,139.65,0,0,1,.8,15.16c-1.3,2.38-.46-19-2.13-20.43-.27,3.63-.55,9.88-.11,12.09.46-.44.47-3.07.47-5.71.88,9.66-.52,24.1.94,30.2l.54-7.25c.17,8.44-1.59,13.87-.63,16.71l-1.66-6.66c.81,8.58.65,19.6,1.27,27.62,1,.21,0-11.58.16-11l.7,3.83c-.55,12.51-.59,3.57-1.15,18.71l.64.14c-1,5.06.91,18.6-.81,13.5l.39-4.11-.77.35.53,17.49c-.58-1.7-.41,6.75-1.18,4.49l.69,6.45c-1.1,2.94-1.32-11.85-2.15-12.54-.51.23-.44,3.27-.37,4.76-.82-7.78,1.1-11.61,1.12-19.33l-.69-3.85,1,.21a30.37,30.37,0,0,0-1.2-7.08c1.31-7.64-.28-15.85,0-27.37.55,9.57.92-6.12,1.17-4.49,0-5.26-1.68-18.25-.51-22.74.47-3.07.69,6.45.91-.87-.12-4.76-.62-8-1.08-5-.11-4.15-.15-8.61-.15-13.19,0-5.46,0-11.07,0-16.6H545.38a2.61,2.61,0,0,1,.37-.08l.48-.08,1-.16,2-.32-2-.08-1.86-.06c-.9,0-1.78,0-2.65,0-1.74,0-3.42.1-5,.22a76.73,76.73,0,0,0-7.77,1c-1-.26-1.56-.07-.44-.45-9.24-1.06-11.85,1.31-27.05,1.07.86.91,7.69,1,12.5.56l-1.25,1c6.57,0,13.55,0,20.22-.15,3.34-.06,6.59-.15,9.68-.25l4.72-.18,4.73-.21c-2,.26-3.94.51-5.65.76a22.85,22.85,0,0,0,5.22.38c.1,1.38.42,2,.57,3.28a20.92,20.92,0,0,1-.43,6.12c.37,6.4.53-4.63,1,.2-.29,4.53-1.77-1.16-1.84,6.42-.07-4.87-.15-9.87-.23-15.05l-17.09.15-18.73.09-37.22.13c-.57.19,1,.26,2.56.33-10.28,1.39-93.14-2.34-95.82.36-1.49-.39,3.34-.83-3-.78-.57.19-2.19.44-.7.83-16-1.46-37.38.08-56.65-.88.43.45-3.83.7-3.9,1-6.61-1.05-17.9.07-24.1-.53l2,.52H279.63c-.58.19,2.06.2,3.63.27-4.26.24-5.2-.34-5.62-.79L269,198.67c-25.39-1.88-57.05,1.05-86.27-.14a76.67,76.67,0,0,1-15.55,1.37l3.63.27c-7.52.75-.44-.45-6.83-.09-4.34.57-1.32,1.35,4.57.86,3.68.3,1.41.61-1.23.83C143.84,201.67,122,201.07,103,199.43Z" />
  <path
     style="fill:#000000;stroke-width:8;stroke-miterlimit:4;stroke-dasharray:none;stroke:#000000;stroke-opacity:1"
     id="path5051"
     d="M545.72,633.5c.42-2.55.37,10.07,1.27,3.9,1.75-19.63.35-51.51,1.73-74.75.68-6.2.7-7.85,1.06-13.43-.14-.11-.33-.12-.5.15.06-6.34-.2-16.57.24-22.89-.19-1.81-.89-3.13-.72.32-.61-9.62,1.3-16.6.75-22-.46,4.68-.67-4.65-1,.94-.1-10.09,2.37-9.18,2.67-17.15-.2-.47-.4-1-.45.65,1.06-8.7-.62-26.7,1.12-27.65l-.72-3.51c.56-3.83,1-2.87,1.19-9.24-.27-4.15-.65.16-.91-1.36.7-1.75.39-12.89,1.37-17.95,1.1-.3-1.47,9-.48,14.05.22.16.28-.57.31-1.6-.27,26.39-3.34,46.5-2.52,68.2a21.54,21.54,0,0,0,.71,10.56c.35-3.91,1.08-15.09-.45-15.35l1-6.79c-.07-2.57,1.47-2.51,1.73-3.63-.18,4.79,1.33,10.21,1.88,3.75.18,12.59-3.26-4.06-2.86,7.1l1.1,1.62c-.59-2.11-1.1,7.54-.73,11.15l.22-1.5c-.53,29.68,0,69.29.33,102.11-2.75,8.06,1,24.08-1.26,31.66.37,3.61,1-5.14,1.31,1.79.17,3.47-.55,3.78-.76,3.62.07,1,.15,2.11.22,3.18C549.86,662,547.48,655.88,545.72,633.5Z" />
  <path
     style="fill:#000000;stroke-width:8;stroke-miterlimit:4;stroke-dasharray:none;stroke:#000000;stroke-opacity:1"
     id="path5053"
     d="M326.81,50.24a14.32,14.32,0,0,1,4-1.08c1.4-.18,2.55-.14,2.56.34,0-.48,0-.72.36-1a10.72,10.72,0,0,1,2.7-1c0,.65,2.82.26,4.62.07a13.18,13.18,0,0,0-2.88-.25,47.83,47.83,0,0,0-4.83.23,11,11,0,0,1-3.36.93c-.65.1-1.33.16-2,.23l-2.12.26c-1.42.17-2.84.35-4.1.61a8.17,8.17,0,0,0-3.11,1.27C321.2,50.56,323.82,51.16,326.81,50.24Z"
     class="cls-1" />
  <path
     style="fill:#000000;stroke-width:8;stroke-miterlimit:4;stroke-dasharray:none;stroke:#000000;stroke-opacity:1"
     id="path5055"
     d="M343.62,52.74l.52-.39c-1.05.11-2.08.27-3.12.47l-3.1.53C339.16,53,343.4,52.23,343.62,52.74Z"
     class="cls-1" />
  <path
     style="fill:#000000;stroke-width:8;stroke-miterlimit:4;stroke-dasharray:none;stroke:#000000;stroke-opacity:1"
     id="path5057"
     d="M363.92,52.27c-.63.63,2.49,1.44,2.35,2.07.05-1.41,5,.28,7.69.68l1.29-.88c-2.49-1.28-9.28-2.07-15-2.49Z" />
  <path
     style="fill:#000000;stroke-width:8;stroke-miterlimit:4;stroke-dasharray:none;stroke:#000000;stroke-opacity:1"
     id="path5059"
     d="M368.94,53.72l1.9-.46C369.3,53.25,365.83,52.92,368.94,53.72Z"
     class="cls-1" />
  <path
     style="fill:#000000;stroke-width:8;stroke-miterlimit:4;stroke-dasharray:none;stroke:#000000;stroke-opacity:1"
     id="path5061"
     d="M365.54,49.43c-4.55-.63,2.68.77-1.92.49C365.18,49.88,367,50.09,365.54,49.43Z"
     class="cls-1" />
  <path
     style="fill:#000000;stroke-width:8;stroke-miterlimit:4;stroke-dasharray:none;stroke:#000000;stroke-opacity:1"
     id="path5063"
     d="M383.9,55c-3.17-.54-6.31-1.16-9.5-1.49,1.27.41,2.55.75,3.8,1.2Z" />
  <path
     style="fill:#000000;stroke-width:8;stroke-miterlimit:4;stroke-dasharray:none;stroke:#000000;stroke-opacity:1"
     id="path5065"
     d="M383.83,57.32c-1.19-.28-3-1.11-1.18-1.08a15.8,15.8,0,0,0,4.21,1.37,12.28,12.28,0,0,1,4,1.3c-1-.18-2-.32-3-.48.06.5,1.65.67,3.11,1s2.84.75,2.5,1.49c4.23.24-2.5-2.3,2.8-1.35-2.44-.65-4.48-1.44-6.46-2.08s-3.85-1.37-5.86-2c1.11.6,1.59.71,3.18,1.43a37.31,37.31,0,0,0-5-1c-1.81-.26-3.66-.59-5.39-.86C378.43,56.4,381.13,56.1,383.83,57.32Z" />
  <path
     style="fill:#000000;stroke-width:8;stroke-miterlimit:4;stroke-dasharray:none;stroke:#000000;stroke-opacity:1"
     id="path5067"
     d="M398.11,62.1c1.47.63,3.36,1.39,5,1.92s3.08.92,3.73.55c-2.76-2.2-3.72-1.51-5.34-1.58-.83-.55-3.8-1.81-2.35-1.92C399.52,61.48,396.93,61.13,398.11,62.1Z" />
  <path
     style="fill:#000000;stroke-width:8;stroke-miterlimit:4;stroke-dasharray:none;stroke:#000000;stroke-opacity:1"
     id="path5069"
     d="M409.56,67.27l2.57.1-1.43-.53.19-.77a5.76,5.76,0,0,1-1.45.22,7.09,7.09,0,0,1-3.38-.82C407.32,66.71,408.16,66.26,409.56,67.27Z" />
  <path
     style="fill:#000000;stroke-width:8;stroke-miterlimit:4;stroke-dasharray:none;stroke:#000000;stroke-opacity:1"
     id="path5071"
     d="M412.62,62.83c1.76,1.51,3.09,1.78,5.5,2.76-3.21-1.61-7.77-4-9-3.94l.33-.06s-.83-.22-2-.48a28.43,28.43,0,0,0-3.82-.65,34.18,34.18,0,0,1,5.88,2.26C411.39,63.45,412.66,64,412.62,62.83Z" />
  <path
     style="fill:#000000;stroke-width:8;stroke-miterlimit:4;stroke-dasharray:none;stroke:#000000;stroke-opacity:1"
     id="path5073"
     d="M408.49,60.78l2.67.51Z" />
  <path
     style="fill:#000000;stroke-width:8;stroke-miterlimit:4;stroke-dasharray:none;stroke:#000000;stroke-opacity:1"
     id="path5075"
     d="M418.4,71.72c-1.36-.89-2.7-1.87-4.1-2.71.3.28.61.54.9.85Z" />
  <path
     style="fill:#000000;stroke-width:8;stroke-miterlimit:4;stroke-dasharray:none;stroke:#000000;stroke-opacity:1"
     id="path5077"
     d="M414.8,66c3.52,2-1.56-1.76,1.81,0,1,.37-5-2.53-5.49-2.2C411.91,64.42,414.85,65,414.8,66Z" />
  <path
     style="fill:#000000;stroke-width:8;stroke-miterlimit:4;stroke-dasharray:none;stroke:#000000;stroke-opacity:1"
     id="path5079"
     d="M421.12,73.42l3.84,1.5Z" />
  <path
     style="fill:#000000;stroke-width:8;stroke-miterlimit:4;stroke-dasharray:none;stroke:#000000;stroke-opacity:1"
     id="path5081"
     d="M429.19,79.45h1c2.87,2.66,7.49,5.36,8.78,8.2,0-1,2.2,0-.27-2.47-.65-.06-1.58-.87-1.72-.39-1-1-.5-1.24-1.14-2a21.5,21.5,0,0,1-3.72-2.44,16.47,16.47,0,0,0-3.49-2.09,6.34,6.34,0,0,1,1.56,1.2c-4.07-1.67-3.3-4.14-5.82-3.76C426,76,427.43,78.49,429.19,79.45Z" />
  <path
     style="fill:#000000;stroke-width:8;stroke-miterlimit:4;stroke-dasharray:none;stroke:#000000;stroke-opacity:1"
     id="path5083"
     d="M431.2,76l-2.76-2.22c1.33,0,3.54,2.47,4.43,2.24.09-.49-2.68-2.73-1.44-2.23-.69.61-1.7-.07-2.48-.57s-1.39-.75-1.17.57c-4-2.28-.58-1.69-4.72-4.22-.54,0-1.11.09-1.67.13a28.05,28.05,0,0,1,5,3.05A56.11,56.11,0,0,0,431.2,76Z" />
  <path
     style="fill:#000000;stroke-width:8;stroke-miterlimit:4;stroke-dasharray:none;stroke:#000000;stroke-opacity:1"
     id="path5085"
     d="M441.69,84.72l.9,1.56L442.45,85A20.22,20.22,0,0,1,446.07,89a29.09,29.09,0,0,1,2.38,3.86c.65,1.26,1.24,2.42,1.88,3.47a17.4,17.4,0,0,0,1,1.47,10.27,10.27,0,0,0,1.15,1.31,22.28,22.28,0,0,1,3.13,3,38,38,0,0,1,2.46,3.46c1.59,2.35,2.85,4.92,4.65,7.27,2.27,2-1.25-2.51-1.07-3,1.65-.14,1,2.72,2.76,3.18.55-.14-.1-1.55-1-3.24s-2.09-3.67-2.67-4.85c-1.52-1.69-1.75-1.47-2.63-1.64.11-.81-1.18-2.71-1.14-3.5A22.49,22.49,0,0,1,453,95.33a19.16,19.16,0,0,0-4.14-4.19c-.44-1.6,2.52,2.41,1.54,1.21-.6-.6-1.17-1.22-1.78-1.81l.1.28a24.94,24.94,0,0,1-4.86-4.27,40.1,40.1,0,0,1-3.71-4.2c1.15,1.35,1.63,2.63-.08,1.47L439.4,82c-1.41-.61-2.87-1.15-4.29-1.72a13,13,0,0,1,3.92,3C440.06,84.38,440.89,85.13,441.69,84.72Z" />
  <path
     style="fill:#000000;stroke-width:8;stroke-miterlimit:4;stroke-dasharray:none;stroke:#000000;stroke-opacity:1"
     id="path5087"
     d="M439,80.28c-3.88-3.67-.35,1.45-4.65-2.47l4.85,3.7Z" />
  <path
     style="fill:#000000;stroke-width:8;stroke-miterlimit:4;stroke-dasharray:none;stroke:#000000;stroke-opacity:1"
     id="path5089"
     d="M455.46,99.53l1.21,2.36C456.74,100,452.77,98,455.46,99.53Z"
     class="cls-1" />
  <path
     style="fill:#000000;stroke-width:8;stroke-miterlimit:4;stroke-dasharray:none;stroke:#000000;stroke-opacity:1"
     id="path5091"
     d="M461.45,107c-.57-.15-1.18-.26-1.76-.38.68.49,1.32,1,2,1.55Z"
     class="cls-1" />
  <path
     style="fill:#000000;stroke-width:8;stroke-miterlimit:4;stroke-dasharray:none;stroke:#000000;stroke-opacity:1"
     id="path5093"
     d="M465.22,114.92c1.54,1.31.72-.91-.63-2.72C465.66,113.93,465.79,115.1,465.22,114.92Z" />
  <path
     style="fill:#000000;stroke-width:8;stroke-miterlimit:4;stroke-dasharray:none;stroke:#000000;stroke-opacity:1"
     id="path5095"
     d="M470.33,128.25c-1.95-3.79,1.47,3.5-.87,1.25C470.15,129.76,471.74,131.39,470.33,128.25Z"
     class="cls-1" />
  <path
     style="fill:#000000;stroke-width:8;stroke-miterlimit:4;stroke-dasharray:none;stroke:#000000;stroke-opacity:1"
     id="path5097"
     d="M473.41,141.87c-.77-1.33-.8-2-.61-2.27A7.56,7.56,0,0,1,473.41,141.87Z" />
  <path
     style="fill:#000000;stroke-width:8;stroke-miterlimit:4;stroke-dasharray:none;stroke:#000000;stroke-opacity:1"
     id="path5099"
     d="M448.1,95.6c-.34-.36-.71-.74-1-1.12Z" />
  <path
     style="fill:#000000;stroke-width:8;stroke-miterlimit:4;stroke-dasharray:none;stroke:#000000;stroke-opacity:1"
     id="path5101"
     d="M448.77,96.33l-.67-.73C448.36,95.86,448.58,96.11,448.77,96.33Z" />
  <path
     style="fill:#000000;stroke-width:8;stroke-miterlimit:4;stroke-dasharray:none;stroke:#000000;stroke-opacity:1"
     id="path5103"
     d="M465.63,123.14h0a2,2,0,0,1-.07-.35Z" />
  <path
     style="fill:#000000;stroke-width:8;stroke-miterlimit:4;stroke-dasharray:none;stroke:#000000;stroke-opacity:1"
     id="path5105"
     d="M356.21,53.28a19.88,19.88,0,0,1-2,0l2,0Z" />
  <path
     style="fill:#000000;stroke-width:8;stroke-miterlimit:4;stroke-dasharray:none;stroke:#000000;stroke-opacity:1"
     id="path5107"
     d="M353.93,51.6c3.63-.69,3.74,1.92,9.51,1.8l-7.25-.12C352.93,52,358.79,52.72,353.93,51.6Z" />
  <path
     style="fill:#000000;stroke-width:8;stroke-miterlimit:4;stroke-dasharray:none;stroke:#000000;stroke-opacity:1"
     id="path5109"
     d="M401.69,60.1l.2,0C402.24,60.24,402.05,60.2,401.69,60.1Z" />
  <polygon
     style="fill:#000000;stroke-width:8;stroke-miterlimit:4;stroke-dasharray:none;stroke:#000000;stroke-opacity:1"
     id="polygon5111"
     points="226.93 128.96 227.21 129.14 226.3 130.46 225.46 131.82 226.16 130.38 226.93 128.96"
     class="cls-1" />
  <path
     style="fill:#000000;stroke-width:8;stroke-miterlimit:4;stroke-dasharray:none;stroke:#000000;stroke-opacity:1"
     id="path5113"
     d="M227.66,128.83c1-1.49,2-3,3-4.47A135.62,135.62,0,0,0,219,153.73l-.15-1.11c-.16.07.18-1.49.88-3.82l1.33-4c.26-.72.49-1.48.79-2.23l.91-2.26C225.08,134.25,228.1,128.53,227.66,128.83Z"
     class="cls-1" />
  <path
     style="fill:#000000;stroke-width:8;stroke-miterlimit:4;stroke-dasharray:none;stroke:#000000;stroke-opacity:1"
     id="path5115"
     d="M227.9,127.24c.2-3.42,2.88-4.31,3.95-8.08-.71,2.54-1,4.4-2.49,6.39Z"
     class="cls-1" />
  <path
     style="fill:#000000;stroke-width:8;stroke-miterlimit:4;stroke-dasharray:none;stroke:#000000;stroke-opacity:1"
     id="path5117"
     d="M230.94,116.6c1.17-1.33,1.81-3.38,2.51-4.1C234,113.57,231.87,115.4,230.94,116.6Z"
     class="cls-2" />
  <path
     style="fill:#000000;stroke-width:8;stroke-miterlimit:4;stroke-dasharray:none;stroke:#000000;stroke-opacity:1"
     id="path5119"
     d="M230.22,110.49a7.42,7.42,0,0,1,.44-.7c-.12.31-.23.6-.3.82Z" />
  <path
     style="fill:#000000;stroke-width:8;stroke-miterlimit:4;stroke-dasharray:none;stroke:#000000;stroke-opacity:1"
     id="path5121"
     d="M230.36,110.61l.36.3C230.26,111.3,230.22,111.08,230.36,110.61Z" />
  <path
     style="fill:#000000;stroke-width:8;stroke-miterlimit:4;stroke-dasharray:none;stroke:#000000;stroke-opacity:1"
     id="path5123"
     d="M230.66,109.79a17.48,17.48,0,0,0,.79-2l-.51.59c.51-.93,1.29-2.67,1.79-2.93-1.27,1.66-1,1.87-.53,2.29l2-2.69C235.09,106.5,232.46,107.38,230.66,109.79Z" />
  <path
     style="fill:#000000;stroke-width:8;stroke-miterlimit:4;stroke-dasharray:none;stroke:#000000;stroke-opacity:1"
     id="path5125"
     d="M236.65,101l-1.44,3.26C234,104.5,235.84,102,236.65,101Z"
     class="cls-2" />
  <path
     style="fill:#000000;stroke-width:8;stroke-miterlimit:4;stroke-dasharray:none;stroke:#000000;stroke-opacity:1"
     id="path5127"
     d="M240.63,97.67c-.36.75-2.5,3.31-.93,2a6.34,6.34,0,0,1-1.06,1.56c.62-.95.4-1.17.37-1.49S239.14,99,240.63,97.67Z" />
  <path
     style="fill:#000000;stroke-width:8;stroke-miterlimit:4;stroke-dasharray:none;stroke:#000000;stroke-opacity:1"
     id="path5129"
     d="M238.64,101.21a8.78,8.78,0,0,1-.56.79A7.48,7.48,0,0,1,238.64,101.21Z" />
  <path
     style="fill:#000000;stroke-width:8;stroke-miterlimit:4;stroke-dasharray:none;stroke:#000000;stroke-opacity:1"
     id="path5131"
     d="M223.52,133.27c.27-.32.37-.26.39-.05Z"
     class="cls-2" />
  <path
     style="fill:#000000;stroke-width:8;stroke-miterlimit:4;stroke-dasharray:none;stroke:#000000;stroke-opacity:1"
     id="path5133"
     d="M245.89,93.17l.89-.92c-.25.26-.47.52-.68.78Z" />
  <path
     style="fill:#000000;stroke-width:8;stroke-miterlimit:4;stroke-dasharray:none;stroke:#000000;stroke-opacity:1"
     id="path5135"
     d="M216,189.84c.19-2.1.38-4.15.47-6.43s.29-4.79.28-7.85c-1.11,0,0-2.47-1.1-3a77.31,77.31,0,0,1,1.07-8.93c.17-1.55.54-3.06.76-4.47l.66-3.7c.41-2,.54-3,.07-1.76l.07,1.61-.67-1.84c.57-1.45,1.33-3.13,2-4.7a11.8,11.8,0,0,0,1.31-4.13,22,22,0,0,1-1.08,3.7c-.4,1.14-.72,2.53-1.15,4s-.91,3-1.24,4.63-.72,3.17-1.06,4.64-.52,2.87-.73,4c-.39,2.33-.62,3.8-.48,3.57-.81,1.09.1-7.92,2.51-17.1s6.22-18.36,6.21-18.91l.82-.11c.33-1.16.58-2.25.84-3.27l.78-2.9a35.77,35.77,0,0,1,1.81-5.54l1.19-.38a11.26,11.26,0,0,0-1.6,3c-.3.92-.53,1.89-1.06,3.32a31.68,31.68,0,0,1,2.71-4.87,39.23,39.23,0,0,0,2.39-4c-.5-.23-1,.45-1.22.6s-.07,0,.08-.36.46-1.07,1-2.21c1.17-1,.38,2.48,2.62-1.43a12.14,12.14,0,0,0,2.22-4.32,10.48,10.48,0,0,1,1.81-4l-2.2,2.4c.49-.74,1.16-1.82,1.9-2.84a11.84,11.84,0,0,1,2.39-2.41,18.81,18.81,0,0,0-2.31,3.62c-.64,1.39-1,2.64-.52,2.9A25.36,25.36,0,0,1,240,107c1-1.2,2.06-2.36,2.58-3.06l-.06,1.31c1.73-1,1.55-2.61,3.65-4,1.16-2-1.74.32-1.15-.84a20.38,20.38,0,0,0,4.43-4.7c-1-.15-1.83.85-2.72,2.12a8.45,8.45,0,0,1-3.49,3.24l3-3c.56-3.07-4.44,5.12-4.48,3.29.37-1.77,1.81-2.77,3.13-3.79A11.38,11.38,0,0,0,246.73,96a3.91,3.91,0,0,0,1.06-2.18c-1.73,1.1-5.85,6-5.78,4.94a6.33,6.33,0,0,0,2-2.44l.84-1.56A13.58,13.58,0,0,1,246.1,93l3.14-2.21c.74-1.51-.15-.59-1.25.09.57-.42,1.14-.92,1.75-1.44s1.26-1.07,1.92-1.66c1.34-1.18,2.67-2.58,4.2-3.86s3.05-2.72,4.72-3.93a49.28,49.28,0,0,1,5.08-3.34c3.62-2.86,0-.9,1.44-2.58a13,13,0,0,0,4-2.25c1.36-1,2.68-2,3.76-2.74.68-.36,1.36-1.91.53-1.85l-5.17,4c0-.61-1.3-.78-3.15.69,1.2.3-.84,1.39-3.08,2.68s-4.57,3-4.08,3.93l-.54-.81c-1.05.93-2,2-3,2.94l-2.94,3,.27-.06c-.11-.15-1.27,1.2-2.86,2.93-.79.87-1.72,1.8-2.6,2.78A37.1,37.1,0,0,1,245.57,92c.34-.59,1.91-2.21,2.91-3.38s1.51-1.79-.51-.58a38.76,38.76,0,0,1,4.9-4.83c1.07-.87,2.22-1.79,3.38-2.77l3.5-3-1.38.25a44.28,44.28,0,0,1,4-3.57c1.47-1.16,3.13-2.2,4.78-3.29s3.4-2.07,5.08-3.07l2.48-1.51c.83-.48,1.65-.94,2.43-1.43l-1.43,1.86c1.2-.5,2.6-1,3.92-1.61a15.09,15.09,0,0,0,1.87-1,7.94,7.94,0,0,0,1.58-1.18c-2.75,1.47-1.57.29-1.24-.3,3.52-2.41,9.34-4.69,14.61-7.08,0,0-.2.28.08.31,1.82-.9,3.62-1.85,5.49-2.64a14.88,14.88,0,0,1,5.72-.57c1-.4,3.49-1.1,2.39-1.33a8.26,8.26,0,0,0-1.45.36c2.68-1.76,2.12-.34,5.68-1.9-1.35.74-1,1-.43,1.13s1.54.24,1.47.69c4.23-1.35.06-1.53.5-2A43.74,43.74,0,0,1,321.7,49a38,38,0,0,0,5.78-.46c.23-.56-3.85.33-4.41-.16a11.43,11.43,0,0,0,3.58-.75l-3.37.19c1.43-.1,2.84-.22,4.24-.37s2.82-.21,4.24-.36,2.85-.38,4.33-.5,3-.33,4.55-.55l-.51-.23c1.3-.09,2.6-.18,3.91-.18l-1.36,1c2.09-.3,4.35.5,5.46-.3l-.77-.05,2.62-.36c-.9.32-1.8.67-2.69,1a12.3,12.3,0,0,0,2.73-.13c1-.1,2-.28,3.17-.46s2.33-.37,3.59-.49a21.77,21.77,0,0,1,3.94.07c.53.71-1.82.58-4.4.64s-5.39.23-5.74,1.06c1.78.31,4.8.66,5.9.25-.19-.46-1.48-.5-2.77-.54a19.69,19.69,0,0,1,3.9-.19c1.38.09,2.8.25,4.16.38,2.73.21,5.22.59,6.81,0l-3.5-1c4.19.37,6.59,2.39,8.1,1.74l-1.74.54-1.73.61c4.26-.23,9.55.93,13.51,1.28.32-.9-5.56-1.29-5.25-1.34.66-.13,1.32-.21,2-.3a21.59,21.59,0,0,1,3.9,1.49c.55.29,1.28.55,4.77,1.87l.24-.61c1.06.84,3.34,1.17,4.95,1.62s2.62.7,1.16,1.12l-1.79-1-.07.79c2.74.77,5.54,1.43,8.25,2.38-1,.23,2.92,1.59,1.6,1.89,1.06.18,2.14.33,3.18.57.42.82-1,.47-2.67.16s-3.48-.78-3.79-.45c-.07.52,1.3,1,2,1.19a9.54,9.54,0,0,1-4.26-1.92,16.39,16.39,0,0,0-4.12-2.32l-2,.08.39-.9a8.27,8.27,0,0,0-3.64.22,11.52,11.52,0,0,0-5.59-1.87c-2.14-.28-4.51-.56-7.22-1.14,4.65.27-2.74-1.43-1.93-1.54a14.13,14.13,0,0,0-2.49-.18l-3.19,0a22.86,22.86,0,0,1-3.08-.16,5.35,5.35,0,0,1-2.22-.61c-1.45-.57,3.18-.44-.35-.93-2.32-.06-3.93.32-2.47.9-2.56-.11-5.35-.09-8.2-.2-1.43-.07-2.87,0-4.31,0l-4.25.1,1.31-.67a13.45,13.45,0,0,0-5,.36,18.34,18.34,0,0,0-3.65,1.26c-.51-.2-.76,0-.26-.42-4.56-.47-5.53,1.91-12.69,3,.58.82,3.78.33,6-.5L328,53.83c6.16-.88,13.09-1.79,18.15-2.42l-2.3.81c2.21.64,3,.29,3.71,0a3.28,3.28,0,0,1,1.27-.35,5.07,5.07,0,0,1,2.23.52c3-.29-2.19-.59.1-1,2.15.35-.56,1.77,3,1.92a163.67,163.67,0,0,0-20.95,1.36c-1.78.27-3.58.43-5.35.78l-5.31,1c-3.49.82-7,1.58-10.29,2.64-.21.26.52.12,1.24,0-2.14,1.22-12.68,3.81-22.3,8-2.38,1.06-4.73,2.15-6.9,3.24s-4.11,2.23-5.75,3.27c-3.25,2.15-5.35,3.79-5.2,4.57-.79.08.8-1.59-1.58.16-.11.31-.58,1,.21.88a27.11,27.11,0,0,0-5.21,3.06,58.71,58.71,0,0,0-5.16,4.18c-1.69,1.52-3.43,3.06-5.09,4.69-.84.79-1.7,1.57-2.57,2.33s-1.68,1.55-2.55,2.28c.46.17-.73,1.77-.52,2-1.47.72-2.8,2.34-4.1,4L244.94,104a12.38,12.38,0,0,1-1.71,1.88l1-.41-2.8,3.57-2.62,3.69c0,.32.72-.67,1.2-1.22-.94,1.74-1.68,1.77-2.16,1.67-.5,1.3-.85,2.68-1.27,4a31.74,31.74,0,0,0-2.83,3.59q-1.29,2-2.51,4.07c-.8,1.41-1.49,2.93-2.21,4.44-.35.76-.72,1.52-1.05,2.3s-.62,1.58-.94,2.38c-1.31,3.16-2.34,6.48-3.54,9.72-1,3.3-2.22,6.52-3.36,9.72a14.87,14.87,0,0,1,.11,3.2,24.4,24.4,0,0,1-.53,4.08l.63-1.56c0,3.51-.48.09-.78,3,.11,2.05,1.18.86,1.3-1.85.67-1.56.74-.48.68.73C219.11,171.34,217.63,181.1,216,189.84Z" />
  <path
     style="fill:#000000;stroke-width:8;stroke-miterlimit:4;stroke-dasharray:none;stroke:#000000;stroke-opacity:1"
     id="path5137"
     d="M479.66,178.23c.33-1.19.71,4.49,1.4,1.65.13-1.12.21-2.34.24-3.62s-.1-2.61-.21-4a86.93,86.93,0,0,0-1.23-8.72c-.29-1.5-.66-3-1-4.48l-.48-2.23-.56-2.19c-.36-1.46-.7-2.89-1-4.3s-.69-2.74-1-4.06a30.9,30.9,0,0,0-1.15-6.17.54.54,0,0,0-.44.25c-.26-.68-.57-1.46-.91-2.29s-.77-1.69-1.16-2.56c-.81-1.72-1.48-3.51-2-4.89-.54-.65-1.44-.88-.57.45a17.37,17.37,0,0,1-2.34-5.3,11.21,11.21,0,0,0-1.82-4c.67,2.1-1.64-1.51-.68.9a7.13,7.13,0,0,1-1.21-4.3,6.43,6.43,0,0,0-.71-3.85c-.28-.08-.57-.16-.21.5a13.09,13.09,0,0,0-1.77-3.23c-.78-1.12-1.65-2.27-2.46-3.33-1.7-2-3-3.79-2.52-4.52-.53-.27-1-.57-1.59-.82-.73-1.71-.14-1.63-1.93-4-1.48-1.29-.43.49-1.1.12a2.93,2.93,0,0,0-.59-1.25c-.38-.52-.9-1.14-1.44-1.8a21.19,21.19,0,0,1-2.78-4c.73-.91,1.91,4.1,4.25,5.11.22-.09,0-.38-.29-.75a41.56,41.56,0,0,1,2.85,3.53c.87,1.19,1.75,2.32,2.48,3.53,1.46,2.4,2.87,4.66,4,7,.61,1.14,1.21,2.27,1.81,3.38s1.14,2.25,1.74,3.34,1.24,2.14,1.85,3.21,1.27,2.14,2,3.18a5.41,5.41,0,0,0,2.95,4c-.44-1.82-2.46-6.71-3.84-6-.24-1.07-.46-2.17-.77-3.22-.71-1,.61-1.78.54-2.36,1.08,2,3.73,3.42,2.56.51,1.67,2.52.66,2.55-.28,2.45s-1.92-.25-.45,1.92l1.34.11c-.51-.29-.3.63.18,1.76a16,16,0,0,0,.86,1.77,8.21,8.21,0,0,0,.87,1.43l-.13-.73A182.76,182.76,0,0,1,480.13,147a148.08,148.08,0,0,1,6,23.89c-1.15,2.08-.46,4.82,0,7.6a37.17,37.17,0,0,1,.62,4,6.21,6.21,0,0,1-.65,3.33c.41,1.69.91-2.46,1.33.8.21,1.65-.51,1.8-.71,1.73l.25,1.49c-1.33.61-2.58.16-3.79-1.66S481,183.15,479.66,178.23Z" />
  <path
     style="fill:#000000;stroke-width:8;stroke-miterlimit:4;stroke-dasharray:none;stroke:#000000;stroke-opacity:1"
     id="path5139"
     d="M422.68,309.06c-1.68-.48-4.79-2.37-4.18-3.12-.61.75-.61.75-3-.11.41-.49-1.51-1.62-2.69-2.39.69,1.05,2,2,4.49,4,3.19.53,7,5.74,10.07,6.06C425.91,312.07,424.89,310.16,422.68,309.06Z"
     class="cls-1" />
  <path
     style="fill:#000000;stroke-width:8;stroke-miterlimit:4;stroke-dasharray:none;stroke:#000000;stroke-opacity:1"
     id="path5141"
     d="M414.34,298.07l-.57.07,4.5,2.41C417.25,300.22,414.22,298.53,414.34,298.07Z"
     class="cls-1" />
  <path
     style="fill:#000000;stroke-width:8;stroke-miterlimit:4;stroke-dasharray:none;stroke:#000000;stroke-opacity:1"
     id="path5143"
     d="M400.34,289.54c.78-.32-1.1-2.13-.69-2.63-.73,1.21-3.47-2.08-5.4-3.21l-1.35.38c1.31,1.88,6,4.72,9.7,7.45Z" />
  <path
     style="fill:#000000;stroke-width:8;stroke-miterlimit:4;stroke-dasharray:none;stroke:#000000;stroke-opacity:1"
     id="path5145"
     d="M397.4,286.49l-1.59-.26C396.91,286.77,399.28,288.3,397.4,286.49Z"
     class="cls-1" />
  <path
     style="fill:#000000;stroke-width:8;stroke-miterlimit:4;stroke-dasharray:none;stroke:#000000;stroke-opacity:1"
     id="path5147"
     d="M397.76,291.42c2.9,2.14-1.51-1.63,1.6.26C398.25,291.13,397.07,290.37,397.76,291.42Z"
     class="cls-1" />
  <polygon
     style="fill:#000000;stroke-width:8;stroke-miterlimit:4;stroke-dasharray:none;stroke:#000000;stroke-opacity:1"
     id="polygon5149"
     points="386.64 280.97 393.23 284.94 390.89 282.73 386.64 280.97" />
  <path
     style="fill:#000000;stroke-width:8;stroke-miterlimit:4;stroke-dasharray:none;stroke:#000000;stroke-opacity:1"
     id="path5151"
     d="M387.62,278.82c.82.58,1.88,1.82.49,1.3-1.75-2.28-3.84-2.26-5.52-4.32l2.21,1.09c.25-.93-4.71-2.16-3.68-3.41-3.36-1,1.27,2.57-2.71.77a60.89,60.89,0,0,1,8.35,6.25,20.7,20.7,0,0,0-2-2c2,1.35,4.95,2.82,7.32,4.35C391.47,281.08,389.22,280.67,387.62,278.82Z" />
  <path
     style="fill:#000000;stroke-width:8;stroke-miterlimit:4;stroke-dasharray:none;stroke:#000000;stroke-opacity:1"
     id="path5153"
     d="M377.72,271.62c-2.08-1.56-5.36-3.89-6.63-3.29,1.76,2.28,2.75,1.71,4.05,2,.54.62,2.62,2.18,1.39,2.1C376.37,272,378.42,272.67,377.72,271.62Z" />
  <path
     style="fill:#000000;stroke-width:8;stroke-miterlimit:4;stroke-dasharray:none;stroke:#000000;stroke-opacity:1"
     id="path5155"
     d="M369.46,265.58l-2.17-.2,1.1.55-.33.72a4.24,4.24,0,0,1,3.94.9C371.22,266.28,370.44,266.6,369.46,265.58Z" />
  <path
     style="fill:#000000;stroke-width:8;stroke-miterlimit:4;stroke-dasharray:none;stroke:#000000;stroke-opacity:1"
     id="path5157"
     d="M365.88,269.61c-1.14-1.45-2.17-1.78-4-2.7,2.37,1.53,5.64,3.86,6.59,4l-.29,0a33.24,33.24,0,0,0,4.46,1.52C369.86,271.4,366.3,267.53,365.88,269.61Z" />
  <path
     style="fill:#000000;stroke-width:8;stroke-miterlimit:4;stroke-dasharray:none;stroke:#000000;stroke-opacity:1"
     id="path5159"
     d="M368.79,271.75l-2.05-.66Z" />
  <polygon
     style="fill:#000000;stroke-width:8;stroke-miterlimit:4;stroke-dasharray:none;stroke:#000000;stroke-opacity:1"
     id="polygon5161"
     points="362.71 261.18 365.77 263.75 365.16 262.92 362.71 261.18" />
  <path
     style="fill:#000000;stroke-width:8;stroke-miterlimit:4;stroke-dasharray:none;stroke:#000000;stroke-opacity:1"
     id="path5163"
     d="M364.74,266.58c-2.53-2,.94,1.7-1.51-.05-.74-.36,3.64,2.51,4.13,2.23C366.83,268.15,364.5,267.51,364.74,266.58Z" />
  <path
     style="fill:#000000;stroke-width:8;stroke-miterlimit:4;stroke-dasharray:none;stroke:#000000;stroke-opacity:1"
     id="path5165"
     d="M360.62,259.61l-3.15-1.21Z" />
  <path
     style="fill:#000000;stroke-width:8;stroke-miterlimit:4;stroke-dasharray:none;stroke:#000000;stroke-opacity:1"
     id="path5167"
     d="M354.2,254.49l-.86.1c-2.33-2.21-6.31-4-7.49-6.36,0,.9-1.92.45.24,2.23.58-.06,1.39.52,1.52,0,.9.8.4,1.08.94,1.7,2,.66,4.38,2.88,6.05,3.36a4.18,4.18,0,0,1-1.26-1c3.44,1.18,2.53,3.54,4.74,3.06C356.78,257.35,355.67,255.22,354.2,254.49Z" />
  <path
     style="fill:#000000;stroke-width:8;stroke-miterlimit:4;stroke-dasharray:none;stroke:#000000;stroke-opacity:1"
     id="path5169"
     d="M352.18,257.88l2.17,1.78c-1.15.13-2.82-1.93-3.6-1.62-.12.47,2,2.25,1,1.92,1.31-1.28,3.19,2.11,3.15-.37,3.11,1.9.29,1.55,3.48,3.66l1.44-.16C356.07,261,356,259.93,352.18,257.88Z" />
  <path
     style="fill:#000000;stroke-width:8;stroke-miterlimit:4;stroke-dasharray:none;stroke:#000000;stroke-opacity:1"
     id="path5171"
     d="M343.47,251.44l-.78-1.26.12,1.11c-5.2-3.46-6.21-8.4-9.59-10.16-4.51-1.77-7.13-5.67-11.17-8.28-2.34-.74,1.6,1.64,1.54,2.15-1.37.78-1.44-1.93-3-1.59-.84.67,3.4,3.73,4.74,5.43,1.55.91,1.71.63,2.5.46,0,.73,1.44,1.93,1.48,2.66,3.53,1.48,4.26,3.86,7.78,5.25.49,1.31-2.35-1.45-1.41-.66l1.65,1.14-.1-.23c2.7.91,6.41,4.42,7.55,5.86-1-1-1.39-2.09.09-1.36l.57,1.51,3.65.93C346.37,253.59,344.86,250.38,343.47,251.44Z" />
  <path
     style="fill:#000000;stroke-width:8;stroke-miterlimit:4;stroke-dasharray:none;stroke:#000000;stroke-opacity:1"
     id="path5173"
     d="M345.71,255c3.16,2.79.38-1.4,3.89,1.58l-4-2.7Z" />
  <path
     style="fill:#000000;stroke-width:8;stroke-miterlimit:4;stroke-dasharray:none;stroke:#000000;stroke-opacity:1"
     id="path5175"
     d="M330.61,241.68,329.27,240C329.46,241.68,333.11,242.14,330.61,241.68Z"
     class="cls-1" />
  <polygon
     style="fill:#000000;stroke-width:8;stroke-miterlimit:4;stroke-dasharray:none;stroke:#000000;stroke-opacity:1"
     id="polygon5177"
     points="324.35 237.31 325.92 236.98 323.94 236.41 324.35 237.31"
     class="cls-1" />
  <path
     style="fill:#000000;stroke-width:8;stroke-miterlimit:4;stroke-dasharray:none;stroke:#000000;stroke-opacity:1"
     id="path5179"
     d="M319.45,232.16c-1.62-.4-.38,1.07,1.18,2C319.33,233.17,318.92,232.27,319.45,232.16Z" />
  <path
     style="fill:#000000;stroke-width:8;stroke-miterlimit:4;stroke-dasharray:none;stroke:#000000;stroke-opacity:1"
     id="path5181"
     d="M311.33,223.73c2.88,2-2.38-2,.29-1.44C311,222.44,309.13,222,311.33,223.73Z"
     class="cls-1" />
  <path
     style="fill:#000000;stroke-width:8;stroke-miterlimit:4;stroke-dasharray:none;stroke:#000000;stroke-opacity:1"
     id="path5183"
     d="M303.62,215c1.17.55,1.47,1,1.45,1.34A5.07,5.07,0,0,1,303.62,215Z" />
  <path
     style="fill:#000000;stroke-width:8;stroke-miterlimit:4;stroke-dasharray:none;stroke:#000000;stroke-opacity:1"
     id="path5185"
     d="M337.42,243c.33.23.69.48,1,.73C338.07,243.5,337.76,243.26,337.42,243Z" />
  <path
     style="fill:#000000;stroke-width:8;stroke-miterlimit:4;stroke-dasharray:none;stroke:#000000;stroke-opacity:1"
     id="path5187"
     d="M336.77,242.54l.65.47C337.17,242.84,337,242.68,336.77,242.54Z" />
  <path
     style="fill:#000000;stroke-width:8;stroke-miterlimit:4;stroke-dasharray:none;stroke:#000000;stroke-opacity:1"
     id="path5189"
     d="M316.86,225.54h0a2.72,2.72,0,0,1,.16.25Z" />
  <path
     style="fill:#000000;stroke-width:8;stroke-miterlimit:4;stroke-dasharray:none;stroke:#000000;stroke-opacity:1"
     id="path5191"
     d="M406.28,291.78a15.05,15.05,0,0,1,1.38.88l-1.37-.86S406.28,291.79,406.28,291.78Z" />
  <path
     style="fill:#000000;stroke-width:8;stroke-miterlimit:4;stroke-dasharray:none;stroke:#000000;stroke-opacity:1"
     id="path5193"
     d="M406.9,294.2c-2.79-1-1.52-3.21-5.65-5.45,1.63.95,3.32,2,5,3.05C407.81,294.29,404.24,291.12,406.9,294.2Z" />
  <path
     style="fill:#000000;stroke-width:8;stroke-miterlimit:4;stroke-dasharray:none;stroke:#000000;stroke-opacity:1"
     id="path5195"
     d="M374.19,273,374,273C373.78,272.82,373.92,272.88,374.19,273Z" />
  <polygon
     style="fill:#000000;stroke-width:8;stroke-miterlimit:4;stroke-dasharray:none;stroke:#000000;stroke-opacity:1"
     id="polygon5197"
     points="511.44 365.8 511.64 365.56 513.52 367.37 511.44 365.8"
     class="cls-1" />
  <path
     style="fill:#000000;stroke-width:8;stroke-miterlimit:4;stroke-dasharray:none;stroke:#000000;stroke-opacity:1"
     id="path5199"
     d="M511.48,365.12l-3.23-3,21.35,14.71-.94-.12C528.62,377.38,511.15,364.26,511.48,365.12Z"
     class="cls-1" />
  <path
     style="fill:#000000;stroke-width:8;stroke-miterlimit:4;stroke-dasharray:none;stroke:#000000;stroke-opacity:1"
     id="path5201"
     d="M510.17,364.82C507.34,364.47,507,362,504,361c2.05.67,3.64.93,5.08,2.35Z"
     class="cls-1" />
  <path
     style="fill:#000000;stroke-width:8;stroke-miterlimit:4;stroke-dasharray:none;stroke:#000000;stroke-opacity:1"
     id="path5203"
     d="M501.61,362c-1-1-2.66-1.5-3.19-2.11C499.4,359.3,500.71,361.18,501.61,362Z"
     class="cls-2" />
  <path
     style="fill:#000000;stroke-width:8;stroke-miterlimit:4;stroke-dasharray:none;stroke:#000000;stroke-opacity:1"
     id="path5205"
     d="M496.32,363a4.93,4.93,0,0,1-.53-.36c.24.09.47.17.65.22Z" />
  <path
     style="fill:#000000;stroke-width:8;stroke-miterlimit:4;stroke-dasharray:none;stroke:#000000;stroke-opacity:1"
     id="path5207"
     d="M496.44,362.9l.29-.36C497,363,496.82,363,496.44,362.9Z" />
  <path
     style="fill:#000000;stroke-width:8;stroke-miterlimit:4;stroke-dasharray:none;stroke:#000000;stroke-opacity:1"
     id="path5209"
     d="M495.79,362.68a9.06,9.06,0,0,0-1.59-.52l.45.4c-.74-.37-2.13-.88-2.3-1.32,1.27,1,1.47.74,1.88.23l-2.08-1.56C493.43,358.94,494,361.27,495.79,362.68Z" />
  <path
     style="fill:#000000;stroke-width:8;stroke-miterlimit:4;stroke-dasharray:none;stroke:#000000;stroke-opacity:1"
     id="path5211"
     d="M488.84,358.27l2.7.81C491.66,360.2,489.65,358.85,488.84,358.27Z"
     class="cls-2" />
  <path
     style="fill:#000000;stroke-width:8;stroke-miterlimit:4;stroke-dasharray:none;stroke:#000000;stroke-opacity:1"
     id="path5213"
     d="M486.18,355.19c.65.15,2.74,1.71,1.68.48a3.85,3.85,0,0,1,1.27.73C487.57,355.57,488.33,357.36,486.18,355.19Z" />
  <path
     style="fill:#000000;stroke-width:8;stroke-miterlimit:4;stroke-dasharray:none;stroke:#000000;stroke-opacity:1"
     id="path5215"
     d="M489.13,356.4a6.12,6.12,0,0,1,.65.4A4.71,4.71,0,0,1,489.13,356.4Z" />
  <path
     style="fill:#000000;stroke-width:8;stroke-miterlimit:4;stroke-dasharray:none;stroke:#000000;stroke-opacity:1"
     id="path5217"
     d="M514.26,369.31c-.2-.28-.13-.37,0-.37Z"
     class="cls-2" />
  <path
     style="fill:#000000;stroke-width:8;stroke-miterlimit:4;stroke-dasharray:none;stroke:#000000;stroke-opacity:1"
     id="path5219"
     d="M482.33,351.35l-.81-.58a7.4,7.4,0,0,0,.68.42Z" />
  <path
     style="fill:#000000;stroke-width:8;stroke-miterlimit:4;stroke-dasharray:none;stroke:#000000;stroke-opacity:1"
     id="path5221"
     d="M555.23,392.37a55.37,55.37,0,0,0-9.75-6.79c-.53,1-1.84-.91-2.75-.13,4.38,2.88-16.56-10.75-13.41-7.95l1.31.3-1.72.2c-1.89-1.68-4.18-4.4-6-4.84-.17-.56,17.57,12.22,17.08,11.47.83,2.2-24.72-15.72-25.72-15.69l.11-.77c-3.6-1.62-6.22-2.22-9.17-3.68l-.12-1.12c1.8,1.6,2.66,1.5,4.87,2.6-3.55-2.29-3.88-3.16-6.62-4.87-.54,1,2,2-1.72.2-.7-1.05,2.2-.49-.9-2.38-3.44-2.76-3.64-.93-6.84-3.05l1.88,1.82c-1.19-.77-3.48-2.08-4.25-3.35,1.26,1,4.95,2.81,5.48,1.85-1.47-.73-4.17-3.13-5.36-3.89l1.15-.14c-.86-1.48-2.21-1.09-3.43-2.76-1.77-.7.28,1.55-.75,1.22a11.29,11.29,0,0,0-4.17-3.13c-.21,1.83,3.77,2.05,4.74,4.64L486.6,350c-2.67.09,4.46,3.09,2.82,3.51-3-.1-3.44-4.34-6.59-4,1.06,1.23,5.15,4.14,4.3,4.24-1.11-1.51-2.81-1.3-4.93-2.54l-2-2.3c-1.32-.31-.49.28.12,1.11-3-3.26-9.66-6.55-14-11-3.11-1.9-.78.31-2.46-.17-1-1.91-4.17-3.13-5.81-4.29-.45-.4-1.89-.23-1.64.42l4.5,2.41c-.49.28-.37,1.39,1.18,2.34.05-2.26,5.2,5,6.72,3.51l-.62.75,5.69,3.18-.08-.22c-.21.25,4.87,2.6,7.57,5-1-.33-5.73-4.07-3.44-1.18-2.5-1.06-5.89-4.51-10.1-7l.4,1.08c-4.71-2.16-9.53-7-14.28-10.08l1.88.23c-1.43-1.41-3.1-3.48-5.07-3.92,2,1.34.7,1.05.12,1.11-2.95-1.46-6.55-4.66-10.39-6.92,0,0,.28,0,.2-.25l-4.13-2.23a10.18,10.18,0,0,1-2.82-3.51c-.74-.36-2.38-1.53-2.05-.66a4.76,4.76,0,0,0,.92.7c-2.49-.55-1.19-1.18-3.95-2.38,2.34.63.09-1.37.79-1.9-3-1.68-1.11,1-1.68,1.1-3.16-2.8-3.19-3.69-6.55-6.24-.49.28,2.25,2,2.21,2.68a6.93,6.93,0,0,0-2.37-1.53l1.88,1.81a58.18,58.18,0,0,0-10.81-8l.17.43-2.46-1.75,1.44-.16c-1.47-.73-2.41-2.43-3.56-2.3l.45.4-1.85-.91,2.26.42c-1.88-1.82-5.94-2.25-9.29-4.8,0-1.58,6.21,3.79,7.61,2.73-1-1-2.78-2.61-3.72-2.73-.13.47.69,1.05,1.51,1.63-3.52-1.39-7.24-5.7-10-5.84l2,2c-2.74-1.71-3.43-4.34-4.87-4.17l3,.1c-3.15-1.21-6.5-3.76-9.37-5-.62.75,3.64,2.51,3.36,2.55l-1.6-.27c-3.6-3.19-.78-1.26-5.2-5l-.41.5c-1-1.91-6.34-3.33-3.76-3.62l1.06,1.22.33-.71-5.77-3.39c.86-.1-1.88-1.82-.73-1.95l-2.42-.85c-.28-1.54,4.47,1.52,5.16,1,.22-.46-.77-1.07-1.27-1.34,2.9,1,3,3.44,5.4,5.15l1.6.27-.61.75a5.67,5.67,0,0,0,2.9.56c1.64,2.75,5.12,3.24,8.55,6-3.31-1.65,1.39,2.09.74,1.94,1.63,1.17,6.67,2.62,7.4,4.56.7,1.05-2.41-.84-.24.93,1.55.95,2.87,1.25,2.17.2,3.48,2.08,7.28,5,10.92,7.54l-1.23-.08a11.74,11.74,0,0,0,6.27,3.11c.16.43.45.4-.12.46,2.28,2.9,4.46,1.52,9.08,5,.25-.93-1.84-2.49-3.6-3.19l1-.57a103.61,103.61,0,0,0-12.53-7.8l2,.45c-2.08-3.14-2.83-.35-4.63-3.53-2.21-1.1,1.15,1.45-.61.75-1.25-1.23,1.38-1.2-.95-2.91,9.2,5.8,19.28,12.95,28.7,19.33.29,0-.17-.43-.61-.83,4,1.12,27.8,22.31,30.19,20.68.24.65-1.52,0,.48,1.29.29,0,.95.12.7-.53,4.17,4.71,11.75,8.12,17.23,13.13.12-.47,1.59.26,1.8,0,1.47,2.31,5.64,3.86,7.24,5.71l-.33-.87,6.1,4.26c.29,0-.53-.61-1-1,1.47.73,1.43,1.41,1.3,1.87l3.36,1c6.87,7.1,18.46,11.63,26.92,19a12.17,12.17,0,0,1,5.66,2.28l-1-1c2.79,1-.12.47,2.09,1.57,1.68.48,1.19-.82-.94-1.7-1-1.06-.09-.81.86-.41C543.73,381.6,550.22,386.87,555.23,392.37Z" />
  <path
     style="fill:#000000;stroke-width:8;stroke-miterlimit:4;stroke-dasharray:none;stroke:#000000;stroke-opacity:1"
     id="path5223"
     d="M279.29,195.26c.55.9-3.37-1.9-2,.19,5.14,5.73,15.91,11.56,22.4,17.77a36.26,36.26,0,0,0,3.59,3.82.63.63,0,0,0,.24-.45c1.95,1.44,5.3,3.46,7,5.21.67.24,1.49-.05.31-.66,3.36,1.6,4.45,4.69,6.46,5.43-1.19-1.4,1.84.47.3-1,3.21,2.12,1.51,3.95,3.84,5.94.26-.06.52-.11.05-.51,2.12,2.77,8.71,5.34,8,7l1.52.17c.87,1.31.35,1.42,2.2,3,1.46.69.32-.56.95-.44.15,1,3.81,3.13,4.83,5-.53,1-2-3.18-4.12-3.47-.17.14,0,.35.33.6-8.11-6-12.65-12.91-19.91-17a3.61,3.61,0,0,0-3.71-1.73c1,1.14,4.11,4.19,5.06,3l1.56,2.3c.85.51-.06,1.76.15,2.21-1.4-1.19-4-1.14-2.26.72-4-2.61,3.14-1.78-.57-3.9l-1.15.55c1,0-1.72-2.55-3.06-3l.34.51c-9-6.92-21.67-15.19-32.15-22.07-.94-4-8.09-4.48-9.18-8-1.34-.48,1.05,1.93-1.31.69-1.18-.63-.87-1.28-.7-1.42l-1.12-.51C268,192.43,271.27,191.81,279.29,195.26Z" />
  <path
     style="fill:#000000;stroke-width:8;stroke-miterlimit:4;stroke-dasharray:none;stroke:#000000;stroke-opacity:1"
     id="path5225"
     d="M279.68,536c-1.68-.48-4.79-2.37-4.18-3.12-.61.75-.61.75-3-.1.41-.5-1.51-1.63-2.69-2.4.69,1.05,2,2,4.49,4,3.19.53,7,5.74,10.07,6.06C282.91,539,281.89,537.12,279.68,536Z"
     class="cls-1" />
  <path
     style="fill:#000000;stroke-width:8;stroke-miterlimit:4;stroke-dasharray:none;stroke:#000000;stroke-opacity:1"
     id="path5227"
     d="M271.34,525l-.57.07,4.5,2.41C274.25,527.18,271.22,525.5,271.34,525Z"
     class="cls-1" />
  <path
     style="fill:#000000;stroke-width:8;stroke-miterlimit:4;stroke-dasharray:none;stroke:#000000;stroke-opacity:1"
     id="path5229"
     d="M257.34,516.5c.78-.32-1.1-2.13-.69-2.63-.73,1.22-3.47-2.08-5.4-3.21l-1.35.38c1.31,1.88,6,4.73,9.7,7.45Z" />
  <path
     style="fill:#000000;stroke-width:8;stroke-miterlimit:4;stroke-dasharray:none;stroke:#000000;stroke-opacity:1"
     id="path5231"
     d="M254.4,513.45l-1.59-.26C253.91,513.73,256.28,515.27,254.4,513.45Z"
     class="cls-1" />
  <path
     style="fill:#000000;stroke-width:8;stroke-miterlimit:4;stroke-dasharray:none;stroke:#000000;stroke-opacity:1"
     id="path5233"
     d="M254.76,518.38c2.9,2.14-1.51-1.63,1.6.26C255.25,518.09,254.07,517.33,254.76,518.38Z"
     class="cls-1" />
  <polygon
     style="fill:#000000;stroke-width:8;stroke-miterlimit:4;stroke-dasharray:none;stroke:#000000;stroke-opacity:1"
     id="polygon5235"
     points="243.64 507.93 250.22 511.9 247.89 509.69 243.64 507.93" />
  <path
     style="fill:#000000;stroke-width:8;stroke-miterlimit:4;stroke-dasharray:none;stroke:#000000;stroke-opacity:1"
     id="path5237"
     d="M244.62,505.78c.82.59,1.89,1.82.49,1.3-1.75-2.28-3.84-2.26-5.52-4.32l2.21,1.1c.25-.94-4.71-2.17-3.68-3.41-3.36-1,1.27,2.56-2.71.76a61.72,61.72,0,0,1,8.35,6.25,18.66,18.66,0,0,0-2-2c2,1.34,4.95,2.81,7.32,4.34C248.47,508.05,246.22,507.63,244.62,505.78Z" />
  <path
     style="fill:#000000;stroke-width:8;stroke-miterlimit:4;stroke-dasharray:none;stroke:#000000;stroke-opacity:1"
     id="path5239"
     d="M234.72,498.58c-2.08-1.56-5.36-3.89-6.63-3.29,1.76,2.28,2.75,1.72,4,2,.54.62,2.62,2.18,1.39,2.1C233.37,499,235.42,499.63,234.72,498.58Z" />
  <path
     style="fill:#000000;stroke-width:8;stroke-miterlimit:4;stroke-dasharray:none;stroke:#000000;stroke-opacity:1"
     id="path5241"
     d="M226.46,492.55l-2.17-.21,1.1.55-.33.72a4.27,4.27,0,0,1,3.94.9C228.22,493.25,227.44,493.56,226.46,492.55Z" />
  <path
     style="fill:#000000;stroke-width:8;stroke-miterlimit:4;stroke-dasharray:none;stroke:#000000;stroke-opacity:1"
     id="path5243"
     d="M222.88,496.57c-1.14-1.45-2.16-1.78-4-2.7,2.37,1.53,5.64,3.86,6.59,4l-.29,0a31.75,31.75,0,0,0,4.46,1.52C226.86,498.36,223.3,494.49,222.88,496.57Z" />
  <path
     style="fill:#000000;stroke-width:8;stroke-miterlimit:4;stroke-dasharray:none;stroke:#000000;stroke-opacity:1"
     id="path5245"
     d="M225.79,498.71l-2-.66Z" />
  <polygon
     style="fill:#000000;stroke-width:8;stroke-miterlimit:4;stroke-dasharray:none;stroke:#000000;stroke-opacity:1"
     id="polygon5247"
     points="219.71 488.14 222.77 490.71 222.16 489.88 219.71 488.14" />
  <path
     style="fill:#000000;stroke-width:8;stroke-miterlimit:4;stroke-dasharray:none;stroke:#000000;stroke-opacity:1"
     id="path5249"
     d="M221.74,493.54c-2.53-2,.95,1.7-1.51,0-.74-.37,3.64,2.5,4.13,2.22C223.83,495.11,221.5,494.47,221.74,493.54Z" />
  <path
     style="fill:#000000;stroke-width:8;stroke-miterlimit:4;stroke-dasharray:none;stroke:#000000;stroke-opacity:1"
     id="path5251"
     d="M217.62,486.58l-3.15-1.22Z" />
  <path
     style="fill:#000000;stroke-width:8;stroke-miterlimit:4;stroke-dasharray:none;stroke:#000000;stroke-opacity:1"
     id="path5253"
     d="M211.2,481.45l-.86.1c-2.33-2.21-6.31-4-7.49-6.35,0,.89-1.92.44.24,2.22.58-.06,1.39.52,1.52.05.9.8.4,1.08.94,1.7,2,.67,4.38,2.88,6,3.36a4.18,4.18,0,0,1-1.26-1c3.44,1.18,2.53,3.54,4.74,3.06C213.78,484.31,212.67,482.18,211.2,481.45Z" />
  <path
     style="fill:#000000;stroke-width:8;stroke-miterlimit:4;stroke-dasharray:none;stroke:#000000;stroke-opacity:1"
     id="path5255"
     d="M209.18,484.84l2.17,1.78c-1.15.13-2.82-1.93-3.6-1.61-.12.46,2,2.24,1,1.91,1.31-1.28,3.19,2.12,3.15-.36,3.11,1.89.29,1.54,3.48,3.66l1.44-.17C213.07,488,213,486.89,209.18,484.84Z" />
  <path
     style="fill:#000000;stroke-width:8;stroke-miterlimit:4;stroke-dasharray:none;stroke:#000000;stroke-opacity:1"
     id="path5257"
     d="M200.47,478.4l-.78-1.26.12,1.12c-5.2-3.47-6.21-8.41-9.59-10.17-4.51-1.76-7.13-5.67-11.17-8.28-2.34-.74,1.6,1.64,1.54,2.15-1.37.78-1.44-1.92-3-1.59-.84.67,3.4,3.73,4.74,5.43,1.55.91,1.71.63,2.5.46,0,.74,1.44,1.93,1.48,2.66,3.53,1.48,4.26,3.86,7.78,5.26.49,1.3-2.35-1.46-1.41-.66l1.65,1.13-.1-.22c2.7.91,6.41,4.41,7.55,5.85-1-1-1.39-2.09.09-1.36l.57,1.52,3.65.93C203.37,480.55,201.86,477.34,200.47,478.4Z" />
  <path
     style="fill:#000000;stroke-width:8;stroke-miterlimit:4;stroke-dasharray:none;stroke:#000000;stroke-opacity:1"
     id="path5259"
     d="M202.71,482c3.16,2.8.38-1.4,3.89,1.58l-4-2.7Z" />
  <path
     style="fill:#000000;stroke-width:8;stroke-miterlimit:4;stroke-dasharray:none;stroke:#000000;stroke-opacity:1"
     id="path5261"
     d="M187.61,468.64,186.27,467C186.46,468.64,190.11,469.11,187.61,468.64Z"
     class="cls-1" />
  <polygon
     style="fill:#000000;stroke-width:8;stroke-miterlimit:4;stroke-dasharray:none;stroke:#000000;stroke-opacity:1"
     id="polygon5263"
     points="181.35 464.28 182.91 463.94 180.94 463.37 181.35 464.28"
     class="cls-1" />
  <path
     style="fill:#000000;stroke-width:8;stroke-miterlimit:4;stroke-dasharray:none;stroke:#000000;stroke-opacity:1"
     id="path5265"
     d="M176.45,459.12c-1.62-.4-.38,1.07,1.18,2C176.33,460.13,175.92,459.23,176.45,459.12Z" />
  <path
     style="fill:#000000;stroke-width:8;stroke-miterlimit:4;stroke-dasharray:none;stroke:#000000;stroke-opacity:1"
     id="path5267"
     d="M168.33,450.7c2.88,2-2.38-2,.29-1.45C168,449.4,166.13,448.93,168.33,450.7Z"
     class="cls-1" />
  <path
     style="fill:#000000;stroke-width:8;stroke-miterlimit:4;stroke-dasharray:none;stroke:#000000;stroke-opacity:1"
     id="path5269"
     d="M160.62,441.91c1.17.55,1.47,1,1.45,1.34A5.07,5.07,0,0,1,160.62,441.91Z" />
  <path
     style="fill:#000000;stroke-width:8;stroke-miterlimit:4;stroke-dasharray:none;stroke:#000000;stroke-opacity:1"
     id="path5271"
     d="M194.42,470a10.1,10.1,0,0,1,1,.73C195.07,470.46,194.76,470.22,194.42,470Z" />
  <path
     style="fill:#000000;stroke-width:8;stroke-miterlimit:4;stroke-dasharray:none;stroke:#000000;stroke-opacity:1"
     id="path5273"
     d="M193.77,469.5l.65.48C194.17,469.81,194,469.64,193.77,469.5Z" />
  <path
     style="fill:#000000;stroke-width:8;stroke-miterlimit:4;stroke-dasharray:none;stroke:#000000;stroke-opacity:1"
     id="path5275"
     d="M173.86,452.5h0c0,.09.11.16.16.25Z" />
  <path
     style="fill:#000000;stroke-width:8;stroke-miterlimit:4;stroke-dasharray:none;stroke:#000000;stroke-opacity:1"
     id="path5277"
     d="M263.28,518.74a15.05,15.05,0,0,1,1.38.88l-1.37-.86Z" />
  <path
     style="fill:#000000;stroke-width:8;stroke-miterlimit:4;stroke-dasharray:none;stroke:#000000;stroke-opacity:1"
     id="path5279"
     d="M263.9,521.16c-2.79-1-1.52-3.21-5.65-5.45,1.63.95,3.32,2,5,3C264.81,521.25,261.24,518.08,263.9,521.16Z" />
  <path
     style="fill:#000000;stroke-width:8;stroke-miterlimit:4;stroke-dasharray:none;stroke:#000000;stroke-opacity:1"
     id="path5281"
     d="M231.19,500l-.15-.06C230.78,499.79,230.92,499.84,231.19,500Z" />
  <polygon
     style="fill:#000000;stroke-width:8;stroke-miterlimit:4;stroke-dasharray:none;stroke:#000000;stroke-opacity:1"
     id="polygon5283"
     points="368.44 592.77 368.64 592.52 370.52 594.33 368.44 592.77"
     class="cls-1" />
  <path
     style="fill:#000000;stroke-width:8;stroke-miterlimit:4;stroke-dasharray:none;stroke:#000000;stroke-opacity:1"
     id="path5285"
     d="M368.48,592.08l-3.23-3,21.35,14.71-.94-.12C385.62,604.34,368.15,591.22,368.48,592.08Z"
     class="cls-1" />
  <path
     style="fill:#000000;stroke-width:8;stroke-miterlimit:4;stroke-dasharray:none;stroke:#000000;stroke-opacity:1"
     id="path5287"
     d="M367.17,591.78C364.34,591.43,364,589,361,588c2.05.67,3.65.93,5.08,2.35Z"
     class="cls-1" />
  <path
     style="fill:#000000;stroke-width:8;stroke-miterlimit:4;stroke-dasharray:none;stroke:#000000;stroke-opacity:1"
     id="path5289"
     d="M358.61,588.94c-1-1-2.66-1.5-3.19-2.11C356.4,586.26,357.71,588.14,358.61,588.94Z"
     class="cls-2" />
  <path
     style="fill:#000000;stroke-width:8;stroke-miterlimit:4;stroke-dasharray:none;stroke:#000000;stroke-opacity:1"
     id="path5291"
     d="M353.32,590a4.93,4.93,0,0,1-.53-.36c.24.09.47.17.65.22Z" />
  <path
     style="fill:#000000;stroke-width:8;stroke-miterlimit:4;stroke-dasharray:none;stroke:#000000;stroke-opacity:1"
     id="path5293"
     d="M353.44,589.86l.29-.36C354,589.91,353.82,590,353.44,589.86Z" />
  <path
     style="fill:#000000;stroke-width:8;stroke-miterlimit:4;stroke-dasharray:none;stroke:#000000;stroke-opacity:1"
     id="path5295"
     d="M352.79,589.64a9.06,9.06,0,0,0-1.59-.52l.45.4c-.74-.37-2.13-.88-2.3-1.32,1.27,1,1.47.74,1.88.24l-2.08-1.57C350.43,585.9,351,588.23,352.79,589.64Z" />
  <path
     style="fill:#000000;stroke-width:8;stroke-miterlimit:4;stroke-dasharray:none;stroke:#000000;stroke-opacity:1"
     id="path5297"
     d="M345.84,585.23l2.7.81C348.66,587.16,346.65,585.81,345.84,585.23Z"
     class="cls-2" />
  <path
     style="fill:#000000;stroke-width:8;stroke-miterlimit:4;stroke-dasharray:none;stroke:#000000;stroke-opacity:1"
     id="path5299"
     d="M343.18,582.15c.65.15,2.74,1.72,1.68.48a4,4,0,0,1,1.27.73C344.57,582.53,345.33,584.32,343.18,582.15Z" />
  <path
     style="fill:#000000;stroke-width:8;stroke-miterlimit:4;stroke-dasharray:none;stroke:#000000;stroke-opacity:1"
     id="path5301"
     d="M346.13,583.36a6.12,6.12,0,0,1,.65.4A3.91,3.91,0,0,1,346.13,583.36Z" />
  <path
     style="fill:#000000;stroke-width:8;stroke-miterlimit:4;stroke-dasharray:none;stroke:#000000;stroke-opacity:1"
     id="path5303"
     d="M371.26,596.27c-.2-.28-.13-.36.05-.37Z"
     class="cls-2" />
  <path
     style="fill:#000000;stroke-width:8;stroke-miterlimit:4;stroke-dasharray:none;stroke:#000000;stroke-opacity:1"
     id="path5305"
     d="M339.33,578.31l-.81-.58c.23.16.46.3.68.43Z" />
  <path
     style="fill:#000000;stroke-width:8;stroke-miterlimit:4;stroke-dasharray:none;stroke:#000000;stroke-opacity:1"
     id="path5307"
     d="M412.23,619.33a56.46,56.46,0,0,0-9.75-6.79c-.53,1-1.84-.91-2.75-.13,4.38,2.88-16.56-10.74-13.41-7.95l1.31.3-1.72.2c-1.89-1.68-4.18-4.4-6-4.83-.17-.57,17.57,12.21,17.08,11.47.83,2.19-24.72-15.73-25.72-15.7l.12-.77c-3.61-1.62-6.23-2.22-9.18-3.68l-.12-1.12c1.8,1.6,2.66,1.5,4.87,2.6-3.55-2.29-3.88-3.16-6.62-4.87-.54,1,2,2-1.72.2-.7-1,2.21-.49-.9-2.38-3.44-2.76-3.64-.93-6.84-3l1.88,1.82c-1.19-.77-3.48-2.08-4.25-3.35,1.26,1,4.95,2.82,5.48,1.85-1.47-.73-4.17-3.13-5.36-3.89l1.15-.13c-.86-1.48-2.21-1.1-3.43-2.77-1.77-.7.28,1.55-.74,1.22a11.53,11.53,0,0,0-4.18-3.13c-.21,1.83,3.77,2,4.74,4.64l-2.61-2.18c-2.66.09,4.46,3.1,2.82,3.51-3-.1-3.44-4.34-6.59-4,1.06,1.23,5.15,4.14,4.3,4.24-1.11-1.5-2.8-1.3-4.93-2.53l-2-2.31c-1.32-.3-.49.28.12,1.11-3-3.26-9.66-6.55-14-11-3.11-1.9-.78.32-2.46-.17-1-1.91-4.17-3.12-5.81-4.29-.45-.4-1.89-.23-1.64.42l4.5,2.41c-.49.28-.37,1.4,1.18,2.34.05-2.26,5.2,5,6.72,3.51l-.62.75,5.69,3.18-.08-.22c-.21.25,4.87,2.6,7.57,5-1-.33-5.73-4.07-3.44-1.18-2.5-1.06-5.89-4.5-10.1-7l.4,1.08c-4.71-2.16-9.53-7-14.28-10.08l1.88.23c-1.43-1.41-3.1-3.47-5.07-3.92,2,1.35.7,1.05.12,1.11-2.95-1.46-6.54-4.66-10.39-6.92,0,0,.28,0,.2-.25l-4.13-2.23a10.25,10.25,0,0,1-2.82-3.5c-.74-.37-2.38-1.54-2.05-.67a4.76,4.76,0,0,0,.92.7c-2.49-.55-1.19-1.18-3.95-2.38,2.34.63.09-1.37.79-1.9-3-1.68-1.11,1-1.68,1.1-3.16-2.8-3.19-3.69-6.55-6.24-.49.29,2.25,2,2.21,2.68A6.93,6.93,0,0,0,278,538l1.88,1.81a58.18,58.18,0,0,0-10.81-8l.17.43-2.46-1.74,1.44-.17c-1.47-.73-2.41-2.43-3.56-2.3l.45.4-1.85-.91,2.26.42c-1.88-1.82-5.94-2.25-9.29-4.79,0-1.59,6.21,3.79,7.61,2.72-1-1-2.78-2.61-3.72-2.73-.12.47.69,1.05,1.51,1.64-3.52-1.4-7.24-5.71-10-5.84l2,2c-2.74-1.71-3.43-4.33-4.87-4.17l3,.1c-3.15-1.21-6.5-3.76-9.37-5-.62.75,3.64,2.52,3.36,2.55l-1.6-.27c-3.6-3.19-.78-1.26-5.2-5l-.41.5c-1-1.91-6.34-3.32-3.76-3.62l1.06,1.22.33-.71-5.77-3.39c.86-.1-1.88-1.81-.73-1.95l-2.42-.85c-.28-1.54,4.47,1.52,5.16,1,.22-.47-.77-1.08-1.27-1.35,2.9,1,3,3.44,5.4,5.15l1.6.27-.61.75a5.67,5.67,0,0,0,2.9.56c1.64,2.75,5.12,3.25,8.55,6-3.31-1.64,1.39,2.1.74,1.94,1.63,1.17,6.67,2.62,7.4,4.56.7,1-2.41-.84-.24.94,1.55.94,2.87,1.25,2.17.2,3.48,2.08,7.29,5,10.92,7.53l-1.23-.08a11.67,11.67,0,0,0,6.27,3.11c.16.43.45.4-.12.46,2.28,2.9,4.46,1.52,9.08,5,.25-.93-1.84-2.49-3.6-3.19l1-.56a103.61,103.61,0,0,0-12.53-7.8l2,.45c-2.08-3.15-2.83-.36-4.63-3.53-2.21-1.1,1.15,1.44-.61.75-1.25-1.24,1.38-1.21-.95-2.92,9.2,5.8,19.28,13,28.7,19.33.29,0-.17-.43-.61-.83,4,1.12,27.8,22.31,30.19,20.68.24.65-1.52,0,.48,1.3.29,0,.95.11.7-.53,4.17,4.7,11.75,8.11,17.23,13.12.12-.47,1.59.26,1.8,0,1.47,2.31,5.64,3.85,7.24,5.7l-.33-.87,6.1,4.26c.29,0-.53-.61-1-1,1.47.73,1.43,1.42,1.3,1.88l3.36,1c6.87,7.09,18.46,11.62,26.92,19a12.17,12.17,0,0,1,5.66,2.28l-1-1c2.79,1-.12.47,2.09,1.57,1.68.48,1.19-.82-.94-1.7-1-1-.09-.81.86-.41C400.73,608.56,407.22,613.83,412.23,619.33Z" />
  <path
     style="fill:#000000;stroke-width:8;stroke-miterlimit:4;stroke-dasharray:none;stroke:#000000;stroke-opacity:1"
     id="path5309"
     d="M136.29,422.22c.55.91-3.37-1.9-1.95.19,5.14,5.73,15.91,11.56,22.4,17.78a37.11,37.11,0,0,0,3.59,3.81.63.63,0,0,0,.24-.45c2,1.44,5.3,3.47,7,5.21.67.24,1.49-.05.31-.66,3.36,1.6,4.45,4.7,6.46,5.43-1.19-1.4,1.84.47.3-1,3.21,2.13,1.51,3.95,3.84,5.94.26-.06.52-.11.05-.51,2.12,2.77,8.71,5.34,8,7l1.52.18c.87,1.3.35,1.41,2.21,3,1.45.68.31-.57.94-.45.15,1,3.81,3.14,4.83,5.05-.53,1-2-3.18-4.12-3.47-.17.14,0,.36.33.6-8.11-6-12.65-12.91-19.91-17a3.6,3.6,0,0,0-3.71-1.74c1,1.15,4.11,4.19,5.07,3l1.55,2.3c.85.51-.06,1.76.15,2.21-1.4-1.19-4-1.14-2.26.73-4-2.62,3.14-1.79-.57-3.91l-1.15.56c1,0-1.72-2.56-3.06-3.05l.34.51c-9-6.92-21.67-15.19-32.15-22.07-.94-4-8.09-4.48-9.18-8-1.34-.48,1,1.93-1.31.69-1.18-.62-.87-1.28-.7-1.41l-1.12-.52C125,419.39,128.27,418.77,136.29,422.22Z" />
</svg>
