<svg id="Capa_1" data-name="Capa 1" xmlns="http://www.w3.org/2000/svg" viewBox="0 0 681 681"><defs><style>.cls-1{fill:#fff;}.cls-2{fill:none;stroke:#000;stroke-linecap:round;stroke-linejoin:round;stroke-width:0;}</style></defs><title>iconos_home2</title><path class="cls-1" d="M354.28,515.93c2.27,1.18,3.18,3.79-.68,3.74,3.86.05,3.86.05,6.62,1.82-2.58,0-1.88,1.56-1.67,2.57,1.85-.84,2.15-2,2.78-4.28-5.58-2.1,2.86-6.45-3.23-8.41C356.74,512.79,352.81,514.18,354.28,515.93Z"/><path class="cls-1" d="M337.35,525.35l1.54.31L336.47,522C337.73,522.76,339.17,525.23,337.35,525.35Z"/><path d="M341.46,537.09c-2.82-.33-4.44,1.52-7,1.48,5.68-.06,1.16,2.9,1.87,4.5l4.35.64c3.16-1.55,1.79-5.46,2.2-8.77Z"/><path class="cls-1" d="M338.23,540.07l2.79,1C340.29,540.24,339.87,538.22,338.23,540.07Z"/><path class="cls-1" d="M353.55,537.83c.38-2.59-1.87,1.56-2.79-1C351.5,537.66,351.7,538.67,353.55,537.83Z"/><polygon points="344.8 548.67 342.73 543.16 340.83 545.44 344.8 548.67"/><path d="M335.51,549c0-.72,1.63-1.85,3.13-.82-3.44,2,1.41,3.19-1.52,5l-1.46-1.75c-3.62.24,3.7,3.66-2.74,3.57,4.53,2.37,5.49-1.8,8.71,1.28-1.16-2.91.22-5,1.36-7.48-1.31.7-1.07,1-2.15,2-.18-1.73-2.14-4.06-2.56-6.09C334.11,545.78,337.91,547.27,335.51,549Z"/><path d="M334.6,557.75c-.35,1.87-.48,4.75,4.4,5.25,3.44-2-.67-2.31-2.69-3.2.79-.57,1.14-2.44,3.69-1.68C339,558.39,336.44,556.91,334.6,557.75Z"/><path d="M333.75,565.09l4.32,1.36-.73-.87,3.09-.1c-.76-.16-6.4-.82-6.06-2.68C332,563.77,334.83,564.1,333.75,565.09Z"/><path d="M355.13,565.54c-2.12,1.27-.86,2,.36,3.47-.43-2-.3-4.91-2.07-5.51l.76.15a24.24,24.24,0,0,0-5.26-3.25C351.92,562.47,347.37,566.15,355.13,565.54Z"/><path d="M355.51,563l2.51,1.48Z"/><polygon points="334.78 570.87 336.19 568.01 334.87 568.71 334.78 570.87"/><path d="M347.82,567.46c-.62,2.29,3.41-1.26,3.32.9.49.59-.12-3.17-2.18-3.34C348.17,565.58,351.44,567.22,347.82,567.46Z"/><path d="M334.43,572.74l3.25,2.36Z"/><path d="M332.36,578.63l2.31.46c-1.91,2.28,1.3,5.36-3.68,7,2.86-.39,5.89.94,6.75-1.06-1.53-.31-1.5-1-3.31-.91.56-.86,2.61-.69,3.42-1.26-2.51-1.47-.61-3.75-2.88-4.93.5.58,0,.72-.3,1.14-4-2.51,5.8-2.94-.86-4C335.84,575.94,331.39,577.46,332.36,578.63Z"/><path d="M348.1,578.42l.86-2c3.07.62.15,2.46,3,2.78,1.82-.12,2.68-2.12,3.93-1.38-7.2-.25-.39-2.75-8.43-1.71-.91-2.61,4.42-.8,4-3.55l-3.83-.77C349.55,574.83,346.18,575.36,348.1,578.42Z"/><path d="M347,586.19l-2.36,1,3.38-.53c.57,4.49-13.29,7.11-11.34,9.82,4.57,3.38-2.22,6.53-1.53,10,2.93,1.68,1.72-1.62,3.52-1.79,5.7.48-3,1.63,1.67,2.42,4.14.22,4.46-3.54,7-5-.59-1.29-1.88-1.27-4.22-1.66,2.31-.33,3-1.64,5.32-2-3.25-2.69,2.88-4.1-.61-6.74,3.13-.82.61,2,1.07,1.11l-.07-1.45-.51.16c-3.2-2-.23-5.59,1.89-6.85-1.08,1-3.68,1.68-4.66.51l3.65-1-5.3-2.53C347.35,583.6,340.29,585.81,347,586.19Z"/><path d="M353.55,583.4c1.94-3-5.44.35-3.74-2.94l.36,3.47Z"/><path class="cls-1" d="M344.46,597.76l-2.5,1.49C347.08,598.44,340.24,596.1,344.46,597.76Z"/><polygon class="cls-1" points="344.5 603.24 339.81 602.45 342.46 603.85 344.5 603.24"/><path d="M338.83,608.24c2.38,1.11,4.37-.22,3.79-1.51C342.43,607.89,340.39,608.5,338.83,608.24Z"/><path class="cls-1" d="M329.81,616.47c0-2.51-1.17,2.23-5.39.43C326.41,617.22,329.07,618.5,329.81,616.47Z"/><path d="M318.7,624.62c-.89-.91-.06-1.28,1.08-1.4A1.51,1.51,0,0,1,318.7,624.62Z"/><path d="M333.21,593.21a1.5,1.5,0,0,1,.13-.88C333.31,592.63,333.25,592.91,333.21,593.21Z"/><path d="M333.12,593.79l.09-.58A1.51,1.51,0,0,1,333.12,593.79Z"/><path d="M323.07,612.48h0c.16-.06.26-.13.45-.19Z"/><path d="M335.22,532.67a2,2,0,0,1-.29-1.17c.11.39.2.78.32,1.16Z"/><path d="M341.72,531.32c3,2.06-7.05,2.21-4.89,5.56a28.12,28.12,0,0,1-1.58-4.22C339.93,530.74,337.74,534.14,341.72,531.32Z"/><path d="M347.28,559.26a1.71,1.71,0,0,0,.14.11C347.58,559.58,347.43,559.47,347.28,559.26Z"/><polygon class="cls-1" points="336.81 440.41 335.52 440.39 337.16 438.55 336.81 440.41"/><path class="cls-1" d="M334.48,440.67,332,443.81l-.75-18.6,1.78.6C335.39,425.55,332.39,441.22,334.48,440.67Z"/><path class="cls-1" d="M336.51,441.56c5.33,1.81-1.95,3,1.82,5.22-2.51-1.48-5.3-2.53-3.94-3.95Z"/><path class="cls-2" d="M346.79,447.77c-1.07,1,1.2,2.18.39,2.74C343.08,450.16,346.24,448.62,346.79,447.77Z"/><path d="M362.4,450.44a.62.62,0,0,1,0,.46,4.82,4.82,0,0,0-.77-.47Z"/><path d="M361.67,450.43l-1.84,0A2,2,0,0,1,361.67,450.43Z"/><path d="M362.44,450.9a7.84,7.84,0,0,0,1.95,1.15l.28-.43c.49.59,2,1.62.94,1.89.32-1.15-1-1.17-3.55-1.2l-.34,1.87C355.59,453.82,362.05,452.56,362.44,450.9Z"/><path class="cls-2" d="M363.92,456.8l-3.52-1.92C363.77,454.35,364,456.08,363.92,456.8Z"/><path d="M359.93,459.63c-1-.45-.67-2.32-2.27-1.19-.7-.3-.55-.66-.54-1.05C358,458.66,362.1,457.47,359.93,459.63Z"/><path d="M357.12,457.39a.87.87,0,0,1-.17-.54A.7.7,0,0,1,357.12,457.39Z"/><path class="cls-2" d="M341.85,437.31a1.87,1.87,0,0,1-1.34.13Z"/><path d="M356.14,463.47l0,.72a1.3,1.3,0,0,0-.17-.58Z"/><path d="M323.52,403.75c-1.07,2.51-2.22,4.89.08,8.52,4.4-.09,1.24,1.46,5.86,1.67-.6-3.76,2.76,14.15,4.7,11.15l-2-.89,4.6.93c-1.16,1.8-4.83,4.26-2.19,5.49-1.44.33-.25-15.35-1.55-14.76,5.31-1.39,5.14,21,7.52,21.58l-2.8.25c3,2.78,7,4.57,9,6.9l-3.38.53c1.11-1.71-1.19-2.18-2.65-3.93.63,3-1.46,3.58-.78,5.9,4.38-.08,2.14-2,4.59.93-1.84.84-6.65-1.1-5.74,1.51-1.17,3.15,5.3,2.52,5.69,5.27l1.64-1.86c.21,1,1.15,2.91-1.21,3.88.31-1.15-2.14-4.07-6.53-4,1,1.16-.68,3.73-.47,4.75l-3.06-.62c-2.89,1.11,1.46,1.75-1.18,3.15,1.75,1.33,4.42-.8,5.68-.06-1,.27-2.71,2.84-.69,3.74,6.48-.63-1.92-3.06,4.34-4.7l-1.14,2.44c6.38,1.53-.08-3.9,5-3.11,6.62,1.83-6.36,3.81,2.07,5.51,1.6-1.13,1.76-4.73,4.06-4.27-2.39,1.27,2.15,2.18,3,3.94l-3,2.12c2,.9,2.06.17,3.38-.53-3.75,3.12.65,8.37-3.93,12.78.91,2.61,2.82.33,5.09,1.51-3.93,1.39-.69,3.74-.75,5.18-.28.43,3.55,1.21,5.12.8l-2.42-3.64c2.06.17,5.43-.36,5-1.66-7.52.9,4.61-5.13-3.88-5.39l3.86.05-2.62-4.65-.52.14c1.28,0-2.67-3.93-1-6.5,1.26.73-.23,5,4,2.5,2.23,1.91-1.27,5.32.38,8.8l2.61-.68c3.69,3.66-1.16,8.49-.31,12.54l-3.56-1.2c-1.35,1.42-4.28,3.25-1.24,4.59-.18-1.73,1.85-.84,3.38-.53,2,2.34-.26,5.77,1.14,9a3.73,3.73,0,0,0-1.3,0l2.18,3.35c-.59,1.58-2.68,2.12-5,3.1.49.58.42,2,2.52,1.48.19-.31.39-.63.18-.83,3.9,1.69-1.14,1.18,1.25,3.3-3.28-1.64-4.67.51-8,.32,1.44,2.47,5.93.23,7.46.54-1.93,3-4.79,3.39-5.44,6.41,2.05.17,1.39-2.15,3.71-2.4-.55.86-.34,1.87.43,2l1.63-1.85c-2.46,3.14-3.12,6.16-1.47,9.64l1.05-.27-.1,2.16-3.84-.78c1,1.17-2.43,2.42.64,3l.28-.43L364,529l-3.8-1.5c-1.63,1.86,6.25,4.42,5.6,7.44-5.19.65-1.83-5.21-8.52-5.6-1.07,1-2.18,2.71-.41,3.31,1.82-.12,1.85-.84,1.88-1.56,3.49,2.64-2.1,6.6,3.75,8.27l2.15-2c.67,2.31-6.36,3.8-2.52,4.57l-6.62-1.82c3.24,2.35,2.59,5.37,5.07,7.57,3.85,0-.12-3.18.65-3l2.79,1c-2.22,3.43-2.37,1-4.62,5.12l2.58,0c-3.93,1.39,3.63,5.1-3.26,3.7l1.59-1.13-3.09.1,2.11,4.79c-2.31-.46-1.64,1.85-4.71,1.23l2.76,1.77c-4.42.8-5.27-3.25-8.61-3.44-2,.07-1.77.9-1.49,1.31-3.26-2.13,4.41-3.18,4.51-5.3L349,552.91l3.86.05c-.73-.87-3.27-1.63-4.81-1.94,5.25-2.09-1.1-4.34.08-7.49,2.2,2.62,3.69-1.68,4.7-1.23.06-1.44-6.74-5-2-6.23,1.85-.84,2.76,1.76,3.62-.24-.46-1.31-2.48-2.2-4.32-1.36-1.16-2.9-.23-6.35-.34-9.52l2.54.75c2.15-2-1.37-3.91-4.16-5,1.05-.27.28-.43,1.81-.12,4.24-2.53-5.26-3.24-4.3-7.41-3.62.24-4,2.11-2.22,3.43l-4.11-.35a15.57,15.57,0,0,0,3.13,10.57l-3-1.34c-5.53,2.52,5.33,1.81-1,4.17,1.47,1.75,2.12-1.27,3.86.06-1.18,1.24-7.12-.32-7.38,1.75-2.07-7.79-1.74-16.66-2.4-24.82-.77-.16-1,.27-1.33.7-5.54-2.82,9.37-25.52-1.43-26.25,1.58-.41,3.32.91,3.14-.82a6,6,0,0,0-3.34-.19c5.86-4.39-.32-10.24,3.53-15.52-1.81.11-2.79-1.05-4.08-1.07,4.22-1.81-.29-4.91,2.11-6.6l-2.09.55,0-5.34c-.76-.16-.79.57-1.07,1-1-1.16,1.36-1.42,3.16-1.54l-4.53-2.37c7.53-7-4.19-15.63.56-23.64-3.56-1.2-5.06-2.23-5.48-4.26l-1.08,1c-3-2.06,1.81-.12.34-1.87-2.27-1.19-5.4-.37-3.4,1.25-1.22,1-2.46.38-3.33-.34C314.56,414.94,317,409,323.52,403.75Z"/><path d="M309.94,647c1.68-.7,1.48,2.76,5.08,1.07,7-5.38,1.41-14.11,6.91-20.48a15,15,0,0,0,4.26-3.68,13.67,13.67,0,0,0-2,0c.25-1.73-.79-4.54.95-6.27-.74-.49-3.54-.85-2.88.09-2.45-2.64,5.22-4.55,3-6-1.84,1.28-2.66-1.28-4.14.25-.38-2.76,9.51-2.51,10.69-4.69-.78-.13-1.57-.27-1.8.17,4.26-2.38-2.46-7.31,4.5-7.57l-2.9-1c2.27-1.05,3.83-.79,4.77-2.54-1.09-1.13-2.58.05-3.63-.37,2.81-.48,1.55-3.53,5.48-4.92,4.39-.08-5.87,2.48-1.93,3.85.87,0,1.13-.15,1.23-.43-1.07,7.23-13.33,12.74-10,18.68-3.09,1.31-.21,2.31,2.82,2.89,1.39-1.07,4.33-4.13-1.8-4.2l4-1.86c-.3-.71,5.88-.69,6.9-1-.71,1.32,5.31,2.8,7.53,1,.7,3.45-13-1.11-11.47,1.94l4.44.45c-2.37-.58-4.43,2.07-2.94,3l.88-.41c-2.1,8.13-.13,19,1.33,28-11,2.21,3.87,6.6-5.06,8.67,1.49,1,3.91-1.41,5.25.49.67,1-2.21,1-3,1l.87.87C326.5,654.82,317,653.15,309.94,647Z"/><path class="cls-1" d="M330.2,550.4c.81-2.27,2.58-3.18,2.54.69,0-3.87,0-3.87,1.25-6.62,0,2.57,1.06,1.87,1.74,1.66-.57-1.85-1.35-2.15-2.91-2.77-1.43,5.58-4.39-2.87-5.72,3.23C328.06,547.94,329,551.87,330.2,550.4Z"/><path class="cls-1" d="M336.61,567.33l.21-1.54-2.47,2.42C334.85,567,336.53,565.52,336.61,567.33Z"/><path d="M344.6,563.22c-.22,2.82,1,4.45,1,7-.05-5.68,2-1.16,3.06-1.87l.43-4.35c-1.05-3.16-3.71-1.79-6-2.2Z"/><path class="cls-1" d="M346.63,566.45l.71-2.79C346.75,564.4,345.37,564.82,346.63,566.45Z"/><path class="cls-1" d="M345.11,551.13c-1.77-.37,1.06,1.88-.72,2.79C345,553.19,345.68,553,345.11,551.13Z"/><polygon points="352.48 559.88 348.73 561.95 350.28 563.85 352.48 559.88"/><path d="M352.68,569.17c-.48,0-1.26-1.63-.55-3.13,1.34,3.44,2.17-1.4,3.42,1.52l-1.2,1.46c.17,3.63,2.49-3.7,2.43,2.74,1.61-4.53-1.22-5.49.87-8.7-2,1.15-3.43-.23-5.09-1.37.48,1.32.68,1.07,1.35,2.15-1.18.18-2.77,2.14-4.14,2.56C350.51,570.58,351.53,566.78,352.68,569.17Z"/><path d="M358.66,570.09c1.27.34,3.23.47,3.57-4.41-1.34-3.44-1.57.67-2.18,2.7-.39-.8-1.66-1.15-1.14-3.69C359.1,565.73,358.09,568.24,358.66,570.09Z"/><path d="M363.65,570.94l.93-4.33-.59.73-.07-3.09c-.11.77-.56,6.41-1.83,6.06C362.75,572.68,363,569.86,363.65,570.94Z"/><path d="M364,549.55c.86,2.13,1.37.87,2.36-.36-1.38.43-3.34.3-3.75,2.07l.11-.76a27.26,27.26,0,0,0-2.22,5.27C361.87,552.77,364.38,557.31,364,549.55Z"/><path d="M362.2,549.18l1-2.51Z"/><polygon points="367.59 569.9 365.64 568.49 366.12 569.81 367.59 569.9"/><path d="M365.26,556.86c1.57.62-.85-3.41.62-3.32.4-.48-2.16.12-2.27,2.18C364,556.51,365.1,553.24,365.26,556.86Z"/><path d="M368.86,570.25l1.6-3.25Z"/><path d="M372.87,572.32l.31-2.31c1.55,1.91,3.65-1.3,4.77,3.68-.26-2.85.65-5.89-.71-6.75-.22,1.53-.7,1.5-.63,3.31-.58-.56-.46-2.61-.85-3.41-1,2.51-2.55.6-3.36,2.87.4-.49.49,0,.78.3-1.7,4-2-5.8-2.75.86C371,568.85,372.07,573.3,372.87,572.32Z"/><path d="M372.73,556.59l-1.37-.87c.42-3.07,1.67-.15,1.89-3-.08-1.81-1.44-2.67-.94-3.93-.17,7.21-1.87.39-1.16,8.43-1.78.91-.55-4.42-2.42-4l-.53,3.84C370.28,555.13,370.64,558.51,372.73,556.59Z"/><path d="M378,557.71l.66,2.36-.36-3.38c3.05-.57,4.84,13.29,6.69,11.34,2.3-4.57,4.44,2.23,6.78,1.53,1.15-2.93-1.1-1.72-1.22-3.52.33-5.7,1.12,3,1.65-1.67.15-4.14-2.4-4.46-3.41-7-.88.58-.86,1.87-1.13,4.21-.22-2.31-1.12-3-1.34-5.31-1.83,3.24-2.78-2.88-4.58.61-.56-3.14,1.35-.61.75-1.08l-1,.07.1.51c-1.33,3.2-3.8.24-4.66-1.88.68,1.07,1.14,3.68.35,4.66l-.65-3.66-1.72,5.31C376.25,557.33,377.75,564.4,378,557.71Z"/><path d="M376.11,551.13c-2-1.94.24,5.44-2,3.74l2.36-.36Z"/><path class="cls-1" d="M385.89,560.22l1,2.5C386.35,557.61,384.76,564.44,385.89,560.22Z"/><polygon class="cls-1" points="389.61 560.18 389.08 564.87 390.03 562.22 389.61 560.18"/><path d="M393,565.85c.75-2.38-.15-4.37-1-3.79C392.78,562.26,393.19,564.29,393,565.85Z"/><path class="cls-1" d="M398.62,574.88c-1.71,0,1.52,1.16.29,5.38C399.13,578.27,400,575.61,398.62,574.88Z"/><path d="M404.16,586c-.62.9-.87.06-1-1.07A1.16,1.16,0,0,1,404.16,586Z"/><path d="M382.79,571.47a.77.77,0,0,1-.6-.12Z"/><path d="M383.18,571.56l-.39-.09A.7.7,0,0,1,383.18,571.56Z"/><path d="M395.9,581.61h0c0-.16-.09-.26-.14-.45Z"/><path d="M341.59,569.47a1.06,1.06,0,0,1-.79.28c.26-.11.53-.2.79-.32Z"/><path d="M340.67,563c1.41-3,1.51,7,3.79,4.89a16.18,16.18,0,0,1-2.87,1.58C340.28,564.76,342.6,567,340.67,563Z"/><path d="M359.68,557.4c0-.06.06-.06.08-.14S359.83,557.25,359.68,557.4Z"/><polygon class="cls-1" points="278.81 567.87 278.8 569.16 277.54 567.52 278.81 567.87"/><path class="cls-1" d="M279,570.2l2.13,2.47-12.65.74.41-1.78C268.7,569.3,279.36,572.29,279,570.2Z"/><path class="cls-1" d="M279.6,568.18c1.23-5.33,2,1.94,3.55-1.83-1,2.52-1.72,5.3-2.69,3.95Z"/><path class="cls-2" d="M283.82,557.89c.67,1.07,1.48-1.19,1.86-.39C285.45,561.6,284.4,558.44,283.82,557.89Z"/><path d="M285.64,542.28a.27.27,0,0,1,.31,0,4.93,4.93,0,0,0-.32.76Z"/><path d="M285.63,543l0,1.85A2.9,2.9,0,0,1,285.63,543Z"/><path d="M286,542.25a9.21,9.21,0,0,0,.78-2l-.29-.28c.4-.49,1.1-2,1.29-.94-.79-.31-.8,1-.82,3.55l1.27.35C287.94,549.1,287.08,542.64,286,542.25Z"/><path class="cls-2" d="M290,540.76l-1.3,3.52C288.3,540.91,289.48,540.73,290,540.76Z"/><path d="M291.89,544.76c-.3,1-1.58.67-.81,2.27-.2.69-.45.54-.71.53C291.23,546.72,290.42,542.59,291.89,544.76Z"/><path d="M290.37,547.56a.48.48,0,0,1-.37.17A.38.38,0,0,1,290.37,547.56Z"/><path class="cls-2" d="M276.7,562.83a2.7,2.7,0,0,1,.09,1.34Z"/><path d="M294.5,548.54l.49,0a.64.64,0,0,0-.39.18Z"/><path d="M253.86,581.17c1.71,1.06,3.33,2.22,5.8-.09-.06-4.4,1-1.23,1.14-5.86-2.56.6,9.63-2.75,7.59-4.69l-.61,2,.63-4.6c1.23,1.16,2.9,4.83,3.74,2.19.23,1.44-10.45.25-10,1.55-.94-5.31,14.3-5.14,14.69-7.52L277,567c1.89-3,3.11-7,4.7-9l.36,3.38c-1.17-1.11-1.49,1.19-2.68,2.65,2.07-.63,2.44,1.46,4,.79-.06-4.38-1.36-2.15.63-4.6.57,1.84-.75,6.65,1,5.74,2.15,1.18,1.72-5.3,3.59-5.69l-1.26-1.63c.69-.21,2-1.16,2.64,1.2-.78-.31-2.77,2.14-2.71,6.53.79-1,2.54.68,3.23.47l-.42,3.06c.75,2.89,1.19-1.46,2.15,1.18.9-1.74-.55-4.42-.05-5.68.19,1.05,1.94,2.71,2.54.69-.42-6.47-2.07,1.92-3.19-4.34l1.66,1.14c1-6.38-2.65.09-2.11-5,1.24-6.63,2.59,6.35,3.74-2.08-.76-1.59-3.22-1.76-2.9-4.06.86,2.39,1.48-2.15,2.68-3l1.44,3c.61-2,.12-2.06-.36-3.37,2.12,3.74,5.7-.66,8.7,3.92,1.77-.91.22-2.82,1-5.08.94,3.92,2.54.68,3.52.74.29.28.82-3.55.54-5.11L307,545.25c.11-2.06-.25-5.43-1.13-5,.61,7.52-3.49-4.61-3.67,3.89l0-3.87-3.16,2.63.09.52c0-1.29-2.67,2.66-4.42,1,.5-1.25,3.43.24,1.71-4,1.29-2.23,3.61,1.27,6-.38l-.46-2.61c2.49-3.69,5.78,1.17,8.53.31l-.82,3.56c1,1.36,2.22,4.28,3.13,1.24-1.18.18-.57-1.84-.36-3.37,1.59-2,3.92.26,6.1-1.14a5.14,5.14,0,0,0,0,1.29l2.28-2.18c1.08.59,1.45,2.68,2.11,5,.4-.49,1.38-.42,1-2.51-.22-.2-.43-.4-.57-.19,1.15-3.9.81,1.14,2.25-1.24-1.11,3.27.34,4.67.21,8,1.69-1.44.16-5.92.37-7.46,2,1.94,2.31,4.79,4.36,5.45.12-2.06-1.45-1.39-1.63-3.72.59.55,1.27.34,1.38-.42L329,538.46c2.13,2.47,4.19,3.12,6.56,1.47l-.19-1,1.47.1-.52,3.83c.79-1,1.64,2.43,2.06-.64l-.29-.28,1-1.21-1,3.79c1.27,1.64,3-6.24,5.06-5.59.45,5.18-3.54,1.82-3.81,8.51.68,1.08,1.85,2.19,2.26.41-.08-1.81-.57-1.85-1.07-1.88,1.8-3.48,4.5,2.1,5.63-3.75L344.82,540c1.58-.67,2.59,6.36,3.12,2.53l-1.24,6.62c1.6-3.25,3.65-2.59,5.15-5.07,0-3.86-2.16.11-2.06-.66l.72-2.78c2.33,2.21.66,2.36,3.48,4.61l0-2.58c.94,3.93,3.47-3.63,2.52,3.26l-.77-1.59.07,3.1,3.26-2.11c-.32,2.3,1.25,1.63.83,4.7l1.21-2.76c.54,4.42-2.21,5.27-2.34,8.61,0,2,.61,1.78.88,1.49-1.45,3.27-2.16-4.41-3.6-4.5l-.72,2.78,0-3.86c-.59.73-1.11,3.28-1.32,4.81-1.42-5.25-2.95,1.1-5.1-.08,1.79-2.2-1.14-3.69-.84-4.7-1-.06-3.4,6.74-4.24,2-.57-1.85,1.21-2.76-.16-3.62-.89.46-1.5,2.48-.92,4.32-2,1.16-4.32.24-6.48.35l.51-2.55c-1.35-2.15-2.66,1.37-3.37,4.16-.19-1-.29-.28-.09-1.8-1.72-4.25-2.2,5.26-5,4.29.16,3.63,1.43,4,2.33,2.22l-.23,4.11a8.41,8.41,0,0,0,7.19-3.13l-.91,3c1.71,5.53,1.23-5.32,2.84,1,1.19-1.47-.87-2.12,0-3.87.85,1.18-.21,7.12,1.2,7.38-5.3,2.07-11.34,1.74-16.89,2.41a1.29,1.29,0,0,0,.47,1.32c-1.91,5.54-17.36-9.37-17.86,1.43-.28-1.57.62-3.32-.56-3.13a8.85,8.85,0,0,0-.13,3.34c-3-5.87-7,.31-10.56-3.54.08,1.81-.71,2.79-.73,4.08-1.23-4.21-3.33.29-4.49-2.11l.37,2.09-3.63,0c-.1.77.39.79.68,1.07-.79,1-1-1.35-1.05-3.16l-1.61,4.53c-4.74-7.53-10.64,4.19-16.09-.56-.82,3.56-1.52,5.07-2.9,5.49l.68,1.08c-1.4,3-.08-1.82-1.27-.35-.81,2.27-.25,5.4.85,3.41a3.29,3.29,0,0,1-.23,3.32C261.48,590.12,257.41,587.72,253.86,581.17Z"/><path d="M419.41,594.74c-.48-1.68,1.88-1.48.72-5.08-3.65-7-9.6-1.41-13.93-6.91a14.62,14.62,0,0,0-2.51-4.26,19.54,19.54,0,0,0,0,2c-1.18-.24-3.09.8-4.27-1-.33.74-.58,3.55.06,2.88-1.79,2.45-3.09-5.21-4.1-3,.87,1.85-.87,2.67.17,4.14-1.88.38-1.71-9.51-3.19-10.68-.09.77-.18,1.56.12,1.79-1.62-4.25-5,2.46-5.16-4.5l-.65,2.9c-.71-2.27-.54-3.83-1.72-4.77-.78,1.09,0,2.58-.26,3.63-.32-2.8-2.4-1.54-3.34-5.48-.06-4.38,1.68,5.87,2.62,1.93,0-.87-.11-1.13-.3-1.23,4.92,1.07,8.67,13.34,12.71,10.06.89,3.08,1.58.2,2-2.82-.73-1.4-2.81-4.34-2.86,1.79l-1.27-4c-.48.3-.46-5.88-.67-6.9.89.71,1.9-5.3.7-7.53,2.34-.7-.76,13,1.32,11.47l.3-4.43c-.39,2.37,1.41,4.42,2.08,2.93l-.28-.88c5.53,2.1,12.92.13,19-1.33,1.5,11,4.49-3.86,5.9,5.06.67-1.48-1-3.91.33-5.25.65-.67.71,2.21.68,3l.59-.88C424.71,578.18,423.58,587.69,419.41,594.74Z"/><path class="cls-1" d="M188.26,298.61c-4-4.24-7.85-15.65-3.95-16.28-1.91.33-2.86.5-3.9-.33a9.66,9.66,0,0,1-1.76-2.1c-.34-.52-.74-1.12-1.16-1.83l-1.38-2.49c1.28-.16,1.42-2,1.13-4.37s-.87-5.31-1.29-7.59c-1.34,4-1.08,9.41.72,20a14.06,14.06,0,0,1,2.38,3.64,27.65,27.65,0,0,1,1.79,4.49c.52,1.61.89,3.35,1.36,5.1s.9,3.55,1.34,5.35c.22.9.44,1.81.67,2.7s.54,1.75.83,2.6a49.39,49.39,0,0,0,1.85,4.87,15.77,15.77,0,0,0,5.56,6.86,43.18,43.18,0,0,1-.75-5c-.09-.85-.18-1.7-.26-2.56s-.12-1.74-.21-2.61a30.42,30.42,0,0,0-.91-5.21A23.67,23.67,0,0,0,188.26,298.61Z"/><path class="cls-1" d="M196.43,255.86l-1.62-1.13c.3,1.22.57,2.44.9,3.65l1.07,3.61,1.06,3.58c.39,1.18.82,2.35,1.23,3.52a19.34,19.34,0,0,1-1.49-3.1,40.24,40.24,0,0,1-1.22-4.27,20.7,20.7,0,0,1-.58-3.9C195.8,256.75,196,256,196.43,255.86Z"/><path d="M195.07,207.6c2.47,1.85,5.75-5.15,8.22-4.35a2.39,2.39,0,0,1-2.1-2.39,12.9,12.9,0,0,1,1.1-4.64c.34-.88.73-1.81,1.13-2.75l1.34-2.78a30,30,0,0,0,2-5.21c-1.05-1.31-2.08-2.64-3.11-4a13.56,13.56,0,0,0-2,2.29,26,26,0,0,0-1.79,3.23c-.58,1.21-1.15,2.54-1.71,3.95s-1,3-1.49,4.55c-2,6.36-3.26,13.85-4.59,20.67C193.09,213.3,194.07,210.43,195.07,207.6Z"/><path class="cls-1" d="M201.18,196.45c-.49-1.63-1-3.29-1.46-4.94C199.36,195.22,197.55,203.31,201.18,196.45Z"/><path class="cls-1" d="M184,201.91c-.74,2.8-.9,3.8-.73,3.91s.59-.7,1.1-1.47c1-1.55,2.11-3,1.37,2.68C185.76,203.12,186.64,198.69,184,201.91Z"/><path d="M208.61,160.87c-1.46,3.64-3,7.21-4.23,10.92l-1,2.75c-.33.91-.64,1.83-.9,2.77l-1.64,5.57,2.64-4.09,1.31-2,1.41-2c.34-2.29.59-4.65,1-7Z"/><path d="M217.37,164.23c-1.41,2.49-4.88,5.9-4.32,1.47a20.76,20.76,0,0,0,2.16-2.12,14.63,14.63,0,0,0,1.62-2.13A30.06,30.06,0,0,0,219,157a36.2,36.2,0,0,1,2.23-4.27,15.13,15.13,0,0,1,1.55-2A12.63,12.63,0,0,1,225,149c-1,2.18-1.83,4.47-2.69,6.7.9.28,1.64-.47,2.33-1.69.36-.61.67-1.36,1-2.13s.76-1.57,1.14-2.37a13.83,13.83,0,0,1,2.56-4,2.29,2.29,0,0,1,3.3.07c1.11-5.08-1-4.57-2.91-4.15s-3.42.71-.71-5.33c-1.63,2.57-3.32,4.82-4.88,7s-3.15,4.2-4.67,6.19-3,3.93-4.57,5.88-2.95,4-4.48,6.07c2.64-1.92,3-3.1,6-6.1a56.57,56.57,0,0,0-2.55,5.22c-.4.94-.85,1.89-1.22,2.89s-.73,2-1.11,3.06c-1.54,4.09-2.77,8.44-4.24,12.3,2.78-1.26,4-3.55,5-6.27a41.52,41.52,0,0,1,1.93-4.17A14.39,14.39,0,0,1,217.37,164.23Z"/><path d="M238.33,136.09c5.16-5.42,13.48-13.16,12-18.07-4.23,1.31-5.81,3.2-6.56,5s-.59,3.82-1.08,5.85c-1.08.55-3,2.14-4.6,3.1s-2.86,1.39-2.79-.64C236.77,131.25,234.72,137.44,238.33,136.09Z"/><path d="M260.14,116.71c.54-2.25,1.08-4.56,1.77-6.77l-1.24,1.33c-.41.45-.79.93-1.19,1.39l-2.2-2.2a17.62,17.62,0,0,1-.13,4.48,11,11,0,0,1-1.3,3.48,12,12,0,0,1-3.13,3.64,5.51,5.51,0,0,0,4-2.38A7.93,7.93,0,0,1,260.14,116.71Z"/><path d="M248.56,98.61a19.85,19.85,0,0,0,2-.73,16.73,16.73,0,0,0,1.75-.8,15.7,15.7,0,0,0,2.92-2c.91-.75,1.75-1.65,2.71-2.58s2-2,3.23-3.11c-3.77,2.58-8.23,5.86-11.87,8.87-1.79,1.55-3.38,3-4.59,4.28a9,9,0,0,0-2.2,3.17l0-1s-1.26,1.83-2.8,4.4a41.54,41.54,0,0,0-2.3,4.39,48.23,48.23,0,0,0-1.95,4.76,28.49,28.49,0,0,1,4.77-6.12c2-1.89,4.13-3.67,5.89-5.33C249.78,103.59,252,100.87,248.56,98.61Z"/><polygon points="239.29 105.72 241 102.58 241.88 101 242.8 99.47 241.88 101 241 102.58 239.29 105.72"/><polygon points="278.67 103.02 276.01 104.14 274.68 104.7 273.38 105.32 268.15 107.83 271.24 107.42 274.9 105.13 278.67 103.02"/><path d="M259.69,99.55c2.1-1.33,2.82-1.87,2.74-2.18s-.9-.29-1.76-.28-1.73.06-1.9-.25.32-1,2.35-2.25c1-.9-2,1-5,3.57a34.33,34.33,0,0,0-4.09,3.92c-1.06,1.26-1.72,2.31-1.55,2.83a6.28,6.28,0,0,0,2-1.57l1.12-1.19c.4-.39.81-.79,1.22-1.17C256.52,99.48,258.25,98.36,259.69,99.55Z"/><path d="M285.39,99.77c1.15-1.17,2.28-2.44,3.5-3.56l3.67-3.44-3.67,3.44C287.67,97.33,286.54,98.6,285.39,99.77Z"/><path d="M307.65,92.65l1-2.78c4.61-.47,9.63-2.22,14.55-3.22a29.39,29.39,0,0,1,7.12-.8,17.56,17.56,0,0,1,3.22.33,10.94,10.94,0,0,1,2.87,1.16c-.95-1.32-.23-2.9-.24-4.13a1.58,1.58,0,0,0-.93-1.5,7.79,7.79,0,0,0-4-.44c-1,1.73-3.84,2.21-3,3.91-3.47,0-3.19-2.08-5.62-2.35A19,19,0,0,1,318,85.11c-1.67.61-3.43,1.24-5.17,1.78-3.49,1-6.74,2.37-8.61,4.16,2-1.21,2.74-.89,4.43-1.18a11.29,11.29,0,0,1-5.5,2.8,13.34,13.34,0,0,1-4.28.13c-2.49-.22-4.31-.39-5,3.6,1.18-1.7,3.69-2,6.31-2.25,1.31-.11,2.64-.25,3.92-.42A9.15,9.15,0,0,0,307.65,92.65Z"/><path d="M301.8,78c-1.42.34-2.86.64-4.27,1l-4.23,1.2a4.75,4.75,0,0,1,2.16-2.31,16.11,16.11,0,0,1,3.43-1.5c2.4-.82,4.65-1.56,4.91-3.13-1-1.57-9.85.51-7.15-1.73.67,3.53-2.11,4.75-4.2,5.79s-3.45,1.9.18,4.79c-2.54,1.2-4,1.82-5.14,1.88a4,4,0,0,1-2.43-.57c-1.34-.65-2.87-1.45-8.16,1.53-.43,1.66-.84,3.3-1.22,4.94a51.83,51.83,0,0,1,7-4.29c2.09-.93,3.93-1.57,5.77-2.2s3.7-1.18,5.83-2c1.06-.41,2.19-.89,3.41-1.48S300.31,78.8,301.8,78Z"/><path d="M334.63,71.46l4.43,1.82-2.64-3.07c1.2-.19,2.37-.32,3.52-.39s2.28,0,3.38.09a34.74,34.74,0,0,1,6.29,1,54.59,54.59,0,0,1,5.67,1.9c.89.36,1.76.7,2.61,1.11l2.47,1.24L365,77.52c1.47.72,2.87,1.54,4.25,2.13A21.87,21.87,0,0,0,373.3,81a14.75,14.75,0,0,0,4.08.43,27.81,27.81,0,0,1,5.23-.54,33.9,33.9,0,0,1,5.05.52c.83.14,1.65.31,2.47.5s1.61.48,2.41.74c1.59.54,3.16,1.14,4.72,1.76s3.07,1.42,4.59,2.14,3.07,1.39,4.57,2.19a84.07,84.07,0,0,0,9.38,4c7.39-.23-5.42-4-5.59-5.79,1.85-2.37,3.26-1.16,4.67.34s2.85,3.15,5.24,1.58c.61-.88.17-1.91-.94-3a16.58,16.58,0,0,0-2.09-1.77,24.64,24.64,0,0,0-2.8-1.82c-2.05-1.17-4.34-2.39-6.47-3.54a38.29,38.29,0,0,1-5.51-3.19,12.72,12.72,0,0,0-3.26-.26,5.35,5.35,0,0,0-1.95.44,12,12,0,0,0-2.67,2.22c-.42-1.25-1.94-2.44-3.51-3.48s-3.18-2.1-3.68-3.36a33.51,33.51,0,0,1-4.19.11,25.53,25.53,0,0,1-3.71-.31c-2.35-.36-4.5-1-6.67-1.48a41.73,41.73,0,0,0-6.71-1.2,24.46,24.46,0,0,0-7.77.91c-3.57-3.22,8.61-.39,4.8-1-2.09,0-4.18-.09-6.27,0l.67.5A25.52,25.52,0,0,1,350,70.16c-1.36.07-2.76.22-4.18.26s-2.85.06-4.27,0a96,96,0,0,1-14-1.09c2.23.15,4.16.74,4.94,1.59s.37,1.71-2,2.63c-1.53-1-3.1-1.93-4.69-2.88-3.3,2.31-6.42,5-9.45,7.46a14.22,14.22,0,0,1,5.8-2.41,17.35,17.35,0,0,1,3-.34l2.83-.11a13.66,13.66,0,0,0,4.53-.71A3.4,3.4,0,0,0,334.63,71.46Z"/><path d="M321.47,67c-6.76.55-6.06,1.8-5.5,3.09.28.65.51,1.31-.22,1.92a5.71,5.71,0,0,1-1.93.86,29.89,29.89,0,0,1-4.05.89l3.62-1.12c1.21-.37,2.45-.65,3.67-1,2.46-.59,4.89-1.33,7.38-1.78C323.47,68.9,322.47,67.92,321.47,67Z"/><path class="cls-1" d="M383.83,74.45,389.55,78c-1.17-2.8-4.56-3-6.61-2.78S380.06,76,383.83,74.45Z"/><path class="cls-1" d="M406.47,79.59q-2.28,1.78-4.47,3.6c2.08-.3,4.22-.7,6.33-.89C407.73,81.36,407.11,80.46,406.47,79.59Z"/><path d="M424,92.18c2.57-.15,2.85-1.23,1.79-2.5a12.53,12.53,0,0,0-6.07-3.43,13.89,13.89,0,0,1,2.8,1.6,7.39,7.39,0,0,1,1.63,1.75C424.86,90.72,424.81,91.69,424,92.18Z"/><path class="cls-1" d="M447.88,116.32c-4-2.82-2.37-1.32-.83.78s2.93,4.85-1,4.49c1.11-.47,3-.44,3.92-1a1,1,0,0,0,.43-1.37,4.47,4.47,0,0,0-.76-1.25A17.63,17.63,0,0,0,447.88,116.32Z"/><path d="M463.2,144.75c-2.92-1.75-3.22-3.28-2.72-4.41C462.06,142.14,463.19,143.7,463.2,144.75Z"/><path d="M364.18,83.82a22.56,22.56,0,0,1-3.49-.21Z"/><path d="M366.46,84c-.75-.11-1.52-.14-2.28-.19A12.79,12.79,0,0,1,366.46,84Z"/><path d="M431.54,113.72h0c-.13-.26-.29-.46-.41-.75Z"/><path d="M198.61,226.35a31.07,31.07,0,0,1-.08,4.69c0-1.54,0-3.11,0-4.64C198.58,226.37,198.59,226.37,198.61,226.35Z"/><path d="M191.7,231.38c-1.14-4.4.68-6.62,3-9.29a18.92,18.92,0,0,0,4.78-12.72c-.15,2.76-.42,5.54-.57,8.39-.06,1.42-.12,2.85-.17,4.29s-.17,2.89-.14,4.35c-2.62,3.64-3.13,2.13-3.58,1S194.13,225.65,191.7,231.38Z"/><path d="M233.21,122.93a5.06,5.06,0,0,0,.24-.46C233.94,121.72,233.74,122.15,233.21,122.93Z"/><path class="cls-1" d="M455.2,369.59l-.72-1.07,3.43-1.65c1.14-.56,2.31-1.1,3.42-1.73-1,.8-2,1.52-3.05,2.25Z"/><path class="cls-1" d="M453,368.37c-3.87,1.79-7.68,3.56-11.62,5a156.87,156.87,0,0,0,49.86-52.22c.13,1,.22,2,.29,2.94.31,0,0,.88-.71,2.3a48.91,48.91,0,0,1-3.54,5.77c-.82,1.16-1.7,2.42-2.63,3.76s-2.07,2.63-3.18,4l-1.69,2.12-1.85,2.08c-1.25,1.39-2.46,2.85-3.78,4.21l-3.95,4c-1.29,1.35-2.68,2.53-3.95,3.75-2.52,2.46-5.07,4.5-7.11,6.35-1,.93-2,1.69-2.85,2.39s-1.54,1.32-2.09,1.83C453.08,367.73,452.61,368.33,453,368.37Z"/><path class="cls-1" d="M451.27,372.1a9.52,9.52,0,0,1-3.06,4.61,17.15,17.15,0,0,1-4.36,2.19c-.78.3-1.57.59-2.37.92a19.37,19.37,0,0,0-2.45,1.07,15.23,15.23,0,0,0-4.75,4c2.07-2.53,3.58-5,5.32-7a14,14,0,0,1,6.32-4.62C447.71,372.93,449.47,372.5,451.27,372.1Z"/><path class="cls-2" d="M434.51,394.25a12.39,12.39,0,0,0-3.07,1.25,28.36,28.36,0,0,0-2.84,1.69c-1.79,1.16-3.35,2.3-4.63,2.4-.1-2.17,1.61-3.23,3.84-3.85a35.17,35.17,0,0,1,3.54-.72A26.19,26.19,0,0,0,434.51,394.25Z"/><path d="M430.17,413.49a11.47,11.47,0,0,1-2,.83,17.6,17.6,0,0,0,1.76-1.52Z"/><path d="M429.94,412.8l-.61-1.75C431,411.1,430.84,411.8,429.94,412.8Z"/><path d="M428.18,414.32a28.77,28.77,0,0,0-4.34,3.81l2-.48c-2.37,1.54-6.57,4.5-8.15,3.94,5.31-1.47,4.95-2.71,4.21-5.2l-8.39,2.49c-.14-3.19,1.62-3.69,4.4-3.68S424.46,415.58,428.18,414.32Z"/><path class="cls-2" d="M402.2,424.29l2-1.37,1.95-1.45,3.83-2.92c1.67,1.28.58,2.51-1.38,3.55a23,23,0,0,1-3.3,1.37A29.86,29.86,0,0,1,402.2,424.29Z"/><path d="M388.43,423.05c.93-.68,3.53-1.32,5.22-1.87.84-.26,1.44-.56,1.5-.78s-.41-.37-1.77-.55A11.71,11.71,0,0,1,398,418.3C392.51,420.35,398.69,423.4,388.43,423.05Z"/><path d="M398,418.3a15.44,15.44,0,0,1,2.37-.73A12.94,12.94,0,0,1,398,418.3Z"/><path class="cls-2" d="M468.23,365.37c-1.05.28-1.32-.08-1.28-.67Z"/><path d="M370.53,421.37l-3.25.21a22.21,22.21,0,0,0,2.61-.36Z"/><path d="M505.5,241.3c-.33,2.34-.67,4.63-.94,7s-.74,4.69-1,7.19-.66,5.1-.79,8c-.12,1.42-.27,2.89-.35,4.44s-.09,3.19-.23,4.88c4.35.63,0,5.58,4.26,7.51,1.33-7.14-.7,6.4-5.2,19.9-.49,1.71-1.16,3.36-1.74,5s-1.13,3.28-1.77,4.79c-1.28,3-2.28,5.88-3.27,8-1.85,4.38-2.47,6.62-.57,4.28l0-4.1q1.08,2.73,2.12,5.53l-.9,1.09-1,1.06L492,328l-2.22,2.18c-.76.71-1.53,1.4-2.25,2.11a37,37,0,0,0-3.76,4.18,9.49,9.49,0,0,0-2,4.08c-.25,0,.16-.72,1.05-2,.44-.65,1-1.44,1.67-2.35l2.13-3.17a176.11,176.11,0,0,0,10.78-17.72c.85-1.69,1.71-3.37,2.55-5s1.5-3.35,2.23-4.94c.35-.8.7-1.59,1.05-2.36s.6-1.55.88-2.29l1.59-4.17c1.75-5.2,2.63-8.53,2.15-8.06.85-.45,1.16.46,1,2.43a42.09,42.09,0,0,1-1.73,8.75A123.73,123.73,0,0,1,495.36,327a168.21,168.21,0,0,1-18.18,25.74c-1.45,1.68-2.79,3.24-4,4.63s-2.35,2.54-3.26,3.57c-1.8,2.09-2.94,3.37-3,3.79l-2.63-1.43c-.82,1.21-1.6,2.39-2.33,3.56s-1.5,2.23-2.2,3.32c-1.43,2.15-2.7,4.32-4.1,6.25s-2.73,4-4.26,5.79a68,68,0,0,1-5.05,5.39c-1.24-.58-2.47-1.17-3.68-1.77a16.22,16.22,0,0,0,4.06-2.17,18.08,18.08,0,0,0,2.71-2.48c1.64-1.72,2.94-3.93,5.48-6.6-1.23,1-2.36,1.83-3.41,2.58a28.46,28.46,0,0,1-2.94,1.91c-1.84,1.07-3.43,1.87-4.92,2.62s-3,1.32-4.53,2.13-3.21,1.8-5.28,3c1.16,1.85,3.28,1.4,3.86,1.39.29,0,.23.16-.53.79l-4.7,3.68c-2,0-1.68-2-2.07-3.32s-1.38-1.77-6.06.8c-12.29,3.94-7.58,9-18.58,13l2-.14,2-.24,4-.49c-4,1.66-11.57,4.91-16.19,3.52a20.19,20.19,0,0,0,2.09-.49c.76-.25,1.59-.59,2.44-1a36.08,36.08,0,0,0,5.09-2.72c3.12-2.22,5.33-4.79,4.43-6.8-4.17,2.61-14.77,3.91-18.74,4.87l1.74-3.54c-2.49-.93-4.07-.13-5.85.61a9.35,9.35,0,0,1-6.68.69c-2.47,1.25-1.54,2.2-.28,3.11s2.81,1.56,1.41,2.46c-.63-.37-3.62-.73-6.83-.6-.81,0-1.63.09-2.43.16s-1.6.12-2.35.23A9.77,9.77,0,0,0,368,404a3.71,3.71,0,0,0,3.34,2.28,14.65,14.65,0,0,0,4.93-.75,24.7,24.7,0,0,1,5.67-1,9.83,9.83,0,0,1,5.89,1.44c-1.71.11-3.42.24-5.12.32l-5.12.07c-2.83,3.58,1.24,3,5.72,2.29,4.43-1,9.2-2.16,8.05.64-3.24,3.94-7.68,3.2-11.84,2.27a20.45,20.45,0,0,0-6-.56A7.74,7.74,0,0,0,368,414.3c2.48.6,7.69.75,12,.63,4.36,0,7.88-.05,7.06,1.28-3-.63-5.27.12-7.84,1.41-1.28.62-2.63,1.42-4.16,2.05a26.29,26.29,0,0,1-5.19,1.55c-3.26-.69-6.47-1.7-9.63-2.6-4,2.12-.78,2.08,2.45,3.31A51.73,51.73,0,0,0,357,421c-2-.29-4.18-.5-6.42-.65s-4.57-.37-7-.55l-3.66-.27c-1.24-.09-2.48-.28-3.74-.42-10-1.09-20.85-3.36-29.56-8.45-1.43-.26-2.52-.49-3.36-.63a7.51,7.51,0,0,0-1.86-.13c-.83.08-.94.46-.88.94.12,1,1,2.36-1.94,2.57-2.39-2.81-6.2-4.54-10.28-5.82l-6-1.93a29.61,29.61,0,0,1-5.19-2c-1.59-1.12-6.55.64-5.58,2.89,2.71.92,5.37,1.92,8.13,2.67l4.09,1.19,2,.58,2.07.5c-1.55,1.58-.52,5.68,5.44,7.46-.36-2.12.79-2.41,2.77-1.79a26,26,0,0,1,3.52,1.49l2.09,1.06c.72.36,1.49.7,2.26,1.06,6.11,3,13.29,5.4,14.75,1.4l-1.05,3.72c1.83.23,3.68.31,5.52.42l5.51.31c1.84,0,3.68,0,5.51.06s3.65.07,5.48,0l-.59-.57c-.06.32,1.08.4,3,.38.95,0,2.1,0,3.39-.08s2.71-.08,4.24-.22,3.13-.22,4.78-.31,3.34-.13,5-.26,3.37-.15,5-.14c.82,0,1.63,0,2.42.07s1.56,0,2.3.08c-1.66.85-7.51.85-11.47,1.28-3.93.24-6.08.87-.12,3.13a33.27,33.27,0,0,1-8,.58,43.34,43.34,0,0,1-4.8-.38c-1.67-.19-3.41-.42-5.21-.66s-3.63-.61-5.52-.91l-5.77-.95q-2.93-.57-6-1l-3-.41c-1-.17-2-.31-3.07-.44l2.62,3.27c-9,0-19-3-28.63-7.29s-18.81-9.81-27.45-14.23c2.27-.09,4.47-.13,6.72-.34-1.35-1-2.68-2.35-4.07-3.62s-2.83-2.55-4.3-3.73a26.4,26.4,0,0,0-4.51-3.18,16.48,16.48,0,0,0-4.91-1.74,23.17,23.17,0,0,1,3.2,2.44c.5.55.51.89.24,1.12-.55.45-2.23.42-3.28.65a55,55,0,0,1-8-4.67c-2.72-2-5.51-4.2-8.33-6.6l-4.2-3.76-2.14-1.92-2.09-2q-2.1-2-4.27-3.92c-1.41-1.33-2.82-2.65-4.26-3.91,0,0,1.06,0,1-.82-1-.84-2.1-1.67-3.13-2.53l-3-2.65-3-2.69c-1-.89-2-1.85-2.94-2.79a22.88,22.88,0,0,1-3.69-7.89c-.54-2.29-.67-4.4-1-6.93-1.92-2-5.52-7.8-5.9-4.5a13.6,13.6,0,0,0,2,3.42c-3.81-2.34-4.38-3.7-4.82-5.38s-.81-3.66-4.36-7.5c3.37,2.62,4.08,1.48,4.39-.33s.32-4.39,2-4.77c-3.23-4.72-4.69-4.34-5.58-2.78s-1.17,4.29-2.19,4c-.6-1.71-1.1-3.25-1.51-4.65s-.66-2.73-.9-3.94c-.47-2.42-.84-4.44-1.09-6.5s-.55-4.08-1.05-6.43c-.26-1.16-.53-2.42-.84-3.82s-.71-2.91-1.2-4.6c-1.1-.07-.64,2.4-.11,5.15l.39,2.07c.14.67.26,1.32.34,1.92a3.73,3.73,0,0,1-.31,2.69c-1.06-3.95-2.7-8.42-3.68-8.87l.65,4.43c.2,1.5.54,2.94.81,4.42-.87-3.69-1.48-7.4-2.33-11-.44-1.8-.73-3.65-1.13-5.46s-.81-3.64-1.23-5.46c-1.49-7.35-3.36-14.78-5.14-22.9l-.87,1.43-.6-5.12c-.19-1.71-.26-3.43-.39-5.14q2.05,1.69,4.11,3.31c-.71-2.66-.32-5.54-.15-8s.28-4.67-1.31-6.1l-.22,2c-.46-2.27-.95-4.55-1.36-6.84,1.27,2.36,2.62,4.68,3.94,6.95a19.9,19.9,0,0,0-.42-7c-.44-2.54-1.19-5.29-1.95-8.26A83.26,83.26,0,0,1,169,223a40.12,40.12,0,0,1,.44-10.38c1.38-.57,2,.7,2.21,2.93a36.93,36.93,0,0,1,.14,4c0,1.5-.08,3.15,0,4.83s.07,3.41.17,5.05c.05.83.11,1.63.2,2.4s.25,1.52.41,2.21c.63,2.78,1.63,4.82,3.29,5.28a63.71,63.71,0,0,0,1.52-8.14c.4-2.82.44-5.43-.34-6.89-1.85.37-2.14,3.68-2.41,7a34.83,34.83,0,0,1-.41-10.08c.19-1.77.45-3.56.74-5.35.15-.89.29-1.78.44-2.66s.38-1.76.56-2.62c.73-3.46,1.34-6.79,1.72-9.78a17.44,17.44,0,0,0-.69-8c-.79,1.4-1.49,2.83-2.18,4.27l-2.11,4.35a26.29,26.29,0,0,1,2.32-7.16,55.6,55.6,0,0,1,3.38-5.34c2.07-3.1,3.75-5.28,2.5-7.63q.87,2.56,1.79,5c.62,1.67,1.33,3.33,2,4.95a36.16,36.16,0,0,1,.16-4.26c.16-1.43.39-2.89.66-4.36s.56-3,.93-4.44.82-2.93,1.25-4.39.84-2.94,1.32-4.36.95-2.83,1.4-4.22.84-2.77,1.24-4.11.79-2.63,1.1-3.91c-.83-.49-1.66.09-2.45,1.23a13,13,0,0,0-1.13,2.06c-.33.8-.64,1.67-.92,2.55-1.14,3.51-1.86,7.08-2,6.62-.24-1.87-.38-3.72-.56-5.62,1.08-1.73,2-3.07,2.69-4.13s1.38-1.79,1.88-2.38a20,20,0,0,1,2.19-2.19,20.9,20.9,0,0,0,2.5-2.7c1.28-1.46,3-3.8,6-7.6l-2.1-1.5a12.22,12.22,0,0,0,4.43-4.69c1.26-2.07,2.51-4.31,3.53-6.25.51-.95,1-1.82,1.44-2.5a4.63,4.63,0,0,1,1.26-1.37c.76-.44,1.31.18,1.7,2.48-1.47,1-2.88,2.17-4.33,3.28l2.78,1.43a189.76,189.76,0,0,1,12.12-18.42c.24,3.09,7-5,7.29-.83,1.13-2.59,2.45-5,3.76-7.57,2.84.36,1,3.82-1.07,7.58s-4.47,7.91-3.44,9.37c.86.58,1.79.12,2.7-.61a12.31,12.31,0,0,0,2.23-2.51c-2,4.38-4.94,6.26-8.39,7.87a55.19,55.19,0,0,0-5.12,2.71,15.93,15.93,0,0,0-4.74,4.27l-.4,5.37-3-2.39a13.48,13.48,0,0,0-1.15,5.52,14.68,14.68,0,0,0,.5,4.24,13.21,13.21,0,0,0-1.64,1,13.46,13.46,0,0,0-1.39,1.2,16.65,16.65,0,0,0-2.3,2.79,20.88,20.88,0,0,0-1.79,3.26c-.49,1.18-.94,2.41-1.37,3.68s-.86,2.58-1.28,3.94-.78,2.79-1.23,4.22-1,2.86-1.54,4.37a41.66,41.66,0,0,1-1.94,4.55c1.07-5.69-.44-4.38-2.28-1.82s-3.82,6.39-4,5.28a28.42,28.42,0,0,0-1.08,6.23c-.15,2.53-.22,5.34-.42,8.06a40.11,40.11,0,0,1-.82,7.64,17.34,17.34,0,0,1-1,3,6.29,6.29,0,0,1-1.67,2.19c-2.48,3.37-1.33-8.26-3.75.42a20.81,20.81,0,0,0-.07,4,9.15,9.15,0,0,0,.68,2.81c.62,1.35,1.57,1.52,2.72-.19-.11,3.2-.43,6.5-.55,9.91q-.14,2.55-.33,5.16c-.05,1.74-.11,3.5-.16,5.27a159,159,0,0,0,.55,21.2l-2.79-3.1a23.81,23.81,0,0,0-.3,3.33,20.08,20.08,0,0,0,.29,3.22,28.4,28.4,0,0,0,1.63,5.9,31.47,31.47,0,0,0,5.53,8.48c-.75,1.37.14,1.88-1.65.88a14.31,14.31,0,0,0,.66,7.25,25.87,25.87,0,0,0,3.55,5.62c1.39,1.9,3.1,3.89,4.71,6.48a49.84,49.84,0,0,1,4.66,9.94c1.49-1.17,1.59-3.6.88-6.29a32.18,32.18,0,0,0-1.52-4.18,23,23,0,0,0-2.28-3.93l4.38.1c-4.64-14.09-8-30.33-11.09-42.41l3.45,5.34c1.18-2.69,1.41-4.43,1.17-5.75a6.42,6.42,0,0,0-1.48-3.05,5.46,5.46,0,0,1-1.34-3,5.9,5.9,0,0,1,.35-2.24,15.92,15.92,0,0,1,1.7-3.08c-.64-3.6-1.2-2.34-1.81-.81s-1.24,3.29-2,.51c.66-2.58,2.43-2.18,4.1-2.23a3,3,0,0,0,2.26-.79c.63-.64,1.05-1.79,1.3-3.86a191.72,191.72,0,0,0,6,48.3,170.8,170.8,0,0,0,8.2,23.58,153.15,153.15,0,0,0,11.7,21.55c1,.1.27-1.45-.33-3a22,22,0,0,1,5,5.61c1,1.41,2.19,2.95,3.39,4.72s2.58,3.62,4,5.63c5.76,8,13.4,17.61,22.31,25.79s18.68,15.13,26.84,19c1,.49,2,.95,2.94,1.37s1.89.73,2.77,1.05a37.32,37.32,0,0,0,4.73,1.33c2.79.45,4.73.17,5.54-1,.93,2.05-4.55,1.77,1.87,4.1.86-.52,2.83-.92,1.86-2.9,7,5.69,17,8.31,27.34,9.63s21.28,1.36,31.75,2.82c-.27-.91.74-1.58,1.79-2.31s2.15-1.37,2.15-2a12.92,12.92,0,0,0,6.16,1.25,44.18,44.18,0,0,0,6.9-.92c2.3-.57,4.57-1.18,6.69-1.58a17.86,17.86,0,0,1,5.83-.55L391.41,391a150.26,150.26,0,0,0,19.69-5.84c.14-.47-.43-.44-1.25-.29s-1.89.41-2.71.54a7.39,7.39,0,0,1,2.53-1,3.52,3.52,0,0,1,1.84,0,4.65,4.65,0,0,1,2.29,1.92l3.43-3.78,3.21-3.94c.85-.13,1.7-.27,2.55-.44s1.67-.42,2.51-.66q2.5-.72,5-1.67a62.13,62.13,0,0,0,9.61-5,85.09,85.09,0,0,0,9.08-6.66c2.84-2.55,5.71-5.12,8.34-8a212.59,212.59,0,0,0,15-17.81c4.74-6.14,9.37-12.24,14.37-18.1a25.64,25.64,0,0,1,0-7.88,34.34,34.34,0,0,1,1-4c.42-1.44,1.08-2.93,1.73-4.68-.79,1-1.72,1.87-2.58,2.78.4-4,.73-3.91,1.33-3.6s1.25.81,1.9-2.4c-.14-2.44-1.25-3.24-2.39-2.73s-2.26,2.36-2.56,5.39c-2.76,2.65-2.78.13-2.5-2.5a311,311,0,0,0,12.57-30C499.07,260.76,502.2,251,505.5,241.3Z"/><path d="M489.76,217.44c.62-1.31,1.39.92,2.35,2.73s1.88,3.25,3.31.06a44.56,44.56,0,0,0,.7-7.87c-.06-1.37-.15-2.79-.28-4.23-.08-.72-.15-1.45-.23-2.18s-.25-1.46-.38-2.2c-.28-1.48-.59-3-.92-4.5s-.84-3-1.29-4.54l-.69-2.3c-.24-.77-.55-1.51-.83-2.28q-.86-2.28-1.72-4.58c-2.57-6.05-5.46-12.08-8.51-17.82s-6-11.35-8.6-16.76c-.44-1.64-.81-3-1.22-4.12s-.84-2.06-1.27-3-.87-1.78-1.38-2.76-1.15-2-1.87-3.31a3.63,3.63,0,0,0-1.35,1.49c-.54-.6-1.14-1.24-1.77-1.91s-1.3-1.36-2.05-2l-4.58-4.22c-1.61-1.37-3.18-2.79-4.58-4.21a34.74,34.74,0,0,1-3.77-4.08c-1.92-.56-4.63.86-1.51,2.48a20,20,0,0,1-5.61-3.83,27,27,0,0,1-2.09-2.35c-.67-.77-1.29-1.56-1.88-2.34a33.5,33.5,0,0,0-3.49-4.2,7.46,7.46,0,0,0-4-2.14c1.63,2,.26,2-1,2s-2.3,0-.24,2.09a11.44,11.44,0,0,1-4.5-4,15.47,15.47,0,0,1-1.71-4.72c-.78-3.18-1.34-6.49-5-8.75-.77.53-1.55,1.06-.06,1.91a20.52,20.52,0,0,0-7.25-4.46c-1.47-.54-3-1-4.55-1.48-.77-.22-1.53-.46-2.3-.65l-2.27-.53c-1.49-.35-2.91-.7-4.19-1.09a28.12,28.12,0,0,1-3.44-1.16c-1.94-.87-3.12-2.05-3-3.81-1.44.62-2.89,1.39-4.3,2.11A32.43,32.43,0,0,1,383,84.44c-1-1-2.37-1.79-5.8-2.71-4.66.51-.13,2.59-1.9,3.43-.77-1.58-4.24-2.21-8.19-3l-1.5-.32-1.52-.27c-1-.19-2-.41-3-.68a18.7,18.7,0,0,1-5.2-2.17c-.1-1.09.5-1.29,1.52-1a31.06,31.06,0,0,1,4.08,1.89,27.79,27.79,0,0,0,5.09,2,6,6,0,0,0,4.84-.38c.26-.86-.53-1.17-1.67-1.36a75.07,75.07,0,0,1,20.16,5.27A120.06,120.06,0,0,1,406.72,94l3.81,2.35,3.67,2.44c1.21.82,2.45,1.51,3.63,2.34s2.38,1.57,3.57,2.3l1.81,1.08,1.78,1.11c1.19.73,2.4,1.41,3.64,2.06s2.45,1.33,3.71,1.94,2.56,1.19,3.89,1.72a7.1,7.1,0,0,0,5,4.27,11.39,11.39,0,0,0,5.8-.47,34.64,34.64,0,0,0-2.85-3.43,32.24,32.24,0,0,0-4.14-3.55,9.36,9.36,0,0,0-4.35-1.82A3.26,3.26,0,0,0,432.4,108c-1.39-2.4-2.95-4.59-4.52-6.91-2.58-1,.15-6.53-.56-8a8.88,8.88,0,0,0,3.8,1.24,7.3,7.3,0,0,0,3.57-.53c1.95-.9,2.69-2.84-.2-5.57,6.79,3.08,4.08,5.42,1.41,7.53-1.36,1.07-2.71,2.12-3,3.15s.49,2,3.32,3.24q1.86-1.48,3.77-2.94c-1.63.44-.31,2.42,1.82,4.44a23.86,23.86,0,0,0,3.6,2.93,14.45,14.45,0,0,0,3.56,1.77c-.29-.56-.57-1.13-.87-1.68a252.55,252.55,0,0,1,20.13,17.28,195.93,195.93,0,0,1,19.32,21.42,172.64,172.64,0,0,1,16.1,24.84,165.9,165.9,0,0,1,11.25,26.41A11.32,11.32,0,0,0,513,201a12.9,12.9,0,0,0-.15,4.47A28,28,0,0,0,514,210c.46,1.55,1,3.11,1.62,4.67.29.79.61,1.57.87,2.35s.5,1.58.72,2.36a29.42,29.42,0,0,1,1,4.59,9.77,9.77,0,0,1-2.37,7.93c.89,1.93,1.76.49,2.64-.54s1.82-1.61,2.71,2.25-2.11,4.3-2.92,4.14c.31,1.16.64,2.33,1,3.51q-8,2.19-15.08-3.66a27.56,27.56,0,0,1-3.44-3.47,45.61,45.61,0,0,1-3.51-4.51c-.58-.85-1.14-1.73-1.72-2.67s-1.24-1.89-1.85-2.91-1.22-2.08-1.82-3.2S490.42,218.64,489.76,217.44Z"/></svg>