<svg id="Capa_1" data-name="Capa 1" xmlns="http://www.w3.org/2000/svg" viewBox="0 0 681 681"><defs><style>.cls-1{fill:#fff;}.cls-2{fill:none;stroke:#000;stroke-linecap:round;stroke-linejoin:round;stroke-width:0;}</style></defs><title>iconos_home2</title><path class="cls-1" d="M330.4,596.63c-3.62,1.89-11.32,1.79-10.62-2-.34,1.9-.51,2.85-1.28,3.59a6.13,6.13,0,0,1-1.73,1,30.3,30.3,0,0,1-3.23,1.16c.51-2.52-4.19-2.64-7.16-3a10.89,10.89,0,0,0,4.29,2.64,52.69,52.69,0,0,0,7.72,2.15,8.8,8.8,0,0,1,5.89-1.27,24.24,24.24,0,0,1,3.32.56l1.71.42,1.73.37c4.61,1,9.27,1.95,12.29-.88C339.23,599.78,335.55,595.56,330.4,596.63Z"/><path class="cls-1" d="M306.86,576l-1.13,1.34,10.15-.63C313.73,577.6,306.82,577.83,306.86,576Z"/><path d="M274.9,571.6c1.73-2.39-2.5-5.54-1.52-7.94-.44,1.35-1.14,1.94-2,2.05a5.15,5.15,0,0,1-3.05-.91c-2.24-1.24-4.74-3.25-6.87-3.71l-3.29,3.38c1.36,2.23,4.71,4,8.75,5.74a32.18,32.18,0,0,0,3.18,1.17c1.09.37,2.21.73,3.34,1.1,2.25.74,4.52,1.5,6.65,2.33Z"/><path class="cls-1" d="M268.28,565.87l-3.65,1.56c1.25.09,3.2.55,4.31.56S270.33,567.56,268.28,565.87Z"/><path class="cls-1" d="M269,582.36c6.93,2.74-3.62-3.2,3.74-1.68C270.15,580.58,267.32,579.84,269,582.36Z"/><path d="M243.93,562.65l7.42,2.22c2.47.72,4.89,1.52,7.41,2.08-1.73-1.32-3.39-2.78-5-4.23Q248.9,562.72,243.93,562.65Z"/><path d="M247.25,553.91c1.7.89,3.84,3.55.65,3.78a8.57,8.57,0,0,0-2.75-2.78,12.39,12.39,0,0,0-3.06-1.2c-2.07-.59-4.15-1.12-5.67-3.54l4.89.86c.55-1.76-2.06-2-4.4-2.62s-4.37-1.6-2.67-4.34c-3.86.4-3.53,2.17-3.27,3.71s.4,2.83-4.08,2.11a42.68,42.68,0,0,1,5.11,2.43c.77.44,1.52.89,2.23,1.36s1.45.87,2.14,1.33c2.79,1.81,5.31,3.81,8.06,5.86-1.16-2.07-2-2.22-3.92-4.42a32.31,32.31,0,0,0,3.6,1.37c.65.21,1.32.42,2,.62l2.13.51a75.48,75.48,0,0,1,8.39,2.29c-.53-2.53-2.06-3.33-3.89-4S248.77,556,247.25,553.91Z"/><path d="M227,541.84a33.56,33.56,0,0,0-7.21-4.33,10.07,10.07,0,0,0-3.8-.81,4.79,4.79,0,0,0-3.27,1.1c1.19,3,2.7,3.66,4.17,3.63s3-.89,4.58-1.1c.86,1.5,4.95,4.53,1.88,5.59,0-.65,1.12-1,2.16-1.47S227.5,543.2,227,541.84Z"/><path d="M211.16,530.24l-5.55,1.37,2.37.78-1.59,2.67c.81-.37,5.55-3.92,9.41-.75C215,530.86,212.69,532.66,211.16,530.24Z"/><path d="M197.6,546.84c-1.76-3.8-4.13-4.13-8.22-5.78,4.79,3.41,11.6,8.24,14,7.81l-.81.36s1.44.34,3.48.63a32.49,32.49,0,0,0,7.17.17,12.88,12.88,0,0,1-4.83-1.74c-1.53-.91-3-2-4.31-2.83C201.43,543.82,199.17,543.19,197.6,546.84Z"/><path d="M203.5,551.49l-4.95-.43Z"/><polygon points="198.24 521.68 203.4 527.53 202.73 525.33 198.24 521.68"/><path d="M197.55,537.73c-4.73-4.5.73,4.9-4,1-.81-.33,1,1.05,3.19,2.34s4.93,2.28,5.72,1.6c-.41-.79-2-1.19-3.38-1.81S196.73,539.36,197.55,537.73Z"/><path d="M194.64,518.18l-6.93-1.71Z"/><path d="M184.41,506.11l-2.5.8c-1.59-2.74-4.23-5.14-6.52-7.61a18.54,18.54,0,0,1-2.89-3.88,7.78,7.78,0,0,1-.79-4.55c-1.45,2.69-6.09,2-3.18,6.64,1.68-.37,3,1,4.12-.43,1.17,2-.65,3.1-.17,4.77,2.29.58,4.14,2.3,5.91,4s3.6,3.14,5.53,3.42c-1.46-.72-1.37-1.36-2-2.34,3.83.87,4.23,3.26,4.57,5.13.16.93.3,1.72.81,2.1s1.44.3,3.1-.46a2.46,2.46,0,0,1-1.88-1,10.05,10.05,0,0,1-1.21-2.29C186.56,508.68,185.87,506.82,184.41,506.11Z"/><path d="M173.91,517.83l3.52,4.56c-3.37,1-5.14-4.7-7.78-3.32-1,1.53,2.57,6.15.17,5.6,5.46-4.75,6,5.16,9.28-2.81,6.1,4.18-1.26,4.79,4.91,9.64l4.13-1.5a22.4,22.4,0,0,1-7.22-6c-.42-.48-.84-1-1.29-1.44a19.88,19.88,0,0,0-1.43-1.53A22.76,22.76,0,0,0,173.91,517.83Z"/><path d="M159.59,501.29v-3.62L158,501a17.16,17.16,0,0,1-4.18-7.67,39.5,39.5,0,0,1-.92-8.25c-.23-5.26.17-10-2.74-12.37a14.9,14.9,0,0,1-3-2.08,15.47,15.47,0,0,1-1.21-1.22,14.76,14.76,0,0,1-1-1.36,28.83,28.83,0,0,1-2.84-6.11c-.38-1.07-.73-2.16-1.09-3.24s-.65-2.22-1-3.3a24,24,0,0,0-2.89-6.2c-4.82-2.51.67,4.61-.64,5.93-2.79.87-2.71-.49-2.55-2s.38-3.11-2.2-2.91c-2,.73-1.73,3.37-1,6.47s1.91,6.66,2,9c2.46,2.75,3.51,2,6.07,1.66-1.46,2-.06,5.48-1.47,7.55,3.52,2.19,4.59,4.92,5.7,7.67a16.69,16.69,0,0,0,2,4,11,11,0,0,0,4,3.29c-1,3.77-3.94-4-2.78-1.79l2.58,3.16.14-.65a11.42,11.42,0,0,1,4,3,29,29,0,0,1,3.33,4.41,30.39,30.39,0,0,1,3.67,8.68c-1.09-2.82-.37-6,2.5-4.2-.34,1.5-.6,3-.88,4.45,2.95.52,5.86,1,8.74,1.47-3.11-.7-4.47-3.41-5.72-5.43S162.46,499.47,159.59,501.29Z"/><path d="M160.06,511.58c4.56,7.59,3.24-4.48,8.48,3.47l-7-6.88Z"/><path class="cls-1" d="M141.67,474.25c-.13-1.57-.18-3.2-.22-4.81a3,3,0,0,0-.42,3,4.47,4.47,0,0,0,1.68,1.74C143.92,474.92,144.74,474.93,141.67,474.25Z"/><path class="cls-1" d="M133.38,461.46c1.69-.17,3.41-.37,5.13-.59-1.46-.59-2.83-1.27-4.24-1.93Z"/><path d="M131.54,446.68c-1.75-.79-2.65-.16-2.84,1.06a6,6,0,0,0,1.48,4.39,6.38,6.38,0,0,1-.65-2.05,4.35,4.35,0,0,1,.16-1.73A2.13,2.13,0,0,1,131.54,446.68Z"/><path class="cls-1" d="M130.16,422.94c1.37,3,1,1.56,1.09-.3s.67-4.17,3.46-2.81C132.58,419.83,128.87,417.72,130.16,422.94Z"/><path d="M133.29,399.46c1.58,1.88,1.09,3,.11,3.68C133,401.54,132.78,400.2,133.29,399.46Z"/><path d="M158,477.73a10.56,10.56,0,0,1,1.35,1.92Z"/><path d="M157.16,476.47l.88,1.26A11.8,11.8,0,0,1,157.16,476.47Z"/><path d="M140.57,429.61h0a5.38,5.38,0,0,1-.2.65Z"/><path d="M288.2,569.2a13.61,13.61,0,0,1,3.1.58l-3.07-.54Z"/><path d="M290,576.47c-3.14.67-4.15-1.45-5.48-3.77a11.29,11.29,0,0,0-2.6-3.32,8.34,8.34,0,0,0-5-2c1.84.27,3.69.61,5.57,1s3.82.57,5.75.9c1.84,3,.73,3.28-.1,3.6S286.79,573.49,290,576.47Z"/><path d="M216.85,550.4c-.13,0-.21-.06-.35-.06C215.93,550.17,216.26,550.2,216.85,550.4Z"/><polygon class="cls-1" points="521.71 520.26 520.91 519.24 525.78 517.24 521.71 520.26"/><path class="cls-1" d="M519.68,518.93c-2.63,1.22-5.36,2.28-8,3.37a249.28,249.28,0,0,0,34.9-34.61l.33,2.39c1.1.48-5.75,8.2-13.17,15.2-3.66,3.54-7.52,6.83-10.21,9.37S519.07,518.77,519.68,518.93Z"/><path class="cls-1" d="M519.15,522c-.19,3.6-2.13,4.5-4.24,5.32s-4.49,1.49-5.77,4.8c.86-2.21,1.43-4.28,2.25-6a6.33,6.33,0,0,1,3.77-3.67C516.48,522.37,517.83,522.23,519.15,522Z"/><path class="cls-2" d="M511.94,540.62c-2.88.75-4.34,4.48-6.09,4.73C504.33,541.4,509.66,541.59,511.94,540.62Z"/><path d="M514.57,557.82a5.38,5.38,0,0,1-1.1.81,10.14,10.14,0,0,0,.72-1.44Z"/><path d="M514.19,557.19l-1-1.56C514.4,555.67,514.51,556.3,514.19,557.19Z"/><path d="M513.47,558.63a15.15,15.15,0,0,0-1.79,3.51l1.23-.46c-1.2,1.35-3,4.3-4.26,3.87,3.08-1.62,2.42-2.73,1.1-4.94l-4.84,2.71C502.52,557.55,509.09,561.06,513.47,558.63Z"/><path class="cls-2" d="M499.35,569.24l3.09-6C505.56,565.35,501.21,568.16,499.35,569.24Z"/><path d="M490.07,569.89c.67-1.53,5.63-3.88,1.94-3.67.44-1,1.45-1.41,2.42-2C491.64,566.8,496.7,568.7,490.07,569.89Z"/><path d="M494.43,564.26a6.85,6.85,0,0,1,1.27-1A5.06,5.06,0,0,1,494.43,564.26Z"/><path class="cls-2" d="M531.39,518.47c-.8.08-1.07-.26-1.15-.77Z"/><path d="M478.36,571.73c-.63.31-1.25.62-1.89.9a7.55,7.55,0,0,0,1.43-.9Z"/><path d="M571.29,437.19c-4,5.18-7.79,9.89-10.86,18.91,3.82,2.19-1,3.84,2.55,6.83,1.26-2.12.73-1.17-.68,1.37-.71,1.28-1.64,2.95-2.69,4.82l-3.52,6c-4.93,8.27-10.49,16.62-7.15,14.22v-3.14l1.91,4.88c-2,1.52-4.85,2.81-7.15,4.31s-4.19,3.07-4.37,5.17c-.84-.18,6.31-7.54,12.63-15.5,3.16-4,6.26-8,8.32-11,1-1.52,1.88-2.76,2.37-3.63s.65-1.34.4-1.27c.81,0,1,.76.68,2.12a29,29,0,0,1-2.39,5.56,133.06,133.06,0,0,1-11,16.63c-4.59,5.89-9.52,11.75-13.49,16.1s-6.73,7.45-6.6,8.18l-2.38-1.62c-.88,1.85-1.66,3.57-2.36,5.25s-1.32,3.33-1.94,4.93a43,43,0,0,1-4.56,8.93l-3.23-1.77a8,8,0,0,0,4-3.64c.79-1.45,1.44-3.08,2.78-5.21-6.05,5.76-8.53,5-13.2,9.33,2.76,3.41,5.7-1.56.64,5.25-3-.18-1.41-7.11-6.72-2.32a9.82,9.82,0,0,0-3.77,3,8.39,8.39,0,0,0-1.29,3.12c-.51,2.12-.8,4.41-4,6.58,1.77-.4,3.48-.92,5.23-1.38a39.86,39.86,0,0,1-4.43,3.23,8.33,8.33,0,0,1-5.42,1.41,15.06,15.06,0,0,0,5.08-4.78c1.42-2.26,2.13-4.75.84-6.53-2.1,2.62-9,4.75-11.25,6.34l-.09-3.51c-2-.47-2.84.39-3.75,1.35a4.45,4.45,0,0,1-4.19,1.75c-2.28,3.26,4,2.85,2.85,4.91-1.13-.48-8.1,1.14-9.36,4.07,2.19,2.52,3.86,1.13,5.8-.43s4.12-3.34,7.62-1.7c-2.16.74-4.28,1.53-6.46,2.18-.43,3.77,2,2.58,4.52,1s5.17-3.45,5.46-.68c-.64,4.11-3.77,4.1-6.74,4.08s-5.74.12-6,5c1.77,0,5-1.14,7.71-1.94s5-1.41,5-.06c-4.3-.31-4.53,4.81-8.73,7.89-2.27,0-4.57,0-6.83-.08-1.49,2.93.4,2.08,2.82,2.41-4.89.26-10.34,2.84-16.38,5.3a72.55,72.55,0,0,1-9.45,3.26,32.91,32.91,0,0,1-10,1.19c-6.9,3.08-.07,3-2.71,6.16-2.48-1.26-5.15-.79-7.7.24-1.28.5-2.53,1.16-3.73,1.68a19.81,19.81,0,0,1-3.37,1.21c-1.27,0-2.65,4.27-1.12,5.52,3.33-1.6,6.63-3.18,9.86-4.93a4.22,4.22,0,0,0,6.08,3.51c-1.17-1.64-.74-2.4.5-2.84a24.27,24.27,0,0,1,5.51-.64c1.09-.07,2.21-.15,3.26-.31a11.25,11.25,0,0,0,2.82-.8,3.16,3.16,0,0,0,2-4l1.13,3.7,3.07-1.77c1-.59,2-1.23,3-1.85,2-1.24,4-2.46,6-3.73l-.58-.32c.22.61,2.66-1.15,6-3.23.82-.53,1.71-1,2.62-1.6s1.84-1.11,2.79-1.62a24.12,24.12,0,0,1,5.77-2.3c-1.4,2.07-13.62,6.1-5,6.79a10.31,10.31,0,0,1-1.88,1.52,19,19,0,0,1-2.43,1.24c-1.77.77-3.81,1.44-6,2.16a78,78,0,0,0-14,5.22l2.81,1.79a27.34,27.34,0,0,1-8,4.17,64.35,64.35,0,0,1-9.43,2.34c-3.27.53-6.57,1.08-9.82,1.55a75.22,75.22,0,0,0-9.34,1.91c.94-1.38,1.86-2.82,2.77-4.25-2.21-.14-4.81-.76-7.24-.8a8.17,8.17,0,0,0-6.43,2.25c2.53-.48,3.22-.21,3.21.49a10.68,10.68,0,0,1-1.06,2.58,25.84,25.84,0,0,1-5.63,1.72,56.58,56.58,0,0,1-6.63.94c-2.33.22-4.73.44-7.14.75a55,55,0,0,0-7.22,1.14s.41-.8-.05-1.29c-3.27,1.07-6.59,1.88-9.92,2.81a13.52,13.52,0,0,1-3.09-.54,11.18,11.18,0,0,1-2.33-1.11,47.91,47.91,0,0,1-4-3.12c-.86.26-2.37.39-3.46.72s-1.76.78-.94,1.85a5,5,0,0,0,2.48.17c-2.52,2-3.43,1.64-4.47,1.16s-2.24-1.19-5.45-.08c5-3.15-1.41-4.71-.71-8-7.32,1.25-.91,5.91-1.85,7.42a36.89,36.89,0,0,1-9.38-3.73,29.51,29.51,0,0,0-9.29-3c-.73,2.07,6.18,1.9,6.76,4.29-2.52-.75-5.54-.77-6.08,0l5.4,2c-2.31-.82-4.59-1.42-6.87-2.1a67.68,67.68,0,0,0-6.89-1.65c-1.16-.21-2.34-.4-3.53-.55l-3.62-.44c-2.45-.29-5-.47-7.62-.53l.62,1.18c-2.13-.43-4.26-.81-6.38-1.28,1-1.06,2-2.21,3-3.32-1.8.21-3.43-.83-4.9-1.51s-2.81-1.09-4.06.19l1.19.56-4.53.2L296,597a7.8,7.8,0,0,0-4.44-.74c-1.69.11-3.6.55-5.6.83-4,.61-8.57,1.21-12.84-.38-.16-2.73,3.72-2.08,8-1.55a27.39,27.39,0,0,0,6.24.32c1.87-.22,3.39-1,4.07-2.53-.65-.43-1.42-.88-2.24-1.31a21.13,21.13,0,0,0-2.53-1.24c-1.71-.68-3.37-1-4.46-.36-.16,1.84,1.86,2.44,3.9,3a16.27,16.27,0,0,1-6.49-.56,49.74,49.74,0,0,1-6.5-2.21c-4.2-1.66-8.12-2.92-11.48-1l4.91,3.94c-3.4-.81-5.58-3.17-7.24-5.16s-2.93-3.29-4.71-1.93c2.5-1.39,5-2.8,7.37-4.22-3.75.27-7.65-.57-11.47-1.49-3.76-1.07-7.43-2.24-10.92-2.45-1.77,3.43,8.63,3.77,7.88,4.27l-4,1.27c-4.22-3.12-4.62-3.95-5.27-4.9a10,10,0,0,0-1.64-1.83,62,62,0,0,0-4.83-4l-1.27,2.24a5.41,5.41,0,0,0-3-2.9c-1.4-.65-3-1.08-4.33-1.55-2.64-.9-4.2-1.61-.72-3.58l2.1,3,1.24-2.85-6.59-2.58c-2.19-.88-4.46-1.67-6.59-2.68,2.35-1.23-3.69-4.3-.52-5.92l-5.83-.46c.51-4.92,10.78.65,12.94-1.93.9-1.83-1.19-2.87-2.31-3.25a5.55,5.55,0,0,1,3.74,1.58,10.34,10.34,0,0,1,2.11,3.17c1.17,2.43,2.16,5.24,4.77,6.79,1.33-.32,2.62-.6,4-1l-2,3.32c2.59.51,5.69-.76,7.16-1.73a7.88,7.88,0,0,0,3.13,3.92,10.62,10.62,0,0,0,2.17,1,22.82,22.82,0,0,0,2.5.63c1.74.36,3.62.64,5.53,1.12a23.4,23.4,0,0,1,2.88.92c.49.19,1,.4,1.45.64s1,.46,1.47.73c-1.94-.15-2.7,0-2.81.48s.43,1.19,1.21,1.89c1.53,1.44,3.87,3,3.09,3.27,1.92.77,5.85.58,9.49.72s7,.65,7.95,3.45c1.73,2.53-5.67,1-.46,3.66a10.46,10.46,0,0,0,2.59.23,4.86,4.86,0,0,0,2-.5c1-.53,1.32-1.45.44-2.66a103.6,103.6,0,0,1,12.9,3l6.72,1.72,3.36.84,1.66.39,1.68.29c-.87.7-1.75,1.43-2.63,2.09,5.2,3.15,11.33.67,14.62-1.61.62,1.13,1.17.43.08,1.83,3.26,2.56,5.78,1.55,8.82.2a32.54,32.54,0,0,1,5.19-1.93,16.83,16.83,0,0,1,7.22-.32,4.05,4.05,0,0,0-3.38-3.39,9,9,0,0,0-2.92-.21,10.07,10.07,0,0,0-1.53.22,12.35,12.35,0,0,0-1.48.38l1.37-4c-2.43-.35-4.94-.65-7.48-.87s-5.1-.34-7.59-.59-5-.29-7.33-.29c-1.18,0-2.34.05-3.46.07s-2.21,0-3.25.12c1.42-.72,2.82-1.42,4.22-2.15-2.79-3.46-4.23-2.44-5.67-1.5s-2.81,1.79-5.19-2c-5,.35,2.86,2.85-1.09,3.72-1.53-.95-.86-2.64-.51-4.27s.4-3.22-2.24-4.11c1.29.22,2.58.51,3.89.7l4,.6c2.66.42,5.34.89,8,1.35s5.47.73,8.23,1.12l4.14.61,4.18.42,8.38.89,8.4.49,4.17.24,4.16,0h8.22c.41-.75-.73-1.06-1.86-1.37a5.48,5.48,0,0,1,2-.76,23.21,23.21,0,0,1,3-.44c1.17-.09,2.49-.13,3.94-.12l2.26,0h2.43c1.67,0,3.45.08,5.29.15s3.76,0,5.73.11c3.94.12,8,0,12.14-.06,8.15-.32,16.17-1.1,22-2.73s9.58-3.8,9.32-6.49c1.47,1.23-1.45,3.83,2.94,2.45.2-.84,1-2.13-.43-3.34a24.56,24.56,0,0,0,9.64-.37c1.61-.4,3.23-.91,4.85-1.48s3.27-1.2,4.88-1.94l4.91-2.16c1.65-.71,3.27-1.5,4.94-2.17a52.67,52.67,0,0,1,10.32-3.17c-1.05-1.5,1.3-3.69.76-4.89,3,.79,6-.7,8.6-2.49s5.17-3.74,7.68-3.89l-2.29-1.06,6-3.6c2-1.19,3.92-2.51,5.89-3.76-.08-.86-1.68.14-2.77.51,2-2.47,3.86-.88,5.12.46.92-2.39,1.74-4.86,2.58-7.25,9.57-2.1,17.2-9.37,24.07-17.42s13.13-16.92,21.69-23.23a16.74,16.74,0,0,1,0-6.13,13.22,13.22,0,0,1,1-2.78,21.26,21.26,0,0,1,1.7-3.05l-2.4,1.32c.85-6,1.61.88,3.19-3.52,0-3.73-3.73-4-4.63.39-2.5,1.22-2.51-.78-2.1-2.72,2.56-3,5-6.06,7.55-8.92,1.25-1.45,2.48-2.9,3.77-4.29l3.84-4.13A125.91,125.91,0,0,1,571.29,437.19Z"/><path d="M131.25,343.81c-1.54,1.83-2-6.6-5.27-2.26a26.74,26.74,0,0,0-1.66,5.51c-.19,1-.35,2-.46,3a24.57,24.57,0,0,0-.13,3.11c0,2.11.1,4.29.27,6.51.09,1.11.16,2.24.31,3.36s.36,2.25.53,3.38l1.08,6.83c.35,2.28.85,4.52,1.16,6.77s.54,4.49.73,6.68a42.85,42.85,0,0,1,.19,6.49,28.36,28.36,0,0,0-1.16,5.42c-.09,1.42,0,2.74-.1,4.85a5.31,5.31,0,0,0,1.87-.73c.61,2.14,1.68,4.85,2.69,7.58a22.66,22.66,0,0,1,2,7.87c1.15.9,4.07.68,2.58-1.3,2.29,2.68,2.37,5.76,2.19,8.64s-.52,5.47,1.32,6.71c.11-1.88,1.05-1.42,2-1s1.7.7,1.48-1.34c3.52,6-5.59,10-3.95,15.7.86-.08,1.72-.15,1.36-1.27-.32,3.74,2.65,7.66,4.94,11.09,2.46,3.33,4.26,6.24,1.54,8.44l3.8.56a29.66,29.66,0,0,1-.91,3.83c-.21,1.07-.15,2.23.83,4.42,2.66,1.86,2-1.59,3.54-1.29-.77,1.33.28,3.49,1.41,6s2.53,5.17,2.15,7.88c-1.65,1.45-1.55-.8-1.68-3.43a12.52,12.52,0,0,0-.64-3.85,2.94,2.94,0,0,0-2.47-2.17c-.77.42-.66,1-.3,1.69a54,54,0,0,1-3.42-6.32c-.49-1.06-1-2.12-1.36-3.19s-.74-2.19-1.06-3.28a107.42,107.42,0,0,1-3-12.8c-.76-4.19-1.69-8.06-2.72-11.83a33.89,33.89,0,0,0-2.08-5.35c-.42-.85-.91-1.67-1.4-2.5a23.59,23.59,0,0,0-1.58-2.44c1.41-4.39-2.27-5.53-5.69-5.75-.13,3.08.57,11.81,6.18,9.3L135,439.39c1.12,1.53-4.39,4.33-4.92,5.54-.5-1.75-2.55-2.84-4.46-2.86a3.26,3.26,0,0,0-3.53,3.77c-2.52-4.16.77-4.88,4-5.47s6.41-1.06,3.85-4.36l-4.49.81c2.77.39,1.7-7-.75-8.78l-.35,1.36-1.41-4c-.43-1.37-.88-2.76-1.36-4.16s-1-2.81-1.48-4.25-1.09-2.86-1.54-4.35c-1-3-2-6-3-9-.57-1.51-1-3.07-1.48-4.63l-1.47-4.68c-.48-1.57-1-3.12-1.49-4.71l-1.31-4.77-1.35-4.77c-.22-.79-.46-1.58-.66-2.37s-.38-1.6-.56-2.4c-.76-3.19-1.52-6.35-2.26-9.46s-1.18-6.23-1.75-9.24a7.49,7.49,0,0,0,3.55-5.8,16.3,16.3,0,0,0-1.35-6.34c-.39-1.07-.8-2.14-1.12-3.2-.16-.53-.3-1.05-.41-1.57a11.61,11.61,0,0,1-.14-1.52,5.86,5.86,0,0,1,2.88-5.27c-1.55-2.64-3.81,3.91-5.28-1.21-.73-2.59,2.14-2.85,3-2.74l-.94-2.34a21.36,21.36,0,0,1,15,2.53,27.1,27.1,0,0,1,6.68,5.68,45.29,45.29,0,0,1,3.09,4.06A55.34,55.34,0,0,1,131.25,343.81Z"/><path class="cls-1" d="M393.76,57.76c4.3-1.88,13.29-1.1,12.41,2.65.87-3.76.83-3.79,7.41-5.38-.64,2.49,4.84,3,8.3,3.61a14,14,0,0,0-5-3c-1.11-.45-2.38-.93-3.87-1.37l-5.12-1.36a11.43,11.43,0,0,1-6.91.8c-1.25-.2-2.56-.42-3.88-.71s-2.68-.62-4-1a41.89,41.89,0,0,0-7.89-1.45,10.16,10.16,0,0,0-6.56,1.79,75.51,75.51,0,0,1,7.09,3.54A13.37,13.37,0,0,0,393.76,57.76Z"/><path class="cls-1" d="M420.94,80.18,422.27,79c-4-.17-7.93-.2-11.83-.3C413,78,421,78.34,420.94,80.18Z"/><path d="M457.9,88.31c-2,2.15,2.7,6.1,1.53,8.4,1.05-2.64,3.28-2,5.84-.43s5.34,4.06,7.76,4.87l3.83-2.93a13.39,13.39,0,0,0-3.75-3.74c-.84-.61-1.78-1.22-2.8-1.83S468.17,91.53,467,91c-2.33-1.11-4.85-2.21-7.4-3.34s-5.2-2-7.66-3.15Z"/><path class="cls-1" d="M465.32,95.2l4.26-1.13C466.69,93.55,460.61,91.28,465.32,95.2Z"/><path class="cls-1" d="M464.9,78.2c-1.95-1-2.7-1.21-2.82-1.06s.4.61.87,1.18.92,1.15.74,1.44c-.1.14-.35.2-.84.14a20,20,0,0,1-2.28-.52c1.52.17,3,.65,4,.65S465.83,79.63,464.9,78.2Z"/><path d="M493,102.46c-5.59-2.37-11-4.91-16.72-6.9l2.84,2.53c1,.83,1.89,1.67,2.79,2.58Z"/><path d="M489,110.91c-1.92-1.19-4.25-4.34-.64-4a11.44,11.44,0,0,0,1.47,1.94,9.71,9.71,0,0,0,1.57,1.41,17.19,17.19,0,0,0,3.41,1.8,21,21,0,0,1,3.39,1.68,7.86,7.86,0,0,1,2.85,3.08c-1.77-.7-3.64-1.24-5.45-1.84-.33.86.23,1.48,1.21,2a14.71,14.71,0,0,0,1.71.76l1.92.81c2.57,1.13,4.85,2.48,2.85,5,4.36.31,4-1.59,3.8-3.25s-.36-3,4.65-1.42a64.14,64.14,0,0,1-10.45-7.16c-3.08-2.38-5.85-4.92-8.9-7.54,1.25,2.36,2.16,2.66,4.29,5.3-4.75-3-12.3-5-18.11-7.77.56,2.64,2.25,3.79,4.31,4.81S487.28,108.51,489,110.91Z"/><path d="M511.21,127.4c1.1,1,2.37,2.07,3.72,3.1s2.79,2,4.15,2.88c2.76,1.69,5.56,2.54,7.78,1.24-1.25-3.36-2.78-4.47-4.41-4.75s-3.35.25-5.11.18c-.9-1.73-5.38-5.68-1.91-6.2C515.47,125.21,510.23,124.29,511.21,127.4Z"/><path d="M528.25,143c2-.08,4-.13,6.09-.17l-2.53-1.4,1.89-2.47a17.22,17.22,0,0,1-4,1,8,8,0,0,1-6.43-2.23C524,141.44,526.74,140,528.25,143Z"/><path d="M543.92,128.34a9.51,9.51,0,0,0,3.33,4.67,21,21,0,0,0,2.42,1.54l2.92,1.79c-2.48-2.4-5.63-5.15-8.36-7.46a40.78,40.78,0,0,0-3.78-2.87,6.09,6.09,0,0,0-2.79-1.11l.92-.22a53.25,53.25,0,0,0-11.69-3.16c3.55,1.1,6.94,4.55,9.86,6.8S542,131.89,543.92,128.34Z"/><path d="M537.65,122.13c1.81.48,3.68.92,5.47,1.47C541.33,123.05,539.46,122.61,537.65,122.13Z"/><polygon points="541.83 155.07 536.61 147.54 537.2 150.07 541.83 155.07"/><path d="M543.5,138.05c1.28,1.41,1.84,1.82,2.1,1.68s.21-.85.14-1.56c-.16-1.39-.26-3,2.25-.35,1.82,1-7.75-7.3-9.55-6.18C539.24,133.5,545.46,134.92,543.5,138.05Z"/><path d="M545.53,159.64l7.34,3.52Z"/><path d="M555.67,175.18l2.73-.26c.19.43.39.85.61,1.26s.43.86.66,1.28c.48.84,1,1.68,1.57,2.5,1.11,1.65,2.35,3.28,3.48,4.91a19.88,19.88,0,0,1,2.63,5,9.69,9.69,0,0,1,.45,5.16c1.75-2.56,6.62-.58,3.9-6.42-1.82,0-3-1.93-4.33-.62-1-2.58,1-3.27.63-5.2-2.4-1.2-4.24-3.53-6-5.79s-3.57-4.34-5.59-5.13c1.52,1.14,1.37,1.8,2,3-4-1.88-4.29-4.56-4.52-6.66a4.2,4.2,0,0,0-.72-2.48c-.53-.53-1.52-.67-3.36-.26a3.15,3.15,0,0,1,2,1.53,13.66,13.66,0,0,1,1.14,2.78C553.55,171.86,554.16,174,555.67,175.18Z"/><path d="M567.74,165.07l-3.45-5.79c3.69-.28,5.18,6.34,8.1,5.5,1.2-1.4-2.32-7.28.21-6.1-6.18,3.8-6.05-7.05-10.13.76a24.51,24.51,0,0,1-1.71-2A4.64,4.64,0,0,1,560,156a3.26,3.26,0,0,1,.17-2.12c.41-1.31.83-2.72-2.34-6.07-1.52.2-3,.39-4.55.62a30.63,30.63,0,0,1,7.39,8.15L562,158.5c.42.65.88,1.32,1.41,2A32.45,32.45,0,0,0,567.74,165.07Z"/><path d="M581.48,186.8l-.28,3.95,1.94-3.24a17.78,17.78,0,0,1,2.38,4.75,26.63,26.63,0,0,1,1.17,4.84,36.67,36.67,0,0,1,.36,4.74c0,1.56-.13,3.12-.24,4.6-.5,6-1.2,10.94,1.37,14.48a19.76,19.76,0,0,1,4.72,6.62,38.85,38.85,0,0,1,2,7.63l.66,3.94c.18,1.32.32,2.67.52,4a33.56,33.56,0,0,0,2,7.77c1.13,1,1.63,1.25,1.89.92a3.37,3.37,0,0,0,0-2.17c-.37-2-1.12-4.67-.36-5.23,3-.18,2.67,1.32,2.29,3s-.81,3.38,1.74,3.92c1-.13,1.65-1,1.93-2.23a18.09,18.09,0,0,0,.08-4.78c-.14-1.84-.39-3.84-.56-5.72-.09-.94-.14-1.86-.17-2.7a14.55,14.55,0,0,1,0-2.29c-2.11-3.76-3.28-3.22-5.92-3.55,1.73-1.83.86-6.14,2.47-8-3.32-3.42-4-6.77-4.82-10.15s-1.87-6.63-5.41-9.71c1.51-3.92,3.54,5.57,2.62,2.76l-2.25-4.23-.22.69a17.61,17.61,0,0,1-4-4.31,32.16,32.16,0,0,1-3-5.78c-.78-2.06-1.57-4-2.09-5.85a27.65,27.65,0,0,1-1-4.61c.89,3.38-.1,6.66-3,4l1.35-4.67c-2.94-1.41-6.07-2.63-9.09-3.86a8.77,8.77,0,0,1,3.62,3.31,25.24,25.24,0,0,1,1.92,4.12C577.26,186.23,578.31,188.05,581.48,186.8Z"/><path d="M582,175.36c-4.27-9.37-3.78,4.06-8.77-5.89l3.5,4.61c1.16,1.55,2.37,3.06,3.43,4.67Z"/><path class="cls-1" d="M597,221.57c-.12,1.81-.15,3.58-.37,5.41,1.93-2.23.4-4.39-.71-5.59S594,220,597,221.57Z"/><path class="cls-1" d="M603.74,238.18c-1.75-.28-3.48-.55-5.27-.79,1.4,1.08,2.65,2.23,4,3.37Z"/><path d="M603.3,255.33c3.27,2.79,4-1.89,2.29-5.77C606.45,253.26,605,255.71,603.3,255.33Z"/><path class="cls-1" d="M600.41,282.57c-.68-3.82-.67-2.06-1.12,0s-1.39,4.51-3.95,2.17C597.47,285.4,600.79,288.85,600.41,282.57Z"/><path d="M592.53,308.36c-1.09-2.61-.35-3.76.76-4.24C593.35,306.08,593.2,307.66,592.53,308.36Z"/><path d="M580.63,213.23a15,15,0,0,1-1.15-2.52Z"/><path d="M581.37,214.87l-.74-1.64A13.91,13.91,0,0,1,581.37,214.87Z"/><path d="M591.37,272l0,0c.11-.23.17-.44.31-.68Z"/><path d="M442.48,89.05a18.89,18.89,0,0,1-3.58-.91l3.56.87S442.47,89,442.48,89.05Z"/><path d="M440.52,81.52c3.65-.32,4.81,1.85,6.29,4.43s3.32,5.44,8.67,6.39c-2.12-.49-4.27-1-6.43-1.6s-4.34-1.26-6.59-1.73c-2.09-3.18-.79-3.39.17-3.63S444.2,84.87,440.52,81.52Z"/><path d="M522.87,120.44c.14,0,.24.1.39.12C523.89,120.85,523.52,120.76,522.87,120.44Z"/><polygon class="cls-1" points="173.62 151.69 174.51 152.63 169.3 155.78 173.62 151.69"/><path class="cls-1" d="M175.86,152.71l2.13-1.36,2.19-1.3,4.35-2.56a250.75,250.75,0,0,0-36.05,45.1L148,190c-.61-.16.83-2.7,3.28-6.44,1.19-1.9,2.77-4,4.47-6.24l2.62-3.45c.91-1.16,1.89-2.3,2.84-3.46,3.75-4.66,7.82-9,10.65-12.33S176.53,152.76,175.86,152.71Z"/><path class="cls-1" d="M176.34,149.25c.15-3.87,2.22-5.24,4.51-6.54a25.3,25.3,0,0,0,3.48-2.18,8.86,8.86,0,0,0,2.76-4.05c-.9,2.53-1.48,4.85-2.36,6.79a8.78,8.78,0,0,1-4,4.68Z"/><path class="cls-2" d="M183.86,128c3.2-1.3,4.73-5.55,6.67-6.13C192.26,125.77,186.39,126.58,183.86,128Z"/><path d="M180.72,110.24a6.1,6.1,0,0,1,1.21-1.06,10.8,10.8,0,0,0-.78,1.65Z"/><path d="M181.15,110.83l1.1,1.49C180.93,112.48,180.8,111.84,181.15,110.83Z"/><path d="M181.93,109.18a17.09,17.09,0,0,0,2-4l-1.36.71c1.32-1.65,3.29-5.08,4.69-4.84-3.4,2.25-2.66,3.3-1.17,5.41,1.79-1.23,3.55-2.51,5.37-3.7C194.09,108.36,186.81,105.89,181.93,109.18Z"/><path class="cls-2" d="M197.59,95.61l-3.41,6.78C190.68,100.74,195.52,97.05,197.59,95.61Z"/><path d="M208,93.46c-.75,1.7-6.31,5-2.17,4.15-.5,1.16-1.61,1.72-2.72,2.43C206.29,97,200.58,95.77,208,93.46Z"/><path d="M203.14,100a11.63,11.63,0,0,1-1.43,1.19A6,6,0,0,1,203.14,100Z"/><path class="cls-2" d="M163.19,155.62c.85-.25,1.16.06,1.27.59Z"/><path d="M221.27,89.8l2.16-1.16a12.7,12.7,0,0,0-1.64,1.11Z"/><path d="M127.77,255.09c3.42-6.87,6.62-13.16,8.87-24-2.07-.76-1.92-1.9-1.75-3.16s.43-2.61-1.54-3.87c-1.11,2.67-.65,1.48.57-1.71.62-1.59,1.39-3.7,2.33-6s2.06-4.92,3.15-7.52l6.18-13.88c1.5-3.48,1.95-5.28.29-3.55l.22,3.47-2.33-5c.5-.53,1.05-1.06,1.63-1.6s1.24-1,1.88-1.57c1.29-1.06,2.6-2.12,3.78-3.2,2.32-2.2,4.31-4.3,4.38-6.65.9,0-6.38,9.63-12.44,19.93-3,5.14-6,10.31-7.82,14.23-1,1.94-1.73,3.53-2.17,4.61s-.54,1.66-.29,1.52c-.83.2-1.09-.61-.9-2.2a38.1,38.1,0,0,1,2-6.77,152.86,152.86,0,0,1,10.31-21l3.43-5.62c.57-.93,1.14-1.86,1.71-2.77l1.78-2.66,3.39-5.07c1.1-1.62,2.22-3.1,3.21-4.52l2.75-3.91c.84-1.17,1.6-2.18,2.2-3.07,1.23-1.76,1.91-2.94,1.84-3.31l2.61,1.25c.88-2.19,1.71-4.17,2.4-6.14s1.33-3.86,2-5.71a56.6,56.6,0,0,1,4.77-10.48l3.59,1.29a10.22,10.22,0,0,0-2.76,2.26,10.94,10.94,0,0,0-1.57,2.41c-.83,1.71-1.47,3.6-2.91,6.14a43.08,43.08,0,0,1,7.65-7,35.34,35.34,0,0,0,6.61-5.55c-3.09-3.09-6.25,2.74-.79-5.45,3.29-.35,1.67,7.3,7.46,1.23,4.19-2.84,5-5,5.54-7.39a17.77,17.77,0,0,1,1.07-3.63,9.78,9.78,0,0,1,1.19-2,12.88,12.88,0,0,1,2.11-2l-2.95,1.12-2.89,1.21,2.19-2a34.31,34.31,0,0,1,2.74-2.15c2-1.36,4.07-2.45,6-2.4a20.4,20.4,0,0,0-5.64,5.89c-1.62,2.54-2.33,5.37-.9,7a14.1,14.1,0,0,1,2.57-2.39c1.1-.77,2.37-1.55,3.63-2.29,2.54-1.48,5-2.89,6.35-3.83l.1,3.61c4.52.46,3.79-4.26,8.92-4.49,1.3-1.82.19-2.43-1.12-2.86s-2.74-.63-2.1-1.82c.64.19,3-.4,5.26-1.45s4.58-2.59,5.36-4.12c-2.5-2.36-4.39-.64-6.58,1.28a14.69,14.69,0,0,1-3.66,2.59,6.78,6.78,0,0,1-4.93.33c1.21-.56,2.4-1.15,3.62-1.68l3.67-1.56c.48-4-2.23-2.36-5.12-.39s-5.8,4.43-6.14,1.58c.7-4.42,4.23-4.89,7.6-5.28a10.67,10.67,0,0,0,4.55-1.31,4.49,4.49,0,0,0,1.53-1.76,7.44,7.44,0,0,0,.76-3c-4.07.4-14.44,6.62-14.34,3.92,2.42-.21,3.73-1.55,5-3.43s2.5-4.22,4.9-6.06l7.76-.88c1.69-3.25-.45-2.1-3.19-2.09a24.2,24.2,0,0,0,4.28-1.16,47.51,47.51,0,0,0,4.57-1.74c1.56-.68,3.16-1.45,4.79-2.26l5.1-2.38c1.74-.8,3.51-1.62,5.32-2.39s3.69-1.39,5.57-2a43.69,43.69,0,0,1,5.71-1.52,42.61,42.61,0,0,1,5.81-.69c4-1.94,4-2.65,3.45-3.38s-1.82-1.44-.24-3.13c2.89,1.14,6,.35,8.94-.91s5.92-2.78,8.3-3.41c1.48-.12,3.14-4.52,1.38-5.68L283.54,59c-1.92,1-3.86,1.83-5.73,2.88,0-2.15-2.76-4.83-7-3,2.67,3.14-2,3.25-7,4.05a26.33,26.33,0,0,0-7.05,1.68c-1.86.94-2.93,2.28-2.35,4.33l-1.27-3.66c-2.36,1.45-4.73,2.84-7,4.33l-6.86,4.56.65.27c-.12-.29-.89.06-2.11.8s-2.85,2-4.74,3.25c-.94.65-2,1.33-3,2l-3.21,2a32.53,32.53,0,0,1-6.56,3.21c.81-1.17,4.68-3.24,7.12-5s3.57-2.95-1.38-2.8a18.32,18.32,0,0,1,5-3.38c1-.52,2.09-1,3.24-1.51s2.35-1,3.63-1.46c2.53-.93,5.22-1.92,7.93-3.08A66.27,66.27,0,0,0,254,64.63l-3.2-1.52a33.06,33.06,0,0,1,4.33-2.85,48.26,48.26,0,0,1,4.94-2.2c1.72-.66,3.5-1.26,5.32-1.82s3.73-1,5.62-1.4l5.71-1.25,5.73-1.08c1.89-.37,3.75-.76,5.57-1.21s3.62-.81,5.34-1.32L290,54.39c2.6.09,5.61.5,8.45.39a17.83,17.83,0,0,0,2.09-.2,13,13,0,0,0,2-.4,8.4,8.4,0,0,0,3.47-2c-5.91,1.29-3.26-1.27-2.46-3a35.11,35.11,0,0,1,6.6-2c2.43-.51,5.06-.8,7.79-1.14l4.15-.49,4.24-.42c2.84-.3,5.69-.77,8.48-1.34,0,0-.49.8,0,1.3,3.87-1,7.77-2,11.71-2.87,5.63.47,7.6,2.52,11,4.82,2-.44,7.1-.25,5.21-2.39a7.38,7.38,0,0,0-2.91-.26c6-3.75,4.13,1.24,11.68-.94-5.9,3.13,1.58,4.68.7,8.06,4.29-.41,4.6-1.86,4-3.41S374,45,374.55,44.23a61.22,61.22,0,0,1,11,4.05,40.23,40.23,0,0,0,10.84,3.6c.89-2-7.21-2.32-7.85-4.74,2.93.92,6.47,1.16,7.12.47l-6.29-2.44a153.29,153.29,0,0,0,16.06,4.59c2.72.62,5.49,1.12,8.36,1.51s5.79.9,8.88,1.19l-.7-1.24c2.47.63,5,1.17,7.41,1.88q-1.8,1.47-3.6,3a6.55,6.55,0,0,1,1.54.17,10.38,10.38,0,0,1,1.45.51c.95.41,1.84.91,2.7,1.33,1.7.84,3.24,1.37,4.72.2l-1.37-.68,5.27.23-6.12,2.2a10.63,10.63,0,0,0,5.16,1.19c2,0,4.14,0,6.49-.14a58.28,58.28,0,0,1,7.35,0,19.41,19.41,0,0,1,3.77.63,21.57,21.57,0,0,1,3.7,1.33c.06,1.42-1,1.81-2.72,1.7s-4-.78-6.5-1.23c-5-1-10.37-1.95-12,1,2.93,2.12,8.08,5,10.64,4,.22-1.84-2.13-2.67-4.48-3.5a22.21,22.21,0,0,1,7.53,1.26c2.5.92,5,2.1,7.42,3.18,4.88,2.07,9.27,4.1,13.15,2.63L468,67.41c3.86,1.37,6.26,4.2,8.16,6.37s3.29,3.78,5.35,2.68L477.21,78l-4.27,1.7a28.28,28.28,0,0,1,3.28.34c1.08.22,2.17.49,3.25.8,2.18.63,4.35,1.4,6.51,2.2l3.21,1.2c1.05.44,2.08.86,3.1,1.25a40.52,40.52,0,0,0,6,1.88c1.06-1.61-1.36-3-3.93-4s-5.28-1.61-4.87-1.8c1.53-.27,3-.44,4.54-.65,4.68,4,5.1,4.89,5.81,6a11.91,11.91,0,0,0,1.81,2.16c1,1.07,2.6,2.6,5.32,5L508.52,92a7.06,7.06,0,0,0,3.32,3.56c1.57.91,3.28,1.78,4.77,2.47,2.94,1.44,4.67,2.46.7,3.87L515,98.34l-1.49,2.74,7.33,3.92c1.23.64,2.42,1.34,3.61,2.06l3.58,2.14c-2.69.82,4,5.21.37,6.28,1.07.27,2.17.5,3.22.81l3.18.92c-.4,2.6-3.31,1.74-6.51.66s-6.66-2.4-7.93-1.27c-1.08,1.73,1.23,3.22,2.47,3.84-3.78-.9-5.14-3.37-6.3-6.22s-2.25-5.86-5.12-8l-4.46.25,2.33-3.08c-2.85-1.08-6.42-.26-8.1.46-1.51-4.06-4.69-5.91-8.64-7.19s-8.37-2.56-12.79-5.38c4.38,1,3.59-.43,1.88-2.17s-4.31-3.78-3.41-3.89A16.23,16.23,0,0,0,473.6,84c-1.94-.27-4.13-.49-6.22-.83a22.5,22.5,0,0,1-5.68-1.54,5.63,5.63,0,0,1-3.36-3.14c-1.95-2.75,6.6-.36.61-3.65-4.31-1.21-7.81-.41-5.84,2.34-1.18-.31-2.37-.66-3.58-1s-2.46-.69-3.7-1.07c-2.49-.76-5-1.62-7.57-2.52-1.27-.48-2.58-.86-3.88-1.26l-3.9-1.2-3.89-1.16c-1.29-.38-2.58-.76-3.88-1,1-.64,2.07-1.28,3.1-1.85a14.76,14.76,0,0,0-9.34-2,20,20,0,0,0-7.76,2.37c-.7-1.19-1.35-.53,0-1.84-3.78-2.84-6.73-2-10.31-.91s-7.86,2.85-14.59,1.57c.44,3.64,6.34,4.78,10.85,3.58l-1.68,3.93c1.43.22,2.89.36,4.35.6s2.93.48,4.41.7,3,.41,4.45.59,3,.29,4.42.54a161.87,161.87,0,0,0,16.37,1.4L422,78.33c3.18,3.78,4.88,2.88,6.56,2.07s3.33-1.58,6,2.56c5.77.4-3.23-3.33,1.32-3.63,3.43,2.4-3.1,6.46,3,8.81L434.39,87c-.76-.19-1.51-.41-2.27-.59l-2.32-.5q-4.64-1-9.34-2.15c-6.35-1.18-12.74-2.62-19.28-3.51l-4.89-.79c-1.63-.24-3.28-.38-4.92-.57l-4.92-.56c-1.63-.17-3.26-.41-4.91-.47l-9.78-.59c-1.62-.13-3.24-.07-4.85-.09h-4.8c-.5.75.83,1.06,2.15,1.38-1.11.66-3.17,1-5.92,1.06s-6.22.16-10.15,0c-2-.07-4,0-6.21-.09l-3.31-.07c-1.13,0-2.27,0-3.42,0l-7.05.08c-1.2,0-2.4,0-3.59.12l-3.59.2c-4.8.17-9.51.79-13.92,1.33-2.2.31-4.3.75-6.3,1.14s-3.88.79-5.58,1.33a36.77,36.77,0,0,0-8.15,3.32c-1.9,1.26-2.91,2.58-2.78,4-1.67-1.11,1.74-4-3.36-2.22-.24.88-1.24,2.26.45,3.36a29.8,29.8,0,0,0-11.16,1.25,44.84,44.84,0,0,0-5.62,2c-1.88.78-3.76,1.6-5.65,2.48l-5.63,2.83L250.47,102l-2.84,1.43c-1.9.93-3.83,1.79-5.8,2.55a54.19,54.19,0,0,1-6,2.11c1.2,1.41-1.48,4-.89,5.16-3.46-.43-6.69,1.65-9.74,3.84s-5.77,4.78-8.63,5.27c.85.23,1.73.52,2.59.78-4.49,3.13-9,6.29-13.24,9.72.09.9,1.87-.44,3.07-1-2.21,3-4.28,1.62-5.69.43-1,2.65-1.89,5.44-2.77,8.13-10.57,4-18.78,13.23-25.93,23.38-1.75,2.58-3.58,5.12-5.29,7.75s-3.48,5.21-5.22,7.79-3.59,5.09-5.48,7.54a71.09,71.09,0,0,1-6.07,7,18.87,18.87,0,0,1,.38,6.77,16.76,16.76,0,0,1-.84,3.31,29.62,29.62,0,0,1-1.55,3.77l2.4-2c-.44,6.82-1.74-.59-3.06,4.66.23,4.15,4.19,3.56,4.8-1.52,2.51-1.95,2.67.28,2.39,2.52l-1.81,3-.92,1.47-.86,1.48q-1.73,3-3.54,5.81c-1.17,1.92-2.29,3.84-3.49,5.71l-1.8,2.78q-.85,1.41-1.74,2.79A203.22,203.22,0,0,1,127.77,255.09Z"/><path d="M580,372.36c2.07-1.63-.21,8,4.33,4.05,5.1-6.88,7.23-17.21,8.37-27.92.57-5.36.92-10.84,1.4-16.16A98.86,98.86,0,0,1,596.29,317c.64-1.3,1.17-2.37,1.51-3.3s.59-1.75.8-2.55c.42-1.59.69-3.11,1.24-5.5a4.56,4.56,0,0,0-2,.3c-.05-1.31-.15-2.82-.35-4.42s-.51-3.29-.73-5a40,40,0,0,1-.3-9.53c-1-1.35-4-1.94-2.79.73-1.93-3.67-1.18-7.23-.47-10.44s1.37-6-.21-8c-.93,4.18-3.45-3.09-3.85,1.72a7.44,7.44,0,0,1,.21-4.95,12.69,12.69,0,0,1,2.49-3.7c2-2.3,4.27-4.5,3.91-8-.86-.16-1.72-.33-1.58,1a9.27,9.27,0,0,0,.21-3.3,20.15,20.15,0,0,0-.77-3.51c-.73-2.38-1.78-4.81-2.69-7.06-2-4.44-3.44-8.18-.37-9.88l-3.78-1.69c.77-3.88,2.52-3.75,1.11-9.17-2.48-2.82-2.29,1.21-3.78.46,2.06-2.64-3.5-10.56-2-16.37,1.87-1.16,1.49,1.32,1.3,4.29s-.2,6.41,2.57,7.49c.85-.25.79-.93.47-1.77a37,37,0,0,1,1.52,4q.66,2,1.2,4a55.43,55.43,0,0,1,1.66,7.89A131.05,131.05,0,0,1,592,246.11c.09,2.45.2,4.84.38,7.17s.21,4.66.49,6.91c.14,1.12.31,2.24.51,3.34s.48,2.18.7,3.28a35.6,35.6,0,0,0,2,6.46,4.91,4.91,0,0,0,.27,5.3,9.29,9.29,0,0,0,4.27,2.86c1-3.52,1.55-13.53-4.44-12.31.84-2.16,1.77-4.37,2.48-6.56-.89-2,5.08-3.62,5.8-4.83a5.76,5.76,0,0,0,4,4.48,3.14,3.14,0,0,0,2.67-.24,3.71,3.71,0,0,0,1.49-3,9.57,9.57,0,0,1,.46,1.78,4.53,4.53,0,0,1,0,1.34,2.1,2.1,0,0,1-1,1.54c-1,.62-2.72.52-4.36.38-3.3-.26-6.51-.65-4.67,3.85l4.64.37c-1.37-.64-2.07,1.23-2.17,3.56a15,15,0,0,0,.3,3.64,7.35,7.35,0,0,0,1,2.94l.64-1.45c1.55,12.9,3.24,27.84,4.05,43.26.53,7.7.62,15.53.49,23.22s-.57,15.26-1.32,22.43c-5.94,2.66-5.88,7.82-5.75,13.15s.33,10.72-4.84,12.73c.61,3.42,5-3.33,4.66,2.87-.16,3.13-3,2.59-3.77,2.23,0,1,.05,1.92.07,2.9a18.57,18.57,0,0,1-13.52-7.15C584.08,388.14,581.63,381.58,580,372.36Z"/><path class="cls-1" d="M599.27,380.15c1.19-2.69,1.8-3.49.2,1.91,1.61-5.39,1.64-5.32,2.9-8.95-1,3.66-.6,3-.44,2.83a27.61,27.61,0,0,0,.77-4.63c-1.23,3.74-1.1,2.41-.92,1.32s.38-2-1.21,1.61c-.27,1-.84,2.78-1.21,4.2S598.82,380.89,599.27,380.15Z"/><path class="cls-1" d="M594.3,407.9l.64-2.13a17.26,17.26,0,0,1-1.94,1.52C593.73,406,594.93,405.13,594.3,407.9Z"/><path d="M600.25,400.33c-.74,4.21-.16,5.84-.61,9.51.49-4,.89-4.73,1.3-4.63s.87.94,1.32.13l.74-6.18c-.19-1.87-.68-2.05-1.31-1.68s-1.4,1.3-2,1.55C599.84,399.47,600,399.91,600.25,400.33Z"/><path class="cls-1" d="M601,403.85l.88-4.29C601.44,400.88,600.42,402.24,601,403.85Z"/><path class="cls-1" d="M602.85,382.73c-.27,0-.27.58-.3,1.42A6.89,6.89,0,0,1,602,387,12.36,12.36,0,0,0,602.85,382.73Z"/><path d="M605.25,392c-.69,1.45-1.45,2.94-2.27,4.49.24.62.51,1.22.79,1.8Q604.63,395.09,605.25,392Z"/><path d="M605.25,403.94c-.39.28-.89-1.37-.35-3.73.43,1.86.86,1.07,1.23.24s.7-1.72,1.23-.27l-.83,2.55c.11,2.23.59.66,1-.41s.82-1.68,1.07,2.25a14.51,14.51,0,0,0-.22-6,10.42,10.42,0,0,1,0-5c-1.14,2.4-2.22,1.48-3.16.78.27,1.47.39,1.06.84,2.09-.73.81-1.84,4.22-2.87,5.59.1,2.6.44,2.44.81,2S604.83,402.75,605.25,403.94Z"/><path d="M610,401.34c1-.39,2.71-1.57,1.89-7.17-.81-1.55-1-1.18-1.06-.05s.06,3,0,4.37c-.43-.68-1.38-.37-1.35-3.66C609.72,396,609.3,399.5,610,401.34Z"/><path d="M614.09,399.1c-.1-1.77-.23-3.51-.39-5.23l-.24,1.14-.82-3.31c.14.87,1.19,7.25.06,7.72C613.75,401.62,613.31,398.35,614.09,399.1Z"/><path d="M609,375.78c.81,2.07.7.54.62-1a4.37,4.37,0,0,0-.68,3.2l-.13-.87s.09,3.51.16,6.63c.06-2,.53-1.85.81-2.35S610,379.91,609,375.78Z"/><path d="M608.36,375.8c-.08-1-.17-2-.29-3C608.19,373.79,608.28,374.79,608.36,375.8Z"/><path d="M616.93,395.5c-.67-.07-1.31-.15-1.94-.26l.76,1.09Z"/><path d="M611.44,383.18c.47,0,.11-.78-.26-1.67s-.73-1.85-.43-2c0-.63-.8.81-.38,3.11C610.76,383.28,610.36,379.41,611.44,383.18Z"/><path d="M618.05,395c0-1.41,0-2.79,0-4.13C618.07,392.25,618.08,393.63,618.05,395Z"/><path d="M622.17,394.39l-.81-2.31c1.06.37,1.65-.52,2.36-1s1.59-.63,3.52,1c-1.84-2.19-2.94-5.2-4.41-5.12.7,1.4.31,1.67,1.36,3.15-.76-.1-1.77-1.93-2.47-2.39a2.31,2.31,0,0,1-.51,2.37,2.27,2.27,0,0,0-.6,2.2c.09-.7.39-.27.75-.21.25,2.38-.84,1.4-1.6.57s-1.26-1.44-.22,2c-.16-1.16.4-.83,1.07-.43S622.06,395.11,622.17,394.39Z"/><path d="M614.89,380.05l-1-.29c-1.14-3,.67-.74-.53-3.39-.9-1.6-1.72-2.05-2.11-3.34,3.13,6.72-.49.89,3.18,8.25-.49,1.57-2-4-2.63-3,.39,1.32.77,2.66,1.13,4,.16-1.36.55-1.21,1-1.1S614.83,381.34,614.89,380.05Z"/><path d="M618,379c.57.56,1.15,1.11,1.74,1.64L617.6,378c.14-.21.4-.22.77-.1s.8.39,1.41.66a33.39,33.39,0,0,1,3.92,2.47c2.7,1.87,5.19,3.69,5.21,2.42-1.29-4.82,4.43-.7,5.6-2.53-1-2.92-1.83-.74-3-2.07-3.35-4.63,2.65,1.73.08-2.22-2.49-3.3-4.43-2.15-6.69-3.54-.23.94.58,1.93,1.87,3.91-1.6-1.68-2.65-1.73-4.25-3.41.78,3.53-3.71-.71-2.75,3-2.35-2.13.54-1.21-.16-1.25l-.63.6.4.34c.55,1.6-.14,2.23-.88,2a5.87,5.87,0,0,1-2.69-1.61c.86.68,2.63,2.61,2.76,3.76-.8-.92-1.58-1.85-2.34-2.8q1.06,2.55,1.91,5.26c-.53-1.84.29-1.36.89-1.21S619.92,381.75,618,379Z"/><path d="M613.58,374.11c-.85-.56-.13.6.59,1.81s1.46,2.43.54,2.08l.83-1.13Z"/><path class="cls-1" d="M624.63,376.9l2.25,1.39C623.3,374.61,626.49,380.81,624.63,376.9Z"/><polygon class="cls-1" points="627.15 374.82 629.72 378.77 628.71 376.18 627.15 374.82"/><path d="M633,377.37c-1-2.28-2.84-3.33-3.08-2.39C630.62,374.69,632.17,376.05,633,377.37Z"/><path class="cls-1" d="M642.52,381.32c-1.17,1,1.77.08,3.56,4C645,383.69,643.92,381.14,642.52,381.32Z"/><path d="M653.26,386.93c.14,1-.55.53-1.32-.31C652.3,386.44,652.71,386.45,653.26,386.93Z"/><path d="M629.55,387.37a.57.57,0,0,1-.49.23C629.22,387.51,629.39,387.46,629.55,387.37Z"/><path d="M629.87,387.22l-.32.15A.63.63,0,0,1,629.87,387.22Z"/><path d="M644.88,388.07s0,0,0,0l-.38-.28Z"/><path d="M596.67,411.22a2.42,2.42,0,0,1-.7.92c.24-.32.47-.65.7-1C596.68,411.18,596.67,411.2,596.67,411.22Z"/><path d="M597.86,401.92c.86-2.62.57-.13.43,2.39s-.16,5.05.92,2.79a41.63,41.63,0,0,1-2.54,4.07,18,18,0,0,1,.8-5.12A11.78,11.78,0,0,0,597.86,401.92Z"/><path d="M608.84,386a1,1,0,0,0,0-.19C608.9,385.53,608.89,385.73,608.84,386Z"/><polygon class="cls-1" points="570.1 361.06 568.94 361.64 569.91 359.91 570.1 361.06"/><path class="cls-1" d="M568.09,362.25,566.73,365l-5.66-9.59,1.75-.47C564.84,353.78,566.37,363.48,568.09,362.25Z"/><path class="cls-1" d="M570.14,361.82c5.24-1.44-.93,2.47,3,2-2.65.34-5.42,1-4.59-.34Z"/><path class="cls-2" d="M581,360.5c-.69,1,1.65.62,1.09,1.28C578.32,363.45,580.73,361.2,581,360.5Z"/><path d="M595.65,354.9a.23.23,0,0,1,.15.23,7.46,7.46,0,0,0-.81.1Z"/><path d="M595,355.23l-1.65.81A3.23,3.23,0,0,1,595,355.23Z"/><path d="M595.8,355.13a9.84,9.84,0,0,0,2.06-.26l.13-.36c.6.1,2.21,0,1.35.59,0-.76-1.18-.19-3.5,1l.2,1.15C590.47,359.77,595.9,356.2,595.8,355.13Z"/><path class="cls-2" d="M598.72,357.61l-3.67.56C597.93,356.37,598.55,357.22,598.72,357.61Z"/><path d="M595.91,360.92c-1,.22-1.22-.93-2.35.39-.7.15-.67-.11-.76-.32C593.89,361.28,597.27,358.79,595.91,360.92Z"/><path d="M592.8,361a.44.44,0,0,1-.3-.21A.32.32,0,0,1,592.8,361Z"/><path class="cls-2" d="M573.77,357.14a3,3,0,0,1-1.17.67Z"/><path d="M593.56,364.67l.16.4a.5.5,0,0,0-.31-.23Z"/><path d="M548.38,347.49c-.28,1.82-.67,3.61,2.37,4.5,3.9-2,1.49.23,5.68-1.74-1.55-1.74,6.26,6.31,7.19,3.84l-2,.43,4.35-1.57c-.55,1.48-3.16,4.45-.48,3.91-1.19.83-4.34-8.08-5.35-7.17,4.37-3.13,10.24,8.89,12.51,8.12l-2.43,1.4c3.4.15,7.49-.72,9.87-.35l-2.88,1.8c.53-1.42-1.65-.63-3.42-.91,1.38,1.34-.34,2.57.88,3.5,3.89-2,1.39-2,4.36-1.57-1.42,1.28-6.24,2.41-4.72,3.39-.21,2.21,5.41-1,6.49.25l1-1.72c.47.44,1.82,1,0,2.61,0-.76-3-1.21-6.9.81,1.19.18.39,2.3.85,2.74l-2.9,1.05c-2.28,1.89,1.78.27-.2,2.21,1.91-.08,3.73-2.41,5.05-2.59-.86.62-1.65,2.74.39,2.31,5.62-3.25-2.54-.77,2.62-4.46l-.37,1.81c6.11-2-1.12-2,3.67-3.92,6.4-2-4.66,4.89,3.33,2,1.12-1.32.3-3.32,2.48-4.11-1.79,1.76,2.51.2,3.71.77l-2.1,2.47c2.05-.43,1.88-.83,2.87-1.8a2.84,2.84,0,0,0-.68,2.09,1.29,1.29,0,0,0,.31.85c.34.55.56,1.08-1,3.16.56.09,1.12-.36,1.8-1a20.1,20.1,0,0,1,2.42-2c-1.47,1.44-1.48,1.81-1.13,1.8s1-.38,1.1-.21a34.36,34.36,0,0,0,3.82-3.78,15.63,15.63,0,0,1-2.06,1.27,50.22,50.22,0,0,0,3.75-3.63c-2.9,2.6-2.1,1.63-1.35.83s1.47-1.4-2.07,1l3.21-2.23a15.3,15.3,0,0,1-2.46,1l-.45.28c.56-.32-.07-.1-.72,0-.13.09-.41-.13-.6-.24a2.45,2.45,0,0,1-.55-.45,1.17,1.17,0,0,1-.24-1.28c1.32-.17,1.15,2.79,4.26-.47a1.62,1.62,0,0,1,.73.15.89.89,0,0,1,.24.18c.08.09.1.09.1.09s-.1.16-.25.31-.6.71.15.36c.71-.53,1.42-1,2.15-1.54,1.55-1,1.26-1,.77-.49s-1.2,1.27-.86,1c-.86.94-1.73,1.85-2.61,2.74a24.22,24.22,0,0,0-1.5,2.07c-.31.53-.22.64.86-.59-.23-.05,1.24-1.63,2.3-2.93.71-.78.68-.7.62-.51s-.14.47.31-.18l-.79,1.31a23.88,23.88,0,0,0,1.36-2.15c-.33.65-1.5,3-2.75,5.75a11.9,11.9,0,0,0,1.43-2.76c.09-.25.19-.49.07-.27,1.08-2.19.92-1.88.68-1.3s-.58,1.39.06,0c-.86,1.94-1.48,3.31-2.07,4.75s-1.16,2.94-2,5a27.7,27.7,0,0,0,2-4.34c.73-1.86,1.48-3.73,1.87-4.65-.9,2.51-2.21,6.26-2.28,7.56.92-2.72.48-2.12,1.56-5.14-.22.78-.07.6.27-.41.23-.77.46-1.51.7-2.24-1.09,3.3-1.11,4.71-.36,2.53l.39-1.54v.25l-1.43,5.67c.41-1.37-.7,4,.4-.62l.07-.47L604,369l.2-.77-.52,2.26-.87,3.53c-.07.44-.05.52,0,.35.25-.7.88-3.22,1.37-5.41s.85-4.07.83-3.71a36.63,36.63,0,0,1-1.1,5.63c-.32,1.08-.75,2.49-1.88,7.69-.18,1.53-.12,2.9.48.14s.37-2.66.27-2.62c.7-2.8.73-2.16.91-2s.41-.12,1-4.32c0-1,.13-1.95.23-2.95a27.76,27.76,0,0,1-.2,3.3c-.1,1.62-.11,2.65.16,0q-.5,4.65-1.18,9.45a44.35,44.35,0,0,1,1-4.46,16.84,16.84,0,0,0,.67-3.42c.05-2.52,0-2.43-.11-1.82s-.26,1.76-.22,1.24c.12-1.28.21-2.56.3-3.81.06,1.37.08,2.11.1,2.86a10.57,10.57,0,0,0,.34,2.7l0-3.27c.11,2.43.27,1.13.32.4s.12-1,.31,3.28q-.15-.9-.27-1.83l.2,3.81c.24-1.1.43-2.15.56-3.16.23,2.78.54,1.66.91,5.3,0-1.17,0-2.31-.12-3.44a23.65,23.65,0,0,1,.54,5.61,37.75,37.75,0,0,0,0,5c.28,2.37.54,1.84.63,1.4-.12,2.19-.58,1.15-1-.47s-.81-3.8-1.08-3.64c0,1.22-.08,2.44-.14,3.68l-.18-4.8c-.17,1.07-.3,4.44-.38,6.47-.38-3.06-.63-2.51-1-1.18s-.92,3.4-1.38,3a8.9,8.9,0,0,0,.33-3.86,7.79,7.79,0,0,1-.17-2.3c-.17.1-.71,2.69-1.26,4.55s-1.06,2.94-.72-.35c.2-2.52,1-4.34.73-5.22a30.27,30.27,0,0,0-1.35,6.62,3.71,3.71,0,0,1-1.9,2.15,7.51,7.51,0,0,0-.56-1.41l1-3.57c.25-1.91,0-1.64-.5-.5s-1.26,3.15-1.93,4.92a14.7,14.7,0,0,1,.72-2.59c.66-3.4,0-1.76-.92.21S595,392,594.8,390.48c-1.7,4.69-1.36,6.12-.28,4.39l-1.92,5.32c.89,2.12,2.37,3.17,3.92.81-.47,1.33-.94,2.64-1.43,3.92-.51,3.72-.24,3.57.14,2.52s.9-3,1-2.62c.11,0,.09.67-.11,2.69,1.26-2.9.11-2.81,1.25-6a45.14,45.14,0,0,1-1,6c-.5,2.54-.91,4.86-.4,4.61-.59.81-1.2,1.58-1.83,2.33a22.63,22.63,0,0,1-3.89-5.17c-1.27-2.1-2.52-4.36-3.85-6.34a3.47,3.47,0,0,0-.47,2c-1,1.16-1.74-.13-2.37-2.38s-1.09-5.41-1.54-8.17c-.91-5.56-1.79-9.58-6.13-6.2,1.08-1.36,2.85-1.71,2.15-2.7a8.37,8.37,0,0,0-2.67,2.13c1.52-3.51.68-5-.5-6.61a13.86,13.86,0,0,1-1.65-2.52,3.42,3.42,0,0,1-.24-.7,2.76,2.76,0,0,1-.07-.65,4,4,0,0,1,.37-1.53c-1.58.88-2.77.7-3.92,1.27,3.27-2.86-1.58-2.49.1-4.47l-1.72,1.23-1.44-2.84c-.73.26-.56.66-.7,1-1.19-.18.83-1.37,2.41-2.25l-4.68.77c4.86-7.09-7.94-6.45-5.85-12.86-3.5,1-5.12,1.09-6,.2l-.7,1c-3.23.26,1.59-.87-.2-1.15-2.34.39-4.92,2.24-2.7,2.2a3.71,3.71,0,0,1-3.06,1.32C543.38,357.48,543.92,353.21,548.38,347.49Z"/><path d="M669.18,385.38c-1.38-1.05.36-2.18-2.69-4.36-6.88-3.44-7.45,4.18-13.86,2.28a15.2,15.2,0,0,0-4.38-1.95c.36.47.83,1.06,1.28,1.55-1,.46-1.62,2.32-3.51,1.61.23.76,1.82,3.08,1.84,2.21.31,2.9-5.38-2.36-4.69-.08,1.75,1,1.08,2.55,2.71,3.13-1,1.33-7.12-6.47-8.87-6.57.42.65.85,1.31,1.2,1.33-3.77-2.43-1.86,4.65-6.34-.67l1.37,2.62c-1.91-1.38-2.77-2.69-4.17-2.78.15,1.28,1.63,2,2.1,3-2-2-2.61.11-5.72-2.44-2.79-3.39,4.82,3.65,3,.07-.53-.7-.78-.83-1-.8,4-1.87,14.29,5.63,15,.85,2.54,1.92,1.21-.7-.42-3.28-1.37-.69-4.64-1.83-.83,3l-3.36-2.4c-.14.49-4-4.33-4.78-5,1,.06-2-5.18-4.24-6.26,1.16-1.83,7.64,10.58,8.08,8.22L634.35,375c1.22,2.07,3.74,2.68,3.27,1.15l-.75-.53c5.1-1.41,8.92-7,12.19-11.5,7.92,7.74.65-5.48,7.21.69-.47-1.52-3.1-2.51-3.06-4.27,0-.87,1.87,1.34,2.36,2-.05-.33-.1-.67-.14-1C662.44,369.56,667.62,377.59,669.18,385.38Z"/><path class="cls-1" d="M112.76,352.69c0,2.93-.23,3.92-1-1.67.71,5.58.65,5.53,1,9.36-.54-3.77-.66-3-.75-2.77a27.77,27.77,0,0,0,1.17,4.55c-.39-3.92,0-2.65.31-1.58s.46,2,.46-2c-.15-1-.36-2.89-.61-4.33S112.86,351.83,112.76,352.69Z"/><path class="cls-1" d="M106.06,325.3l.28,2.2a17.92,17.92,0,0,1,1.15-2.17C107.38,326.86,106.61,328.09,106.06,325.3Z"/><path d="M103.69,334.63c-1-4.14-2.22-5.4-3.3-8.94,1.19,3.9,1.1,4.69.69,4.76s-1.18-.51-1.26.42l1.82,5.94c.94,1.64,1.46,1.61,1.88,1a20.84,20.84,0,0,1,1.24-2.25C104.41,335.25,104.05,334.93,103.69,334.63Z"/><path class="cls-1" d="M101.55,331.73l.93,4.28C102.37,334.62,102.76,333,101.55,331.73Z"/><path class="cls-1" d="M108.44,351.77c.25-.08,0-.64-.3-1.41a7,7,0,0,1-.67-2.79A12.34,12.34,0,0,0,108.44,351.77Z"/><path d="M102.48,344.26c0-1.61.14-3.28.26-5-.47-.46-1-.91-1.46-1.32Q101.82,341.2,102.48,344.26Z"/><path d="M97.65,333.36c.24-.41,1.37.89,1.83,3.27-1.15-1.53-1.22-.63-1.22.28s.06,1.85-1,.74L97,335c-1-2-.8-.37-.75.78s-.07,1.86-1.89-1.63A14.38,14.38,0,0,0,97,339.57a10.32,10.32,0,0,1,2,4.58c.07-2.66,1.42-2.26,2.57-2-.85-1.23-.79-.81-1.61-1.57.33-1,0-4.6.35-6.27-1.14-2.34-1.39-2.05-1.54-1.48S98.52,334.28,97.65,333.36Z"/><path d="M94.41,337.64c-.79.77-1.84,2.53,1.17,7.32,1.38,1.09,1.4.67,1-.39s-1.27-2.72-1.76-4c.67.45,1.4-.22,2.71,2.8C96.81,342.48,95.75,339.06,94.41,337.64Z"/><path d="M91.53,341.36c.81,1.58,1.63,3.12,2.48,4.62l-.24-1.13,2.09,2.69c-.48-.73-4-6.15-3.19-7C90.83,338.92,92.55,341.74,91.53,341.36Z"/><path d="M105.65,360.61c-1.58-1.56-.86-.21-.18,1.13a4.34,4.34,0,0,0-.68-3.2l.48.75-2.83-6c.74,1.83.27,1.91.21,2.47S103,357.27,105.65,360.61Z"/><path d="M106.21,360.34c.48.9,1,1.77,1.47,2.63C107.18,362.11,106.69,361.24,106.21,360.34Z"/><path d="M90.39,345.8c.64-.2,1.27-.39,1.88-.54l-1.13-.69Z"/><path d="M100.4,354.84c-.43.17.22.76.92,1.42s1.41,1.4,1.21,1.7c.25.58.41-1.06-.9-3C101,354.49,102.92,357.86,100.4,354.84Z"/><path d="M89.55,346.68c.55,1.3,1.12,2.55,1.71,3.76C90.67,349.23,90.1,348,89.55,346.68Z"/><path d="M86.05,348.94l1.68,1.79c-1.12.09-1.3,1.14-1.75,1.88s-1.19,1.22-3.62.5c2.56,1.25,4.78,3.56,6.1,2.89-1.21-1-1-1.4-2.52-2.33.74-.21,2.4,1.05,3.23,1.19a2.32,2.32,0,0,1-.5-2.37,2.26,2.26,0,0,0-.34-2.26c.2.67-.25.41-.6.5-1.19-2.08.2-1.62,1.23-1.17s1.74.8-.61-1.91c.63,1,0,.92-.8.82S85.86,348.24,86.05,348.94Z"/><path d="M98.51,359.1l1-.14c2.27,2.31-.32,1,1.86,2.88,1.47,1.11,2.4,1.18,3.28,2.2-5.59-4.87.08-1-6.25-6.25-.19-1.64,3.5,2.85,3.64,1.72-.89-1.05-1.78-2.12-2.66-3.21.41,1.31,0,1.34-.46,1.42S98.05,357.9,98.51,359.1Z"/><path d="M96.07,361.38c-.74-.28-1.49-.55-2.25-.8l3,1.48c0,.25-.28.36-.66.4s-.89,0-1.56,0a35.33,35.33,0,0,1-4.59-.67c-3.22-.62-6.23-1.27-5.73-.11,3.13,3.89-3.77,2.44-4.1,4.59,2.14,2.24,2-.07,3.62.67,4.93,2.87-3.12-.52.82,2,3.62,2,4.93.17,7.55.53-.17-.95-1.31-1.53-3.28-2.82,2.13.89,3.11.51,5.25,1.4-2.14-2.91,3.68-.85,1.31-3.85,3,1,0,1.33.65,1.08l.33-.8-.49-.16c-1.16-1.24-.79-2.09,0-2.23a6,6,0,0,1,3.11.38c-1.07-.27-3.47-1.31-4-2.31,1.1.52,2.19,1.05,3.28,1.61-1.34-1.26-2.63-2.61-3.89-4,1.23,1.47.29,1.36-.32,1.48S93.23,359.59,96.07,361.38Z"/><path d="M102.12,364c1,.16-.13-.61-1.27-1.42s-2.32-1.63-1.34-1.68l-.3,1.37Z"/><path class="cls-1" d="M90.89,365.93l-2.62-.36C93,367.49,87.6,363.11,90.89,365.93Z"/><polygon class="cls-1" points="89.42 368.85 85.48 366.29 87.45 368.25 89.42 368.85"/><path d="M83,368.91c1.81,1.68,4,1.89,3.78.93C86.31,370.37,84.34,369.76,83,368.91Z"/><path class="cls-1" d="M72.74,369.13c.68-1.34-1.64.65-4.9-2.24C69.52,368,71.54,369.87,72.74,369.13Z"/><path d="M60.65,368.36c-.55-.9.29-.71,1.34-.25A1.15,1.15,0,0,1,60.65,368.36Z"/><path d="M82.14,358.35a.66.66,0,0,1,.36-.41C82.39,358.09,82.26,358.21,82.14,358.35Z"/><path d="M81.91,358.62l.23-.27A.51.51,0,0,1,81.91,358.62Z"/><path d="M67.85,363.92s0,0,0,0c.16,0,.26,0,.45.11Z"/><path d="M102.55,323.23a2.37,2.37,0,0,1,.26-1.12c-.08.38-.16.78-.25,1.16C102.56,323.26,102.55,323.25,102.55,323.23Z"/><path d="M105.23,332.21c.27,2.75-.47.35-1.36-2s-1.91-4.68-2-2.18a44.9,44.9,0,0,1,.67-4.75,17.74,17.74,0,0,1,1.35,5A11.54,11.54,0,0,0,105.23,332.21Z"/><path d="M101.65,351.25c0,.08,0,.09.06.18S101.7,351.48,101.65,351.25Z"/><polygon class="cls-1" points="147.16 358.32 147.99 357.33 147.8 359.29 147.16 358.32"/><path class="cls-1" d="M148.52,356.42l.11-3.09,9.06,6.47L156.28,361C154.92,362.85,149.59,354.6,148.52,356.42Z"/><path class="cls-1" d="M146.82,357.65c-4.22,3.43-.15-2.64-3.57-.57,2.28-1.38,4.53-3.14,4.33-1.55Z"/><path class="cls-2" d="M137.43,363.25c.22-1.21-1.76.1-1.51-.74C138.68,359.47,137.39,362.5,137.43,363.25Z"/><path d="M126.3,374.3a.25.25,0,0,1-.24-.15,7.24,7.24,0,0,0,.71-.41Z"/><path d="M126.77,373.74l1.18-1.42A3.4,3.4,0,0,1,126.77,373.74Z"/><path d="M126.06,374.15a10.79,10.79,0,0,0-1.77,1.08l0,.38c-.58.15-2,.92-1.47,0,.33.68,1.16-.31,2.81-2.29l-.65-1C129.06,367.75,125.54,373.22,126.06,374.15Z"/><path class="cls-2" d="M122.39,373.07l3.13-2C123.62,373.88,122.71,373.36,122.39,373.07Z"/><path d="M123.62,368.91c.85-.62,1.5.35,2-1.31.58-.42.66-.17.82,0C125.32,367.76,123.24,371.4,123.62,368.91Z"/><path d="M126.43,367.59a.41.41,0,0,1,.36.07A.35.35,0,0,1,126.43,367.59Z"/><path class="cls-2" d="M145.39,363.39a3.12,3.12,0,0,1,.8-1.09Z"/><path d="M124.25,364.53l-.31-.3a.52.52,0,0,0,.38.08Z"/><path d="M172.52,361.93c-.48-1.78-.85-3.57-4-3.16-2.75,3.43-1.46.4-4.49,3.9,2.12,1-8.28-3.24-8.13-.6l1.7-1.23-3.34,3.21c-.1-1.58,1.09-5.35-1.15-3.77.76-1.25,7.25,5.62,7.8,4.39-2.73,4.63-13-4-14.73-2.37l1.66-2.25c-3.17,1.24-6.56,3.68-8.88,4.31l1.89-2.81c.09,1.51,1.77-.09,3.51-.56-1.81-.66-.74-2.48-2.23-2.84-2.74,3.42-.45,2.41-3.35,3.2.79-1.74,4.73-4.72,3-5-.71-2.1-4.53,3.14-6.05,2.41l-.18,2c-.6-.22-2.07-.21-1-2.4.33.67,3.23-.11,6-3.54-1.16.32-1.29-1.94-1.89-2.16l2.22-2.14c1.32-2.65-1.73.47-.7-2.1-1.72.85-2.44,3.72-3.58,4.41.54-.91.41-3.17-1.29-1.94-3.81,5.24,2.63-.33-.58,5.13l-.4-1.81c-4.76,4.36,1.85,1.41-1.77,5.07-5,4.43,2.28-6.36-3.85-.48-.5,1.66,1.06,3.15-.61,4.76.93-2.33-2.37.83-3.7.8l.91-3.11c-1.69,1.22-1.38,1.52-1.89,2.81a2.9,2.9,0,0,0-.22-2.19c-.1-.32-.37-.47-.63-.65-.54-.36-.95-.76-.41-3.28-.54.14-.87.79-1.25,1.61a19.84,19.84,0,0,1-1.42,2.78c.77-1.91.62-2.25.31-2.11s-.8.78-.92.64a34.35,34.35,0,0,0-2,5,17.23,17.23,0,0,1,1.37-2c-.85,2-2.2,5.22-2,4.84,1.6-3.55,1.26-2.34.89-1.31s-.77,1.88,1.49-1.77l-2,3.34a13.15,13.15,0,0,1,1.86-1.87l.29-.43c-.38.51.11.06.66-.29.09-.13.43-.05.65,0a2.91,2.91,0,0,1,.69.19,1.18,1.18,0,0,1,.73,1.08c-1.13.69-2.17-2.09-3.7,2.15a1.56,1.56,0,0,1-.73.16,1.24,1.24,0,0,1-.29-.06c-.11-.06-.13-.05-.13-.05s0-.19.1-.38c.15-.39.26-.9-.28-.27s-.88,1.52-1.34,2.28c-1,1.56-.76,1.38-.5.76s.58-1.65.38-1.27c.4-1.2.83-2.39,1.27-3.55a23.51,23.51,0,0,0,.53-2.5c.07-.62-.05-.68-.54.88.22-.05-.48,2-.92,3.61-.33,1-.33.91-.36.71s-.06-.48-.21.3c0,0,.1-.81.19-1.52-.16.81-.28,1.65-.37,2.52,0-.73.17-3.33.19-6.37a11.28,11.28,0,0,0-.19,3.1c0,.26,0,.52,0,.27-.1,2.44-.07,2.09-.08,1.47s0-1.51-.06,0c0-2.12,0-3.62,0-5.18s-.13-3.16-.16-5.34a27.49,27.49,0,0,0,0,4.76c.08,2,.15,4,.17,5-.2-2.67-.51-6.62-1-7.84.25,2.86.41,2.13.65,5.33-.12-.8-.18-.58-.09.49.11.79.2,1.56.27,2.33-.34-3.46-.89-4.76-.69-2.47l.27,1.57-.12-.22-1-5.77c.18,1.42-1-3.95-.12.73l.13.47.16,1.09.13.78-.44-2.27-.64-3.58c-.11-.43-.16-.5-.16-.31,0,.74.5,3.3.94,5.5s.87,4.07.74,3.73a35.94,35.94,0,0,1-1.27-5.6c-.15-1.11-.33-2.58-1.4-7.79-.45-1.47-1.06-2.7-.49.07s.74,2.58.82,2.5c.49,2.85.19,2.27,0,2.2s-.32.27.87,4.34c.34.91.66,1.84,1,2.79a29.64,29.64,0,0,1-1.16-3.09c-.56-1.52-1-2.47-.13.09Q110.28,359.7,109,355c.56,2.46.73,3.55.86,4.5a17.07,17.07,0,0,0,.77,3.4c1,2.33,1,2.22.84,1.62s-.48-1.72-.31-1.22c.42,1.21.84,2.42,1.28,3.6-.61-1.23-.93-1.9-1.25-2.58a11,11,0,0,0-1.41-2.33l1.37,3c-1.09-2.18-.71-.93-.47-.24s.3,1-1.6-2.87l1,1.56-1.73-3.4c.22,1.1.48,2.14.76,3.11-1.33-2.44-1.16-1.3-3-4.47.49,1.06,1,2.09,1.51,3.09a22.69,22.69,0,0,1-2.76-4.91,39.83,39.83,0,0,0-2-4.59c-1.22-2.06-1.24-1.47-1.15-1-.78-2.05.07-1.29,1.1,0s2.28,3.15,2.46,2.89c-.46-1.12-.92-2.27-1.36-3.43l2.11,4.33c-.28-1.05-1.52-4.19-2.28-6.08,1.6,2.65,1.6,2,1.43.67s-.54-3.48,0-3.32A8.76,8.76,0,0,0,106.4,350a7.55,7.55,0,0,1,1.09,2c.12-.15-.44-2.74-.69-4.66s-.22-3.13.8,0c.84,2.39.84,4.38,1.45,5.07a30.82,30.82,0,0,0-1.45-6.6,3.69,3.69,0,0,1,.87-2.74,7.17,7.17,0,0,0,1.08,1.07l.48,3.69c.55,1.84.67,1.49.67.25s-.13-3.39-.24-5.28a13.85,13.85,0,0,1,.4,2.66c.77,3.38.7,1.62.76-.56s.23-4.81,1-3.52c-.35-5-1.24-6.14-1.52-4.12l-.4-5.65c-1.67-1.57-3.45-1.94-3.91.85-.12-1.41-.21-2.79-.29-4.16-1-3.61-1.22-3.37-1.14-2.25s.37,3.09.14,2.8c-.09.08-.36-.57-1-2.5,0,3.16,1,2.61,1.27,6a43.22,43.22,0,0,1-1.5-5.88c-.57-2.52-1.14-4.81-1.51-4.37.22-1,.46-1.94.73-2.88a22.43,22.43,0,0,1,5.65,3.15c2,1.41,4.08,3,6.1,4.24a3.5,3.5,0,0,0-.39-2c.42-1.45,1.65-.59,3.14,1.22s3.18,4.5,4.71,6.84c3.09,4.71,5.52,8,8.12,3.19-.44,1.67-1.92,2.71-.87,3.34a8.67,8.67,0,0,0,1.58-3c0,3.82,1.4,4.84,3.13,5.83a14,14,0,0,1,2.53,1.64,5.2,5.2,0,0,1,.51.55,3,3,0,0,1,.32.56,4.09,4.09,0,0,1,.28,1.55c1.09-1.44,2.25-1.76,3.08-2.75-1.84,3.94,2.44,1.63,1.71,4.13l1.07-1.83,2.47,2c.56-.54.25-.83.23-1.21,1.16-.32-.21,1.59-1.3,3l4-2.6c-1.56,8.46,9.88,2.68,10.56,9.39,2.81-2.3,4.24-3.07,5.45-2.63l.22-1.21c2.86-1.54-1.09,1.45.65,1,2-1.31,3.59-4,1.58-3.11a3.69,3.69,0,0,1,2.26-2.44C173,350.77,174.27,354.89,172.52,361.93Z"/><path d="M46.72,376.22c1.69.4.56,2.15,4.23,2.9,7.68.36,5.11-6.84,11.75-7.69a15.19,15.19,0,0,0,4.79,0c-.52-.29-1.19-.64-1.8-.9.7-.81.54-2.77,2.56-2.89-.52-.61-2.91-2.08-2.58-1.28-1.45-2.52,5.88,0,4.32-1.82-2-.17-2-1.9-3.74-1.76.41-1.64,9.13,3,10.77,2.41-.65-.43-1.31-.86-1.64-.73,4.43.69-.18-5,6.07-2l-2.31-1.84c2.3.49,3.62,1.34,4.93.85-.66-1.11-2.3-1.16-3.12-1.87,2.62,1,2.34-1.16,6.22-.09,3.92,2-5.89-1.38-2.77,1.16.76.42,1,.43,1.21.33-2.93,3.34-15.34.64-14.06,5.3-3.09-.72-.81,1.13,1.72,2.83,1.53.07,5-.21-.44-3.06l4,.84c-.07-.51,5.42,2.34,6.4,2.64-1,.37,4,3.92,6.41,4-.32,2.15-11.27-6.57-10.72-4.23l3.82,2.27c-2-1.39-4.5-.93-3.45.27l.9.19c-4.1,3.35-5.32,10-6.49,15.45-10.37-3.87,1.62,5.28-6.87,2.29,1,1.2,3.86,1,4.53,2.66.33.81-2.25-.46-3-.86.17.29.35.57.53.86C59.29,388,51.31,382.71,46.72,376.22Z"/><path class="cls-1" d="M257.53,360.34c2.43,3.26,4.22,10.14.47,10.64,3.85-.5,3.82-.38,7.43,3.74-2.52.42-1,4.55.08,7.1a11,11,0,0,0,.68-4.61c0-.92-.09-1.95-.22-3.13s-.18-2.51-.29-4a5.41,5.41,0,0,1-1.82-2.09,9.88,9.88,0,0,1-.86-2.71,14.32,14.32,0,0,1-.13-3.09c.05-1.06.08-2.14.22-3.22a38.64,38.64,0,0,0,.42-6.19,7.68,7.68,0,0,0-2.08-5.09c-.88,1.88-2.15,3.78-3.2,5.87a10.06,10.06,0,0,0-1,3.27A7.29,7.29,0,0,0,257.53,360.34Z"/><path class="cls-1" d="M246.39,391.76l1.78.48-1.52-2.63-1.4-2.7c-.46-.91-.94-1.82-1.39-2.74l-1.26-2.8a14,14,0,0,1,1.5,2.42c.52,1,1.14,2.15,1.59,3.26a15.42,15.42,0,0,1,1,3C246.84,390.9,246.79,391.53,246.39,391.76Z"/><path d="M267.44,423.55c-1.44.42-1.61,2.06-1.6,3.8s.11,3.59-.93,4.36a2.37,2.37,0,0,1,2.94-.47,8.67,8.67,0,0,1,2.71,2.8c.85,1.3,1.85,2.72,2.82,4.1a23.42,23.42,0,0,0,1.5,1.93,11.35,11.35,0,0,0,1.61,1.47c1.52-.55,3-1.13,4.5-1.72a14.4,14.4,0,0,0-2.44-4.61c-.58-.84-1.24-1.7-2-2.59l-1.13-1.34-1.16-1.43a98.59,98.59,0,0,1-9.59-12.67c.4,1.09.87,2.14,1.34,3.19Z"/><path class="cls-1" d="M271,433.05l2.16.36,2.18.28c-1.26-.73-3-2.33-4.09-3S269.66,430.23,271,433.05Z"/><path class="cls-1" d="M278.45,418c-1.08-1.5-1.52-2-1.68-1.92s-.07.69,0,1.31c.21,1.24.24,2.67-2.42-.12C276.49,418.92,278.5,421,278.45,418Z"/><path d="M295.75,446.43c-1.24-.7-2.55-1.34-3.76-2.1l-3.7-2.24c-2.39-1.61-4.84-3.2-7.13-5,.66,1,1.28,2.14,2,3.17l2.13,3.1A106.19,106.19,0,0,0,295.75,446.43Z"/><path d="M291.23,454.62c-2-1.44-4.05-4.89-.4-4.14a9.75,9.75,0,0,0,2.92,3.61,17.89,17.89,0,0,0,3.52,1.88,35.28,35.28,0,0,1,3.55,1.62,11,11,0,0,1,3.2,2.92c-1.95-.44-3.84-1.05-5.79-1.58-.29.87.35,1.5,1.42,2a22.51,22.51,0,0,0,4,1.35,9.79,9.79,0,0,1,3.6,1.61c.82.71,1.11,1.64.36,3.07,4.63-.39,3.74-2.3,3.18-3.88s-.89-2.88,4.22-2.33a39.1,39.1,0,0,1-11.26-5.35,72.34,72.34,0,0,1-8.74-7.31c1.05,2.41,2,2.63,4.09,5.27-4.82-2.68-12.08-5.59-17.35-9.7,0,2.74,1.56,4.28,3.55,5.63,1,.69,2,1.4,3.08,2.21A11.36,11.36,0,0,1,291.23,454.62Z"/><path d="M316.92,469.11a46.09,46.09,0,0,0,4.85,1.86,25.91,25.91,0,0,0,5.28,1.2,18.05,18.05,0,0,0,2.49.15,9.48,9.48,0,0,0,2.21-.33,4.93,4.93,0,0,0,3.1-2.15,9.88,9.88,0,0,0-3.51-2.16,4.49,4.49,0,0,0-2.65-.1c-1.61.42-3,1.64-4.74,2.17-.78-.69-2.61-1.61-3.82-2.55s-1.78-2-.21-2.71c.24.65-1,1.13-2,1.77S315.92,467.72,316.92,469.11Z"/><path d="M340.7,476.3c1.74-1.15,3.46-2.44,5.11-3.67l-3,.37.12-3.11a13.5,13.5,0,0,1-2.78,3,8.25,8.25,0,0,1-3,1.43,7.28,7.28,0,0,1-1.9.22,9.19,9.19,0,0,1-2.16-.36,3.87,3.87,0,0,0,3.63,1.57A6.33,6.33,0,0,1,340.7,476.3Z"/><path d="M345.31,455.38a6.72,6.72,0,0,0,4.53,1.65,38.08,38.08,0,0,0,5.18-1c-1.42,0-3-.06-4.58-.1s-3.18-.24-4.66-.28-2.83-.19-4-.12a5.06,5.06,0,0,0-2.52.59l.6-.67s-.36.09-1,.2-1.46.31-2.47.56-2.18.59-3.37.9a34.57,34.57,0,0,0-3.62,1.16c3.36-.56,7.34.82,10.59,1.21a6.75,6.75,0,0,0,4-.38C345,458.48,345.46,457.35,345.31,455.38Z"/><path d="M338.24,453.69c1.51-.48,3-1.09,4.49-1.68C341.26,452.6,339.75,453.21,338.24,453.69Z"/><path d="M360.27,476.83c-3.21-.56-6.39-1-9.52-1.82L353,476.5C355.42,476.69,357.85,476.72,360.27,476.83Z"/><path d="M350,463.29c3.43.57,2.54-.35,1.63-1.34s-1.81-2.05,1.32-1.76c.87-.19-1.43-.3-4.05-.2s-5.58.33-6,1.25c.76.58,2.5.12,4,.06S349.79,461.49,350,463.29Z"/><path d="M366.59,477l3.83-1.92c1.26-.62,2.5-1.27,3.72-2-1.22.72-2.46,1.37-3.72,2Z"/><path d="M386.73,476.4l1-2.6a22.81,22.81,0,0,0,3.05-.19c1-.16,2.06-.42,3.1-.69s2.1-.57,3.14-.89l3.07-1c1-.34,2-.61,3-.9a23.15,23.15,0,0,1,2.92-.68,15.41,15.41,0,0,1,2.86-.17,10,10,0,0,1,2.76.41c-1.2-1-1.05-2.71-1.45-3.87s-1.28-1.77-4.49-.9c-.37,1.79-2.62,2.64-1.61,4.19-2.89.55-3.06-1.66-5.09-1.79a11.72,11.72,0,0,1-3.48,2.4c-1.35.6-2.8,1.09-4.23,1.56s-2.87.8-4.14,1.3a11.62,11.62,0,0,0-3.26,1.78c1.82-.83,2.37-.49,3.83-.52a10.09,10.09,0,0,1-2.6,1.54,7.11,7.11,0,0,1-2.3.39,9.85,9.85,0,0,1-3.63-.83c-2-.83-3.35-1.49-4.82,2.06,1.38-1.21,3.47-.79,5.73-.45a28.83,28.83,0,0,0,3.44.42A6,6,0,0,0,386.73,476.4Z"/><path d="M382.8,461.16c-2,.13-4.07.16-6.08.24.69-1.68,2.44-2,4.11-2.34s3.21-.7,3.36-2.16c-.38-.84-2-1.14-3.3-1.47s-2.27-.74-1.37-1.54c.35,3.6-1.61,4-3.07,4.51s-2.53.84-.42,4.63c-3.86.94-4.59,0-5.34-1.19s-1.55-2.27-5.52-1.82c-.7,1.3-1.42,2.59-2.17,3.89,1.15-.28,2.17-.44,3.11-.58a21.94,21.94,0,0,1,2.57-.32c1.58-.11,2.94,0,4.29,0a29.44,29.44,0,0,0,4.31-.18A24,24,0,0,0,382.8,461.16Z"/><path d="M405.38,455c1.23.31,2.47.62,3.73.91-1-.78-2-1.59-2.92-2.39a25.67,25.67,0,0,1,4.5-1.76c.75-.21,1.52-.36,2.27-.5s1.5-.28,2.25-.38c3.06-.32,6.06-.38,9-.41,1.47,0,2.87-.1,4.26-.2a23.42,23.42,0,0,0,3.91-.57c2.4-.63,4.56-1.56,5.91-3.44,2.82-5.32,6.83-8.64,11.27-12s9-6.82,12-11.81c.3-3.19-.78-2.25-2.18-.67s-3.23,3.79-4.11,3.48c-1.83-2.35-.48-2.95,1.08-3.62a5.52,5.52,0,0,0,2.08-1.26,2.16,2.16,0,0,0-.08-2.54c-.77-.71-1.77-.62-2.9-.06a21,21,0,0,0-3.81,2.63c-1.32,1.15-2.82,2.34-4.22,3.41a15.35,15.35,0,0,1-4,2.38c-2.09,3.36-1.19,4.12-.31,6.63-1.2-.42-2.61,0-4,.36s-2.87.65-4,.16a11.17,11.17,0,0,1-3.4,4.38,14.57,14.57,0,0,1-2,1.37c-.71.37-1.42.71-2.13,1.05s-1.41.67-2.1,1a21.58,21.58,0,0,0-2.06,1.2,14.69,14.69,0,0,0-3.81,3.94c-1.89-.65-.73-1.58.59-2.21s2.76-1.09,1.57-.52c-1.13.89-2.37,1.62-3.55,2.43l.66.19a10.82,10.82,0,0,1-1.56,2.09,15.37,15.37,0,0,1-2.18,1.76,21.49,21.49,0,0,1-2.57,1.48c-.92.4-1.87.77-2.82,1.08a24.81,24.81,0,0,1-5.55,1.19,15.92,15.92,0,0,1-4.26,0,6.46,6.46,0,0,1,3.83,1c.77.64.83,1.65-.65,2.78-1.38-.76-2.74-1.54-4.06-2.33l-1.29,1.94-1.37,1.86c-.93,1.23-1.87,2.52-2.87,3.74,2.31-2.61,5.59-2.74,8.2-3.31S406.24,458.24,405.38,455Z"/><path d="M395.32,452c-4.36.45-3.69,1.66-3.13,2.94s1.05,2.67-3.88,3.17c3.27-1,6.47-2.18,9.62-3.48C397.05,453.73,396.18,452.87,395.32,452Z"/><path class="cls-1" d="M436.32,437.6l5.1-1.41c-2.73-.94-4.17,1-4.9,2.47S435.8,440.88,436.32,437.6Z"/><path class="cls-1" d="M447.93,425.18q1.08,2.44,2,4.9c.34-1.69.53-3.46.76-5.15Z"/><path d="M461.69,415.4c-.12-2.18-1.17-2.56-2.35-1.95a9,9,0,0,0-3.45,4,6.93,6.93,0,0,1,3.37-2.7A1.93,1.93,0,0,1,461.69,415.4Z"/><path class="cls-1" d="M481.38,393.82c-1.4,4.18-.51,2.44,1,.53a7.89,7.89,0,0,1,2.46-2.3c.82-.31,1.62.07,2.16,2-.78-.88-1.5-2.61-2.36-3.25a1,1,0,0,0-1.42.06A9.31,9.31,0,0,0,481.38,393.82Z"/><path d="M498.15,366.85a6.71,6.71,0,0,1-.17,3.81,2.21,2.21,0,0,1-1.49,1.38,25.29,25.29,0,0,1,.71-3.23A4.57,4.57,0,0,1,498.15,366.85Z"/><path d="M431.81,455.63a16.51,16.51,0,0,1-2.53,1.63Z"/><path d="M433.47,454.55l-1.66,1.08A18.3,18.3,0,0,1,433.47,454.55Z"/><path d="M482.45,409.66v0a7.12,7.12,0,0,1-.7.47Z"/><path d="M254.34,414.88a16,16,0,0,1-2.16-3.31c.66,1.12,1.43,2.2,2.16,3.25C254.35,414.85,254.34,414.86,254.34,414.88Z"/><path d="M257.91,407.87a5,5,0,0,1,2.11,3.44,16.36,16.36,0,0,1-.36,4c-.35,2.89-.5,6.53,3.67,10.41-1.54-1.65-3.19-3.31-4.64-5.17-.73-.93-1.48-1.86-2.23-2.81s-1.41-2-2.12-3c.44-3.92,1.62-3.12,2.5-2.66.45.23.82.39,1-.13S258,410.35,257.91,407.87Z"/><path d="M325.69,458.75a2.42,2.42,0,0,0,.38,0C326.7,458.78,326.36,458.82,325.69,458.75Z"/><path class="cls-1" d="M372.27,183l.53-1.37q1.88,3.47,3.54,6.68Z"/><path class="cls-1" d="M372.53,179.72q-3.39-5.86-7.33-12.39l44.25,50.77-2.63-.34c-.61,1.07-8.62-8.57-16.52-18.15l-6.21-7.48c-2.19-2.62-4.23-5-6-7C374.62,181.06,372.37,178.74,372.53,179.72Z"/><path class="cls-1" d="M369.75,179.59c-2.31.65-3.55-.69-4.9-2.92s-2.73-5.24-4.48-7a21.16,21.16,0,0,0-2.44,4.57c.82-2,1.62-4,2.44-6,2.17-.08,4.54.84,6.91,5.14Q368.62,176.62,369.75,179.59Z"/><path class="cls-2" d="M357.09,188.3c-.86.18-1.69,1.62-2.36,2.91s-1.2,2.49-1.76,2.53c-.47-2.62.3-3.88,1.28-4.5S356.4,188.69,357.09,188.3Z"/><path d="M358.31,210.93c0,.17-.1.25-.18.28,0-.43-.05-.82-.06-1.12Z"/><path d="M358.07,210.09l-.62-2.11A4,4,0,0,1,358.07,210.09Z"/><path d="M358.13,211.21a9.23,9.23,0,0,0,.41,2.54l.24.14a11,11,0,0,0,.24,1.33c.09.37.11.52-.21.09.37,0-.25-1.21-1.47-3.76l-1.06.72c-1.8-2.62-1.39-3-.55-2.57S357.73,211.37,358.13,211.21Z"/><path class="cls-2" d="M355.79,216.25l.34-1.76c.12-.37,0-.41-.1-.57l-.22-.41a12,12,0,0,1-.74-1.86,6.11,6.11,0,0,1,1.84,2.53,1.16,1.16,0,0,1,0,.59v0l-.15.2-.36.46Z"/><path d="M346.78,220.67c.17-1.77,4.37-6.18.77-4.41.12-1.21,1-2,1.81-2.95C347.33,217,353,216.72,346.78,220.67Z"/><path d="M349.36,213.31a8.08,8.08,0,0,1,1-1.46A6.12,6.12,0,0,1,349.36,213.31Z"/><path class="cls-2" d="M376.29,195.51c-.16-.93.11-1.3.56-1.42Z"/><path d="M335.79,227.73l-1.54,1.76a10.69,10.69,0,0,0,1.09-1.55Z"/><path d="M459.42,287.65h0l10.35-7.39-9.12-14.06c-4.49-6.91-8.64-13.55-18.05-21-3.17,3.06-4-2.81-8-.34,8.4,8.92-32-33.27-27.12-24.58l3.43.91-5.47.67c-2.91-5.21-5.32-13.69-9.92-15,.39-1.77,32.6,37.86,32.34,35.54-.55,3.45-12.61-8.72-24.92-21.74s-25-27-26.11-26.53c.39-1,.76-2,1.11-3a27.55,27.55,0,0,0-9.52-3.66c-2.53-.46-4.52-.48-6.41-1.2-.19-2-.43-4-.7-6,1.51,2.63,2.46,3.29,3.59,3.65a14.08,14.08,0,0,1,4.36,1.58,44.36,44.36,0,0,1-5.19-6.32c-1.3-1.9-2.39-3.69-3.72-5.46a30.25,30.25,0,0,0-2.95,3.58c.33,3,1.29,2.7,1.53,2.87s.06.29-.34,1.08-1.15,2.16-2.31,4.46c-.89-.38-.74-3.12-.85-5s-.65-2.76-3.34,1.1a15.58,15.58,0,0,0-3.64,4.79,15.28,15.28,0,0,0-1.23,4.41c-.42,2.84-.42,5.49-2.64,8.39q2.14-1.24,4-2.24a46,46,0,0,1-2.89,4,9.66,9.66,0,0,1-1.92,1.71,4.37,4.37,0,0,1-.55.32l-.66.37a6.4,6.4,0,0,1-1.42.52,10.42,10.42,0,0,0,1.06-1.26,11.52,11.52,0,0,0,.88-1.44,21.81,21.81,0,0,0,1.52-3.68c.83-2.7,1.36-6,.16-7.94a28.63,28.63,0,0,1-5.22,6.22,68.65,68.65,0,0,0-5.34,5.46l-1-3.52c-4.54.88-2.57,5.29-7.55,7.06-1.46,4.41,5.06.87,4.46,3.52-1.37,0-8.06,5.29-8.41,8.81,6.25,2.64,5-8.81,13.21-8.81l-6,5.29c1.63,7.93,8.16-9.71,10.39-4.43,1.18,8.82-12.88,5.32-10,15,3.59-1.76,11.31-10.58,12.09-7.94-4.5,1.6-3,6.8-6,11.68l-6.75,3.32c-.35,3.53,1.2,1.76,3.68.88-9.43,5.3-17.16,21.17-29.95,29.11-4.81,7.06,1.46,2.64.68,7.05-5.91.9-8.41,8.82-11.49,12.35-1.12.88.16,5.29,2.22,5.28l5.84-10.57c1.19,1.76,4.89,2.63,7.29-.88-7.63-2.65,14.32-9.72,8.41-15.88l2.83,2.64L325.92,248h-.69c.94.88,6.27-11.47,13-16.76-.6,2.65-10.81,12.34-2.24,8.82-2.32,6.17-12.18,12.35-18.27,22h3.42c-2.2,5.15-6.23,9.78-10.71,14.26-2.24,2.25-4.59,4.46-6.89,6.69-1.14,1.11-2.28,2.23-3.38,3.35l-1.61,1.7-.79.86-.38.43-.2.23c-.13.14-.24.29-.36.44h0l-1.62,1.73-.54.61c-.34.39-.67.78-1,1.18l-.27-2.32-.12-1.17V290s.08-.13.11-.2l.25-.43.14-.48L294,288l-.64.5a6,6,0,0,0-.86.72l-.08.07h0l-.05,0-.08,0-.18.08-.36.17-1.49.68c-.5.23-1,.47-1.51.74a15.8,15.8,0,0,0-1.39.91,8.11,8.11,0,0,0-2.21,2.24,5.35,5.35,0,0,0-.74,3.05c2.64-3.72,2.77-.58,3.51,1a14,14,0,0,1-1,2.18c-.39.73-.79,1.49-1.26,2.22-1,1.47-2,3-3.07,4.64-2.1,3.25-4.31,6.83-5.22,10.79,0,0-.54-.67-1.16-.57-.12.72-.26,1.42-.35,2.14l-.25,2.15-.25,2.13-.13,2.14a11.07,11.07,0,0,1-1.46,2.17,8.78,8.78,0,0,1-1.61,1.51c-1.16.87-2.55,1.5-3.95,2.47.07.8-.12,2.11,0,3.09s.52,1.65,1.66,1.16a4.34,4.34,0,0,0,.64-2c1.39,2.49,1.06,3.13.43,3.91s-1.54,1.67-.64,4.47c-1.37-2.24-2.56-2.13-3.82-1.49s-2.6,1.78-4.23,1.33a6.62,6.62,0,0,0,.42,2,2.56,2.56,0,0,0,.81,1.06,2.4,2.4,0,0,0,2.13.18c.77-.21,1.54-.59,2.22-.85s1.29-.4,1.65-.17a34.86,34.86,0,0,1-1.94,4.55c-.61,1.26-1.17,2.35-1.73,3.45-.27.55-.54,1.11-.78,1.69a19.84,19.84,0,0,0-1.22,6.85c1.06.15,1.23-1.28,1.58-2.84s.72-3.25,1.87-3.58c-.48,2.21-.25,4.84.6,5.17.4-1.6,1-3.19,1.47-4.75a33.92,33.92,0,0,0-1.24,6c-.1,1-.23,2-.23,3s0,2,.09,3a19.86,19.86,0,0,0,.38,3.05c.19,1,.37,2,.65,3.06a35.62,35.62,0,0,0,2.36,6.08l.81-.94.69,2.62c.24.88.55,1.73.82,2.59q-2.13-.3-4.29-.69c1,1.29.87,3,1,4.44s.58,2.63,2.3,2.8l-.15-1.14,1.25,1.53,1.33,1.46c-.84-.32-1.7-.66-2.54-1l-2.48-1.13a5,5,0,0,0,.53,1.89,8.16,8.16,0,0,0,1.3,1.73,23.63,23.63,0,0,0,3.93,3.26c.75.54,1.51,1.08,2.24,1.64s1.54,1.12,2.24,1.73a15.39,15.39,0,0,1,3.58,4.24c-.86,1.07-1.82,1-2.91.23a11.11,11.11,0,0,1-1.71-1.5c-.56-.63-1.14-1.35-1.75-2.08-2.44-2.92-4.94-6.29-8.18-5.42a18.15,18.15,0,0,0,.28,2.47,17.63,17.63,0,0,0,.76,2.57c.59,1.66,1.57,3,2.76,3.26,1.41-1.2.43-2.87-.39-4.65,3.13,2.39,4.94,6.36,7.06,9.92a18.55,18.55,0,0,0,3.56,4.52,6.3,6.3,0,0,0,4.7,1.73l-.44-1.32-.37-1.35-.73-2.67a8.33,8.33,0,0,1,2,3.58,24.68,24.68,0,0,1,.82,3.69c.41,2.29,1,3.92,3,3.33-1.33.19-2.69.37-4.07.53l-2.08.22-2.06.14c.42.18.83.37,1.24.58s.84.38,1.24.6A26.78,26.78,0,0,1,289,424.4c1.54,1,3.11,2,4.59,3s3.05,2,4.56,2.8a21.91,21.91,0,0,0,4.62,1.84c1.17-1.47-.44-2.75-2.32-3.68s-3.89-1.74-3.5-1.87c1.32-.1,2.61-.21,3.88-.33a29.92,29.92,0,0,1,2.55,3.72,10.77,10.77,0,0,1,.76,1.73c.4,1,.84,2.22,5,6.14l1.43-2.14c.55,2.59,4,3.57,6.4,4.14s3.89,1.07.7,3.44l-2-2.8-1.19,2.86a96.09,96.09,0,0,0,12.79,3.29c-2,1.75,4.24,3.16,1.7,5.53,1.85-.34,3.71-.84,5.49-1.26.51,2.44-2,3.09-4.93,3.49s-6.21.3-7.05,1.73c-.56,2,1.95,2.55,3.2,2.68a6.06,6.06,0,0,1-4.32-.78,10.91,10.91,0,0,1-2.82-2.92c-.82-1.12-1.52-2.46-2.4-3.58a10.39,10.39,0,0,0-3.22-2.87c-1.32.36-2.67.71-4,1.06l2-3.32c-2.53-.59-5.73.5-7.35,1.33a8.53,8.53,0,0,0-2.92-4.32,16.78,16.78,0,0,0-4.48-2.57c-1.66-.79-3.49-1.56-5.32-2.59a25.77,25.77,0,0,1-2.66-1.83c-.43-.34-.86-.7-1.28-1.09s-.8-.85-1.17-1.31c1.78,1,2.64,1,2.89.6s-.1-1.24-.56-2.23c-.94-2-2.51-4.33-1.68-4.24a13.28,13.28,0,0,0-3.49-2.29c-1.52-.79-3.19-1.74-4.81-2.74a16.14,16.14,0,0,1-4-3.46,4.48,4.48,0,0,1-.89-4.07c0-1.53,1.36-.87,2.31-.51s1.55.44.26-2.12a15.48,15.48,0,0,0-1.91-1.73,4.93,4.93,0,0,0-1.8-.89c-1.1-.26-1.95.2-2.06,1.74a49.6,49.6,0,0,1-7.16-11.77c-.48-1.1-.95-2.21-1.43-3.32s-.84-2.27-1.28-3.39c-.89-2.24-1.54-4.55-2.34-6.76,1.05.45,2.1.89,3.13,1.31a12.49,12.49,0,0,0-.65-4.22,13.71,13.71,0,0,0-1.91-3.56,25,25,0,0,0-5.18-5.28c.88-1,.06-1.31,1.71-.69,1.38-4-.13-6.1-2.24-8.94a27.24,27.24,0,0,1-2.91-5.1,17.44,17.44,0,0,1-.88-3.49c-.09-.65-.16-1.33-.2-2.05a18.09,18.09,0,0,1,.11-2.28c-1.82.32-2.89,2-3.12,4.07a12.24,12.24,0,0,0,.09,3.35,12,12,0,0,0,1.13,3.26l-4.18-.8A70.73,70.73,0,0,0,245.8,380a52.64,52.64,0,0,0,7,14.67c-1.49-.95-2.84-2-4.28-3-1.35,4.8.57,5.77,2.21,6.6a4,4,0,0,1,2,1.72c.45.88.51,2.23-.12,4.65.91,1.16,1.41,1.42,1.65,1.24s.24-.79.25-1.46c0-1.33,0-2.8,1.67-1.26.26,2.05-1.39,2.58-2.86,3.39s-2.66,1.86-1.18,5a105.11,105.11,0,0,1-14.55-38.83A129.39,129.39,0,0,1,238,330c-.65-.68-1.18.73-1.72,2.14-.7-1.93-.26-6.07,1.28-11.4a87.13,87.13,0,0,1,7.82-18.35,130.67,130.67,0,0,1,12.91-18.93l1.77-2.18c.61-.7,1.22-1.39,1.81-2.08,1.2-1.37,2.35-2.73,3.56-4s2.27-2.54,3.43-3.68l1.65-1.71.79-.83.26-.28c.09-.11.21-.22.28-.32h0c5.36-6.4,8.44-11.62,6.62-14,2.05,0,.6,4.41,4.11,0-.25-.89-.09-2.64-2.14-2.64,13.73-7.07,21.37-25.59,35.44-36.17-1.62-.88.09-4.41-.85-5.29,7-1.76,10.12-12.34,15.53-15H327.8L342,178.6c.09-1.29-2,1.12-3.4,2.33,1.44-2.44,2.68-3.37,3.63-3.43s1.66.71,2.2,1.46q2.21-6.09,5.2-13.09a67.08,67.08,0,0,0,10.72-9,176.59,176.59,0,0,0,13.73,16c4.83,5.06,10,10.17,15.5,15.68l2.05,2.08.26.26.19.19.38.36.75.73,3,2.94c2,2,3.9,4,5.75,6.07a82.89,82.89,0,0,1,9.86,13.33c5.24.67,8.56,2.25,13.16,7l-1.28-3.17c6.64,3.16-1.12,1.48,3.69,4.86,4.24,1.47,4.88-2.61-.05-5.31-1.2-3.29,1.06-2.55,3.24-1.32,13.29,16.15,24.09,32.52,30.09,49.66l6.42,18.33-7.65,3.12Z"/><path d="M487.47,280.34c0,1.65-1.71-.61-3.43-2.2s-3.38-2.59-3.12,1.17c.36,1.33.7,2.72,1.1,4.1s.89,2.77,1.35,4.21c.92,2.86,2,5.77,3.09,8.81,2.16,6.06,4.55,12.47,6.38,19.19a111.63,111.63,0,0,1,3.84,20.47,62.34,62.34,0,0,1-1.21,19.36c-1.46,3.14-2.14,5.07-2.83,6.92s-1.16,3.62-2.19,6.29a3.71,3.71,0,0,0,2,.06c-.26,1.57-.47,3.39-.68,5.34s-.6,4-1,6c-.81,4.08-1.95,8.11-3.7,10.89.22,1.92,2.53,4.06,2.85.48a15,15,0,0,1-.52,3.56,18.33,18.33,0,0,1-1.28,3.07,22.92,22.92,0,0,1-1.67,2.68c-.63.82-1.29,1.59-1.94,2.32-2.53,2.95-5.09,5.12-5.19,8,1.8-1.73,1.93-.4,2,.84.07.62.11,1.2.38,1.35s.79-.13,1.71-1.28a10.18,10.18,0,0,1-1.75,2.92,8.68,8.68,0,0,1-2.1,1.8A11.77,11.77,0,0,1,475,418.3a37.64,37.64,0,0,0-4.75.83,9.71,9.71,0,0,0-2.18.94,8.33,8.33,0,0,0-2,1.66c.42.79.82,1.62,1.86.45-4,2.42-7.12,7.81-10.34,12.23a24.63,24.63,0,0,1-4.8,5.16c-1.59,1.06-3.07,1.34-4.47.29-.05,1.46-.13,2.93-.27,4.37a21.47,21.47,0,0,1-4.47.28,10.8,10.8,0,0,0-5.09,2c-2.17,3.33,1.77,1.88,1.39,3.6-1.52-.54-4.11,1-7.09,2.62a38.81,38.81,0,0,1-4.73,2.08,11.13,11.13,0,0,1-4.74.52c-1.27-1.8,1.18-1.59,4.24-1.79s6.7-.92,7.27-3.94c-.43-.78-1.1-.57-1.9-.08q1.83-1.29,3.67-2.47t3.61-2.4c1.24-.74,2.4-1.55,3.6-2.31s2.43-1.47,3.57-2.26,2.34-1.53,3.52-2.27,2.3-1.56,3.45-2.32c2.33-1.52,4.49-3.18,6.67-4.82,1.1-.81,2.1-1.71,3.13-2.58s2.08-1.75,3-2.7a54.17,54.17,0,0,0,5.34-5.92c.8-1.05,1.59-2.11,2.31-3.21s1.34-2.26,1.95-3.43c.31-.58.6-1.17.88-1.77s.51-1.22.74-1.84c.47-1.24.88-2.51,1.24-3.8a6.26,6.26,0,0,0,3.1-5.4,9.31,9.31,0,0,0-2.11-5.17c-.65.77-1.48,1.93-2.36,3.23a26.29,26.29,0,0,0-2.45,4.15c-1.33,2.83-1.77,5.58,1,7-2.11,1.43-4.34,2.73-6.46,4-.9,2.29-6.31-.8-7.67-.45a4.72,4.72,0,0,0,1-3,5.82,5.82,0,0,0-.83-3c-1.06-1.66-3-2.35-5.22-.48,2.06-4.8,4.63-2.67,7-.34,1.17,1.16,2.28,2.38,3.31,2.69a1.44,1.44,0,0,0,1.48-.33,4.91,4.91,0,0,0,1.25-2.45q-1.69-1.62-3.42-3.19c.69,1.35,2.39.28,3.93-1.64a16.06,16.06,0,0,0,1.87-3.32,6.72,6.72,0,0,0,.66-3.21l-1.26,1a88.89,88.89,0,0,0,6.37-20.6,103.07,103.07,0,0,0,1.5-23.5,109.91,109.91,0,0,0-3.83-23.68,112.57,112.57,0,0,0-8.31-21.38c3.53-5.53.12-10.34-3.75-14.34-.94-1-2-2-2.89-3-.46-.49-.89-1-1.29-1.48s-.81-1-1.16-1.48a9.1,9.1,0,0,1-1.43-3.22,7.59,7.59,0,0,1,.06-3.75c-1.61-.87-1.65.69-1.93,1.9s-.79,2.08-3.2.06-.46-4,.27-4.44l-2.53-1.63c3.29-4.35,7.46-7.29,13.62-7.1S478.13,271.37,487.47,280.34Z"/></svg>