<svg id="Capa_1" data-name="Capa 1" xmlns="http://www.w3.org/2000/svg" viewBox="0 0 681 681"><defs><style>.cls-1{fill:#fff;}.cls-2{fill:none;stroke:#000;stroke-linecap:round;stroke-linejoin:round;stroke-width:0;}</style></defs><title>iconos_home2</title><path class="cls-1" d="M359.69,326.84c3.84-1.92,11.82-1.33,11,2.43.86-3.77.81-3.8,6.71-5.52-.62,2.5,4.25,2.9,7.32,3.4a11.44,11.44,0,0,0-4.35-2.9,34.61,34.61,0,0,0-3.42-1.27c-1.32-.38-2.82-.79-4.54-1.26a9.32,9.32,0,0,1-6.16.94,57.37,57.37,0,0,1-7-1.55,33.42,33.42,0,0,0-7-1.34,8.36,8.36,0,0,0-5.84,1.85,63.11,63.11,0,0,1,6.25,3.47A10.48,10.48,0,0,0,359.69,326.84Z"/><path class="cls-1" d="M383.25,348.57l1.22-1.26c-3.51-.05-7,0-10.45,0C376.26,346.57,383.38,346.74,383.25,348.57Z"/><path d="M415.86,355.24c-1.91,2.2,2.16,5.84,1,8.15,1.06-2.64,3-2.06,5.26-.69s4.61,3.7,6.76,4.37l3.6-3a10.75,10.75,0,0,0-3.2-3.46,29,29,0,0,0-2.45-1.65c-.9-.52-1.88-1-2.9-1.5-2-1-4.26-1.94-6.5-2.93s-4.58-1.8-6.74-2.78Z"/><path class="cls-1" d="M422.22,361.64l3.88-1.3C423.52,360,418.17,358,422.22,361.64Z"/><path class="cls-1" d="M422.59,345c-1.72-.89-2.38-1.07-2.49-.92s.33.59.73,1.13c.8,1.08,1.55,2.19-2.19,1.13C421.32,346.62,424.13,347.75,422.59,345Z"/><path d="M446.88,367.33c-5-2-9.79-4.18-14.83-5.86l2.45,2.32c.82.77,1.62,1.54,2.39,2.37Q441.83,366.7,446.88,367.33Z"/><path d="M442.78,375.71c-1.67-1-3.62-4-.35-3.84a8.92,8.92,0,0,0,1.23,1.79,7.69,7.69,0,0,0,1.35,1.28,13,13,0,0,0,3,1.54,17.26,17.26,0,0,1,3,1.43,6.31,6.31,0,0,1,2.42,2.81c-1.58-.57-3.25-1-4.87-1.47-.36.85.12,1.42,1,1.88a11.63,11.63,0,0,0,1.52.63l1.72.67c2.29.93,4.31,2.1,2.32,4.63,4,.05,3.8-1.76,3.68-3.33s-.16-2.87,4.36-1.63a49,49,0,0,1-9.19-6.27c-2.69-2.13-5.09-4.42-7.73-6.79,1,2.21,1.83,2.45,3.63,4.88-4.19-2.6-10.94-4.16-16.06-6.55.37,2.54,1.84,3.55,3.66,4.43S441.39,373.48,442.78,375.71Z"/><path d="M462.21,390.25c1,.86,2.06,1.82,3.24,2.73a41.51,41.51,0,0,0,3.67,2.48c2.46,1.43,5,2.06,7.16.7-1-3.11-2.33-4.07-3.82-4.24s-3.12.44-4.75.48c-.73-1.59-4.63-5.09-1.39-5.79C466.27,387.91,461.49,387.34,462.21,390.25Z"/><path d="M477.05,403.94c1.89-.2,3.79-.37,5.71-.54l-2.28-1.16,1.91-2.45a17.31,17.31,0,0,1-3.76,1.18,6.67,6.67,0,0,1-5.85-1.71C473.23,402.78,475.83,401.24,477.05,403.94Z"/><path d="M492.6,389.21a7.59,7.59,0,0,0,2.86,4.22,17.14,17.14,0,0,0,2.19,1.32l2.65,1.51c-2.21-2.11-5-4.54-7.43-6.56a34.52,34.52,0,0,0-3.39-2.49,5.11,5.11,0,0,0-2.55-.9l.87-.26a44.19,44.19,0,0,0-10.73-2.32c3.25.83,6.22,3.91,8.81,5.88S490.58,392.67,492.6,389.21Z"/><path d="M487.08,383.68c1.67.36,3.38.68,5,1.09C490.46,384.36,488.75,384,487.08,383.68Z"/><polygon points="489.04 414.46 484.59 407.75 484.99 410.08 489.04 414.46"/><path d="M491.64,398.4c1.11,1.26,1.62,1.61,1.87,1.46s.25-.81.23-1.48c-.07-1.3-.08-2.76,2.14-.45,1.65.8-6.86-6.45-8.61-5.28C487.91,394.36,493.67,395.33,491.64,398.4Z"/><path d="M492.25,418.5l6.73,2.81Z"/><path d="M500.92,432.25l2.62-.4c1.15,3.07,3.47,5.92,5.46,8.76a16,16,0,0,1,2.24,4.44,8.18,8.18,0,0,1,.14,4.68c1.83-2.43,6.42-.89,4.12-6.07-1.75.1-2.79-1.59-4.13-.32-.81-2.3,1.16-3,.9-4.79-2.23-1-3.86-3-5.41-5s-3.15-3.79-5-4.39c1.38.95,1.2,1.58,1.71,2.66-3.73-1.49-3.81-4-3.91-5.88s-.14-3.29-3.7-2.28a2.5,2.5,0,0,1,1.75,1.3,11.24,11.24,0,0,1,.92,2.5C499.1,429.33,499.55,431.3,500.92,432.25Z"/><path d="M513,422.21l-3-5.17c3.53-.47,4.58,5.58,7.42,4.64,1.23-1.36-1.81-6.63.55-5.67-6.12,3.87-5.39-6.21-9.72,1.29-5.59-5.23,1.89-4.63-3.72-10.54-1.46.27-2.9.54-4.35.85a23.78,23.78,0,0,1,6.53,7.17c.74,1.09,1.41,2.23,2.34,3.45A24.73,24.73,0,0,0,513,422.21Z"/><path d="M525.05,441.44l-.49,3.63,2.05-3.06a14.68,14.68,0,0,1,2.06,4.21,20.86,20.86,0,0,1,.88,4.35,29.42,29.42,0,0,1,.11,4.29c-.08,1.42-.28,2.83-.46,4.18-.77,5.42-1.72,9.94.64,13a15.8,15.8,0,0,1,4.32,5.72,30.19,30.19,0,0,1,1.68,6.75c.18,1.15.33,2.32.48,3.48s.22,2.36.37,3.53a25.88,25.88,0,0,0,1.7,6.84c1.08.87,1.57,1,1.84.74s.22-1,.06-1.93c-.29-1.76-.93-4.11-.16-4.63,2.92-.27,2.58,1.08,2.15,2.54s-.93,3,1.58,3.42a2.48,2.48,0,0,0,2-2,14.84,14.84,0,0,0,.26-4.27c-.07-1.63-.25-3.41-.35-5.08,0-.84-.07-1.66-.07-2.41a11.24,11.24,0,0,1,.1-2.06c-1.93-3.28-3.1-2.76-5.69-2.94,1.78-1.71,1.1-5.54,2.76-7.3-3.1-2.94-3.66-5.92-4.27-8.94s-1.51-5.92-4.82-8.55c1.67-3.62,3.2,4.89,2.43,2.38l-2-3.73-.25.64c-2.74-1.79-4.87-5.21-6.23-8.84-.65-1.83-1.31-3.59-1.71-5.23a23.07,23.07,0,0,1-.73-4.17c.68,3.05-.46,6.1-3.11,3.78l1.55-4.35c-2.76-1.13-5.7-2.09-8.53-3a7,7,0,0,1,3.3,2.84,20.89,20.89,0,0,1,1.62,3.67C521,441.15,521.92,442.75,525.05,441.44Z"/><path d="M526.12,430.93c-3.6-8.42-3.87,3.94-8.11-5l3.11,4.06c1,1.36,2.1,2.69,3,4.11Z"/><path class="cls-1" d="M538.48,472.21c-.19,1.64-.31,3.23-.59,4.88,2-2.08.58-4-.46-5S535.58,470.89,538.48,472.21Z"/><path class="cls-1" d="M544.39,486.84c-1.71-.19-3.41-.36-5.16-.5,1.33.91,2.53,1.88,3.8,2.84Z"/><path d="M543.35,502.12c3.15,2.37,4-1.8,2.46-5.2C546.54,500.18,545.05,502.4,543.35,502.12Z"/><path class="cls-1" d="M539.73,526.23c-.6-3.34-.62-1.8-1.12,0s-1.48,4-4,2C536.74,528.76,540,531.72,539.73,526.23Z"/><path d="M531.45,548.85c-1.07-2.25-.31-3.26.8-3.68C532.28,546.87,532.12,548.24,531.45,548.85Z"/><path d="M522.84,465.48a11.23,11.23,0,0,1-1-2.21Z"/><path d="M523.48,466.92l-.64-1.44A10,10,0,0,1,523.48,466.92Z"/><path d="M531,517.22s0,0,0,0a5.14,5.14,0,0,1,.32-.61Z"/><path d="M402.06,356.6a15.49,15.49,0,0,1-3.16-.77l3.13.72A.13.13,0,0,1,402.06,356.6Z"/><path d="M400.59,349.23c3.27-.45,4.22,1.66,5.44,4.14s2.74,5.22,7.48,5.92c-1.87-.39-3.76-.83-5.67-1.3s-3.82-1-5.81-1.44c-1.73-3.05-.57-3.31.3-3.59S403.75,352.41,400.59,349.23Z"/><path d="M473.41,382.92a3.57,3.57,0,0,0,.35.1C474.33,383.26,474,383.19,473.41,382.92Z"/><polygon class="cls-1" points="166.4 411.33 167.3 412.26 162.58 414.89 166.4 411.33"/><path class="cls-1" d="M168.57,412.42l1.92-1.14,2-1.08,3.92-2.13a219.23,219.23,0,0,0-31.44,39.48l-.62-2.36c-.6-.17.64-2.42,2.78-5.7,1-1.66,2.42-3.49,3.91-5.45l2.3-3c.79-1,1.66-2,2.49-3,3.29-4.08,6.86-7.89,9.33-10.78S169.2,412.51,168.57,412.42Z"/><path class="cls-1" d="M168.82,409.22c-.11-3.63,1.76-4.79,3.82-5.87a19.37,19.37,0,0,0,3.12-1.85,7.07,7.07,0,0,0,2.33-3.64c-.69,2.33-1.08,4.48-1.78,6.26a6.85,6.85,0,0,1-3.5,4.14Z"/><path class="cls-2" d="M174.57,389.63c2.9-1,4.08-5,5.85-5.44C182.25,388,176.85,388.43,174.57,389.63Z"/><path d="M170.63,372.54a5,5,0,0,1,1.07-.94,10.54,10.54,0,0,0-.64,1.53Z"/><path d="M171.06,373.13l1.11,1.48C171,374.7,170.79,374.08,171.06,373.13Z"/><path d="M171.7,371.6a14.6,14.6,0,0,0,1.61-3.73l-1.23.61c1.14-1.51,2.79-4.69,4.11-4.39-3.05,2-2.3,3-.8,5.12,1.6-1.09,3.17-2.21,4.79-3.25C183,371.49,176.07,368.71,171.7,371.6Z"/><path class="cls-2" d="M185.51,359.41l-2.79,6.34C179.38,364,183.67,360.69,185.51,359.41Z"/><path d="M195,357.88c-.61,1.6-5.55,4.47-1.78,3.89-.4,1.09-1.39,1.58-2.38,2.21C193.61,361.17,188.29,359.72,195,357.88Z"/><path d="M190.87,364a8.85,8.85,0,0,1-1.26,1.07A4.88,4.88,0,0,1,190.87,364Z"/><path class="cls-2" d="M156.79,414.36c.79-.18,1.11.13,1.24.63Z"/><path d="M207,355l1.92-1a10.89,10.89,0,0,0-1.45,1Z"/><path d="M127.77,502.47c3.11-5.94,6-11.34,7.7-20.91-2.06-.77-2-1.78-1.86-2.9a3.06,3.06,0,0,0-1.69-3.54c-.95,2.35-.56,1.3.48-1.49.52-1.4,1.18-3.25,2-5.31l2.68-6.61,5.22-12.24c1.25-3.08,1.58-4.7.08-3.21l.41,3.16q-1.27-2.3-2.53-4.63c.46-.45,1-.91,1.49-1.37s1.13-.88,1.72-1.33c1.17-.89,2.37-1.79,3.44-2.71,2.11-1.87,3.87-3.69,3.8-5.84.86.06-5.5,8.48-10.8,17.5-2.65,4.5-5.22,9-6.84,12.46-.83,1.7-1.5,3.09-1.87,4.05s-.44,1.46-.21,1.35c-.8.14-1.09-.6-1-2a30,30,0,0,1,1.62-6,126.43,126.43,0,0,1,8.86-18.53l3-4.95,1.48-2.45,1.54-2.34,2.95-4.48c1-1.42,1.93-2.73,2.8-4l2.37-3.46c.73-1,1.39-1.94,1.91-2.72,1-1.57,1.63-2.62,1.54-3l2.55,1.33c.7-2,1.35-3.8,1.89-5.59s1-3.53,1.5-5.23a47.28,47.28,0,0,1,3.85-9.58l3.45,1.43a8.15,8.15,0,0,0-3.78,4.14c-.68,1.56-1.17,3.31-2.37,5.6a34,34,0,0,1,6.76-6.13,26.92,26.92,0,0,0,5.83-4.83c-3.06-3.12-5.67,2.21-1.05-5.21,3-.15,2,7,7,1.6,3.73-2.43,4.35-4.46,4.7-6.7a15.76,15.76,0,0,1,.77-3.4,7.7,7.7,0,0,1,1-1.8A10.49,10.49,0,0,1,192,378.8l-2.65.91-2.61,1,1.91-1.78A28.07,28.07,0,0,1,191,377c1.72-1.19,3.61-2.12,5.43-2a16.06,16.06,0,0,0-4.86,5.34c-1.34,2.35-1.84,5-.42,6.64a10.36,10.36,0,0,1,2.22-2.13c1-.68,2.09-1.35,3.21-2,2.25-1.27,4.46-2.47,5.61-3.31l.3,3.49c4.16.69,3.22-3.89,7.89-3.81,1.08-1.69,0-2.34-1.18-2.83s-2.54-.76-2-1.87c.59.22,2.67-.22,4.7-1.12s4-2.25,4.65-3.7c-2.39-2.41-4-.85-5.91.89a11.53,11.53,0,0,1-3.2,2.31,5.75,5.75,0,0,1-4.49,0c1.08-.47,2.14-1,3.22-1.42l3.27-1.31c.22-3.86-2.16-2.4-4.7-.65s-5.07,4-5.54,1.19c.4-4.23,3.62-4.48,6.68-4.69a8.55,8.55,0,0,0,4.08-1,3.71,3.71,0,0,0,1.31-1.62,7.27,7.27,0,0,0,.54-2.86c-3.69.19-12.85,5.67-12.91,3.05,2.21-.06,3.33-1.3,4.38-3.05s2.08-4,4.18-5.63l7-.48c1.39-3.08-.51-2.06-3-2.19a19.81,19.81,0,0,0,3.84-.92,36.72,36.72,0,0,0,4.07-1.49c1.39-.6,2.8-1.27,4.25-2l4.51-2.1c1.54-.71,3.1-1.44,4.71-2.12s3.27-1.22,4.94-1.74a33.67,33.67,0,0,1,10.27-1.74c3.5-1.76,3.53-2.47,3-3.21s-1.68-1.48-.32-3.1c2.63,1.22,5.35.54,8-.61s5.2-2.58,7.32-3.14c1.31-.08,2.68-4.4,1.08-5.6-3.43,1.79-6.84,3.47-10.17,5.33-.07-2.13-2.62-4.87-6.38-3.2,2.49,3.19-1.67,3.16-6.17,3.76a21.18,21.18,0,0,0-6.3,1.41c-1.64.85-2.56,2.13-2,4.17l-1.28-3.65c-2.08,1.33-4.17,2.61-6.21,4l-6,4.19.6.29c-.12-.3-.8,0-1.88.69s-2.5,1.79-4.16,3-3.57,2.41-5.47,3.63a25.93,25.93,0,0,1-5.83,2.81c.68-1.1,4.11-2.93,6.26-4.48s3.12-2.72-1.39-2.8a14.92,14.92,0,0,1,4.37-3.08,54.15,54.15,0,0,1,6.12-2.6c2.26-.81,4.66-1.67,7.08-2.69a53.72,53.72,0,0,0,7.29-3.47l-3-1.62a27.14,27.14,0,0,1,3.81-2.64,38,38,0,0,1,4.38-2c1.54-.59,3.13-1.12,4.75-1.61s3.32-.83,5-1.21l5.1-1.06,5.11-.9c1.69-.31,3.35-.66,5-1s3.23-.72,4.76-1.19l-2.85,4.31c2.33.16,5,.64,7.56.59s4.92-.47,6.67-2.37c-5.24,1.16-2.93-1.33-2.25-3a27.32,27.32,0,0,1,5.85-1.91c2.16-.46,4.51-.72,6.93-1l3.69-.43,3.78-.37a71.37,71.37,0,0,0,7.54-1.24s-.43.8,0,1.29c3.43-.93,6.9-1.91,10.39-2.78,5,.47,6.78,2.53,9.8,4.84,1.81-.45,6.31-.27,4.63-2.41a6,6,0,0,0-2.58-.25c5.38-3.77,3.67,1.23,10.39-1-5.26,3.15,1.38,4.69.58,8.06,3.8-.44,4.09-1.9,3.53-3.44s-2-3.16-1.45-3.89a49.71,49.71,0,0,1,9.72,4,32,32,0,0,0,9.59,3.45c.82-2-6.38-2.22-6.92-4.63,2.6.88,5.74,1.07,6.33.38l-5.57-2.35a118.6,118.6,0,0,0,14.25,4.33,75.15,75.15,0,0,0,7.43,1.34c2.53.41,5.15.76,7.91,1l-.6-1.21c2.2.56,4.42,1,6.59,1.68-1.1,1-2.21,2.05-3.3,3.12a5.58,5.58,0,0,1,2.66.6c.83.37,1.62.84,2.37,1.23,1.5.79,2.87,1.27,4.23.06l-1.21-.63,4.72.08-5.55,2.36a8.46,8.46,0,0,0,4.58,1c1.77,0,3.72-.16,5.83-.35a48,48,0,0,1,6.62-.22,15.49,15.49,0,0,1,3.38.49,17.06,17.06,0,0,1,3.3,1.16c0,1.4-1,1.83-2.52,1.78a50,50,0,0,1-5.82-1c-4.43-.82-9.26-1.57-10.8,1.44,2.56,2,7.07,4.69,9.4,3.61.27-1.82-1.81-2.56-3.89-3.3a17.81,17.81,0,0,1,6.72,1c2.22.81,4.43,1.88,6.57,2.85,4.32,1.86,8.21,3.65,11.8,2.05l-4.79-4.52c3.45,1.18,5.52,3.86,7.14,5.91s2.83,3.56,4.75,2.39l-4,1.69-3.94,1.85a22.74,22.74,0,0,1,3,.19c1,.16,1.94.38,2.92.63,1.94.51,3.89,1.17,5.82,1.85l2.87,1c.93.37,1.85.73,2.77,1.06a32.17,32.17,0,0,0,5.43,1.53c1.06-1.62-1.1-2.83-3.4-3.67s-4.75-1.31-4.38-1.51c1.41-.33,2.78-.57,4.19-.85,4.1,3.63,4.44,4.51,5,5.54a10.09,10.09,0,0,0,1.55,2c.87,1,2.27,2.39,4.64,4.58l1.5-2.11a5.75,5.75,0,0,0,2.87,3.28,46,46,0,0,0,4.28,2.13c2.64,1.22,4.19,2.12.44,3.68l-1.91-3.31-1.52,2.72,6.56,3.37c1.11.55,2.18,1.16,3.24,1.78l3.21,1.85c-2.54.94,3.41,4.76,0,6,2,.36,3.92.82,5.86,1.3-.52,2.49-3.19,1.84-6.1,1s-6.06-1.93-7.3-.77c-1.09,1.71,1,3,2.08,3.52-3.46-.64-4.57-2.92-5.49-5.57s-1.74-5.51-4.28-7.38l-4.12.5,2.31-3.1c-2.56-.88-5.88.09-7.46.88-1.16-3.84-4-5.45-7.53-6.5s-7.5-2.05-11.37-4.6c3.93.78,3.29-.58,1.82-2.2s-3.74-3.49-2.92-3.64a13.3,13.3,0,0,0-4.17-1c-1.74-.18-3.7-.3-5.57-.54a17.52,17.52,0,0,1-5.07-1.26,4.7,4.7,0,0,1-2.89-3c-1.64-2.64,6-.61.7-3.62-3.83-1-7-.09-5.35,2.54-1-.26-2.1-.55-3.17-.88s-2.17-.59-3.27-.93c-2.21-.66-4.44-1.42-6.69-2.22-1.12-.42-2.27-.76-3.42-1.12L392,338.24l-3.43-1c-1.14-.34-2.28-.67-3.42-.9.93-.66,1.87-1.32,2.8-1.92a11.59,11.59,0,0,0-8.26-1.72,17.34,17.34,0,0,0-6.94,2.54c-.59-1.17-1.19-.5,0-1.84-3.28-2.74-5.92-1.88-9.12-.69s-7,3-12.91,1.78c.35,3.64,5.53,4.68,9.53,3.42l-1.55,3.94c1.26.2,2.54.32,3.82.53s2.57.42,3.87.6c2.6.39,5.24.61,7.81.93a117,117,0,0,0,14.45.94l-4.44,1.89c2.7,3.64,4.23,2.69,5.75,1.84s3-1.67,5.24,2.33c5.13.19-2.75-3.17,1.31-3.63,3,2.25-3,6.5,2.37,8.59l-4-1-2-.5-2-.42q-4.07-.85-8.19-1.82c-5.56-1-11.17-2.25-16.89-3a201.75,201.75,0,0,0-34.19-2.61c-.43.76.73,1.06,1.88,1.37-1,.67-2.77,1-5.18,1.08a84.45,84.45,0,0,1-8.86,0c-1.72-.08-3.53-.06-5.43-.13s-3.87-.18-5.88-.15H302c-2.09,0-4.18.13-6.28.19-4.21.11-8.33.6-12.2,1-1.93.26-3.77.63-5.52,1s-3.4.68-4.89,1.16a28,28,0,0,0-7.09,3c-1.64,1.17-2.48,2.44-2.32,3.8-1.53-1.16,1.4-3.92-3.06-2.32-.18.86-1,2.19.52,3.34a23.63,23.63,0,0,0-9.85.8,35.24,35.24,0,0,0-4.93,1.72c-1.63.67-3.28,1.4-4.93,2.18l-4.9,2.51-2.49,1.21c-.83.43-1.65.85-2.48,1.25-1.67.81-3.36,1.55-5.1,2.19a43.34,43.34,0,0,1-5.27,1.74c1.15,1.43-1.13,3.81-.53,4.95-3.16-.6-6,1.23-8.62,3.17s-5,4.26-7.57,4.56c.8.28,1.62.6,2.42.9-3.92,2.74-7.83,5.5-11.56,8.49.14.86,1.69-.31,2.76-.79-1.85,2.69-3.84,1.27-5.21.06-.78,2.47-1.42,5-2.06,7.54-9.52,3.1-16.62,11.29-22.73,20.26-1.49,2.29-3,4.53-4.5,6.85s-3,4.59-4.48,6.85-3.1,4.45-4.77,6.57a54.16,54.16,0,0,1-5.4,6.06,17.17,17.17,0,0,1,.76,6.17,14.18,14.18,0,0,1-.62,2.94,23.23,23.23,0,0,1-1.28,3.32l2.2-1.69c0,6.11-1.72-.64-2.69,4,.46,3.75,4.25,3.43,4.55-1.09,2.32-1.61,2.6.4,2.45,2.4l-1.57,2.55-.8,1.26-.75,1.28c-1,1.7-2,3.37-3.12,5s-2,3.3-3.11,4.9l-1.61,2.38c-.51.81-1,1.6-1.57,2.39A148.09,148.09,0,0,1,127.77,502.47Z"/><path d="M519.4,604.13c2-1.36,0,7,4.42,3.64,4.86-5.85,6.76-14.82,7.77-24.1.51-4.66.82-9.41,1.28-14a72.31,72.31,0,0,1,2.27-13.29,22.14,22.14,0,0,0,2.34-5.1c.43-1.39.72-2.72,1.3-4.8a5.25,5.25,0,0,0-2,.27,38,38,0,0,0-.3-3.84c-.21-1.39-.45-2.86-.65-4.34a29.55,29.55,0,0,1-.13-8.31c-1-1.16-3.89-1.61-2.8.7-1.83-3.17-1-6.28-.22-9.11s1.53-5.31,0-7c-1.05,3.7-3.34-2.6-3.87,1.62a5.8,5.8,0,0,1,.35-4.34,12.49,12.49,0,0,1,2.6-3.34c2.07-2.09,4.38-4.11,4.13-7.14-.84-.11-1.69-.23-1.6,1a7.71,7.71,0,0,0,.33-2.92,16,16,0,0,0-.64-3.09c-.62-2.08-1.57-4.19-2.38-6.16-1.78-3.86-3-7.13.06-8.79L528,480.34c.94-3.49,2.64-3.46,1.51-8.26-2.29-2.41-2.29,1.19-3.72.59,2.12-2.46-2.88-9.32-1.18-14.64,1.88-1.15,1.39,1.11,1.06,3.8s-.52,5.79,2.12,6.64c.85-.27.82-.88.55-1.62,3.87,9.37,4.23,18.85,4.16,27.5,0,2.17,0,4.28.09,6.33s.06,4.11.26,6.08a46,46,0,0,0,1,5.79,27.23,27.23,0,0,0,1.86,5.62c-1.13,2-.77,3.5.13,4.65a8.79,8.79,0,0,0,4.18,2.39c1-3.09,1.89-11.94-4.09-10.69.9-1.92,1.87-3.9,2.64-5.85-.81-1.77,5.17-3.36,5.91-4.46.16,1.86,2,3.4,3.85,3.86a3.56,3.56,0,0,0,2.65-.3,3.42,3.42,0,0,0,1.57-2.71,4.75,4.75,0,0,1,.35,2.76,2,2,0,0,1-1.07,1.4c-1.06.58-2.72.53-4.35.46-3.26-.14-6.44-.39-4.73,3.53l4.59.2c-1.34-.52-2.09,1.15-2.25,3.21a11.87,11.87,0,0,0,.2,3.2,5.91,5.91,0,0,0,1,2.57l.67-1.29c1.23,11.34,2.71,24.43,3.47,37.94.5,6.76.61,13.62.54,20.37s-.41,13.4-1,19.7c-5.88,2.23-5.71,6.76-5.44,11.46s.61,9.49-4.45,11.1c.71,3.05,4.8-2.79,4.7,2.69-.06,2.77-2.92,2.19-3.66,1.85.06.85.11,1.71.17,2.58A20.85,20.85,0,0,1,527.62,622C524,618,521.32,612.18,519.4,604.13Z"/><path class="cls-1" d="M404.64,342.39c-3.43,3.86-13.13,7.51-13.89,3.65.39,1.89.6,2.84-.07,3.86a7.71,7.71,0,0,1-1.73,1.73,39.65,39.65,0,0,1-3.61,2.51c-.41-2.55-6.39-.54-10.34.17,3.54,1.32,8.18,1,17.29-.69a10.9,10.9,0,0,1,3-2.32,20.39,20.39,0,0,1,3.81-1.71c1.37-.49,2.86-.84,4.36-1.27s3.06-.81,4.61-1.21l2.32-.61,2.23-.74a36.81,36.81,0,0,0,4.16-1.7,12.2,12.2,0,0,0,5.65-5.23,33.05,33.05,0,0,1-4.37.59l-2.24.17c-.76,0-1.53.07-2.28.14a22.36,22.36,0,0,0-4.51.75A16.63,16.63,0,0,0,404.64,342.39Z"/><path class="cls-1" d="M367.54,333.92l-.89,1.63c1-.31,2-.59,3.05-.93l3-1.07,3-1.07c1-.38,1.95-.8,2.93-1.2a15,15,0,0,1-2.55,1.46A31,31,0,0,1,372.5,334a15.38,15.38,0,0,1-3.27.59C368.32,334.55,367.69,334.36,367.54,333.92Z"/><path d="M326.82,336.74c1.58-2.55-4.34-5.43-3.63-7.91a2.37,2.37,0,0,1-2.05,2.21,9.28,9.28,0,0,1-3.94-.79c-.75-.28-1.53-.61-2.32-.94l-2.35-1.13a20.27,20.27,0,0,0-4.43-1.62c-1.14,1.12-2.32,2.24-3.51,3.35a10.49,10.49,0,0,0,1.94,1.75,18.83,18.83,0,0,0,2.74,1.54c1,.49,2.15,1,3.36,1.42s2.53.8,3.89,1.18c5.42,1.6,11.8,2.44,17.6,3.45C331.66,338.44,329.22,337.59,326.82,336.74Z"/><path class="cls-1" d="M317.38,331.33c-1.4.59-2.83,1.22-4.26,1.76C316.3,333.2,323.18,334.49,317.38,331.33Z"/><path class="cls-1" d="M321.88,348.07c2.41.58,3.27.69,3.37.51s-.6-.55-1.26-1c-1.34-.94-2.59-1.94,2.3-1.5C322.94,346.23,319.12,345.6,321.88,348.07Z"/><path d="M286.75,326.75a151.52,151.52,0,0,0,19,5.79l-3.47-2.28-1.72-1.14-1.67-1.22c-2-.13-4-.21-6-.43Z"/><path d="M290.07,318c2.11,1.13,4.95,4.2,1.1,4a13.54,13.54,0,0,0-3.57-3.27,20.81,20.81,0,0,0-3.78-1.7,24.12,24.12,0,0,1-3.68-1.73,10.88,10.88,0,0,1-1.71-1.3,9.37,9.37,0,0,1-1.47-1.89c1.9.74,3.89,1.31,5.82,1.92.6-1.79-2.54-2.47-5.27-3.7a9.55,9.55,0,0,1-3.4-2c-.69-.85-.77-1.85.24-3.11-4.5-.53-4.17,1.43-3.88,3.15s.46,3.16-4.86,1.2c2.24,1.28,4.19,2.65,6.07,3.93s3.62,2.58,5.33,3.84,3.35,2.54,5,3.83L287.2,325c-1.59-2.37-2.62-2.61-5.14-5.25a43.3,43.3,0,0,0,4.5,2c.81.31,1.63.65,2.5.92l2.64.81c3.52,1.15,7.25,2,10.54,3.12-1-2.62-2.94-3.59-5.26-4.41a29.59,29.59,0,0,1-3.55-1.52A10.45,10.45,0,0,1,290.07,318Z"/><path d="M266.06,300.87c-4.62-4.26-11.26-11.07-15.94-9.18,1,3.72,2.65,5,4.33,5.5s3.49.15,5.32.4c.44,1,1.78,2.55,2.58,4s1.11,2.52-.74,2.66C261.58,302.82,267.09,304.11,266.06,300.87Z"/><path d="M249.43,282.89c-2.07-.25-4.21-.52-6.26-.91.79.66,1.59,1.31,2.43,1.91l-2.18,2.22a16.86,16.86,0,0,1,4.19-.34,9.35,9.35,0,0,1,3.19.82,8.51,8.51,0,0,1,3.2,2.48,4,4,0,0,0-2-3.35A5.71,5.71,0,0,1,249.43,282.89Z"/><path d="M231.83,295.15c-.19-.64-.39-1.21-.61-1.75a11.66,11.66,0,0,0-.68-1.51,11.81,11.81,0,0,0-1.76-2.46c-.68-.75-1.49-1.44-2.34-2.23s-1.8-1.63-2.84-2.63c2.32,3.17,5.24,6.92,7.92,9.95a51.59,51.59,0,0,0,3.83,3.79,7.19,7.19,0,0,0,2.87,1.73l-1,0s1.66,1,4,2.16a41.33,41.33,0,0,0,8.3,3,21.07,21.07,0,0,1-5.45-3.81c-1.66-1.65-3.23-3.44-4.69-4.89C236.58,293.58,234.12,291.83,231.83,295.15Z"/><polygon points="238.09 302.98 235.22 301.7 233.78 301.04 232.37 300.34 233.78 301.04 235.22 301.7 238.09 302.98"/><path d="M237.41,267.73c1.21,3,2.66,5.91,4.09,8.86l-.24-2.71-2-3Z"/><path d="M233.22,285c-1.16-1.77-1.65-2.36-1.95-2.26s-.31.84-.34,1.61,0,1.55-.33,1.74-.93-.21-2-1.92c-.81-.78.85,1.72,3.17,4.15s5.14,4.89,6.13,4.48a4.71,4.71,0,0,0-1.38-1.67l-1.07-.91c-.36-.32-.72-.66-1.06-1C233,287.84,232,286.39,233.22,285Z"/><path d="M234.6,262.14c-1.09-.91-2.26-1.79-3.3-2.75l-3.2-2.9,3.2,2.9C232.34,260.35,233.51,261.23,234.6,262.14Z"/><path d="M228.46,243.49l-2.7-.67c-.35-3.91-2-8.06-2.91-12.17a21.69,21.69,0,0,1-.74-6,12.66,12.66,0,0,1,.36-2.73,8.67,8.67,0,0,1,1.14-2.47c-1.31.86-2.88.33-4.1.4a1.66,1.66,0,0,0-1.5.85,5.88,5.88,0,0,0-.44,3.4c1.71.76,2.17,3.14,3.86,2.37,0,2.93-2.08,2.82-2.38,4.9a13.73,13.73,0,0,1,2.2,3.76c.58,1.39,1.16,2.85,1.66,4.29,1,2.91,2.17,5.61,3.88,7.09-1.13-1.66-.8-2.29-1-3.72a8.22,8.22,0,0,1,2.6,4.5,10.11,10.11,0,0,1,0,3.69c-.3,2.16-.51,3.76,3.33,4-1.6-.89-1.82-3-2-5.26-.06-1.13-.15-2.26-.28-3.34A6.44,6.44,0,0,0,228.46,243.49Z"/><path d="M213.94,249.59c.3,1.21.56,2.44.9,3.64l1,3.6a3.85,3.85,0,0,1-2.2-1.71,12.46,12.46,0,0,1-1.39-2.89c-.75-2-1.42-3.94-3-4.06-1.57,1,.3,8.56-1.85,6.36,3.49-.83,4.6,1.51,5.57,3.27s1.77,2.87,4.69-.53c1.11,2.12,1.64,3.39,1.68,4.36a3.65,3.65,0,0,1-.64,2.17c-.68,1.24-1.49,2.65,1.2,7.1,1.59.24,3.16.45,4.73.65a37.66,37.66,0,0,1-3.89-5.85,48.78,48.78,0,0,1-1.95-4.9c-.58-1.55-1-3.15-1.78-4.94-.37-.89-.81-1.84-1.35-2.87S214.66,250.83,213.94,249.59Z"/><path d="M207.79,221.73l1.81-3.85-3.06,2.38a28.89,28.89,0,0,1-.4-3,27.65,27.65,0,0,1,.06-2.89,25.94,25.94,0,0,1,.9-5.39,41.54,41.54,0,0,1,4-9.24l2.27-3.94c.69-1.26,1.45-2.46,2-3.63a15.53,15.53,0,0,0,1.26-3.45,10.48,10.48,0,0,0,.27-3.44,19.88,19.88,0,0,1-.76-4.42,24.26,24.26,0,0,1,.27-4.27c.1-.7.23-1.4.38-2.09s.38-1.37.6-2c.44-1.35,1-2.68,1.48-4s1.22-2.59,1.83-3.88,1.19-2.58,1.86-3.85a53.5,53.5,0,0,0,3.24-7.94c-.79-6.37-3.53,4.55-5.28,4.66-2.46-1.65-1.36-2.84,0-4s2.88-2.38,1.16-4.49c-1.77-1.1-4,1.41-6.07,4.87-1,1.75-2.06,3.7-3.06,5.52a28.53,28.53,0,0,1-2.82,4.69,9.58,9.58,0,0,0-.06,2.8,4.15,4.15,0,0,0,.54,1.68,11.45,11.45,0,0,0,2.35,2.3c-1.23.35-2.31,1.64-3.28,3s-1.93,2.71-3.16,3.14a24.56,24.56,0,0,1,.3,3.58,19.12,19.12,0,0,1-.16,3.17c-.27,2-.83,3.84-1.23,5.7a31.13,31.13,0,0,0-1,5.74,18,18,0,0,0,1.11,6.6c-3.13,3.12-.62-7.33-1.08-4.06,0,1.78,0,3.56.11,5.33l.49-.57a18.76,18.76,0,0,1,1.67,6.24,50.11,50.11,0,0,1,.37,7.19,67.32,67.32,0,0,1-1.05,12c.15-1.91.74-3.6,1.58-4.3s1.72-.4,2.62,1.59c-1,1.36-1.93,2.74-2.88,4.16,2.29,2.71,4.89,5.24,7.32,7.69A10.38,10.38,0,0,1,212,232.2a28.34,28.34,0,0,1-.42-5,9.65,9.65,0,0,0-.69-3.83C210.41,222.42,209.5,221.81,207.79,221.73Z"/><path d="M203.32,233.25c.48,5.82,1.72,5.14,3,4.58.64-.28,1.31-.52,1.9.07a4.17,4.17,0,0,1,.83,1.62,21.18,21.18,0,0,1,.81,3.45l-1.05-3.07c-.34-1-.61-2.07-.92-3.1-.57-2.09-1.26-4.15-1.7-6.26C205.23,231.43,204.26,232.34,203.32,233.25Z"/><path class="cls-1" d="M209.65,179.85l3.26-4.87c-2.73,1-2.75,3.88-2.45,5.63S211.39,183.06,209.65,179.85Z"/><path class="cls-1" d="M213.51,160.52q1.91,2,3.84,3.9c-.43-1.79-.95-3.63-1.29-5.45C215.19,159.47,214.34,160,213.51,160.52Z"/><path d="M224.61,145.7c-.35-2.24-1.42-2.52-2.58-1.64a9.28,9.28,0,0,0-2.88,5.17,10.57,10.57,0,0,1,1.35-2.38,6,6,0,0,1,1.59-1.36A1.82,1.82,0,0,1,224.61,145.7Z"/><path class="cls-1" d="M245.62,125.84c-2.27,3.38-1,2,.82.77s4.27-2.32,4.35,1.18c-.55-1-.73-2.67-1.34-3.54a1.1,1.1,0,0,0-1.34-.46,3.51,3.51,0,0,0-1.09.61A11.46,11.46,0,0,0,245.62,125.84Z"/><path d="M270.29,113.77c-1.26,2.55-2.62,2.72-3.7,2.19C268.05,114.63,269.34,113.7,270.29,113.77Z"/><path d="M219.72,196.35a15.9,15.9,0,0,1-.12,2.93C219.64,198.28,219.68,197.34,219.72,196.35Z"/><path d="M219.84,194.44c-.07.63-.09,1.28-.12,1.91A10.18,10.18,0,0,1,219.84,194.44Z"/><path d="M244.78,140.06v0a5.36,5.36,0,0,1-.68.32Z"/><path d="M342.67,332.39a21.72,21.72,0,0,1,3.94-.09l-3.9.12S342.69,332.4,342.67,332.39Z"/><path d="M347,339.12c-3.71,1.29-5.62-.48-7.9-2.64a15.53,15.53,0,0,0-4.09-2.91,13.5,13.5,0,0,0-6.68-1.27c2.34,0,4.69.13,7.09.16h3.62c1.22,0,2.43.05,3.66,0,3.09,2.5,1.84,3.06.91,3.55S342.12,336.88,347,339.12Z"/><path d="M253.76,307a3,3,0,0,0-.41-.18C252.69,306.4,253.07,306.54,253.76,307Z"/><path class="cls-1" d="M457.71,113.62l-1,.76c-.92-1.93-1.78-3.94-2.79-5.86C455.22,110.17,456.43,111.93,457.71,113.62Z"/><path class="cls-1" d="M456.44,115.74c1.47,3.3,2.93,6.53,4.13,9.87A131.4,131.4,0,0,0,415.74,85.1c.88-.21,1.74-.39,2.61-.55,0-.3.77-.11,2,.46a36.53,36.53,0,0,1,4.94,2.81l3.2,2.12c1.11.8,2.26,1.68,3.45,2.58l1.81,1.38,1.78,1.5c1.19,1,2.44,2,3.6,3.1a169.9,169.9,0,0,1,12.15,12.3C454.33,114.26,456.3,116.43,456.44,115.74Z"/><path class="cls-1" d="M459.86,116.9a7.23,7.23,0,0,1,4.2,2.3,12.26,12.26,0,0,1,1.88,3.67c.25.67.49,1.34.76,2a14.37,14.37,0,0,0,.91,2.06,10.84,10.84,0,0,0,3.61,3.83c-2.36-1.59-4.65-2.7-6.44-4a10,10,0,0,1-4.09-5.15C460.46,120,460.15,118.48,459.86,116.9Z"/><path class="cls-2" d="M480.3,129.76a8.64,8.64,0,0,0,1.08,2.61,21.56,21.56,0,0,0,1.55,2.34c1.08,1.48,2.13,2.77,2.18,3.88-2.12.25-3.08-1.16-3.61-3.06a24.21,24.21,0,0,1-.58-3.05A22.68,22.68,0,0,0,480.3,129.76Z"/><path d="M498.88,132.07a9.29,9.29,0,0,1,.76,1.71,15.17,15.17,0,0,0-1.45-1.45Z"/><path d="M498.19,132.33l-1.72.67C496.56,131.53,497.24,131.61,498.19,132.33Z"/><path d="M499.64,133.78a23,23,0,0,0,3.63,3.55l-.42-1.72c1.44,2,4.29,5.49,3.7,6.92-1.35-4.58-2.58-4.18-5-3.35l2.29,7.2c-3.15.33-3.61-1.18-3.55-3.62S500.79,137,499.64,133.78Z"/><path class="cls-2" d="M509,155.93l-1.34-1.66-1.41-1.62-2.84-3.17c1.29-1.54,2.5-.66,3.5,1A20.05,20.05,0,0,1,509,155.93Z"/><path d="M507.71,168c-.67-.78-1.3-3-1.84-4.43-.27-.71-.55-1.22-.78-1.26s-.37.38-.55,1.56A8.76,8.76,0,0,1,503,160C505,164.56,508.08,159.06,507.71,168Z"/><path d="M503,160a12.75,12.75,0,0,1-.7-2A8.43,8.43,0,0,1,503,160Z"/><path class="cls-2" d="M454.46,102.2c.2.94-.15,1.21-.69,1.24Z"/><path d="M506.14,183.47l.25,2.79A16.11,16.11,0,0,0,506,184Z"/><path d="M348.71,76.14c1.94.27,3.85.55,5.78.76s3.89.59,6,.74,4.22.44,6.59.45c1.18.06,2.4.13,3.69.13s2.65-.07,4.06,0c.58-4.35,4.66-.32,6.36-4.66-6-.91,5.35.38,16.78,3.69,1.45.36,2.85.86,4.25,1.3s2.79.83,4.07,1.31c2.58,1,5,1.7,6.85,2.44,3.75,1.37,5.69,1.77,3.73.15l-3.59.36q2.43-1.29,4.95-2.54a40.77,40.77,0,0,1,3.61,3.52l1.82,1.92c.59.65,1.17,1.31,1.76,1.92a25.58,25.58,0,0,0,3.53,3.15,7,7,0,0,0,3.56,1.48c0,.23-.64-.08-1.76-.78-.57-.35-1.25-.8-2-1.34L426,88.4a149.51,149.51,0,0,0-15.11-8.64l-4.26-2c-1.42-.63-2.84-1.19-4.19-1.76l-2-.83-1.94-.69-3.54-1.23c-4.39-1.34-7.21-2-6.82-1.54-.37-.81.41-1.17,2.09-1.18a32.4,32.4,0,0,1,7.46,1.07,100.24,100.24,0,0,1,23.4,9,144.16,144.16,0,0,1,22.21,14.62l4,3.24c1.17,1,2.22,1.91,3.12,2.65,1.83,1.44,3,2.35,3.36,2.34L452.3,106q1.6.94,3.18,1.77c1,.55,2,1.14,3,1.66,1.94,1.08,3.9,2,5.67,3.1s3.6,2.08,5.28,3.28a50,50,0,0,1,4.91,4c-.6,1.16-1.22,2.31-1.85,3.44a12,12,0,0,0-1.89-3.42,13.19,13.19,0,0,0-2.24-2.19c-1.57-1.3-3.58-2.27-6-4.29a41.26,41.26,0,0,1,3.93,5.27c.93,1.54,1.62,2.88,2.26,4.14s1.14,2.52,1.84,3.82,1.58,2.68,2.65,4.39a3.52,3.52,0,0,0,1.5-3.53c0-.26.16-.21.74.4l3.38,3.82c-.1,1.76-2.05,1.65-3.3,2.11s-1.78,1.37.56,5.23c3.41,10.34,8.52,5.87,12.19,15.12L488,152.4l-.19-1.71-.39-3.43c1.53,3.33,4.6,9.68,3.17,13.73a13.62,13.62,0,0,0-.46-1.76c-.24-.65-.55-1.33-.9-2a27,27,0,0,0-2.6-4.19c-2.11-2.55-4.58-4.27-6.57-3.35,2.43,3.41,3.5,12.41,4.43,15.72-1.16-.44-2.33-.86-3.49-1.27-.94,2.17-.19,3.46.54,4.92a6.7,6.7,0,0,1,.64,5.61c1.24,2,2.2,1.19,3.09.08s1.57-2.46,2.45-1.32c-.37.56-.72,3.11-.58,5.82,0,.68.09,1.37.16,2a19.76,19.76,0,0,0,.26,2,7.21,7.21,0,0,0,1.21,3.07,3.28,3.28,0,0,0,2.24-2.91,10.94,10.94,0,0,0-.78-4.15,18.07,18.07,0,0,1-1.05-4.76,7.69,7.69,0,0,1,1.46-5.09c.09,1.46.21,2.91.29,4.35l.09,4.35c3.57,2.25,3-1.19,2.26-5-.94-3.74-2.11-7.75.67-6.92,3.9,2.57,3.14,6.43,2.24,10s-1.62,6.94,2.9,9.7c.57-2.15.65-6.6.53-10.32s-.05-6.76,1.27-6.13c-.65,2.59.12,4.53,1.42,6.68.62,1.07,1.41,2.2,2.06,3.49A18.92,18.92,0,0,1,506,184c-.66,2.82-1.59,5.61-2.44,8.34,2.19,3.34,2.09.61,3.27-2.19-1.45,6.13-1.37,14.12-2.09,22.8s-2.42,18-6.91,25.44c-.18,1.24-.33,2.18-.41,2.91a6.12,6.12,0,0,0,0,1.61c.14.73.52.83,1,.78.94-.08,2.26-.82,2.66,1.74-2.62,2-4.05,5.33-5,8.88-.49,1.76-1,3.54-1.44,5.23A23,23,0,0,1,493,264.1c-1,1.36,1.14,5.83,3.26,5,1.45-4.74,2.62-9.54,3.59-14.32,1.66,1.4,5.61.58,7-4.64-2.06.28-2.42-.73-1.94-2.45a19.4,19.4,0,0,1,1.25-3.06c.57-1.16,1.23-2.43,1.82-3.78,2.56-5.31,4.64-11.55.58-12.83l3.76.93c.12-1.6.12-3.21.15-4.81l.06-4.78c-.1-3.19-.18-6.35-.39-9.5l-.55.52c.32,0,.36-.94.29-2.59,0-.82-.11-1.81-.2-2.92s-.17-2.34-.34-3.65-.3-2.69-.43-4.11-.22-2.88-.38-4.33-.21-2.9-.23-4.31c0-.7,0-1.4,0-2.08s0-1.34.06-2c.85,1.41,1,6.46,1.48,9.85.34,3.39,1,5.23,3.13,0a25.39,25.39,0,0,1,.78,6.91,38,38,0,0,1-.24,4.16c-.14,1.45-.31,3-.49,4.51s-.48,3.16-.7,4.79-.48,3.31-.73,5-.54,3.42-.74,5.17l-.27,2.65c-.11.88-.2,1.77-.28,2.66l3.12-2.28c.43,7.85-2,16.62-5.57,25S501.57,269.39,498,277c-.26-2-.49-4-.87-6-.91,1.17-2.06,2.32-3.18,3.53s-2.24,2.44-3.25,3.72a19.49,19.49,0,0,0-2.67,3.93,12.44,12.44,0,0,0-1.25,4.38,16,16,0,0,1,2.06-2.8c.49-.44.82-.43,1.06-.18.48.51.59,2,.9,3a41.87,41.87,0,0,1-3.78,7.11c-1.62,2.4-3.51,4.87-5.53,7.36l-3.18,3.71-1.61,1.88L475,308.45q-1.68,1.86-3.29,3.8c-1.11,1.25-2.21,2.51-3.25,3.81,0,0-.09-1-.86-1-.68.93-1.36,1.89-2.07,2.82l-2.18,2.73c-1.46,1.83-2.93,3.67-4.51,5.41-5.42,3.81-8.62,3.38-13.14,3.86-1.65,1.75-6.58,5-3.57,5.47a10.05,10.05,0,0,0,2.93-1.75c-1.79,3.56-3,4.06-4.46,4.42s-3.23.65-6.39,3.94c2.08-3.16,1-3.88-.66-4.25s-3.95-.46-4.43-2.09c-3.94,3-3.49,4.4-2,5.31s3.93,1.27,3.74,2.25c-1.48.53-2.82,1-4,1.32s-2.38.57-3.43.77c-2.12.4-3.89.69-5.69.89a53,53,0,0,0-5.6.87l-3.31.74c-1.2.29-2.5.65-3.95,1.09,0,1.09,2.15.68,4.52.21l1.8-.34c.58-.12,1.15-.23,1.67-.29a3.16,3.16,0,0,1,2.4.37c-3.43.93-7.23,2.47-7.57,3.43,2.56-.36,5.16-.72,7.71-1.26-13,2.73-24.76,5.5-38.64,9.31l1.27.86-4.42.62c-1.47.21-3,.3-4.44.45q1.39-2.07,2.72-4.14c-2.28.74-4.78.38-6.95.25s-4-.2-5.22,1.4l1.75.19c-1.95.5-3.9,1-5.88,1.5,2-1.33,4-2.72,5.89-4.08a14.64,14.64,0,0,0-6.05.56c-2.17.5-4.53,1.32-7.07,2.15a63.61,63.61,0,0,1-8.18,2,30.52,30.52,0,0,1-9,0c-.5-1.36.6-2,2.53-2.33a29,29,0,0,1,3.45-.29c1.3,0,2.72-.05,4.18-.16s2.94-.18,4.36-.33c.7-.08,1.4-.16,2.06-.27s1.3-.3,1.9-.47c2.38-.7,4.11-1.75,4.46-3.43a47.92,47.92,0,0,0-7-1.31c-2.43-.31-4.68-.25-5.92.57.35,1.84,3.19,2,6,2.18a26.15,26.15,0,0,1-8.68.74c-1.53-.12-3.07-.31-4.62-.52l-2.3-.34-2.27-.43a85.06,85.06,0,0,0-8.46-1.25,13.64,13.64,0,0,0-6.94,1.12c1.21.7,2.45,1.32,3.7,1.94l3.78,1.86a19.47,19.47,0,0,1-6.23-1.94,42.3,42.3,0,0,1-4.63-3c-2.68-1.88-4.56-3.38-6.63-2,1.5-.69,3-1.38,4.43-2.09s2.92-1.51,4.33-2.28a30.19,30.19,0,0,1-3.7.11c-1.24-.08-2.51-.21-3.79-.38s-2.57-.36-3.86-.63-2.55-.6-3.83-.92-2.55-.62-3.8-1-2.47-.72-3.69-1-2.42-.63-3.59-.91-2.31-.56-3.44-.76c-.47.85,0,1.61,1,2.28a9.85,9.85,0,0,0,1.81.94c.69.27,1.46.5,2.23.72,3.07.85,6.21,1.29,5.8,1.51-1.66.37-3.3.65-5,1-1.51-.94-2.68-1.7-3.59-2.33s-1.56-1.2-2.06-1.65a15.11,15.11,0,0,1-1.89-2,16,16,0,0,0-2.32-2.21c-1.27-1.11-3.3-2.63-6.59-5.16L271,337.68a9.35,9.35,0,0,0-4.06-3.86c-1.81-1-3.8-2-5.51-2.82s-3.05-1.54-3.41-2.24.22-1.26,2.33-1.83c.9,1.3,1.85,2.55,2.79,3.83l1.42-2.78a159.35,159.35,0,0,1-16.29-9.79c2.86-.52-4.31-6.1-.43-6.73-2.33-.82-4.56-1.8-6.86-2.78.47-2.67,3.62-1.33,7,.27s7.08,3.41,8.46,2.3c.57-.85.2-1.68-.42-2.46a9,9,0,0,0-2.2-1.83c3.93,1.45,5.48,4,6.79,7.08a42.71,42.71,0,0,0,2.22,4.58,12,12,0,0,0,3.65,4.1c1.62,0,3.23-.06,4.82-.11L269,325.72a10.82,10.82,0,0,0,4.91.61,13.31,13.31,0,0,0,3.8-.86,9.61,9.61,0,0,0,1.83,2.72,12.22,12.22,0,0,0,2.39,2,14.78,14.78,0,0,0,2.83,1.45c1,.39,2.08.72,3.19,1s2.25.63,3.43.92,2.42.54,3.66.88,2.48.75,3.77,1.17a30.14,30.14,0,0,1,3.92,1.56c-4.93-.63-3.83.75-1.64,2.38s5.48,3.32,4.51,3.55a21.69,21.69,0,0,0,5.39.65c2.19,0,4.62-.1,7-.07a29.75,29.75,0,0,1,6.57.4c1.92.44,3.52,1.07,4.48,2.43,2.9,2.31-7.11,1.7.36,3.71a16.47,16.47,0,0,0,3.43-.11,7.47,7.47,0,0,0,2.41-.79c1.16-.68,1.29-1.64-.17-2.71,2.73,0,5.55.16,8.46.17,1.46,0,2.93.09,4.42.16l4.49,0a132.24,132.24,0,0,0,18.08-.9l-2.54,2.82a17.58,17.58,0,0,0,2.86.26,14.66,14.66,0,0,0,2.75-.3,21,21,0,0,0,5-1.65,25,25,0,0,0,7-5.47c1.22.77,1.61-.12.85,1.65a10.55,10.55,0,0,0,6.2-.59,19.45,19.45,0,0,0,4.65-3.41,65.09,65.09,0,0,1,5.29-4.5,34.74,34.74,0,0,1,8.3-4.3c-1.13-1.49-3.26-1.66-5.54-1a20.4,20.4,0,0,0-3.5,1.37,17.49,17.49,0,0,0-3.24,2.14l-.22-4.29c-11.8,4.19-25.38,7.53-35.52,10.75,1.5-1.17,3-2.33,4.4-3.5-2.32-1.15-3.79-1.36-4.89-1.11a5.1,5.1,0,0,0-2.54,1.53,3.62,3.62,0,0,1-4.38,1.08,11.83,11.83,0,0,1-2.64-1.62c-3,.74-2,1.27-.65,1.83s2.81,1.16.48,2c-2.2-.59-1.89-2.37-2-4a3.38,3.38,0,0,0-.71-2.24c-.55-.62-1.53-1-3.27-1.19A166.51,166.51,0,0,0,387,326a144.93,144.93,0,0,0,19.56-7.42,126.77,126.77,0,0,0,17.77-10.31c0-.93-1.31-.34-2.64.16a16,16,0,0,1,4.47-4.46c2.24-1.83,5.24-3.86,8.5-6.36A147.48,147.48,0,0,0,456,278.63c6.83-7.48,12.49-15.85,15.54-22.79.39-.86.75-1.7,1.08-2.5s.55-1.61.78-2.36a28.29,28.29,0,0,0,.91-4c.22-2.39-.2-4.06-1.37-4.79,1.94-.73,2.09,4,3.88-1.48-.57-.75-1.11-2.44-3-1.66,5.06-5.8,7-14.24,7.86-23s.54-17.82,1.85-26.64c-.91.25-1.6-.57-2.34-1.42s-1.39-1.75-2-1.72a9.67,9.67,0,0,0,1.2-5.21,30.73,30.73,0,0,0-.92-5.74c-.55-1.91-1.14-3.78-1.52-5.54a12.81,12.81,0,0,1-.47-4.89l-1.58,2.24a127.21,127.21,0,0,0-5.28-16.28c-.46-.09-.45.4-.33,1.09s.35,1.58.45,2.27a5.13,5.13,0,0,1-.94-2.07,2.67,2.67,0,0,1,.11-1.58,4.94,4.94,0,0,1,1.95-2.12l-3.57-2.63-3.69-2.43c-.09-.72-.2-1.44-.32-2.16s-.33-1.41-.52-2.11q-.58-2.12-1.38-4.2a46.64,46.64,0,0,0-4.31-8,64.89,64.89,0,0,0-5.8-7.39,93.26,93.26,0,0,0-6.93-6.68c-4.88-4.26-10.08-8.18-15.33-11.91s-10.36-7.49-15.25-11.7a20.45,20.45,0,0,1-6.85.72,22.4,22.4,0,0,1-3.44-.54c-1.22-.27-2.48-.76-3.94-1.25.79.69,1.52,1.5,2.27,2.24-3.4,0-3.31-.34-3-1s.74-1.29-2-1.64c-2.08.36-2.8,1.51-2.41,2.57s1.89,2,4.46,2c2.14,2.41,0,2.68-2.24,2.65-8.28-3.82-16.49-7-24.61-10S356.81,79.23,348.71,76.14Z"/><path d="M329.77,92c-1.11-.63.67-1.36,2.1-2.29s2.57-1.87-.13-3.3c-8.21-2.14-18.61.42-28.51,4.66-4.92,2.23-9.82,4.72-14.51,7.3s-9.32,5-13.87,7.1a34.54,34.54,0,0,0-3.57.88c-1,.32-1.77.64-2.55,1-1.55.68-3,1.42-5.16,2.63a4.46,4.46,0,0,0,1.51,1.33,41.11,41.11,0,0,0-3.18,3.24l-3.38,3.9c-1.11,1.36-2.25,2.68-3.42,3.86a23.19,23.19,0,0,1-3.42,3.12c-.32,1.68,1.31,4.17,2.49,1.49a13.21,13.21,0,0,1-3,4.74,20.09,20.09,0,0,1-2,1.71c-.67.54-1.36,1-2,1.52a25.38,25.38,0,0,0-3.67,2.83,5.21,5.21,0,0,0-1.67,3.34c1.77-1.32,1.88-.12,2,.93s.27,2,2,.31a8,8,0,0,1-3.37,3.7,14,14,0,0,1-4.4,1.26c-3,.54-6.2.9-8.1,4,.58.68,1.16,1.36,1.87.11a14.89,14.89,0,0,0-3.8,6.07c-.43,1.24-.79,2.54-1.13,3.84-.17.65-.34,1.29-.48,1.94s-.25,1.29-.38,1.92c-.25,1.25-.5,2.45-.8,3.53a20.69,20.69,0,0,1-.95,2.88c-.76,1.63-1.86,2.62-3.62,2.52.71,1.22,1.54,2.44,2.33,3.63a28.38,28.38,0,0,1-3.35,2.87c-1,.83-1.68,2-2.45,4.9.7,3.92,2.58.08,3.49,1.57-1.53.66-2.05,3.58-2.74,6.91-.2.83-.35,1.69-.5,2.55s-.37,1.71-.61,2.54a14.29,14.29,0,0,1-2.05,4.44c-1.09.11-1.3-.39-1.06-1.26a25.4,25.4,0,0,1,1.79-3.49,20.27,20.27,0,0,0,1.91-4.31,4.39,4.39,0,0,0-.54-4.07c-.86-.21-1.15.46-1.3,1.42a57.16,57.16,0,0,1,4.39-17,97.7,97.7,0,0,1,7.73-14.09c.69-1.06,1.37-2.12,2.05-3.18s1.43-2,2.1-3.06c1.31-2.05,2.71-4,3.93-6,.31-.5.61-1,.89-1.51l.92-1.49c.59-1,1.15-2,1.66-3a46,46,0,0,0,2.8-6.45c2.41-1,3.38-2.49,3.57-4.19a10.08,10.08,0,0,0-1-5.16,25.73,25.73,0,0,0-3,2.35,22.6,22.6,0,0,0-3,3.47,6.71,6.71,0,0,0-1.34,3.74,3.3,3.3,0,0,0,1.86,3c-2.15,1.1-4.15,2.36-6.25,3.63-.74,2.2-6.35-.38-7.69.19a6.48,6.48,0,0,0,.07-6.42c-1-1.75-3-2.48-5.38,0,2.42-5.87,4.9-3.39,7.18-1,1.15,1.23,2.28,2.46,3.31,2.76s1.91-.34,2.82-2.77c-1.07-1.14-2.12-2.29-3.17-3.45.57,1.45,2.36.39,4.1-1.41a13.86,13.86,0,0,0,3.81-6.12c-.51.23-1,.45-1.52.69,4.22-5.58,8.93-11.45,14.23-17.24a173.35,173.35,0,0,1,17.59-16.74A148.57,148.57,0,0,1,288.78,77a141.16,141.16,0,0,1,22-10.21,10,10,0,0,0,3.88,1.94,9.63,9.63,0,0,0,3.81.22,20.53,20.53,0,0,0,3.8-1c1.28-.45,2.57-1,3.87-1.58.64-.29,1.29-.6,1.94-.86s1.31-.49,1.95-.72a21,21,0,0,1,3.84-1A7.59,7.59,0,0,1,340.6,66c1.59-.91.35-1.76-.55-2.64s-1.43-1.79,1.81-2.73a2.62,2.62,0,0,1,3.58,2.85l2.93-1a18.43,18.43,0,0,1-2.64,15.14A27.11,27.11,0,0,1,343,81.11a41.48,41.48,0,0,1-3.58,3.55c-.67.58-1.37,1.15-2.11,1.73s-1.5,1.23-2.3,1.84-1.64,1.2-2.52,1.8S330.71,91.32,329.77,92Z"/><path class="cls-1" d="M414,255.26c1.24,2.07.72,4.13-2.2,1.6,2.92,2.53,2.94,2.51,4.18,5.32-1.93-1.71-2.17-.39-2.52.31,1.78.76,2.63.36,4.19-.58-1.63-2.4-.34-2.84.92-3.35s2.46-1.1.46-3.53C417.29,255.07,413.61,253.41,414,255.26Z"/><path class="cls-1" d="M397.1,248.93l1,1.17c-.1-1.09-.21-2.17-.33-3.23C398.44,248,398.49,250.1,397.1,248.93Z"/><path d="M395,257c-1.8-2.17-3.75-2.6-5.49-4.51,3.9,4.13-.49,2-.7,3.16l2.58,3.53c2.79,1.71,3.78-.95,5.53-2.13C396.29,257,395.67,257,395,257Z"/><path class="cls-1" d="M391.45,255.85l1.4,2.49C392.77,257.43,393.39,256.29,391.45,255.85Z"/><path class="cls-1" d="M403,266.08c1.59-.94-2.09-.63-1.39-2.51C401.64,264.5,401.26,265.13,403,266.08Z"/><path d="M391.68,264.34c.47-1.3,1-2.54,1.36-3.85-.77-.15-1.55-.32-2.33-.5C391.05,261.42,391.38,262.87,391.68,264.34Z"/><path d="M385.65,257.28c.34-.25,1.89.55,2.37,2.1-3.1-1.93-.6,2.37-3.32.72,0-.6,0-1.18-.07-1.78-2.32-2.76.52,4.23-3.34-.92a9,9,0,0,0,2.75,4,4.72,4.72,0,0,1,1.87,3.43,2.38,2.38,0,0,1,1.86-1.62,16.16,16.16,0,0,1,2.71-.22c-1.18-.73-1.17-.43-2.32-.87.72-.84.58-3.26,1.25-4.36C386.18,255,388,258.47,385.65,257.28Z"/><path d="M381,259.71c-1.07.41-2.53,1.18,0,5.4,2.95,2.16.8-1.35.06-3.3.74.47,1.84.06,3,2.4C383.28,263.45,382.51,260.9,381,259.71Z"/><path d="M377,261.45l1.7,4.07,0-.91,1.75,2.55c-.33-.7-3.12-5.63-2-5.94C376.68,259.58,378.11,262,377,261.45Z"/><path d="M388.57,279.46c-1.91-1.27-1.64.06-1.89,1.63,1-1.08,2.77-2.17,2.14-3.87l.33.7a23.36,23.36,0,0,0-1.13-5.6C388.56,275.58,384,273.21,388.57,279.46Z"/><path d="M390.31,278.73l.52,2.68Z"/><polygon points="374.74 264.12 376.93 264.44 375.87 263.54 374.74 264.12"/><path d="M383.49,274.06c-1.65.28,2.56,2.43,1.26,3.12-.05.31.41,0,.73-.62a2.53,2.53,0,0,0,0-2.45C384.73,273.65,385.59,277,383.49,274.06Z"/><path d="M373.63,264.39c.16,1.17.32,2.35.45,3.53C374,266.74,373.79,265.56,373.63,264.39Z"/><path d="M369.66,264.27l.87,2.15c-1-.52-1.56.14-2.24.43s-1.51.18-3-1.86c1.46,2.46,2.06,5.54,3.53,5.79-.51-1.45-.11-1.61-1-3.2.7.28,1.54,2.16,2.22,2.73-.38-2.65,1.7-1.62,1.23-3.94-.06.59-.39.17-.73.05-.69-4.2,4.37,4.22,1.64-1.87C372.71,266.56,369.76,263.1,369.66,264.27Z"/><path d="M377.32,278l1.61.11c1.13,2.88-1.39.93-.24,3.51.93,1.56,2.6,1.63,2.75,3-3.34-6.38,1.5-1.26-3.08-7.92,1.06-1.63,2.67,3.57,4.09,2.26l-1.52-3.56c-.38,1.36-1.08,1.37-1.78,1.35S377.76,276.68,377.32,278Z"/><path d="M372.22,279.38l-1.61-1.85,1.78,2.9c-1.24.91-3.7-1.58-5.87-4.1s-4-4.94-4.4-3.72c-.07,2.53-1.24,2.34-2.52,1.71s-2.7-1.73-3.54-1.08c0,3.09,1.46,1.34,2.15,3,1.57,5.5-1.91-2.5-.87,2.07,1.17,4,3.54,3.49,5.32,5.48.6-.84.14-2-.45-4.32,1,2.09,2.06,2.44,3.12,4.52.23-1.85,1.11-1.45,2-1.08s1.79.7,1.9-1.24c1.78,2.65-1,1.08-.25,1.28l.87-.45-.3-.43c-.12-3.42,3.23-1.79,5-.27-1.09-.66-2.63-2.81-2.37-4l2.2,3c-.28-1.83-.59-3.64-.93-5.48.27,1.88-.75,1.37-1.46,1.17S370.87,276.32,372.22,279.38Z"/><path d="M376.86,284.44c2.75.76-2.7-4.71.07-4.26-.64.48-1.27,1-1.93,1.41Z"/><path class="cls-1" d="M364.29,280.16l-1.8-2C364.85,282.78,363.71,275.83,364.29,280.16Z"/><polygon class="cls-1" points="360.98 281.43 359.86 276.85 359.93 279.65 360.98 281.43"/><path d="M356.18,277.09c.07,2.47,1.47,4.12,2.08,3.31C357.49,280.44,356.51,278.62,356.18,277.09Z"/><path class="cls-1" d="M349,269.79c1.34-.36-1.48-.83-1.6-5.15C347.79,266.6,347.76,269.36,349,269.79Z"/><path d="M342.34,260c.24-1,.59-.18.9.92C342.9,260.86,342.59,260.66,342.34,260Z"/><path d="M362.53,268.69a.55.55,0,0,1,.52-.08C362.88,268.65,362.7,268.65,362.53,268.69Z"/><path d="M362.19,268.74l.34-.05A.5.5,0,0,1,362.19,268.74Z"/><path d="M349.26,262.74s0,0,0,0,.14.22.23.4Z"/><path d="M392.55,250.61c0-.37.13-.58.29-.68-.09.23-.18.46-.26.7Z"/><path d="M397.76,254.6c1.2,3-5.95-4-5.84-1.07a15.36,15.36,0,0,1,.66-2.9C396.72,253.1,393.69,253,397.76,254.6Z"/><path d="M387.7,270.55a1.15,1.15,0,0,0,0,.16C387.7,270.92,387.67,270.76,387.7,270.55Z"/><polygon class="cls-1" points="419.48 203.87 418.22 203.6 420.05 202.85 419.48 203.87"/><path class="cls-1" d="M417.17,203.55c-.93.43-1.85.84-2.77,1.24a94.92,94.92,0,0,0,1-10.49l1.73.54c.58,0,.78.59.78,1.42a19.08,19.08,0,0,1-.57,3c-.13.54-.26,1.08-.37,1.58a9.72,9.72,0,0,0-.3,1.36C416.54,203,416.64,203.52,417.17,203.55Z"/><path class="cls-1" d="M419.05,204.48c2.49,1.09,1.92,1.45,1.16,1.77s-1.76.6-.09,1.7c-2.23-1.48-4.77-2.67-3.3-3.19Z"/><path class="cls-2" d="M428.16,210.63c-1.2.36.8,1.7-.07,1.85C424.19,211.18,427.49,211.05,428.16,210.63Z"/><path d="M442.78,216.46a.35.35,0,0,1-.06.34,4.85,4.85,0,0,0-.65-.55Z"/><path d="M442.07,216.25l-1.77-.5A2.64,2.64,0,0,1,442.07,216.25Z"/><path d="M442.72,216.8a9.22,9.22,0,0,0,1.66,1.38l.35-.24c.36.57,1.55,1.75.49,1.67.56-.77-.67-1.14-3.14-1.88l-.75,1.26C435.52,217,442,218,442.72,216.8Z"/><path class="cls-2" d="M442.85,221.55c-1-.83-2-1.64-2.93-2.44C443.27,219.7,443,221,442.85,221.55Z"/><path d="M438.41,222.35c-.86-.65-.12-1.85-1.89-1.55-.59-.43-.38-.64-.28-.9C436.77,221,441,221.49,438.41,222.35Z"/><path d="M436.24,219.9a.57.57,0,0,1-.05-.43A.41.41,0,0,1,436.24,219.9Z"/><path class="cls-2" d="M424.81,203a2.94,2.94,0,0,1-1.34-.17Z"/><path d="M433.88,223.74l-.2.47a.78.78,0,0,0,0-.45Z"/><path d="M408.16,182.43c-1.08,1.34-2.22,2.48.07,4.4,4.4.07,1.2.79,5.81,1.08-.24-1,.34.91,1.25,3s1.91,4.38,3,3.63l-2-.73,4.51,1c-.63.48-1.89,1-2.67,1.45s-1.15,1,.11,1.5c-.37,0-.48-.56-.47-1.38s.06-1.94.15-3c.23-2.19.21-4.38-.42-4.24,2.67-.29,3.86,2.88,4.37,6.29.33,1.71.36,3.45.58,4.82s.45,2.36,1,2.56l-2.78-.37c2.57,2.19,6.32,4.18,7.88,6.13l-3.37-.44c1.37-.81-.86-1.64-2.06-3,.25,2-1.88,1.85-1.58,3.39,4.26,1,2.4-.72,4.3,1.7-1.91,0-6.27-2.32-5.78-.54-1.6,1.54,4.7,2.92,4.56,4.74l1.92-.69c0,.69.54,2.17-1.9,2.07.52-.64-1.27-3.14-5.51-4.29.73,1-1.32,2-1.3,2.61L415,212.82c-2.94-.27,1.1,1.45-1.67,1.38,1.38,1.3,4.35,1,5.39,1.8-1.05-.17-3.14.71-1.43,1.91,3.1.94,2.82.31,2.53-.37s-.57-1.44,2.55-.94c-.5.37-1.07.72-1.59,1.08,2.84,1.52,3,.92,3.1.21s-.05-1.53,2.32-.48c3,1.62,1.24,1.74-.26,1.87s-2.77.29,1,2.27c1.76-.15,2.76-2.43,4.84-1.4-2.57.06,1.51,2.13,1.85,3.61l-3.32.37c1.67,1.31,1.87.85,3.28.84-2.12.4-2.52,1.81-3.1,3.31a4.55,4.55,0,0,1-4,3.49c0,2,2.45,1.42,4.13,3.16-4-.82-1.77,2.12-2.35,3-.39.14,2.72,2.44,4.25,2.91-.29-1.19-.55-2.34-.89-3.52,1.78,1,5,2.19,5,1.08-3.53-1.35-2.08-1.7-.68-2.24s2.77-1.27-1.09-3.1l3.51,1.61c-.33-1.45-.67-2.89-1-4.3l-.52-.11c.59.26.27-.69.07-1.82s-.34-2.47.78-3.08c1,1-1.53,3.47,3.09,3.2.81,1.1.1,1.94-.72,2.88s-1.76,2-1.53,3.54l2.59.58c1.11,2.08.08,3.5-1.24,4.77s-3,2.34-3.42,3.94l-2.69-2.5c-1.72.33-4.92.09-2.76,2.47.47-1.24,1.92.34,3.13,1.31.79,2.57-2.51,3.73-2.64,6.58a4.72,4.72,0,0,0-1.08-.71l.36,3.38c-1.19.7-3.15-.13-5.5-.87.16.65-.56,1.5,1.4,2.38.3-.08.61-.16.53-.41,2.39,3.33-1.47.07-.52,2.8-1.89-3-4-2.46-6.58-4.58.06,2.33,4.63,3.69,5.73,4.78-2.94.71-5.35-.81-7.29.51,1.51,1.4,2.1-.37,4.05.92-.85.17-1.18.89-.66,1.47l2.19-.1A7.84,7.84,0,0,0,420,263.1a4.45,4.45,0,0,0-1.19,1.42,6.14,6.14,0,0,0-.69,2l.92.53-1.2,1.18-2.44-3c.13,1.32-3-.3-1.08,2.14l.43,0,.13,1.65-2-3.44c-1.05,0-.47,1.62.06,3.46s1,3.9,0,4.5c-4-3.35,1.56-4.15-3.08-9-1.29-.23-2.93-.15-2,1.41,1.34,1.22,1.74.87,2.14.51.56,1.91-.69,2.42-1.65,3.06s-1.69,1.35-.17,3.93l2.59.55c-.88,1.72-6.43-2.74-4.29.5-1.13-2-2.28-3.89-3.45-5.82a6.23,6.23,0,0,1-.17,4,6.93,6.93,0,0,0-.66,3.48c2.44,3,1.76-1.62,2.16-.95l1.2,2.63c-3.43,0-2.11-1.32-5.91-1.1l1.59,2c-3.21-2.42-.85,5.21-4.19-.89l1.64.77-2-2.41L395.22,280c-1.08-2.07-2-.52-3.45-3.29l.53,3a7,7,0,0,1-1.91-4.39,7.85,7.85,0,0,0-1.12-4c-1.23-1.62-1.52-1.08-1.57-.69-.8-3.47,4.29,2.29,5.55,1.47l-1.13-2.64,2.34,3.07c.05-.94-1.13-3.26-1.93-4.6,2.18,1.61,2.6.91,2.73-.22s0-2.67,1.17-2.93c.12,2.85,3.28,2,3.73,3,.4-.32-.09-2.16-.23-3.52s.1-2.28,2-.89c1.69.91,1,2.86,2.63,2.49.34-1-.65-2.86-2.35-3.77a5.26,5.26,0,0,1,1.83-2.63,21.65,21.65,0,0,0,2.4-2.28l1.53,2.1c2.53.41.83-2.93-.86-5.27.91.53.4,0,1.42,1.11,2.17.71,1.53-.59.63-2.21s-2-3.57-.83-4.33c-2.94-2.09-4-1.42-3.13.33L402.17,246a7.59,7.59,0,0,0-1.73,3,8.18,8.18,0,0,0-.22,4l-1.67-2.67c-2.55-1.29-1.75-.2-1,.84s1.39,2.05-1.4.38c.3,1.78,2.09.91,2.77,2.7-1.4-.28-5-5.07-6.05-4.38,1.69-4.69,5.22-8.3,7.4-12.52a1.48,1.48,0,0,0-1.31-.46c-.87-1.12-.36-2.06.79-3a21,21,0,0,1,2.14-1.39l2.44-1.52a8.31,8.31,0,0,0,3.49-3.53c.46-1.25-.15-2.56-2.52-3.84,1.51.48,2.74,1.94,3,1a10.43,10.43,0,0,0-3-1.57c3.16.18,3.79-1.19,4-2.72s.37-3.16,2.66-3.91c-1.72-.58-2.42-1.53-3.63-2,2.15.25,2.33-.43,2.28-1.16s-.39-1.54.9-1.63l-2.08-.34.86-2.8c-.72-.29-.86.07-1.2.22-.75-.87,1.54-.37,3.28.06q-2-1.26-4-2.46c2.05-.41,3-1.25,3.25-2.26a6,6,0,0,0-.6-3.43,18.15,18.15,0,0,1-1.23-3.53,3.1,3.1,0,0,1,1.45-3.09c-3.48-1-4.92-1.69-5.24-2.74l-1.12.4c-2.89-1.26,1.81.1.43-.89-2.21-.76-5.35-.59-3.45.33a4.64,4.64,0,0,1-3.3-.44,7.42,7.42,0,0,1,2.59-4.17A25,25,0,0,1,408.16,182.43Z"/><path d="M331,252.75c.43,1.66-1.13,1.53-.15,5.09a9.08,9.08,0,0,0,1.16,2,4.09,4.09,0,0,0,1.25,1.05,5.29,5.29,0,0,0,2.63.5,9.57,9.57,0,0,1,2.72.07,5.91,5.91,0,0,1,2.93,1.95,14.12,14.12,0,0,0,2.72,3.79c-.11-.58-.27-1.32-.45-2,.95.09,2.09-1.31,3.4.16.06-.79-.48-3.54-.77-2.78.34-1.35,1.21-.23,2.07.93s1.67,2.31,1.73,1.13c-1.15-1.57-.15-2.74-1.31-3.92,1.19-.77,4,8.7,5.59,9.45-.18-.76-.35-1.53-.66-1.68,1.31,1.84,2.09.89,2.82.33s1.43-.76,2.74,2.46l-.52-2.89c1.39,1.91,1.82,3.41,3.13,3.88.2-1.28-1-2.38-1.18-3.45,1.33,2.49,2.46.64,4.83,3.91.92,2,0,.8-1.09-.41s-2.19-2.44-1.81-.46c.32.81.53,1,.72,1-2.21.4-5.22-2.1-7.72-4.14s-4.61-3.82-5.66-1.75c-1.52-2.75-1.24.12-.77,3.13.46.6,1.32,1.51,1.86,1.5s.74-.91-.12-3.85c.7,1.17,1.41,2.33,2.14,3.49.3-.4,2.15,5.5,2.64,6.41-1-.44-.13,5.6,1.63,7.38-1,.67-1.75-2.5-2.47-5.58s-1.4-6.05-2-5l1,4.33c-.34-2.37-2.41-3.87-2.58-2.32l.47.79a11.89,11.89,0,0,0-4,.12,21.31,21.31,0,0,0-4.13,1.07c-2.79.91-5.64,2.2-8.32,3.16-1.18-5.41-2-4.32-2.9-3.07s-1.81,2.8-2.6-1.63c-.53,1.52,1,3.87-.09,5.26-.56.7-.7-2.18-.7-3-.16.3-.33.6-.5.9C327.93,269.49,328.85,259.91,331,252.75Z"/></svg>