<svg id="Capa_1" data-name="Capa 1" xmlns="http://www.w3.org/2000/svg" viewBox="0 0 681 681"><defs><style>.cls-1{fill:#fff;}.cls-2{fill:none;stroke:#000;stroke-linecap:round;stroke-linejoin:round;stroke-width:0;}</style></defs><title>iconos_home2</title><path class="cls-1" d="M137.83,575.57a19.19,19.19,0,0,1,2,8.14,13.2,13.2,0,0,1-.13,1.95l-.08.44c0,.18-.07.15-.11.23a1.58,1.58,0,0,1-.27.32,3.19,3.19,0,0,1-2,.77,12.91,12.91,0,0,1,3.72,0c.83.19,1.52.71,2.9,1.19-2.58.67-1.88,2.5-1.67,3.51a11.59,11.59,0,0,0,1.85-2.64,19.74,19.74,0,0,0,.92-2.64,3.6,3.6,0,0,1-.88-.32,2.18,2.18,0,0,1-.34-.2c-.1-.1-.19-.07-.27-.44a16.13,16.13,0,0,1-.51-3.62,58,58,0,0,1,.58-8.14c.66-5.57,1.24-11.08-1.8-14.5C140.29,564.62,136.36,569.46,137.83,575.57Z"/><path class="cls-1" d="M120.9,609.73c.51,0,1,0,1.54-.08q-1.22-5.42-2.42-11.89a21.74,21.74,0,0,1,1.59,6.27C121.9,606.47,121.81,608.81,120.9,609.73Z"/><path d="M157.57,613.36c-1.25,2.77,5.14,4.64,4.92,7.21,0-5.68,10.16-.79,15.75-1.29l2.39-4.27c-2.64-1.68-7.38-2.3-12.9-2.6-2.76-.15-5.72-.23-8.71-.31l-4.48-.16-2.22-.1-2.07-.13.82.2.92.21,1.86.41Z"/><path class="cls-1" d="M167.85,617l3.75-2.65C168.53,614.93,161.46,615.1,167.85,617Z"/><path class="cls-1" d="M160.6,601.37c-9-.7,5.37,2.08-3.75,2.66C159.93,603.41,163.46,603.32,160.6,601.37Z"/><polygon points="198.07 611.49 178.79 612.86 186.67 615.05 198.07 611.49"/><path d="M198.79,620.81c-2.51-.12-6.4-1.86-2.76-3.23,6.75,3.69,11.19-1,17.48,2.15L207.35,621c.7,3.65,12.88-3.23,12.33,3.19,8.43-4.23-6.08-5.71,4.77-8.54-10.16.79-17.58-.86-26-2.31,2.41,1.41,3.42,1.2,6.85,2.4-6,0-14.26,1.62-21.33,1.79C187.61,621.81,193,618.2,198.79,620.81Z"/><path d="M229.38,622.84c6.5.58,16.55,1.07,18.47-3.74-6.74-3.69-8.11.37-11.29,2.29-1.95-.87-8.45-1.46-5.71-3.9C231.77,618.57,226.51,620.89,229.38,622.84Z"/><path d="M254.94,624.61l4.91-4.14-3.09.62-.24-3.11c-.57.75-3.06,6.3-9.57,5.72C250.26,626.19,251.52,623.41,254.94,624.61Z"/><path d="M257.28,603.3c4.34,2.29,7,1.12,12.09.08-7.07.17-17.11-.32-19.29,1.37l.59-.74a60.06,60.06,0,0,0-11.53,4.85C246.45,606.13,259.13,611.13,257.28,603.3Z"/><path d="M248.26,602.6l5.25-2.32Z"/><polygon points="275.14 624.32 265.22 622.54 267.61 623.95 275.14 624.32"/><path d="M263.7,610.85c8,.91-4.25-3.57,3.28-3.2,2.06-.41-11.06-.28-11.74,1.75C257.18,610.26,263,607.2,263.7,610.85Z"/><path d="M281.64,624.9,290,622Z"/><path d="M302.09,627.71l1.7-2.24c7.88,2.19,18.72-.63,24.32,4.56-1.25-2.9,3.53-5.77-3.44-6.88-1.14,1.49-3.64,1.37-3.3,3.19-3-.66-2.28-2.7-4.24-3.57-5.23,2.32-13.12.13-17.32,2.25,2-.42,2.5.12,4,.45-8.89,3.69-10.06-6.17-14.14.34C292.83,623.9,298,628.54,302.09,627.71Z"/><path d="M301.94,612l-7-1.12c2.29-3,8.57.16,9.82-2.61-.35-1.83-7.3-2.94-4.7-4.11-1.11,7.17-9.59,0-6.25,8.21-9.12.59-2.63-4.52-12.22-4.47l-2.84,3.73C289.49,610.06,291.2,613.49,301.94,612Z"/><path d="M329,614.07l3.32,2.48-1.72-3.44c15.64,0,24.3,14.18,33.82,12.57,12-4.13,22.67,3.05,34.72,2.79,6-2.71-5.57-1.92-6.11-3.74,1.89-5.64,5.6,3.21,8.5-1.37.92-4.1-12.15-4.89-17.23-7.58-4.52.43-4.49,1.71-5.95,4-1.05-2.34-5.6-3.21-6.66-5.56-9.48,2.9-14.16-3.39-23.51-.24-2.76-3.23,6.93-.36,3.89-.94l-5-.1.52.53c-7,2.95-19.48-.48-23.81-2.76,3.4,1.2,5.72,3.89,1.6,4.72l-3.21-3.77-9,5C320,613.36,327.42,620.7,329,614.07Z"/><path d="M319.49,607.14c-10.4-2.32,1.05,5.48-10.37,3.37l12.1.08Z"/><path class="cls-1" d="M369.25,618.05l5.08,2.68C371.7,615.52,363.31,622.05,369.25,618.05Z"/><polygon class="cls-1" points="388.35 618.7 385.44 623.28 390.42 620.81 388.35 618.7"/><path d="M405.58,625c4-2.23-.6-4.39-5.13-4C404.5,621.36,406.55,623.47,405.58,625Z"/><path class="cls-1" d="M434,635.06c-8.78-.31,7.73,1.45,1.27,5.43C436.46,638.55,441,636.05,434,635.06Z"/><path d="M462,647.19c-3.21.78-4.47-.1-4.86-1.26C459.41,646.11,461.24,646.44,462,647.19Z"/><path d="M353,628.71a17.61,17.61,0,0,1-3.08-.24Z"/><path d="M355,628.87l-2-.16A18.64,18.64,0,0,1,355,628.87Z"/><path d="M419.8,641.28h0c-.23-.17-.44-.27-.67-.47Z"/><path d="M140.8,619a32.07,32.07,0,0,1-4.75.11l4.71-.14S140.78,619,140.8,619Z"/><path d="M138.69,612.41c2-.67,3.13-.57,4.09,0a15.23,15.23,0,0,1,2.72,2.42,11,11,0,0,0,4.16,2.64,13.51,13.51,0,0,0,3.1.68,16.59,16.59,0,0,0,3.91-.15l-3.59.33c-1.22.1-2.39.2-3.81.27-2.74.16-5.58.29-8.51.41-1.48-1.23-1.67-2-1.45-2.48s.91-.77,1.46-1,1-.48.77-.92S140.45,613.48,138.69,612.41Z"/><path d="M235.08,610.35a2.77,2.77,0,0,0,.41-.12C236.21,610.09,235.84,610.23,235.08,610.35Z"/><polygon class="cls-1" points="120.36 312.08 119.07 312.01 120.71 305.56 120.36 312.08"/><path class="cls-1" d="M118,313l-2.46,10.95-.75-64.9,1.78,2.1C118.94,260.22,115.94,314.88,118,313Z"/><path class="cls-1" d="M120.06,316.09c5.33,6.3-2,10.47,1.82,18.2-2.51-5.16-5.3-8.82-3.94-13.79Z"/><path class="cls-2" d="M130.34,337.73c-1.07,3.47,1.2,7.61.39,9.57C126.63,346.09,129.79,340.71,130.34,337.73Z"/><path d="M146,347.05a7.26,7.26,0,0,1,0,1.61,12.32,12.32,0,0,0-.77-1.65Z"/><path d="M145.22,347l-1.85-.09C144.09,345.79,144.67,346.1,145.22,347Z"/><path d="M146,348.66a17.23,17.23,0,0,0,1.95,4l.28-1.49c.49,2,2,5.64.94,6.6.31-4-1-4.08-3.55-4.2l-.34,6.52C139.13,358.87,145.6,354.46,146,348.66Z"/><path class="cls-2" d="M147.47,369.25l-3.52-6.7C147.32,360.7,147.5,366.75,147.47,369.25Z"/><path d="M143.48,379.13c-1-1.56-.68-8.09-2.28-4.14-.69-1.07-.54-2.33-.53-3.67C141.51,375.73,145.65,371.59,143.48,379.13Z"/><path d="M140.67,371.32a9,9,0,0,1-.17-1.89A7.2,7.2,0,0,1,140.67,371.32Z"/><path class="cls-2" d="M125.4,301.26c-.48.81-.92.78-1.34.43Z"/><path d="M139.69,392.53l0,2.51a14.36,14.36,0,0,0-.17-2Z"/><path d="M107.07,184.14c-1.07,8.76-2.22,17.07.08,29.73,4.4-.3,1.24,5.08,5.86,5.82-.6-13.11,2.76,49.4,4.7,38.93l-2-3.13,4.6,3.25c-1.16,6.29-4.83,14.89-2.19,19.16-1.44,1.17-.25-53.57-1.55-51.5,5.31-4.85,5.14,73.28,7.52,75.29l-2.8.87c3,9.71,7,15.94,9,24.1l-3.38,1.85c1.11-6-1.19-7.62-2.65-13.73.63,10.59-1.46,12.51-.78,20.59,4.38-.29,2.14-6.94,4.59,3.24-1.84,2.93-6.65-3.84-5.74,5.26-1.17,11,5.3,8.8,5.69,18.39l1.64-6.46c.21,3.53,1.15,10.13-1.21,13.53.31-4-2.14-14.2-6.53-13.91,1,4.07-.68,13-.47,16.58l-3.06-2.16c-2.89,3.88,1.46,6.11-1.18,11,1.74,4.62,4.42-2.8,5.68-.23-1,1-2.71,9.93-.69,13,6.48-2.19-1.92-10.65,4.34-16.37l-1.14,8.49c6.38,5.34-.08-13.59,5-10.83,6.62,6.38-6.36,13.29,2.07,19.22,1.6-3.94,1.76-16.51,4.06-14.9-2.39,4.44,2.15,7.62,3,13.74l-3,7.41c2,3.12,2.06.6,3.38-1.85-3.75,10.88.65,29.21-3.93,44.59.91,9.1,2.82,1.14,5.09,5.28-3.93,4.84-.69,13-.75,18.06-.28,1.5,3.55,4.21,5.12,2.78L143,456.58c2.06.62,5.43-1.24,5-5.78-7.52,3.14,4.61-17.89-3.88-18.81l3.86.18-2.63-16.23-.52.48c1.29.07-2.66-13.72-1-22.69,1.25,2.58-.23,17.59,4,8.76,2.23,6.64-1.27,18.55.38,30.69l2.61-2.37c3.69,12.76-1.16,29.63-.31,43.75l-3.56-4.2c-1.35,5-4.28,11.36-1.24,16-.18-6,1.84-2.93,3.38-1.85,2,8.16-.27,20.12,1.14,31.26,0,0-.77-.54-1.3-.06l2.18,11.67c-.59,5.52-2.68,7.41-5,10.82.49,2,.42,7.08,2.51,5.16a7.27,7.27,0,0,0,.19-2.89c3.9,5.9-1.14,4.13,1.25,11.51-3.28-5.7-4.67,1.78-8,1.11,1.44,8.64,5.93.8,7.46,1.88-1.93,10.48-4.79,11.83-5.44,22.37,2.05.61,1.38-7.47,3.71-8.36-.55,3-.34,6.51.43,7.06l1.63-6.46A95.14,95.14,0,0,0,147.49,586v.27l0,.08,0,.16a1.82,1.82,0,0,0,0,.32,2,2,0,0,0,.1.64,1.3,1.3,0,0,0,.81.87l1-.69-.1.75a36.07,36.07,0,0,1-3.84,2.48c.31.06.19.42,0,.88a10.25,10.25,0,0,0-.62,1.39c.22.11.75-.11,1.94-1.22a2.36,2.36,0,0,1,0-.28,19.26,19.26,0,0,0,1.91-1.15,35.53,35.53,0,0,1-4.37,3.64c.07.41.79.25,1.69-.21a14.61,14.61,0,0,0,2.85-2,19.28,19.28,0,0,0,2.11-2.26c.49-.61.72-1,.94-.8a4.56,4.56,0,0,1-.5,2.56,3.45,3.45,0,0,1-1.54,1.06,13.72,13.72,0,0,0-2.37,1.32,18.36,18.36,0,0,0-3.52,3.29,2.69,2.69,0,0,0,1.73,1.34,2.33,2.33,0,0,0,2.51-.78c.42-1.79-.35-1.85-1.16-1.91a5.19,5.19,0,0,1,2.81-1.14,5.68,5.68,0,0,1,1.16.1l.58.12.16,0,.5,0,1,.08c5.33.42,10.24.54,13.26-2.28l-6.86-2.4c8.1-.38,13,6.83,15.88,3.1l-6.6,6.39c8.31-3,18.81-1.91,26.57-4.11.33-3.85-11.07-.29-10.51-1l3.76-2.65c11.87,2.65,3.33,2.49,17.71,5.26l.23-2.57c4.69,4.1,17.9-3,12.78,3.73l-3.87-1.74.22,3.11,16.79-1.5c-1.71,2.24,6.38,1.86,4.11,4.85l6.27-2.53c2.64,4.51-11.52,4.85-12.3,8.17.15,2,3.06,1.88,4.49,1.65-7.54,3-10.92-4.81-18.3-5.17L213,607.83l.34-3.85a13,13,0,0,0-6.95,4.56c-7.1-5.51-15.17.55-26.14-1,9.23-1.87-5.72-3.9-4.12-4.85-5-.25-17.68,6.1-21.8,1.24-2.86-1.94,6.26-2.53-.7-3.64-2.71.13-3.08.74-3.84,1.5a1.94,1.94,0,0,0-.1,2.68,47,47,0,0,1-8.13.29c-2.81-.09-5.59-.32-8.32-.5,0-1.65.07-3.25.05-4.78a14,14,0,0,0,2.54-.36c1.08-2.74.73-4.07-.23-5.32a19.55,19.55,0,0,0-3.93-3.31c1-.87.28-1,1.81-.64,1.06-1.59,1.26-2.58,1-3.6a19,19,0,0,0-1.9-5.06c-1.73-3.54-3.86-7.8-3.38-15.07-3.62.83-4,7.35-2.22,11.95l-4.11-1.2c-.16,12.58.69,27,3.13,33.7a14.5,14.5,0,0,1-3-1.78c-1.66,3.94-1.84,6-1.46,6.8,1.92-.38,3.9-1.53,5.54-2a3.48,3.48,0,0,1,2.24-.09,4.41,4.41,0,0,1,2,2c3.6-.6,2.74-1.16,1.89-1.76s-1.73-1.23,1-2c1.51.64.22,2.38-.74,4s-1.42,3.16,2.68,3.44c-5.87.17-12,.24-18.48.25-.27-6.5-.46-13.35-.61-20.38-.11-6.62-.22-13.31-.33-20-.17-12-.28-24.05-.55-35.67-.77-.54-1,1-1.33,2.45-5.54-9.83,9.37-89-1.43-91.6,1.57-1.42,3.32,3.18,3.14-2.86-.77-.55-1.78-2.1-3.34-.67,5.86-15.31-.32-35.74,3.53-54.16-1.81.41-2.79-3.66-4.08-3.73,4.21-6.32-.29-17.11,2.11-23l-2.09,1.91,0-18.62c-.76-.55-.79,2-1.07,3.47-1-4.07,1.36-5,3.16-5.37l-4.53-8.28c7.53-24.28-4.19-54.54.56-82.48-3.56-4.2-5.06-7.8-5.49-14.87l-1.07,3.47c-3-7.19,1.81-.41.34-6.53-2.27-4.14-5.4-1.26-3.41,4.37-1.21,3.52-2.45,1.35-3.32-1.17C98.11,223.18,100.51,202.3,107.07,184.14Z"/><path d="M539.77,658.78c-2.38-1.77,9.68-1.13,3.91-4.95-18.49-7.66-49.15-3.19-71.16-9.49-5.82-2.94-7.4-3.07-12.68-4.72a4,4,0,0,0,.07,2c-6-.47-15.86.22-21.84-1.74-1.74.68-3.11,3.43.21,2.88C429,644.89,422.61,637,417.36,639c4.39,2-4.54,2.5.74,4.17-9.65,0-8.42-9.82-16-11.27-.48.76-1,1.53.55,1.82-8.15-4.56-25.6,1.53-26.26-5.46l-3.46,2.78c-3.56-2.4-2.6-3.93-8.65-5.09-4,.95.06,2.58-1.43,3.58-1.57-2.86-12.25-2-16.95-6.1-.12-4.39,8.41,6.18,13.36,2.42.18-.87-.51-1.15-1.49-1.29,25.18,2,43.94,14.94,64.79,12.42,4.45,3.24,8.06.49,10.2-2.46-3.7-1.53-14.26-4.85-14.73,1.26l-6.34-4.2c-2.48.2-2.2-6-3.22-7,4.54.87,9.94-4.95,3.85-7.39,12.05-.27-4.35,12.88,6.36,11.7l1.72-4.37c-2.11,2.29,7,4.68,10.54,3.32l-1.4-.93c28.28,3.13,66.19,2.53,97.6,2.21,7.3,11.27,23.14-3,30.06,6.15,3.51-1.35-4.77-4.08,1.9-5.18,3.34-.55,3.53,2.34,3.35,3.15l3.07-.76C567.56,643.22,561.41,652.51,539.77,658.78Z"/><path class="cls-1" d="M512.46,180.32a20.61,20.61,0,0,1,8.51-1.95,15.3,15.3,0,0,1,4.26.58c1.45.42,2.25,1.09,2.09,2.06.31-1.94.45-2.9,1.89-3.73s4.16-1.52,10.13-2.89c-1,2.57,8.76,1.87,15.08,1.66-2-.92-4.77-1.46-8.88-1.84s-9.53-.62-16.87-.93a23.39,23.39,0,0,1-2.72.89q-.71.18-1.44.33l-.74.14c-.24.05-.32.09-.49.13a17.51,17.51,0,0,1-3.79.51,61.69,61.69,0,0,1-8.51-.58c-5.83-.65-11.59-1.24-15.17,1.81C501,177.86,506.07,181.79,512.46,180.32Z"/><path class="cls-1" d="M545.5,197.25l2.33-1.53q-7.61,1.2-14.11,2.41a30.14,30.14,0,0,1,7.29-1.59C543.75,196.25,546,196.34,545.5,197.25Z"/><path d="M555.41,232.24c-2.82-1.2-4.45,5.55-7,5.42,5.68-.24,1.16,10.59,1.87,16.41l4.35,2.34c1.58-2.82,2-7.8,2.13-13.59,0-2.89,0-6,0-9.11,0-1.56,0-3.13,0-4.69l0-2.32c0-.79,0-1.58.06-2.35Z"/><path class="cls-1" d="M552.18,243.12l2.79,3.82C554.23,243.76,553.81,236.37,552.18,243.12Z"/><path class="cls-1" d="M567.5,235c.37-9.45-1.88,5.69-2.79-3.82C565.44,234.33,565.65,238,567.5,235Z"/><polygon points="558.75 274.51 556.68 254.41 554.78 262.73 558.75 274.51"/><path d="M549.46,275.61c0-2.62,1.63-6.76,3.13-3-3.44,7.19,1.4,11.65-1.52,18.35l-1.46-6.4c-3.63.88,3.7,13.35-2.74,13,4.53,8.65,5.49-6.57,8.7,4.66-1.15-10.59.23-18.41,1.37-27.3-1.32,2.57-1.07,3.63-2.15,7.26-.18-6.32-2.14-14.85-2.56-22.24C548.05,264,551.85,269.42,549.46,275.61Z"/><path d="M548.54,307.67c-.34,6.82-.47,17.34,4.41,19.16,3.44-7.19-.67-8.46-2.7-11.71.8-2.07,1.15-8.89,3.69-6.12C552.9,310,550.39,304.59,548.54,307.67Z"/><path d="M547.69,334.45l4.33,5-.73-3.2,3.09-.37c-.77-.57-6.41-3-6.06-9.79C546,329.63,548.77,330.84,547.69,334.45Z"/><path d="M569.08,336.1c-2.13,4.62-.87,7.32.36,12.64-.43-7.39-.3-17.9-2.07-20.11l.76.58a63.9,63.9,0,0,0-5.27-11.87C565.86,324.88,561.32,338.32,569.08,336.1Z"/><path d="M569.45,326.64,572,332Z"/><polygon points="548.73 355.56 550.14 345.12 548.82 347.67 548.73 355.56"/><path d="M561.77,343.09c-.62,8.38,3.41-4.57,3.32,3.31.48,2.13-.12-11.57-2.18-12.21C562.12,336.25,565.39,342.22,561.77,343.09Z"/><path d="M548.38,362.38l3.25,8.59Z"/><path d="M546.31,383.86l2.31,1.69c-1.91,8.32,1.3,19.55-3.68,25.6,2.85-1.42,5.89,3.47,6.75-3.85-1.53-1.14-1.5-3.76-3.31-3.33.56-3.13,2.61-2.49,3.41-4.57-2.51-5.38-.6-13.71-2.87-18,.49,2.12,0,2.63-.3,4.18-4-9.15,5.8-10.74-.86-14.76C549.78,374,545.33,379.6,546.31,383.86Z"/><path d="M562,383.11l.87-7.35c3.07,2.28.15,9,3,10.17,1.81-.44,2.67-7.75,3.93-5.07-7.21-.89-.39-10-8.43-6.22-.91-9.52,4.42-2.93,4-13l-3.84-2.82C563.5,370,560.12,371.94,562,383.11Z"/><path d="M560.92,411.45,558.56,415l3.37-1.94c.58,16.36-13.28,25.95-11.33,35.84,4.57,12.34-2.23,23.82-1.53,36.4,2.93,6.14,1.72-5.89,3.52-6.53,5.7,1.76-3,6,1.67,8.84,4.14.8,4.46-12.9,7-18.3-.58-4.71-1.87-4.64-4.21-6.07,2.31-1.19,3-6,5.31-7.17-3.24-9.81,2.88-14.94-.61-24.59,3.14-3,.61,7.23,1.08,4l-.07-5.26-.52.56c-3.19-7.16-.23-20.38,1.89-25-1.07,3.6-3.68,6.12-4.66,1.85l3.66-3.5L557.77,395C561.3,402,554.23,410.07,560.92,411.45Z"/><path d="M567.5,401.27c1.94-11-5.44,1.3-3.74-10.71l.36,12.65Z"/><path class="cls-1" d="M558.41,453.7l-2.5,5.41C561,456.17,554.19,447.64,558.41,453.7Z"/><polygon class="cls-1" points="558.45 473.69 553.76 470.82 556.41 475.93 558.45 473.69"/><path d="M552.78,491.94c2.38,4.07,4.37-.8,3.79-5.51C556.37,490.68,554.34,492.9,552.78,491.94Z"/><path class="cls-1" d="M543.75,522c0-9.19-1.16,8.14-5.38,1.54C540.36,524.73,543,529.39,543.75,522Z"/><path d="M532.65,551.73c-.9-3.33-.06-4.68,1.07-5.13C533.63,549,533.37,550.94,532.65,551.73Z"/><path d="M547.16,437.08a20.32,20.32,0,0,1,.12-3.22C547.24,435,547.2,436,547.16,437.08Z"/><path d="M547.07,439.19l.09-2.11A19.1,19.1,0,0,1,547.07,439.19Z"/><path d="M537,507.42s0,0,0,0c.16-.24.26-.47.45-.72Z"/><path d="M549.16,217.27a17.73,17.73,0,0,1-.28-3.58c.11,1.17.21,2.37.32,3.53C549.19,217.25,549.18,217.25,549.16,217.27Z"/><path d="M555.67,209.93a7,7,0,0,1,.2,5,20.14,20.14,0,0,1-2.33,4.54,22.33,22.33,0,0,0-2.49,4.78,14.8,14.8,0,0,0-.27,7.22c-.15-1.23-.31-2.48-.46-3.74s-.27-2.46-.41-3.71q-.39-3.44-.71-6.8c1.17-1.88,1.91-2.72,2.42-2.89s.8.28,1.07.65.52.67.94.13S554.67,213.2,555.67,209.93Z"/><path d="M561.23,313.16a4.13,4.13,0,0,0,.14.42C561.53,314.32,561.38,313.94,561.23,313.16Z"/><polygon class="cls-1" points="236.83 197.79 236.76 199.08 230.01 197.44 236.83 197.79"/><path class="cls-1" d="M237.76,200.12l11.46,2.47-67.89.74,2.2-1.78C182.59,199.22,239.76,202.21,237.76,200.12Z"/><path class="cls-1" d="M241,198.1c6.59-5.33,10.95,1.94,19-1.83-5.39,2.52-9.22,5.3-14.42,3.95Z"/><path class="cls-2" d="M263.66,187.81c3.63,1.07,8-1.19,10-.39C272.41,191.52,266.78,188.36,263.66,187.81Z"/><path d="M273.42,172.2a7.88,7.88,0,0,1,1.68,0,13.19,13.19,0,0,0-1.72.76Z"/><path d="M273.38,172.93l-.1,1.85C272.1,174.06,272.42,173.48,273.38,172.93Z"/><path d="M275.1,172.17a18.52,18.52,0,0,0,4.2-2l-1.56-.28c2.13-.49,5.89-2,6.9-.94-4.2-.31-4.27,1-4.39,3.56l6.81.34C285.78,179,281.17,172.56,275.1,172.17Z"/><path class="cls-2" d="M296.64,170.68l-7,3.53C287.69,170.83,294,170.65,296.64,170.68Z"/><path d="M307,174.68c-1.64,1-8.46.67-4.33,2.27-1.12.69-2.44.54-3.84.53C303.41,176.64,299.08,172.51,307,174.68Z"/><path d="M298.8,177.48a9.85,9.85,0,0,1-2,.17A7.92,7.92,0,0,1,298.8,177.48Z"/><path class="cls-2" d="M225.52,192.75c.85.48.82.92.44,1.34Z"/><path d="M321,178.46l2.63,0a14.19,14.19,0,0,0-2.12.18Z"/><path d="M103,211.09c9.17,1.06,17.86,2.22,31.1-.09-.31-4.4,5.32-1.23,6.09-5.86-13.72.6,51.67-2.75,40.73-4.69l-3.28,2,3.4-4.6c6.57,1.16,15.57,4.83,20,2.19,1.23,1.44-56,.25-53.86,1.55-5.08-5.31,76.65-5.14,78.75-7.52l.91,2.8c10.16-3,16.68-7,25.22-9L254,191.3c-6.26-1.11-8,1.19-14.36,2.66,11.07-.64,13.08,1.45,21.53.78-.29-4.38-7.25-2.15,3.4-4.6,3.06,1.84-4,6.65,5.5,5.74,11.51,1.18,9.21-5.3,19.24-5.69l-6.76-1.63c3.69-.21,10.59-1.16,14.15,1.2-4.2-.31-14.85,2.14-14.55,6.53,4.25-1,13.64.68,17.34.47l-2.26,3.06c4.06,2.89,6.39-1.46,11.52,1.18,4.83-1.74-2.93-4.42-.24-5.68,1,1.05,10.38,2.71,13.64.69-2.29-6.47-11.14,1.92-17.13-4.34l8.89,1.14c5.58-6.38-14.22.09-11.33-5,6.67-6.63,13.9,6.36,20.1-2.08-4.11-1.59-17.26-1.76-15.58-4.06,4.64,2.39,8-2.15,14.37-3l7.75,3c3.27-2,.63-2.06-1.93-3.37,11.38,3.74,30.55-.66,46.64,3.93,9.51-.92,1.19-2.83,5.52-5.09,5.07,3.92,13.64.68,18.9.75,1.56.27,4.4-3.56,2.9-5.12L388,175.17c.64-2.06-1.3-5.43-6.05-5,3.29,7.52-18.71-4.61-19.68,3.89l.2-3.87-17,2.63.5.52c.07-1.29-14.35,2.66-23.73,1,2.69-1.25,18.4.24,9.15-4,7-2.23,19.41,1.27,32.11-.37L361,167.35c13.34-3.69,31,1.17,45.76.31l-4.39,3.56c5.2,1.36,11.89,4.28,16.78,1.24-6.32.18-3.07-1.84-1.93-3.37,8.52-2,21,.26,32.7-1.14,0,0-.57.76-.07,1.29l12.21-2.18c5.77.59,7.75,2.68,11.31,5,2.14-.49,7.41-.42,5.4-2.51a7.92,7.92,0,0,0-3-.19c6.17-3.9,4.32,1.14,12.05-1.24-6,3.27,1.86,4.67,1.15,8,9-1.44.84-5.92,2-7.46,11,1.94,12.38,4.79,23.4,5.45.63-2.06-7.82-1.39-8.75-3.72,3.13.55,6.82.34,7.38-.42l-6.75-1.63a103.78,103.78,0,0,0,17.12,2.27l.74,0,1,0,2,0,4,0c2.71,0,5.44,0,8.24-.1,5.58-.13,11.38-.4,17.59-.81l-1.28-1,15,.1q-4.32,1.91-8.26,3.83a31.16,31.16,0,0,1,6.91,0c2.09.21,4,.52,5.82.62-.13,2.66.08,4.6,1.28,5.14l.28-3.08,1.21,8.73c-1.26-2.43-2.53-4.63-3.79-6.58a32,32,0,0,0,.28,9.34c.49,3.08,1.31,6.31,2.15,10s1.71,7.78,2.33,12.37a89.16,89.16,0,0,1,.83,14.93c-1.29,1.14-2.06-.56-2.57-3.6s-.8-7.49-1.12-12.06a103.21,103.21,0,0,0-1.4-12.62c-.7-3.38-1.75-5.37-3.42-4.74A110.84,110.84,0,0,0,570,202.48c-.18,3.7,0,6.91.87,8.43,1.81-1.22,1.85-5.67,1.88-10.08a61.61,61.61,0,0,1,1.23,13c0,2.4,0,4.85-.06,7.3l-.09,3.65-.09,2.17c-.23,5.58-.17,10.71,2.76,13.76l2.15-7.25c.67,8.44-6.36,13.87-2.53,16.71l-6.62-6.66c3.25,8.58,2.59,19.6,5.07,27.62,3.86.21-.11-11.58.66-11l2.78,3.83c-2.21,12.51-2.36,3.57-4.61,18.71l2.58.14c-3.93,5.06,3.63,18.6-3.26,13.5l1.59-4.11-3.1.35L573.27,310c-2.3-1.7-1.63,6.75-4.7,4.49l2.76,6.45c-4.42,2.94-5.27-11.85-8.61-12.54-2,.23-1.78,3.27-1.49,4.76-3.27-7.78,4.41-11.61,4.5-19.33L563,290l3.86.21a13.57,13.57,0,0,0-4.81-7.08c5.25-7.64-1.1-15.85.08-27.37,2.2,9.57,3.69-6.12,4.7-4.49.06-5.26-6.74-18.25-2-22.74,1.85-3.07,2.76,6.45,3.62-.87q-.09-.9-.24-1.71c-.11-.56-.23-.94-.37-1.75a12.08,12.08,0,0,0-1-3.21c-.8-1.44-1.76-1.31-2.68.88-.46-5.68-.59-11.63-.59-17.85s.13-12.68.2-19.1c-3.47,0-6.92-.07-10.35,0,1.88-.85,3.85-1.7,5.89-2.55-4.39-1.07-10.14-.73-15.12.23A48.16,48.16,0,0,0,532,186.47c-1.09-1-2-.28-.22-1.8a17.88,17.88,0,0,0-8.19-1,20.3,20.3,0,0,0-5.3,1.9c-3.71,1.73-8.16,3.86-15.76,3.38.86,3.63,7.69,4,12.5,2.22l-1.25,4.11a234,234,0,0,0,41.89-3.13q-4.21,1.51-7.92,3a3.75,3.75,0,0,0,4.09,1.51c.4,1.08,1.66.79,2.25,1.59a2.8,2.8,0,0,1,.21,2.24,20.76,20.76,0,0,1-1.92,5.12c.74,2.67,1.27,1.29,1.83-.51s1.17-3.93,2-1.86c-.59,2.91-2.37,3.59-4,4.68a6.42,6.42,0,0,0-3.34,5.73c-.38-4.37-.68-8.69-.92-13.1-5.25.27-10.36.46-15.43.61l-7.55.18-9.06.15c-12.53.17-25.09.27-37.22.55-.57.76,1,1,2.56,1.32-10.28,5.54-93.14-9.37-95.82,1.43-1.49-1.57,3.34-3.32-3-3.13-.57.76-2.19,1.77-.7,3.34-16-5.87-37.38.31-56.65-3.54.43,1.81-3.83,2.79-3.9,4.08-6.61-4.21-17.9.29-24.1-2.11l2,2.09-19.48,0c-.58.77,2.06.8,3.63,1.07-4.26,1-5.2-1.35-5.62-3.16L269,208c-25.39-7.53-57.05,4.2-86.27-.56-4.39,3.56-8.15,5.07-15.55,5.49l3.63,1.08c-7.52,3-.44-1.81-6.83-.35-4.34,2.27-1.32,5.4,4.57,3.41,3.68,1.21,1.41,2.46-1.23,3.32C143.84,220.05,122,217.64,103,211.09Z"/><path d="M523.89,633.5c1.68-2.55,1.48,10.07,5.08,3.9,7-19.63,1.41-51.51,6.91-74.75,2.72-6.2,2.79-7.85,4.26-13.43a3.69,3.69,0,0,0-2,.15c.24-6.34-.8-16.57,1-22.89-.74-1.81-3.55-3.13-2.88.32-2.45-9.62,5.21-16.6,3-22-1.85,4.68-2.67-4.65-4.14.94-.38-10.09,9.51-9.18,10.68-17.15-.77-.47-1.56-1-1.8.65,4.26-8.7-2.45-26.7,4.5-27.65l-2.89-3.51c2.27-3.83,3.83-2.87,4.77-9.24-1.09-4.15-2.58.16-3.64-1.36,2.81-1.75,1.55-12.89,5.49-17.95,4.38-.3-5.87,9-1.93,14.05.87.16,1.13-.57,1.23-1.6-1.07,26.39-13.34,46.5-10.06,68.2-3.08,4.77-.2,8.44,2.82,10.56,1.4-3.91,4.34-15.09-1.79-15.35l4-6.79c-.3-2.57,5.88-2.51,6.9-3.63-.71,4.79,5.3,10.21,7.53,3.75.7,12.59-13-4.06-11.47,7.1l4.43,1.62c-2.37-2.11-4.42,7.54-2.93,11.15l.88-1.5c-2.1,29.68-.13,69.29,1.33,102.11-11,8.06,3.86,24.08-5.06,31.66,1.48,3.61,3.91-5.14,5.25,1.79.66,3.47-2.21,3.78-3,3.62.29,1,.58,2.11.88,3.18C540.44,662,530.94,655.88,523.89,633.5Z"/><path class="cls-1" d="M325,39a6.48,6.48,0,0,1,4.17-2.58,2.34,2.34,0,0,1,3,2.28c-.17-1.93-.26-2.89.09-3.77A10.17,10.17,0,0,1,335,31.71c.17,2.57,3.22,1.62,5.2,1.27a6.12,6.12,0,0,0-3.28-1.6,28,28,0,0,0-5.45-.42,4.89,4.89,0,0,1-3.55,2.47,11.09,11.09,0,0,1-2.26.16c-.79,0-1.59,0-2.4,0a15.41,15.41,0,0,0-4.62.34,4.51,4.51,0,0,0-3.1,3C318.59,37.55,321.94,41,325,39Z"/><path class="cls-1" d="M343.68,54l.46-1.55c-1,.41-2.05.88-3.05,1.37l-3,1.44C339.21,54,343.39,52.14,343.68,54Z"/><path d="M364.1,50.47c-.83,2.74,2.14,4.76,1.75,7.31.28-2.83,1.55-3,3.08-2.43s3.28,1.83,4.67,1.7L375.47,53a5.41,5.41,0,0,0-2.42-2.08,11.2,11.2,0,0,0-1.72-.67,19.42,19.42,0,0,0-2-.41c-1.39-.23-2.88-.39-4.39-.56s-3.05-.22-4.5-.44Z"/><path class="cls-1" d="M368.86,54.33l2.2-2.53C369.42,52.33,365.91,52.31,368.86,54.33Z"/><path class="cls-1" d="M366.73,38.62c-4.84-.94,2.73,2.19-2.25,2.56C366.18,40.6,368.11,40.67,366.73,38.62Z"/><path d="M385,50.77c-3.39-.07-6.72-.2-10.06,0,1.21.87,2.42,1.69,3.58,2.6Q381.64,52,385,50.77Z"/><path d="M383.18,59.89c-1.16-.29-2.68-2.29-.61-3.35a3.84,3.84,0,0,0,4,2.05c1.39,0,2.82-.15,3.88,1.7-1.09.17-2.19.39-3.27.58-.31,1.81,1.42,1.29,3,1.2s3,.17,1.86,3.2c2.59-1.52,2.36-3,2.16-4.39s-.33-2.49,2.76-3.14a19.4,19.4,0,0,1-6.59-2c-1.94-.9-3.7-2.09-5.66-3.19.89,1.57,1.43,1.51,2.83,3a17.66,17.66,0,0,0-5.25-.14,41.14,41.14,0,0,1-5.61.15c.52,2.18,1.54,2.57,2.77,2.71S382.08,58.41,383.18,59.89Z"/><path d="M396.93,65.22a13.57,13.57,0,0,0,5,1.71,5,5,0,0,0,5-2.33C406,62.33,405,62.06,404,62.53s-2.13,1.71-3.21,2.36c-.59-1.09-3.44-2.58-1.32-4.48C399.48,61.55,396.25,63,396.93,65.22Z"/><path d="M407.81,70.84c1.31-1,2.63-1.89,4-2.82l-1.66,0,1.22-2.85a22.81,22.81,0,0,1-2.59,2.55c-1.28,1-2.8,1.78-4.15,1C405.09,71.5,406.8,69.12,407.81,70.84Z"/><path d="M418,52c1.22,3,3,2.48,6.1,2.78-3.64-1.49-8.55-4.12-10.38-2.93l.6-.56a24.62,24.62,0,0,0-2.57.47,21.56,21.56,0,0,0-5.16,1.85c2.36-.66,4.64.85,6.61,1.5S416.75,55.78,418,52Z"/><path d="M413.61,49.55l3.69-1.09Z"/><path d="M416.79,74.49c-1.15-1.18-2.29-2.45-3.5-3.59.14.57.29,1.12.41,1.71Z"/><path d="M417.86,60.18c3.49,2.48-.48-4.08,3.06-2.16,1.21.07-5.38-2.63-6.54-.91C414.94,58.28,419.15,56.77,417.86,60.18Z"/><path d="M419.31,76.37c1.67-.21,3.36-.41,5.09-.59C422.67,76,421,76.16,419.31,76.37Z"/><path d="M426.26,83.52l2-1.43c1,1.84,2.9,3,4.54,4.34a5.34,5.34,0,0,1,2.2,5.76c1.38-2.59,5.1-3.37,3.07-6.27-1.39.82-2.28,0-3.29,1.52-.75-1.34.76-2.73.51-4A6.41,6.41,0,0,1,430.88,82c-1.3-.82-2.57-1.58-4-1.23,1.07.16,1,.72,1.38,1.35-2.88.42-3-1.45-3.16-2.93s-.29-2.47-2.88-.19c1.17-.44,1.72.58,2.15,1.82S425.19,83.36,426.26,83.52Z"/><path d="M435.15,70.53l-2.54-2.86c2.69-1.86,3.81,2.51,6,.59.9-1.59-1.74-4.52.13-4.73-2.27,2.8-3.38,2.13-4.31,1.73s-1.68-.5-3.1,3.35c-4.52-1.81,1.19-4.49-3.38-6.94-1.07.82-2.16,1.69-3.22,2.55a9.25,9.25,0,0,1,5.29,3A10.86,10.86,0,0,0,435.15,70.53Z"/><path d="M445.6,80.25l-.23,2.93L446.89,80a7.86,7.86,0,0,1,2.87,5.1,22.78,22.78,0,0,1,.16,6.29,48.2,48.2,0,0,0-.34,5.61,5.54,5.54,0,0,0,.41,2,2.35,2.35,0,0,0,1.17,1.27,6.78,6.78,0,0,1,4,2.19,11.22,11.22,0,0,1,1.91,3.87c1,2.81,1.26,6,3.24,8.14,4.06.68-.17-3.2,1.11-4.49,2.56-1.32,2.37-.29,2.1.84s-.61,2.36,1.69,1.63c1.85-1,1.88-2.9,1.47-5s-1.19-4.49-1.07-6.29c-1.92-1.5-2.9-.67-5.16.24,1.45-1.91.51-4.2,1.85-6.13-2.86-.81-3.5-2.7-4.26-4.55s-1.62-3.66-4.54-4.19c1.17-3.31,3,2.22,2.17.72-.63-.62-1.25-1.26-1.9-1.87l-.16.56c-2.44-.12-4.29-1.81-5.62-3.91a15.52,15.52,0,0,1-2.47-6c.71,2-.07,4.81-2.31,4.17l1-4c-2.33.36-4.66.82-6.93,1.27,2.43-.31,3.41,1.49,4.21,2.88S443.14,82.54,445.6,80.25Z"/><path d="M445.88,71.85c-3.28-5-2.87,4.65-6.66-.48l5.3,3.72Z"/><path class="cls-1" d="M458.54,96.9q-.07,1.81-.18,3.6C461.35,96.13,453.4,97.4,458.54,96.9Z"/><path class="cls-1" d="M464.73,104.54c-1.52.54-3.07,1.13-4.59,1.71,1.22.1,2.4.24,3.59.39Z"/><path d="M465.08,115c3.05.35,3.47-2.7,1.72-4.31A3,3,0,0,1,465.08,115Z"/><path class="cls-1" d="M464.16,131.41c-.93-1.8-.78-.86-1,.43s-.94,2.91-3.47,2.61C461.66,134,465,134.64,464.16,131.41Z"/><path d="M459.18,147.4c-1.33-.92-.75-1.73.24-2.33A2.28,2.28,0,0,1,459.18,147.4Z"/><path d="M444.94,98.63a4.23,4.23,0,0,1-.92-1.14Z"/><path d="M445.54,99.38l-.6-.75A4.28,4.28,0,0,1,445.54,99.38Z"/><path d="M455.25,129.13h0a3.07,3.07,0,0,1,.24-.48Z"/><path d="M356.08,56.16a5.7,5.7,0,0,1-2,.23c.65-.09,1.31-.16,2-.27Z"/><path d="M354,49.6c1.87-1.44,2.8.3,3.92,2.28s2.44,4,5.37,3.18c-2.35.48-4.77.75-7.22,1.06-1.52-2.37-.89-3-.41-3.5S356.41,51.65,354,49.6Z"/><path d="M404,54.37c.09,0,.15,0,.25,0C404.64,54.31,404.4,54.38,404,54.37Z"/><polygon class="cls-1" points="228.44 129.71 229.58 130.31 228.13 131.34 226.75 132.42 227.56 131.05 228.44 129.71"/><path class="cls-1" d="M230.72,130.37c1.55-1.18,3-2.37,4.58-3.46a129.75,129.75,0,0,0-10.72,28.37l-1.44-1.43c-.58,0-.43-1.62.18-3.9.34-1.14.79-2.45,1.29-3.86.26-.7.5-1.43.8-2.15s.62-1.45.94-2.18C228.77,135.9,231.85,130.43,230.72,130.37Z"/><path class="cls-1" d="M229.6,128.11c-1.65-2.58-.67-3.56.64-4.4s2.75-1.66,2.07-4.28c.91,3.52,2.44,6.33.14,7.77Z"/><path class="cls-2" d="M226,113.54c1.88-.94,1.15-4,2.38-4.42C231.46,111.91,227.33,112.5,226,113.54Z"/><path d="M215.64,100.8a2.29,2.29,0,0,1,.47-.8,6.3,6.3,0,0,0,.12,1.22Z"/><path d="M216.23,101.22l1.51,1.07A1.19,1.19,0,0,1,216.23,101.22Z"/><path d="M216.11,100a10.13,10.13,0,0,0-.27-3l-.74.56c.29-1.25.3-3.86,1.48-3.72-1.63,1.76-.6,2.53,1.48,4.06L220.52,95C225.06,99.21,218.39,97.41,216.11,100Z"/><path class="cls-2" d="M222,89.47c.11,1.75.25,3.48.4,5.19C219,93.49,221.06,90.6,222,89.47Z"/><path d="M228.67,87.57c.16,1.3-2.39,4,.24,3.24.16.9-.39,1.37-.86,2,.43-1.23-.51-2.05-1-2.8S226.43,88.49,228.67,87.57Z"/><path d="M228.05,92.76a3.32,3.32,0,0,1-.52.94A2.27,2.27,0,0,1,228.05,92.76Z"/><path class="cls-2" d="M221.6,132.41a1.18,1.18,0,0,1,1.31.36Z"/><path d="M236.51,84.44l1-1a4,4,0,0,0-.65.93Z"/><path d="M227.65,189.84A27.92,27.92,0,0,0,229,184a16.67,16.67,0,0,0-.76-7.22c-4.39-.34-.94-2.36-5.49-3.28,0,3-.2-2.68,0-8.66,0-1.51.13-3,.14-4.41s0-2.68,0-3.71c0-2-.32-3.09-1.13-2l1.55,2c-1.34-.88-2.68-1.77-4-2.69,1-1.31,2.6-2.71,3.79-4.07s2-2.7,1-4.1c.39,0,.08,1.5-.57,3.76-.35,1.12-.63,2.48-1,3.9s-.87,3-1.17,4.5-.68,3.08-1,4.51-.47,2.79-.64,3.92c-.31,2.28-.4,3.72,0,3.53-2.77.79-2.85-8.2-1.11-17.53s5.16-18.69,4.34-19.61l2.73.76c-.18-1.39-.48-2.74-.77-4s-.59-2.53-.87-3.76a22,22,0,0,1-.83-7.15l3.41.84a3.46,3.46,0,0,0-1.4,3.2,28.42,28.42,0,0,1,.44,4.17,11.78,11.78,0,0,1,3-4.77,10,10,0,0,0,2.65-3.85,3.67,3.67,0,0,0-3.17-.55c-.18,0-.23-.08-.2-.54s.13-1.28.33-2.7c2.36-.27,4.62,5.12,6.28.84,1.93-2,1.48-3.57.83-5.28s-1.51-3.47-.23-5.59l-3.26,1.76a24,24,0,0,1,1.77-3.11,4.21,4.21,0,0,1,3.39-1.78,6.58,6.58,0,0,0-1.48,4.39,5.91,5.91,0,0,0,2.52,5.13,7.21,7.21,0,0,1,2.4-3.42,18.75,18.75,0,0,0,2.87-2.81l1.75,2.74c1.71.16,1.86-.63,2.05-1.5s.44-1.79,2.2-1.82c.13-2.82-4.25-1.85-4.39-3.6,1.13.3,5.18-1.92,4.81-4.35-2.71-1.81-3.35-.54-4,1s-1.37,3.17-4.73,2.27l3.69-2.51c-1.49-3.15-2.62-1.83-3.74-.26a7.63,7.63,0,0,1-1.72,2c-.59.38-1.23.31-2-.79-1.5-3.4.93-3.73,3.06-4.12a4.08,4.08,0,0,0,2.58-1.07c.51-.65.49-1.74-.5-3.76-2.67.34-7.15,5.42-8.36,3.26,1.7-.14,2-1.26,2-2.75,0-.75,0-1.59.07-2.44a5.89,5.89,0,0,1,.72-2.43c1.67-.31,3.33-.6,5-.87-.26-2.66-1.23-1.7-3.12-1.63a10.08,10.08,0,0,0,2.45-1,14.81,14.81,0,0,0,2.34-1.55c1.54-1.17,2.95-2.71,4.6-4.12a37.07,37.07,0,0,1,5.22-4.11,17.49,17.49,0,0,1,6.37-2.42c3.5-3.61-1.16-2.63-.63-5.8,2.26.82,3.79-.11,5.14-1.37s2.48-2.9,3.68-3.63c.84-.22.16-4.3-1.35-5.21q-2.46,3-4.82,6c-.85-1.91-3.64-4.11-5.55-2.18,2.89,2.55.14,3.09-2.82,3.94s-6,2.25-3.54,5.71L247.44,63c-1,1.3-1.89,2.69-2.79,4.05L242,71.1l.56.21c-.43-.51-1.42,1.36-2.88,3.6a39.22,39.22,0,0,1-2.52,3.46A11,11,0,0,1,234,81.14c.05-1,1.83-2.75,2.79-4.2s1.18-2.53-2.18-2.25c.62-2.14,2.83-3.81,5.36-5.67,1.3-.88,2.7-1.81,4-2.88a24.29,24.29,0,0,0,2-1.74,22.8,22.8,0,0,0,1.82-2L245,61.28a14.71,14.71,0,0,1,4-4.88,32.54,32.54,0,0,1,5.7-3.53c2-1.08,4.2-1.93,6.23-2.92,1-.49,2-1,3-1.54a24.21,24.21,0,0,0,2.74-1.69c-.12,1.44-.23,2.87-.32,4.3a49,49,0,0,0,5.21-.39,5,5,0,0,0,2.18-1A3.68,3.68,0,0,0,275,47.54c-3,1.76-2.39-.84-2.54-2.49a12.58,12.58,0,0,1,3.19-2.54,28.93,28.93,0,0,1,4.14-2,54.23,54.23,0,0,0,9-4.27,1.76,1.76,0,0,0,.44,1.22C291.09,35.94,293,34.38,295,33c3.33-.5,5,1.09,7.62,2.78,1-.8,3.84-1.54,2.19-3.24a2.63,2.63,0,0,0-1.69.28c1.12-2.35,1.81-2.24,2.63-2s1.78.65,3.61-1c-1.24,2-.67,3.08.22,4s2.13,1.92,2.35,3.59c2.2-1.25,2-2.72,1.24-4.08s-2.08-2.59-1.95-3.41a22.79,22.79,0,0,1,7.07,1.71A14.54,14.54,0,0,0,325,32.71c0-2.09-4.45-.63-5.4-2.82,1.83.23,3.81-.33,4-1.14l-4-.94a43,43,0,0,0,5,.64,38,38,0,0,0,4.88.13,43.87,43.87,0,0,0,4.89-.56,36.35,36.35,0,0,0,5.1-1.2l-.63-1c1.49-.09,3-.16,4.45-.14l-1.41,3.87c2.32-1,4.9,2.3,6.1-.79l-.87-.26c1-.43,2-.87,2.95-1.28-1,1.27-2,2.57-3,3.86a3.7,3.7,0,0,0,3-.34,28.42,28.42,0,0,0,3.56-2.07,25.74,25.74,0,0,1,4.11-2.22,8.35,8.35,0,0,1,4.5-.52c.47,2.65-2.21,2.84-5.12,3.36s-6.05,1.33-6.44,4.66c1.95,1.12,5.19,2.32,6.45.57-.15-1.81-1.57-1.88-3-2a7.68,7.68,0,0,1,4.35-1.09,39.18,39.18,0,0,1,4.59.59c3,.41,5.76.76,7.81-1.94l-3.76-2.64c2.39,0,4.14,1.78,5.48,3.16s2.32,2.35,3.4.6l-2.31,3-2.25,3a12.72,12.72,0,0,1,1.91-.81,13.05,13.05,0,0,1,2-.43,31.56,31.56,0,0,1,4-.32c2.68-.13,5.27.1,7.7-.64.51-1.86-1.07-2.2-2.69-2.14-.82,0-1.64.15-2.23.22s-.95.14-.84,0c.87-.79,1.75-1.54,2.64-2.29,3.18,1.86,3.5,2.55,4,3.28s1.23,1.46,4.89,3.7l.77-2.47c.8,2.3,3.51,2,5.43,2.18s3.09.29.67,3.12L398,38.38l-.76,3c3.17.35,6.42.61,9.6,1.17-1.68,1.82,2.78,2.85.5,5.25,1.4-.43,2.83-.88,4.24-1.23-.17,2.37-2.11,2.86-4.23,3.33s-4.33.69-5.08,2.19c-.61,1.94.89,2.26,1.69,2.27-2.42.81-3.33-.77-4.19-2.69s-1.65-4.22-3.53-4.9c-.92.67-1.82,1.34-2.72,2l1.25-3.66c-1.83.24-3.9,2.29-4.86,3.62-1.14-3.06-3.21-3.38-5.6-3.09s-5.07.91-7.83-.13c2.59-.65,2-1.69.88-2.68s-2.83-1.93-2.33-2.35a5.85,5.85,0,0,0-2.78.5c-1.12.41-2.37.95-3.57,1.36a7.51,7.51,0,0,1-3.33.52A2.65,2.65,0,0,1,363.14,41c-1.44-2,3.6-2.48-.14-3.64-2.55.27-4.35,2.16-2.9,4.12a52.78,52.78,0,0,1-8.68.21c-1.5-.11-3-.11-4.54-.13s-3,0-4.5.06l1.31-2.59a4.86,4.86,0,0,0-5.33.55,12.76,12.76,0,0,0-3.61,4.23c-.61-1-.82-.18-.41-1.77-2.57-1.82-4-.31-5.59,1.63-.41.49-.83,1-1.29,1.51a11.85,11.85,0,0,1-1.52,1.48,7.38,7.38,0,0,1-4.42,1.66c1.15,3.48,4.4,3.24,6.44,1.11l0,4.17c6.19-.77,13-2.31,18.13-4.78-.77,1-1.51,2.07-2.25,3.1,2.28,2.7,3,1.35,3.72.1.36-.63.73-1.23,1.26-1.29s1.23.42,2.24,2c3.06-1.39-2.19-2.17.13-3.86,2.15,1.23-.61,7.1,2.87,7.45-6.56.76-13.44,1.55-20.32,2.63-1.72.31-3.46.49-5.16.88L323.51,61c-3.36.87-6.7,1.68-9.87,2.83,0,.8.73.88,1.47,1a4.55,4.55,0,0,1-2.64,2,34.88,34.88,0,0,1-5.08,1.5c-4,.88-9.09,1.89-14,3.26-2.43.74-4.84,1.53-7,2.42a36.85,36.85,0,0,0-5.68,3c-3.08,2.23-4.66,4.51-3.33,6.94-1.44-.91-.65-3.61-2.88-1.8A3.88,3.88,0,0,0,276.12,85a10.26,10.26,0,0,0-6.1,1.41,22.23,22.23,0,0,0-5,4c-1.55,1.56-3.1,3.17-4.72,4.7a19.6,19.6,0,0,1-2.64,2.05,16.6,16.6,0,0,1-3,1.67c1.44,1.11.84,3.16,1.77,4-2.58-.41-3.82,1.2-4.89,2.87-.52.85-1,1.7-1.57,2.42a3.38,3.38,0,0,1-2.07,1.44l2.18.6-2.64,3.37L245,117c.49.64,1.18-.28,1.8-.67-.26,2.07-2.42,1.07-4,.2.47,1.89,1.1,3.83,1.68,5.68a12.26,12.26,0,0,0-3.94,2.56,17.43,17.43,0,0,0-2.77,3.6,24.83,24.83,0,0,0-1.84,4.32c-.25.76-.5,1.52-.7,2.31l-.54,2.4c-.75,3.18-1.14,6.5-2,9.58a24.22,24.22,0,0,1-3.88,8.8,13.76,13.76,0,0,1,3,3.74,6.85,6.85,0,0,1,.69,4l1.39-1.22c2.23,3.66-1.81-.22-1,2.66,1.82,2.17,5.17,1.62,3.75-1.07,1.51-1.16,2.51,0,3.13,1.2C237.38,173.89,234.21,181.86,227.65,189.84Z"/><path d="M457.91,180.15c1.6-1.13,1.76,3.69,5.18,1.07a12.26,12.26,0,0,0,1.83-3.29,16,16,0,0,0,.72-3.62,31.06,31.06,0,0,0-.5-7.81c-.22-1.33-.53-2.66-.76-4s-.45-2.68-.67-4a24.42,24.42,0,0,1-.27-4,17.81,17.81,0,0,1,.31-4c1.78-3.36,1.51-4,2-6.79a9,9,0,0,0-1.85.81,15.11,15.11,0,0,0-.82-2.11c-.34-.75-.77-1.51-1.13-2.31a9.73,9.73,0,0,1-1.1-4.83c-1-.36-3.77.42-2.52,1.39-2-1.22-1.6-3.33-1.16-5.32s.92-3.8-.61-4.24c-.61,2.63-3.26-.33-3.37,2.43-1.17-1.71.32-3.72,2-5.83s3.61-4.26,3.13-6.09c-.76.25-1.53.51-1.34,1.24a4.54,4.54,0,0,0-.73-3.74,23.37,23.37,0,0,0-2.53-3.06c-1.8-1.84-3-3.52-.48-5.89-1.09.19-2.14.37-3.24.6.62-2.75,2.09-3.44.87-6.29-2.08-.72-1.88,1.77-3.13,2a2.44,2.44,0,0,0,.26-2,13.47,13.47,0,0,0-.94-2.19,8.11,8.11,0,0,1-1-5.63c1.5-1.61,1.25.19,1.09,2.25s-.18,4.31,2.08,3.82c.69-.53.65-1,.39-1.37a17.41,17.41,0,0,1,2.33,3.93,23.85,23.85,0,0,1,1.5,4.25,59,59,0,0,1,1.39,8.69c.15,1.41.3,2.77.51,4.06a29,29,0,0,0,.72,3.73,14.44,14.44,0,0,0,1.35,3.25,10,10,0,0,0,2.22,2.75c-1.63,3.27,1.55,3.27,4.68,2.73.55-2.19.5-8.06-4.83-5,.65-1.52,1.31-3.09,1.86-4.64-.87-.81,4.37-4.08,4.95-5.08.31,1.15,2.09,1.46,3.83,1s3.47-1.57,3.53-3.51c2,2.51-1.16,3.75-4.13,4.86s-5.9,2.16-4,4l4.21-1.57c-1.28.16-1.79,1.49-1.73,2.85a4.69,4.69,0,0,0,.51,1.93,2.28,2.28,0,0,0,1.19,1.23l.46-1c2.4,6.61,5.56,14,8.54,21.69a182.35,182.35,0,0,1,7.46,23.44c-5.23,2.64-3.84,5.14-2.47,7.81a10.12,10.12,0,0,1,1.56,3.92c0,1.25-.71,2.43-2.91,3.35,1.53,1.65,3.85-2.52,5.27.7.71,1.64-2.17,1.82-3,1.75l.91,1.47a32.15,32.15,0,0,1-27.7-9.69Z"/><path class="cls-1" d="M416.13,318.42c-2.65.91-6.15-.42-3.88-3.54-2.27,3.12-2.27,3.12-5.88,4,1.52-2.08-.7-2.78-2-3.41-.11,2.18,1,3.35,3.3,5.69,5.59-2.9,5.72,7.5,11.45,4.07C418.31,323,419,318.62,416.13,318.42Z"/><path class="cls-1" d="M415.07,297l-1.23,1,5.54.92C417.82,299.4,414.17,298.6,415.07,297Z"/><path d="M399.31,291c2-2,.81-4.86,2.33-6.95-3.18,4.71-4-1.37-6.2-2.06l-3.23,3.05c0,3.83,5.2,5.83,8.75,8.81Z"/><path class="cls-1" d="M397.75,286,395,287.44C396.38,287.53,398.93,288.8,397.75,286Z"/><path class="cls-1" d="M391.53,300.33c2.74,2.37-.71-2.79,2.8-1.45C392.9,298.78,391.63,298.14,391.53,300.33Z"/><polygon points="384.16 284.5 391.64 287.21 390.13 283.82 384.16 284.5"/><path d="M389.15,276.65a1.84,1.84,0,0,1-.86,3.22c-.28-4.4-4.45-1.4-4.87-5.26l2.84.2c1.8-3.16-6.3.11-2.5-5.09-5.31,1.82-1.1,5.93-6.45,6.11,4,1.37,5.63,4.22,7.76,7.09-.05-1.64-.52-1.67-1-3.34,2.08,1.23,5.87,1.49,8.42,2.76C393.6,278.05,389.71,280,389.15,276.65Z"/><path d="M379.64,268.88c-1.94-1.77-5.16-4.18-8.53-.58.28,4.39,3,1.3,5.21.35.2,1.11,2.13,2.89-.19,4.37C376.41,271.94,379.54,271.07,379.64,268.88Z"/><path d="M371.74,262.32l-4,2.46,1.42.1-1.66,2.62c.62-.51,4.6-4.61,6.54-2.83C374.25,262,372.25,264,371.74,262.32Z"/><path d="M359,279.49c-.23-2.76-1.79-2.31-4.16-2.47,2.56,1.26,5.77,3.67,7.48,2.7l-.62.5a24.88,24.88,0,0,0,6.73-1.72C364.33,279.31,362.72,272.64,359,279.49Z"/><path d="M361.72,281.86l-3.13.88Z"/><polygon points="364.55 258.55 367 261.99 366.96 260.35 364.55 258.55"/><path d="M361,272c-2.26-2.34-.52,3.79-2.93,2-1-.07,3.69,2.44,5.06.89C362.91,273.75,359.17,275.12,361,272Z"/><path d="M362.61,256.77l-4.55.79Z"/><path d="M357.07,250.38l-1.85,1.52c-1.51-3.39-6.86-3.21-5.9-8.62-1.19,2.65-4.46,4.07-2.66,6.38,1.23-1,2-.41,2.93-2,.66,1.14-.71,2.69-.52,3.8,3.12-.88,4.64,2.5,7.28,1.59-.94-.06-.8-.6-1.13-1.16,5.17-1.29,0,7.1,5.11,2.53C358.16,255.37,359,250.51,357.07,250.38Z"/><path d="M348.29,263.44l1.8,2.31c-2.47,2-2.89-1.83-4.88.21-.9,1.58.89,3.89-.66,4.33,4.4-5.71,3.35,1.88,6.77-5.54,3.5,1.33-1.61,4.26,1.75,6.13l3.08-2.52C351.56,267.49,352.89,264.31,348.29,263.44Z"/><path d="M340.06,256.31l.24-2.72-1.33,3.2c-5.44-3.12-.5-16.57-4.72-17.13-6.48,1-6.17-7-10.51-9.23-3.6,1.06.86,2.7,0,4.31-3.82,4.29-.15-3.77-3.73-.56-2.62,3.22,1.48,6.48,1.75,9.7,1.8.55,2.52-.51,4.31-2.12-1,2.15.15,3.77-.8,5.92,4.92-.51,3,5.63,8,4.88-.85,3.23-2.61-1.08-1.88,0l1.69,1.09.12-.54c4.07-1.06,6.51,4.27,6.74,7-.51-1.67.19-4.35,2.09-4.22l-1,3.76,5.92-2.33C342.81,258.69,344.33,251.13,340.06,256.31Z"/><path d="M339.48,263.93c2.32,4,2.71-4.74,5.5-.72l-4.17-2.47Z"/><path class="cls-1" d="M328.29,245l-.27-3.24C326,246.61,332.6,242.88,328.29,245Z"/><polygon class="cls-1" points="322 240.66 325.59 237.45 322.47 238.5 322 240.66"/><path d="M319.54,232c-2.64,1.06-2.25,3.75-.44,4.3C317.88,235.25,318.35,233.09,319.54,232Z"/><path class="cls-1" d="M315.31,218.05c2.88,2-1.88-2.74,2.6-4.75C316.4,214.67,313.41,215.83,315.31,218.05Z"/><path d="M312.37,202.44c1.55,0,1.5,1,1,2C312.65,203.84,312.2,203.21,312.37,202.44Z"/><path d="M339.93,239.42a3.16,3.16,0,0,1,.94.81C340.54,240,340.25,239.69,339.93,239.42Z"/><path d="M339.32,238.89l.61.53A2.68,2.68,0,0,1,339.32,238.89Z"/><path d="M323.73,215.72h0a5,5,0,0,1,0,.52Z"/><path d="M407.93,289.42a3.81,3.81,0,0,1,1.5.71c-.5-.23-1-.46-1.5-.67C407.92,289.45,407.93,289.44,407.93,289.42Z"/><path d="M405.75,295.84c-4.08.8,1.52-7.55-3.55-8.45a51.91,51.91,0,0,1,5.73,2.07C407.43,294.83,404.81,290.31,405.75,295.84Z"/><path d="M370.65,278.07a1.77,1.77,0,0,0-.21,0C370.11,278.07,370.32,278,370.65,278.07Z"/><polygon class="cls-1" points="512.4 364.43 513.16 363.38 514.34 366.2 512.4 364.43"/><path class="cls-1" d="M513.44,362.31l-2.17-4.52L532.94,372l-1.71,1C530.19,375.13,514,360.16,513.44,362.31Z"/><path class="cls-1" d="M511.26,363.26c-5.12,2.92-2.31-4-7-2.67,3.13-.88,5.92-2.33,6.77-.08Z"/><path class="cls-2" d="M498.28,366.73c-.52-1.67-3.17-.76-3.35-1.87C497.67,361.78,497.62,365.6,498.28,366.73Z"/><path d="M486.29,377.39a1.12,1.12,0,0,1-.55-.34,5.39,5.39,0,0,0,1-.25Z"/><path d="M486.72,376.8l1.09-1.49A1.53,1.53,0,0,1,486.72,376.8Z"/><path d="M485.74,377.05a7.93,7.93,0,0,0-2.44.69l.34.56c-.95-.06-3,.34-2.71-.73,1.14,1.17,1.9.13,3.42-2l-1.94-1.77C486.32,369.1,484.06,375.4,485.74,377.05Z"/><path class="cls-2" d="M478.15,373.55l4.21-1.35C481,375.39,479,374.15,478.15,373.55Z"/><path d="M477.2,368c1.1-.47,3,1.3,2.66-.91.75-.33,1.08.08,1.51.4C479.44,367.19,478.43,371.53,477.2,368Z"/><path d="M481.37,367.51a1.76,1.76,0,0,1,.72.29A1.2,1.2,0,0,1,481.37,367.51Z"/><path class="cls-2" d="M513.05,371a1.45,1.45,0,0,1,.63-1.21Z"/><path d="M475,361.85l-.81-.6a2.25,2.25,0,0,0,.77.32Z"/><path d="M561.9,382.82c-2.25-2.88-4.32-5.73-9.78-6.73-2.42,3.67-2.37-.16-5.26,3.46,4.63,2.51-17.75-9.05-15.44-5.06l2.19-.94-3.7,3c-1.39-2.39-2.11-7.36-5-6.18.44-1.45,17.68,12.06,17.75,10.52-1.46,5.46-26.94-12.56-29-11.08l1.32-2.49c-4.88.21-9.24,2.1-13,1.83L503.3,366c1.33,2.28,3.18.76,6,1-3.83-1.9-3.27-4.05-6.29-5.35-2.42,3.65,1,3.34-3.7,3,.1-2.18,5.07-4.57,1.57-5.9-2.93-3.49-5.92,2.32-9.28.45L492.8,362c-1.28-.64-4-1.37-3.74-4.09,1.13,1.17,5.87,1.5,8.29-2.17-1.89-.12-3.88-3.54-5.16-4.18l2.47-2c.38-3.26-2.84-.2-2.93-3.49-2.51.37-1.62,4.27-3.18,4.71.28-1.08-1.7-4.49-3.88-3.55-3,5.8,4.59.86,2.88,7.31l-2.13-2.89c-5.4,4,4.5,3.05.66,6.61-5.88,4-.71-8.25-7.48-2.7.37,2.21,4.39,5.22,2.55,6.74-.08-3-3.73,0-6.2-.71l-.71-4.15c-2.19.95-1.38,1.55-1.33,3.19-1.42-5.56-9.94-6.15-12.35-13.43-3.5-1.33-2,2.06-4.64,3,.66-4.32-3.88-3.54-5.49-4.74-.33-.58-3.41,2-3.84,3.56l5.54.92c-1.38,1.55-2.7,4.74-1,5.41,3.28-6.89,3.21,7.87,8.39,1.12l-2.28,3.13,6.82,1.56.14-.54c-.76,1,6,1,8,4.38-1.57.44-5.63-4.22-5.17,1.28-3.45.31-5.34-5.28-10.26-6.71l-.72,2.68c-6.29.11-9-7.74-14.14-10.27l3.41-2c-.85-2.24-1.27-6.1-4.54-4.68,2.08,1.23-.1,2.18-1.33,3.19-3.79-.27-6.44-4.82-10.89-6.22a2.55,2.55,0,0,0,.76-1.05l-5.06-.89c-1.47-1.74-.9-3.89-.66-6.61-.94-.06-2.56-1.27-3.13.88.24.42.49.83.84.82-4.17,1.85-.7-1.88-4.48-1.62,3.74-1.38,2.09-4.23,4.23-6.82-3.65-.8-3.66,4.67-4.89,5.68-2.32-4-1.13-6.63-4.2-9.58-1.38,1.54,1.65,2.85.61,5-.67-1.14-1.94-1.77-2.56-1.27l1.18,2.82c-2.17-4.52-5.25-7.47-10.17-8.9l-.29,1.07-2.41-1.81,3.08-2.52c-1.89-.13-1.37-3.92-3.83-1.91l.33.58-2.37-.17,3.89-1.91c-1.18-2.82-8.62,1.59-11.7-1.36,2.23-4.77,7,2.67,11.28-2.5-.53-1.68-1.84-4-3.55-3-.9,1.58-.1,2.18.71,2.78-5,.75-6.34-7-11.6-3.53l1,3.35c-3-1.3-.69-8.25-3.78-5.73l5.88-4c-4.55.78-7.62-2.16-11.55-1.89-2.28,3.12,3.69,2.44,3.07,2.95l-2.79,1.45c-2.65-4.56.24-2.72-3.21-7.88l-1.53,2.08c.67-4.33-7.9-1.09-2.35-5.63l.37,2.21,1.67-2.61-6.69-2.1c1.86-1.52-1.17-2.82,1.3-4.84l-3.6.85c1.61-4.26,6.72-1.72,8.86-4.31,1.09-1.71,0-2.17-.64-2.27,4.3-1,1.1,6.16,3.47,7.93l2.8-1.44-2.28,3.11c1.42.11,3.74-1.38,5-2.39-.62,6,5.59,2.57,8.52,6.06-4.26-.29-.2,4.36-1.29,4.83,1.61,1.2,9.58-1.53,8.29,3.31-.1,2.18-3.6.85-1.8,3.15a2.86,2.86,0,0,0,4-2.45c4,1.37,7.39,4.88,11.08,7.32L406.1,309c1,3.35,5.26,2,8,.56-.28,1.07.33.57-.89,1.57.46,5.51,6.72-1.72,10.93,2.4,1.8-3.16-.14-4.93-2.64-4.55l2.75-3.1c-4-3-9.14-5.55-13.87-5.87l3.27-1.42c.29-6.54-5.12,2.92-4.22-4.12-2.84-.19.24,2.75-2.27,3.13-.74-2,4.44-5.58,2.22-7.45,10.08,4.52,20,11.88,29.73,17.85.62-.5.29-1.07,0-1.64,6.39-2.29,23.78,28.06,30.8,19.8-.43,1.61-2.94,2-.86,3.22a4.46,4.46,0,0,0,2.14-2.59c1.65,8.32,11.88,7.93,15.7,15.3.9-1.58,2.8-1.45,3.56-2.49-.34,4.9,5.77,3.68,6.33,7l.58-2.15,6.1,4.25c.62-.5-.19-1.11-.52-1.67,1.89.12.85,2.24-.05,3.81l5.3-1.81c3.64,11.73,20.26,9.05,26.68,19.34,3.42-2,5.46-2.37,8-1.09l-.52-1.68c4.08-.82-.9,1.58,2,1.77,2.65-.91,3.5-4.13.52-3.79-.46-1.8,1-2.32,2.29-2.45C554.26,366.54,559.71,373.29,561.9,382.82Z"/><path d="M291.8,177.37c-.17,1.93-4-1-4.14,3.31,2.14,10,15.31,12.43,19.44,22,.37,3.59.85,4,1.76,6.43a9.38,9.38,0,0,0,1.1-1.68c1.85,1.59,5.65,3,6.63,5.79,1-.22,3-2.22,1.54-2.43,4.42.1,2.21,7.9,5.18,7.27-.41-2.53,3-1.16,2.07-3.59,3.38,1.9-2.57,9.8-.75,12.51.59-.54,1.19-1.07.83-1.62.28,5.39,9.76,3.83,6.07,9.74l2.76-1.61c-.11,2.7-1.3,3.77.16,5.94,1.92,0,1.42-2.15,2.5-2.68-1.06,2.68,3.15,4.08,2.48,8.42-2.42,3.66.54-6.79-3.29-4.66-.55.68-.47,1.05-.21,1.36-7.64-6.65-6.91-21.1-15.58-23.17.28-3.57-2.52-2-4.92,0,.43,2,2.24,6.86,5.83,1.89l-.15,4.75c1,.32-2.58,5.37-2.82,6.45-1.09-1.63-6.23,2.11-5.49,5.35-4.34-2.18,8.74-9.79,4.35-10.95l-3,3.27c2-1.48.18-5.27-1.8-4.84l0,1.05c-8.08-8.22-21.61-15.27-32.71-21.26,3.77-10.77-9.75-2.1-7-11.07-2,.42-.64,4.33-3.57,3.91-1.47-.22.08-2.64.6-3.27l-1.5,0C273.4,184.71,280.75,178.25,291.8,177.37Z"/><path class="cls-1" d="M273.13,545.39c-2.65.9-6.15-.43-3.88-3.55-2.27,3.12-2.27,3.12-5.88,4,1.52-2.08-.7-2.77-2-3.41-.11,2.18,1,3.35,3.3,5.69,5.59-2.89,5.72,7.5,11.45,4.07C275.31,549.91,276,545.58,273.13,545.39Z"/><path class="cls-1" d="M272.07,524l-1.23,1,5.54.92C274.82,526.36,271.17,525.57,272.07,524Z"/><path d="M256.31,518c2-2.05.81-4.86,2.33-7-3.18,4.71-4-1.37-6.2-2.06l-3.23,3c-.05,3.83,5.2,5.83,8.75,8.81Z"/><path class="cls-1" d="M254.75,513,252,514.4C253.38,514.49,255.93,515.77,254.75,513Z"/><path class="cls-1" d="M248.53,527.29c2.74,2.37-.71-2.78,2.8-1.45C249.9,525.74,248.63,525.11,248.53,527.29Z"/><polygon points="241.16 511.46 248.64 514.17 247.13 510.79 241.16 511.46"/><path d="M246.15,503.61a1.84,1.84,0,0,1-.86,3.22c-.28-4.4-4.45-1.4-4.87-5.26l2.84.2c1.8-3.16-6.3.11-2.5-5.09-5.31,1.82-1.1,5.94-6.45,6.11,4,1.37,5.63,4.22,7.76,7.1,0-1.65-.52-1.68-1-3.35,2.08,1.23,5.87,1.49,8.42,2.76C250.6,505,246.71,506.93,246.15,503.61Z"/><path d="M236.64,495.84c-1.94-1.77-5.16-4.18-8.53-.58.28,4.39,3,1.3,5.21.35.2,1.11,2.13,2.89-.19,4.37C233.41,498.9,236.54,498,236.64,495.84Z"/><path d="M228.74,489.29l-4,2.45,1.42.1-1.66,2.62c.62-.51,4.6-4.6,6.54-2.83C231.25,488.91,229.25,491,228.74,489.29Z"/><path d="M216,506.45c-.23-2.75-1.79-2.31-4.16-2.47,2.56,1.27,5.77,3.67,7.48,2.7l-.62.5a24.88,24.88,0,0,0,6.73-1.72C221.33,506.27,219.72,499.6,216,506.45Z"/><path d="M218.72,508.83l-3.13.87Z"/><polygon points="221.54 485.51 224 488.95 223.96 487.31 221.54 485.51"/><path d="M218,498.93c-2.26-2.34-.52,3.79-2.93,2-.95-.06,3.69,2.44,5.06.89C219.91,500.71,216.17,502.09,218,498.93Z"/><path d="M219.61,483.74l-4.55.78Z"/><path d="M214.07,477.34l-1.85,1.52c-1.51-3.39-6.86-3.21-5.9-8.62-1.19,2.65-4.46,4.07-2.66,6.38,1.23-1,2-.41,2.93-2,.66,1.14-.71,2.68-.52,3.79,3.12-.88,4.64,2.5,7.29,1.59-1-.06-.81-.6-1.14-1.16,5.17-1.29,0,7.1,5.11,2.53C215.16,482.33,216,477.47,214.07,477.34Z"/><path d="M205.29,490.4l1.8,2.32c-2.47,2-2.89-1.84-4.88.2-.9,1.59.89,3.89-.66,4.33,4.4-5.71,3.35,1.88,6.77-5.54,3.5,1.33-1.61,4.26,1.75,6.13l3.08-2.52C208.56,494.45,209.89,491.27,205.29,490.4Z"/><path d="M197.06,483.27l.24-2.71L196,483.75c-5.44-3.11-.5-16.57-4.72-17.13-6.48,1-6.17-7-10.51-9.22-3.6,1.05.86,2.7,0,4.31-3.82,4.29-.15-3.78-3.73-.56-2.62,3.21,1.48,6.47,1.75,9.7,1.8.55,2.52-.52,4.31-2.13-.95,2.15.15,3.77-.8,5.93,4.92-.51,3,5.63,8,4.88-.85,3.22-2.61-1.08-1.88,0l1.69,1.09.12-.54c4.07-1.06,6.51,4.27,6.74,7-.51-1.66.19-4.35,2.09-4.22l-1,3.76L204,484.3C199.81,485.66,201.33,478.1,197.06,483.27Z"/><path d="M196.48,490.89c2.32,4,2.71-4.74,5.5-.72l-4.17-2.47Z"/><path class="cls-1" d="M185.29,472l-.27-3.23C183,473.57,189.6,469.84,185.29,472Z"/><polygon class="cls-1" points="179 467.62 182.59 464.41 179.47 465.47 179 467.62"/><path d="M176.54,459c-2.64,1.06-2.25,3.75-.44,4.31C174.88,462.21,175.35,460.06,176.54,459Z"/><path class="cls-1" d="M172.31,445c2.88,2-1.88-2.74,2.6-4.75C173.4,441.63,170.42,442.79,172.31,445Z"/><path d="M169.37,429.41c1.55,0,1.5,1,1,2C169.65,430.81,169.2,430.17,169.37,429.41Z"/><path d="M196.93,466.38a3.16,3.16,0,0,1,.94.81C197.54,466.93,197.25,466.65,196.93,466.38Z"/><path d="M196.32,465.85l.61.53A2.68,2.68,0,0,1,196.32,465.85Z"/><path d="M180.73,442.68h0a5.13,5.13,0,0,1,0,.53Z"/><path d="M264.93,516.38a4,4,0,0,1,1.5.71c-.5-.22-1-.46-1.5-.67C264.92,516.41,264.93,516.4,264.93,516.38Z"/><path d="M262.75,522.8c-4.08.81,1.52-7.55-3.55-8.45a51.91,51.91,0,0,1,5.73,2.07C264.44,521.79,261.81,517.27,262.75,522.8Z"/><path d="M227.65,505a.78.78,0,0,0-.21,0C227.11,505,227.32,505,227.65,505Z"/><polygon class="cls-1" points="369.4 591.39 370.16 590.35 371.33 593.16 369.4 591.39"/><path class="cls-1" d="M370.44,589.28l-2.17-4.53L389.94,599l-1.7,1C387.19,602.09,371,587.13,370.44,589.28Z"/><path class="cls-1" d="M368.26,590.22c-5.12,2.93-2.31-4-7-2.67,3.13-.88,5.92-2.33,6.77-.08Z"/><path class="cls-2" d="M355.28,593.7c-.52-1.68-3.17-.77-3.35-1.87C354.67,588.74,354.62,592.56,355.28,593.7Z"/><path d="M343.29,604.35a1.12,1.12,0,0,1-.55-.34,5.39,5.39,0,0,0,1-.25Z"/><path d="M343.72,603.76l1.09-1.49A1.53,1.53,0,0,1,343.72,603.76Z"/><path d="M342.74,604a7.93,7.93,0,0,0-2.44.69l.34.57c-.95-.07-3,.33-2.71-.74,1.14,1.17,1.9.13,3.42-1.95l-1.94-1.78C343.32,596.06,341.06,602.37,342.74,604Z"/><path class="cls-2" d="M335.15,600.52l4.21-1.36C338,602.35,336,601.11,335.15,600.52Z"/><path d="M334.2,595c1.1-.47,3,1.3,2.66-.91.75-.32,1.08.08,1.51.4C336.44,594.15,335.43,598.49,334.2,595Z"/><path d="M338.37,594.47a1.76,1.76,0,0,1,.72.29A1.2,1.2,0,0,1,338.37,594.47Z"/><path class="cls-2" d="M370.05,598a1.42,1.42,0,0,1,.63-1.2Z"/><path d="M332,588.81l-.81-.6a2.25,2.25,0,0,0,.77.32Z"/><path d="M418.9,609.78c-2.25-2.88-4.32-5.73-9.78-6.73-2.42,3.67-2.37-.16-5.26,3.47,4.63,2.51-17.75-9.06-15.44-5.07l2.19-.94-3.7,3c-1.39-2.39-2.11-7.36-5-6.17.44-1.45,17.68,12,17.75,10.51-1.46,5.46-26.94-12.56-29-11.07l1.32-2.5c-4.88.21-9.24,2.1-13,1.84L360.3,593c1.33,2.28,3.18.76,6,1-3.83-1.9-3.26-4-6.29-5.35-2.42,3.66,1,3.35-3.7,3,.1-2.18,5.07-4.57,1.57-5.9-2.93-3.49-5.92,2.32-9.28.45L349.8,589c-1.28-.64-4-1.37-3.74-4.09,1.13,1.17,5.87,1.5,8.29-2.17-1.89-.12-3.88-3.54-5.16-4.18l2.47-2c.38-3.26-2.84-.2-2.93-3.49-2.51.38-1.62,4.27-3.18,4.71.28-1.08-1.7-4.49-3.88-3.55-3,5.81,4.59.86,2.88,7.31l-2.13-2.88c-5.4,4,4.5,3,.66,6.6-5.88,4-.71-8.25-7.48-2.7.37,2.21,4.4,5.22,2.55,6.74-.08-3-3.73,0-6.2-.71l-.71-4.14c-2.19.94-1.38,1.54-1.33,3.18-1.42-5.56-9.94-6.15-12.35-13.42-3.5-1.34-2,2.05-4.64,3,.66-4.33-3.88-3.55-5.49-4.75-.33-.57-3.41,1.95-3.84,3.56l5.54.93c-1.38,1.54-2.7,4.73-1,5.4,3.28-6.88,3.21,7.88,8.39,1.12l-2.28,3.13,6.82,1.56.14-.54c-.76,1,6,1,8,4.38-1.57.44-5.63-4.21-5.17,1.29-3.45.3-5.34-5.29-10.26-6.72l-.72,2.68c-6.29.11-9-7.73-14.14-10.27l3.41-2c-.85-2.25-1.27-6.11-4.54-4.69,2.08,1.24-.1,2.18-1.33,3.19-3.79-.26-6.44-4.82-10.89-6.22a2.63,2.63,0,0,0,.77-1.05l-5.07-.89c-1.47-1.74-.9-3.89-.66-6.6-.94-.07-2.56-1.28-3.13.88.24.41.49.82.84.81-4.17,1.85-.7-1.88-4.48-1.62,3.74-1.38,2.09-4.23,4.23-6.82-3.65-.79-3.66,4.68-4.89,5.69-2.32-4-1.13-6.64-4.2-9.59-1.38,1.55,1.65,2.85.61,5-.67-1.13-1.94-1.77-2.56-1.27l1.18,2.82c-2.17-4.52-5.25-7.47-10.17-8.9l-.29,1.07-2.41-1.81,3.08-2.52c-1.89-.13-1.36-3.92-3.83-1.9l.33.57-2.37-.17,3.89-1.91c-1.18-2.82-8.62,1.59-11.7-1.36,2.23-4.77,7,2.67,11.28-2.5-.52-1.68-1.84-4-3.55-3-.9,1.58-.1,2.18.71,2.78-5,.75-6.34-7-11.6-3.53l1,3.35c-3-1.3-.69-8.25-3.78-5.73l5.88-4c-4.55.78-7.62-2.16-11.55-1.89-2.28,3.12,3.69,2.45,3.07,3l-2.79,1.45c-2.65-4.56.24-2.72-3.21-7.88l-1.52,2.08c.66-4.32-7.91-1.09-2.36-5.63l.37,2.21,1.67-2.61-6.69-2.1c1.86-1.52-1.17-2.82,1.3-4.84l-3.6.85c1.61-4.26,6.72-1.72,8.86-4.31,1.09-1.71,0-2.17-.64-2.26,4.3-1,1.1,6.15,3.47,7.92l2.8-1.44-2.28,3.11c1.42.11,3.74-1.38,5-2.38-.62,6,5.59,2.56,8.52,6-4.26-.29-.2,4.36-1.28,4.83,1.6,1.21,9.57-1.52,8.28,3.31-.1,2.18-3.6.85-1.8,3.16a2.87,2.87,0,0,0,4-2.46c4,1.37,7.39,4.88,11.08,7.32l-2.33,1.48c1,3.35,5.26,2,8,.56-.28,1.07.33.57-.89,1.57.46,5.51,6.72-1.71,10.93,2.4,1.8-3.15-.14-4.93-2.64-4.55l2.75-3.1c-4-3-9.14-5.54-13.87-5.87l3.27-1.41c.29-6.55-5.12,2.92-4.21-4.13-2.85-.19.23,2.76-2.28,3.13-.74-2,4.44-5.58,2.22-7.45,10.08,4.53,20,11.88,29.73,17.85.62-.5.29-1.07,0-1.64,6.39-2.29,23.78,28.06,30.8,19.8-.43,1.61-2.94,2-.85,3.22a4.49,4.49,0,0,0,2.13-2.58c1.65,8.31,11.88,7.92,15.7,15.29.9-1.57,2.8-1.45,3.56-2.49-.34,4.9,5.77,3.68,6.34,7l.57-2.15,6.1,4.25c.62-.5-.19-1.1-.52-1.67,1.89.12.85,2.24-.05,3.81l5.3-1.81c3.64,11.73,20.26,9,26.68,19.34,3.42-2,5.46-2.37,8-1.09l-.51-1.68c4.07-.81-.91,1.58,1.94,1.77,2.65-.91,3.5-4.13.52-3.79-.46-1.8,1-2.32,2.29-2.45C411.26,593.5,416.71,600.25,418.9,609.78Z"/><path d="M148.8,404.33c-.17,1.94-4-1-4.14,3.31,2.14,10,15.31,12.43,19.44,22,.38,3.59.85,4,1.76,6.43a10,10,0,0,0,1.11-1.68c1.84,1.59,5.64,3,6.62,5.79,1-.21,3-2.22,1.54-2.43,4.42.1,2.21,7.91,5.18,7.28-.41-2.54,3-1.17,2.07-3.6,3.38,1.9-2.57,9.8-.75,12.51.59-.54,1.19-1.07.83-1.62.28,5.4,9.76,3.83,6.07,9.74l2.76-1.6c-.1,2.69-1.3,3.76.16,5.93,1.92,0,1.43-2.15,2.51-2.68-1.07,2.68,3.14,4.09,2.47,8.42-2.42,3.66.54-6.78-3.29-4.66-.55.68-.47,1.05-.21,1.36-7.64-6.65-6.91-21.1-15.58-23.16.28-3.58-2.52-2-4.92,0,.43,2,2.24,6.86,5.83,1.9l-.15,4.74c1,.32-2.58,5.37-2.82,6.45-1.09-1.63-6.23,2.11-5.49,5.35-4.34-2.18,8.74-9.79,4.35-10.95l-3.05,3.28c2-1.48.18-5.28-1.8-4.85l0,1c-8.08-8.22-21.61-15.27-32.71-21.26,3.77-10.77-9.75-2.1-7-11.07-2,.43-.63,4.33-3.57,3.91-1.47-.21.08-2.64.6-3.27l-1.5,0C130.4,411.67,137.75,405.21,148.8,404.33Z"/></svg>