<svg id="Capa_1" data-name="Capa 1" xmlns="http://www.w3.org/2000/svg" viewBox="0 0 681 681"><defs><style>.cls-1{fill:#fff;}.cls-2{fill:none;stroke:#000;stroke-linecap:round;stroke-linejoin:round;stroke-width:0;}</style></defs><title>iconos_home2</title><path class="cls-1" d="M231.56,176.79c3.6.66,5.69,1.63,1.45,2.68a37.46,37.46,0,0,1,4.26-.81c1-.12,2-.06,3.71-.18-2.69.84-1.25,1.42-.65,1.77,1.37-1.23,1.31-1.77,1.29-2.73-2.87.31-3.34-.42-3.2-1s.85-1.06-.85-1.56a11.19,11.19,0,0,0-2.16-.63c-.65.11-1.53.22-2.51.35a5.84,5.84,0,0,0-2.17.9C230.34,175.94,230.47,176.4,231.56,176.79Z"/><path class="cls-1" d="M222.42,192l1.71-.37q-3.28-1.89-6.95-4.2a14.51,14.51,0,0,1,4,2.14C222.4,190.48,223.12,191.43,222.42,192Z"/><path d="M240.17,205.84c-2.51,1.41-1.45,5.07-3.42,6.73,4.16-3.86,4.44,3.27,6.94,5l4-2c.46-4.25-5.38-8.78-9.16-13.65Z"/><path class="cls-1" d="M241.43,212.13l3.38-.39C243.18,211,240.38,208.47,241.43,212.13Z"/><path class="cls-1" d="M250.14,198.86c-2.91-3.85.52,3.41-3.38.39C248.39,200,249.79,201.25,250.14,198.86Z"/><polygon points="256.96 219.74 248.62 213.45 250 217.88 256.96 219.74"/><path d="M250.37,226.32c-.86-1-1.06-3.66,1.33-3.22-.14,5,5,3.51,5.07,8l-3.26-1.47c-2.42,2.74,7.28,2.64,2.35,6.78,6.31.29,1.89-6.14,8.09-4-4.45-3.26-6.05-7.17-8.2-11.31-.12,1.86.42,2.09.84,4.19-2.27-2.29-6.62-4.24-9.43-6.77C245.39,222.81,250.07,222.37,250.37,226.32Z"/><path d="M260.52,239.14c2.05,2.83,5.5,6.93,9.77,4.39.15-5-3.36-2.79-6-2.68-.1-1.32-2.15-4.15.69-4.78C264.57,237.15,260.86,236.75,260.52,239.14Z"/><path d="M268.93,249.92l4.92-1-1.63-.73,2.19-2.19c-.76.29-5.79,3.12-7.84.29C266,249.23,268.52,247.82,268.93,249.92Z"/><path d="M285.49,236.36c0,3.17,1.83,3.36,4.54,4.58-2.81-2.54-6.27-6.63-8.34-6.29l.76-.29a29,29,0,0,0-7.95-1C279.3,234.22,280.44,242.35,285.49,236.36Z"/><path d="M282.58,232.51l3.7.39Z"/><polygon points="276.84 257.28 274.37 252.36 274.24 254.21 276.84 257.28"/><path d="M282.38,243.87c2.37,3.6,1-4,3.61-.94,1.08.49-4-4.33-5.76-3.21C280.34,241,284.8,241.14,282.38,243.87Z"/><path d="M278.88,260.11l5.34,1.12Z"/><path d="M284.59,269.67l2.3-.89c1.38,4.44,7.58,6.59,5.9,12.2,1.65-2.44,5.57-2.59,3.74-6-1.52.58-2.38-.44-3.6.93-.64-1.57,1.12-2.68,1-4-3.69-.38-5.08-4.82-8.23-5,1.08.48.86,1,1.18,1.79-6.1-.82.71-7.94-5.63-5.06C283.87,263.62,282.42,268.69,284.59,269.67Z"/><path d="M296.11,258.94l-1.83-3.37c3.07-1.17,3.14,3.31,5.66,1.9,1.2-1.37-.62-4.72,1.22-4.54-5.69,4.44-3.67-3.56-8.41,3.22-3.9-3,2.32-4-1.36-7.6L287.57,250C292.78,253,290.9,256,296.11,258.94Z"/><path d="M304.85,270.49l-.57,2.93,1.88-3c5.95,5.86-1.18,18.7,3.62,21.18,7.59,1.67,6.39,10.55,11.16,14.89,4.26.39-.71-3.39.42-4.83,4.87-3.11-.23,4.28,4.24,2.26,3.37-2.44-1-7.87-1-11.58-2-1.41-3-.53-5.2.48,1.32-2,.23-4.27,1.55-6.26-5.74-1.59-2.89-7.6-8.76-9,1.33-3.22,2.9,2.35,2.17.83l-1.84-2-.19.55c-4.81-.61-7.06-7.61-7-10.78.41,2.09-.69,4.78-2.86,3.8l1.55-3.76h-7.08C301.94,266.63,299.38,274.4,304.85,270.49Z"/><path d="M306.33,262.25c-2.25-5.47-3.63,4.1-6.42-1.61l4.55,4.59Z"/><path class="cls-1" d="M317.24,288.26l0,3.72C320,287.47,312,288.75,317.24,288.26Z"/><polygon class="cls-1" points="324.02 295.86 319.55 297.87 323.26 298.06 324.02 295.86"/><path d="M326,306.57c3.16,0,3-3.21,1-4.61A3.06,3.06,0,0,1,326,306.57Z"/><path class="cls-1" d="M329.35,324c-3.11-3.49,1.88,3.88-3.51,4.16C327.74,327.31,331.3,327.31,329.35,324Z"/><path d="M331.09,342.71c-1.8-.67-1.63-1.74-.93-2.67C330.9,341,331.36,341.93,331.09,342.71Z"/><path d="M303.21,289.39a5.55,5.55,0,0,1-1-1.31Z"/><path d="M303.86,290.25c-.22-.28-.44-.57-.65-.86A5.72,5.72,0,0,1,303.86,290.25Z"/><path d="M319.38,322.92h0a4.19,4.19,0,0,1,.09-.57Z"/><path d="M230.06,203.84a6.56,6.56,0,0,1-1.66-1.44c.56.47,1.1.95,1.67,1.4C230.07,203.82,230.06,203.83,230.06,203.84Z"/><path d="M233.25,197.64c4.8.89-2.55,7.75,3.2,11-2.15-1.45-4.27-3.09-6.38-4.82C231.2,198,233.76,204.22,233.25,197.64Z"/><path d="M271.87,232.82a1.68,1.68,0,0,0,.24.07C272.49,233.07,272.24,233,271.87,232.82Z"/><path class="cls-1" d="M310.14,97.94l.39-1.28q1.39,1.86,2.63,3.6Z"/><path class="cls-1" d="M310.33,95.3q-2.52-3.06-5.46-6.37l17.88,10.88,14.8,8.94-1.9.9c-.42,1.11-6.38-2.86-12.26-6.82-1.53-1-3.05-2-4.46-3-1.63-1.07-3.15-2-4.45-2.84C311.88,95.42,310.21,94.61,310.33,95.3Z"/><path class="cls-1" d="M308.26,96.39c-2.09,1.83-3,.65-4.32-1s-2.76-3.59-4.47-2.44a10.41,10.41,0,0,1,3.37-1.92c1.15-.27,2.38.09,3.58,1.65C307.08,94,307.7,95.19,308.26,96.39Z"/><path class="cls-2" d="M298.88,103c-.58-.21-1.12.67-1.56,1.5s-.78,1.63-1.16,1.43c-.33-2.45.17-3.21.83-3.33S298.42,103.05,298.88,103Z"/><path d="M299.86,123c0,.13-.06.17-.12.16,0-.38,0-.72-.05-1Z"/><path d="M299.69,122.16l-.42-2.09A6.53,6.53,0,0,1,299.69,122.16Z"/><path d="M299.74,123.14a13.45,13.45,0,0,0,.29,2.35l.17.23c0,.64.45,2.26,0,1.24.25.19-.18-1.15-1-3.86-.22,0-.46.1-.7.16-1.23-3-1-3.14-.39-2.44S299.48,123.11,299.74,123.14Z"/><path class="cls-2" d="M298.88,125.89a19.23,19.23,0,0,1-1.18-3.67,11.11,11.11,0,0,1,1.25,3C299.06,125.69,299,125.83,298.88,125.89Z"/><path d="M295.34,123.69a1.23,1.23,0,0,1,.1-.52c0-.14,0-.21,0-.31s.05-.36.06-.53c0-.34-.06-.69-.84-1.07-.27-.68,0-.75.24-.92-.1.65.64,1.65,1.11,2.4a1.89,1.89,0,0,1,.39.81c0,.08-.07.11-.2.1S296,123.46,295.34,123.69Z"/><path d="M294.89,120.34a.61.61,0,0,1,.19-.4A.51.51,0,0,1,294.89,120.34Z"/><path class="cls-2" d="M313.13,105.8a1.28,1.28,0,0,1,.42-1.33Z"/><path d="M287.49,125.59l-1,.86a4,4,0,0,0,.7-.85Z"/><path d="M375.41,123.54c-3.37-3.4-6.5-6.74-13.43-8.4-2.22,3.8-3-.41-5.76,3.29,6.23,3.23-23.7-11.76-20-7.13l2.49-.82-3.92,3c-2.21-2.77-4.12-8.32-7.45-7.3.24-1.55,24.24,15.06,24,13.37-.33,2.93-9.27-1.21-18.39-5.9s-18.52-10-19.38-9.13c.28-.92.56-1.85.82-2.79-5.87-.2-9.05,2.57-11.85,3.11-.14-1.42-.32-2.86-.52-4.33,2.21,2.72,2.94.46,5.91.61a15.83,15.83,0,0,1-4.75-3.49,12.17,12.17,0,0,0-4.07-3c.47,5.11,2.48,4.44-.24,4.74-.11.28-.31.66-.52,1.08-.6-.7-.52-3-.61-4.68s-.45-2.66-2.22-.48c-2.37,1.31-2.95,3.59-3.19,5.84s-.24,4.54-1.7,6.09c.95-.11,1.84-.18,2.69-.2a17,17,0,0,1-1.9,2.17,2.51,2.51,0,0,1-2.86.43c.73-.43,1.55-1.88,2.1-3.87a11.4,11.4,0,0,0,.05-6.75,9.47,9.47,0,0,1-3.44,3.12,22.14,22.14,0,0,0-3.61,2.49q-.43-1.65-.78-3.39c-3.42-.83-2.05,3.77-5.66,3.44-.69,2.93,4.05,2.32,3.85,4.17-1.07-.45-5.75,1.48-5.65,4.09,2.58,2,3.32.74,4.22-.74a5.17,5.17,0,0,1,1.73-2,2.71,2.71,0,0,1,1.42-.33,4.42,4.42,0,0,1,2,.53c-.3.13-.63.3-1,.49l-1,.54-2.07,1.07c1,3.33,2.39,2.11,3.76.67.34-.36.68-.74,1-1.06a2.52,2.52,0,0,1,.85-.61c.56-.21,1.1.06,1.68,1.26.52,1.75.55,2.29-.31,2.85a7,7,0,0,1-3,.56c-2.21.13-4.24.41-2.63,4.61,2.63-.19,7.75-4.51,8.63-2.21-3.35-.23-1.61,4.3-3.5,7.07l-4.94.38c.09,2.62,1.12,1.75,3,1.87-6.82,1-11.22,10.81-20.39,12.81-3,3.9,1.42,2.52,1.27,5.68-4.53-1.23-5.66,4.09-7.7,5.82-.78.32.68,4.14,2.29,4.81l3.46-6.29c1.12,1.75,4.1,3.62,5.61,1.68-6.24-4.52,10.19-2.86,4.92-9.55l2.49,3,4.74-7.7-.54-.22c.82,1,3.71-6.84,8.39-8.76-.2,1.85-7.17,6-.83,6.09-1.17,4-8.24,5.6-12,11.13l2.67,1.11c-2.64,7.28-12.59,9.6-17.65,15.23l-.69-4.15c-2.88.74-7.36.81-7.22,4.74,2.3-2.27,2.4.34,3,1.87-1,2.17-3,3.9-5.27,5.71-1.12.9-2.3,1.83-3.41,2.84L248,174l0,0a.48.48,0,0,0,0,.12.94.94,0,0,0,.16.35s-.56-.52-1-.85a5.11,5.11,0,0,0,1.52,1.55,36.21,36.21,0,0,0-5.51-1.84c.35.34-.07.62,2.45,1.19.28,0,.54.05.34,0,2.05.79,1.77.65,1.17.55s-1.48-.21-.11.17c-2-.45-3.34-.79-4.9-1s-3.23-.29-5.32-.67c.33.68,2.34.87,4.38,1.06s4.07.39,5,.56c-1,0-2.22,0-3.45.07-1.78.14-3.32.44-3.19,1.23,2.6-.16,1.1-.85,4.2-.87-.58.17-.09.42.89.37a10.94,10.94,0,0,1,1.89-.33c-3,.3-2.58,1.78-.48,1.66l.94-.51.15.32c-1.12.67-2.28,1.28-3.48,1.85.58-.07.21.42.09.81s0,.63,1.22-.28l.11-.3.32-.1.16-.05c.05,0,.08-.06.22,0l1.36.61-2.35.22c-.22,0-.3.14-.45.2l-.42.25c-.28.16-.56.32-.85.47-.07.23-.06.32.12.44a4.68,4.68,0,0,0,1.34.78,23.49,23.49,0,0,0,3.78,1c2.8.62,5.87,1.36,7.49,3.68-3.08,4.34-7.79-6-13.27-2.14.42,2.09,1.7,5.21,3.78,4.87,1.2-1.37.34-2.39-.53-3.41,5.87,1.36,6.57,10.58,13,9l-.84-4.19c3.36,2.77-.07,9.5,3.76,8l-7.21,1.86c5.33,1.11,8.56,5.75,13.13,7.16,3-2.48-4-4.34-3.23-4.63l3.38-.4c2.57,6.24-.57,2.93,2.87,10.2l2-1.66c-1.23,4.53,9,4.68,2.12,7.31l-.2-2.62-2.19,2.18,7.49,5.27c-2.31.88,1.05,3.66-2,4.83l4.25.63c-2.32,4-7.95-1-10.69.93-1.43,1.43-.22,2.42.5,2.8-5.07-.8-.62-7.34-3.16-10.35l-3.39.38,3-2.48c-1.62-.74-4.46-.1-6,.49,1.35-6.39-6.17-5.31-9.18-10.49,4.88,2.19.69-4.78,2-4.82-1.73-2.05-11.2-2.49-9.2-7.32.34-2.39,4.24.63,2.41-2.73-1.95-1.51-4.57-1.42-4.91,1a37.76,37.76,0,0,1-6.17-6.1l-1.45-1.75-.6-.74-.45-.57c-.6-.76-1.2-1.49-1.85-2.18,1-.21,1.88-.45,2.77-.71.26-1.34-.6-1.79-2.13-2.07a48.12,48.12,0,0,0-5.65-.44c.88-.58-.05-.48,1.83-.66.64-.87.52-1.31-.16-1.66a19,19,0,0,0-3.34-.91,25.86,25.86,0,0,1-4.64-1.43,7.68,7.68,0,0,1-3.54-2.7c-2.4,0-3.19.63-2.89,1.45s1.65,1.82,3.42,2.5c-1.81,0-3.65,0-5.5,0,4.2,5,10.31,10.59,15.44,12.7q-2,.08-4.08,0c-.42,1.61-.12,2.48.4,2.86a3,3,0,0,0,2.06.21c1.48-.2,2.81-.42,1.93,3.32,3.26,1.47,0-3.17,3-2.49.64,2.51-5.72,4.28-3.36,7.34-1.07-.91-2.14-1.84-3.2-2.81-.55-.49-1-.92-1.63-1.5l-1.83-1.77c-2.46-2.41-5-4.94-7.45-7.55-5-5.23-10-10.7-15-16.13,3.16-2.92,6.29-5.82,9.33-8.72-.6-.49-1.66.07-2.74.66-.4-1.5,3.16-4.79,8.18-8.64,2.51-1.92,5.37-4,8.28-6l2.2-1.52.54-.37.45-.28.9-.58,3.63-2.35c9.63-6.28,18.47-12.73,15.4-17.22,1.61.67.92,3.6,3.21,1.33-.29-.77-.34-2.07-1.94-2.74,10-1,14-12.86,23.94-16.48-1.36-1.21-.39-3.38-1.22-4.37,2.66.46,4.32-1.11,5.81-2.83.39-.44.69-.83,1.13-1.32s1-1,1.47-1.48a6.09,6.09,0,0,1,3.1-1.75c-.7-.31-1.43-.6-2.17-.87l10-8.84c.06-1.08-1.33.11-2.25.56,1.92-3,3.17-1,3.88.78q1.44-4.29,3.38-9a17.77,17.77,0,0,0,3.52-1.18,50.8,50.8,0,0,0,11,8.24c3.8,2.14,7.9,4,12.29,6l1.66.76c.53.24,1.19.56,1.53.68l2.45,1c1.62.71,3.22,1.47,4.76,2.31a28.3,28.3,0,0,1,8.21,6.5c3.79-1.81,6.21-2,9.62-.39l-1-1.9c4.84-.49-.78,1.64,2.75,2.15,3.08-.74,3.46-4.2-.14-4.13-.94-2,.71-2.46,2.3-2.47C362.63,104.84,370.74,112.83,375.41,123.54Z"/><path d="M352.16,379.68c.39-2.08,4.51,2.87,5.12-1.88-1.4-12.11-16.35-20.56-20.09-33.07-.05-4.17-.56-4.84-1.35-8a7,7,0,0,0-1.45,1.39c-2-2.57-6.2-5.78-7-9.35-1.16-.19-3.7,1.16-2,2-5.08-2-1.71-9.78-5.19-10.38.19,3-3.57,0-2.78,3.1-3.7-3.59,4-9.8,2.2-13.62-.74.34-1.5.67-1.13,1.44.25-6.14-10.86-8.55-6-13.52l-3.35.58c.41-3,1.89-3.63.45-6.69-2.22-.85-1.88,1.78-3.18,1.9,1.51-2.53-3.2-5.94-2-10.48,3.18-3-1.34,7.33,3.3,6.63.71-.51.66-1,.38-1.42,8.12,10.77,5.73,26.57,15.52,32.66-.7,3.87,2.7,3.35,5.68,2.16-.28-2.42-1.86-8.63-6.53-4.66l.68-5.23c-1.09-.78,3.55-4.86,3.94-6,1.09,2.29,7.42.37,6.9-3.57,4.78,4.34-11.12,7.1-6.18,10.31l3.86-2.32c-2.48.77-.76,5.81,1.57,6.2l.16-1.15c8.45,12.7,23.31,26.48,35.49,38-5.5,10.36,11,6.61,6.91,15.42,2.33.39,1.19-4.55,4.53-2.8,1.67.88-.38,2.91-1,3.39l1.73.63C374.16,379.55,365,383.54,352.16,379.68Z"/><path class="cls-1" d="M547.9,162.31c5.07,1.29,12.84,6.61,7.87,7.48,2.44-.48,3.65-.72,5.25-.46s3.56,1,7.73,2.68c-3.5.44,1.44,3.65,4.35,5.81.54-1.95-2.1-4.56-7.51-9.89a19.83,19.83,0,0,1-7.47-3.64,46.4,46.4,0,0,1-5.46-5.32c-3.49-3.77-7.42-7.82-12.36-8a40.62,40.62,0,0,1,2.76,6.18A9.39,9.39,0,0,0,547.9,162.31Z"/><path class="cls-1" d="M541.78,181.19c.61.12,1.2.26,1.79.4.17-.51.33-1,.47-1.48-2.1-1-4.12-2-6.07-2.88a19.41,19.41,0,0,1,6.14,2.87A3.63,3.63,0,0,1,541.78,181.19Z"/><path d="M529.6,198.91c-1-1-2.55-1-4-1.09a6.49,6.49,0,0,1-3.93-.95c2.36,1.67,1.58,2.83.08,3.84-.72.48-1.69,1-2.58,1.52A6.51,6.51,0,0,0,517,204l2.13,4a6.52,6.52,0,0,0,3.36-1,21.23,21.23,0,0,0,3.59-2.8c2.64-2.45,5.33-5.42,8.18-7.94Q531.87,197.66,529.6,198.91Z"/><path class="cls-1" d="M522.62,201.23c.2,1.1.33,2.28.49,3.43.34-.85,1.27-2.17,1.51-3S524.51,200.52,522.62,201.23Z"/><path class="cls-1" d="M538.63,207c2.93-2.61,1.67-2,.31-1.58s-2.77.72-.57-2.08C537.29,205.41,535.32,207.64,538.63,207Z"/><polygon points="514.97 217.95 521.38 208.75 516.79 210.58 514.97 217.95"/><path d="M508,211.74c1.05-1,3.78-1.44,3.37,1.08-5.23.3-3.58,5.48-8.25,6l1.48-3.5c-2.88-2.25-2.63,7.77-7,3-.21,6.56,6.41,1.4,4.27,8,3.33-4.9,7.37-6.91,11.64-9.51-1.93.05-2.17.62-4.34,1.25,2.34-2.56,4.31-7.23,6.9-10.37C511.6,206.26,512.13,211.07,508,211.74Z"/><path d="M494.84,223.39c-2.91,2.38-7.11,6.32-4.41,10.51,5.22-.31,2.84-3.73,2.69-6.42,1.38-.23,4.29-2.6,5,.28C497,227.4,497.34,223.53,494.84,223.39Z"/><path d="M483.77,233.07l1.08,5,.74-1.75,2.31,2.06c-.31-.76-3.33-5.71-.42-8.08C484.44,230,485.94,232.46,483.77,233.07Z"/><path d="M498.1,249c-3.29.26-3.47,2.2-4.69,5.12,2.59-3.15,6.79-7.09,6.42-9.21l.3.77a30.8,30.8,0,0,0,1-8.31C500.24,242.36,491.8,244.28,498.1,249Z"/><path d="M502.06,245.6l-.35,3.87Z"/><polygon points="476.23 241.91 481.31 238.91 479.38 238.95 476.23 241.91"/><path d="M490.25,246.43c-3.71,2.78,4.17.68,1,3.64-.5,1.17,4.44-4.53,3.25-6.24C493.17,244.06,493.12,248.68,490.25,246.43Z"/><path d="M473.32,244.29l-1.09,5.61Z"/><path d="M463.47,251.06l.95,2.29c-4.59,1.83-6.74,8.44-12.59,7.21,2.55,1.49,2.77,5.53,6.23,3.34-.62-1.53.42-2.52-1-3.64,1.61-.81,2.8.9,4.18.68.34-3.86,4.94-5.7,5-9-.49,1.16-1,1-1.85,1.38.77-6.38,8.27,0,5.18-6.28C469.74,249.76,464.45,248.72,463.47,251.06Z"/><path d="M474.78,262l3.48-2.2c1.26,3.06-3.4,3.55-1.9,6,1.45,1.12,4.91-1.07,4.74.86-4.7-5.49,3.65-4.13-3.47-8.41,3.08-4.3,4.24,2,7.89-2.1l-1.58-3.82C480.92,258,477.81,256.34,474.78,262Z"/><path d="M462.9,272.08l-3-.32,3.12,1.67c-6,6.69-19.45.48-22,5.67-1.63,8-10.87,7.56-15.31,12.89-.35,4.45,3.51-1,5,0,3.3,4.75-4.45.15-2.29,4.59,2.59,3.26,8.17-1.77,12-2.07,1.43-2.22.5-3.11-.57-5.33,2.08,1.18,4.44-.15,6.52,1,1.57-6.08,7.87-3.69,9.19-9.88,3.38,1.08-2.39,3.21-.82,2.32l2-2.08-.58-.15c.56-5,7.82-8,11.11-8.25-2.17.62-5-.27-4-2.61l3.92,1.26-.11-7.32C466.87,268.72,458.76,266.78,462.9,272.08Z"/><path d="M471.49,272.86c5.65-2.82-4.31-3.38,1.58-6.78l-4.7,5.12Z"/><path class="cls-1" d="M444.61,286.51l-3.87.3C445.48,289.32,444,281.18,444.61,286.51Z"/><polygon class="cls-1" points="436.81 294.21 434.65 289.77 434.51 293.62 436.81 294.21"/><path d="M425.71,297.18c.07,3.26,3.37,2.81,4.8.58A3.08,3.08,0,0,1,425.71,297.18Z"/><path class="cls-1" d="M407.62,302.28c3.59-3.54-4,2.29-4.37-3.25C404.17,300.91,404.22,304.59,407.62,302.28Z"/><path d="M388.21,305.77c.68-1.92,1.79-1.84,2.76-1.2C390,305.43,389,306,388.21,305.77Z"/><path d="M443.23,272.1a6.19,6.19,0,0,1,1.35-1.15Z"/><path d="M442.35,272.85l.88-.75A5.68,5.68,0,0,1,442.35,272.85Z"/><path d="M408.61,291.87h0a4.18,4.18,0,0,1,.59,0Z"/><path d="M529.59,190.16a4.6,4.6,0,0,1,1.13-1.5c-.36.49-.73,1-1.08,1.5Z"/><path d="M538.81,190.22c.1,2-2.84,2.42-5.81,2.72a21.53,21.53,0,0,0-4.3.74,4.42,4.42,0,0,0-2.9,2.46c1.21-2.09,2.51-4.07,3.84-6a10.67,10.67,0,0,1,3.5,0,1,1,0,0,1,.79.72c.12.26.24.49.87.47A14.87,14.87,0,0,0,538.81,190.22Z"/><path d="M501.58,234.55a2,2,0,0,0-.07.26C501.34,235.22,501.38,235,501.58,234.55Z"/><polygon class="cls-1" points="412.32 115.68 412.86 116.85 408.82 117.04 412.32 115.68"/><path class="cls-1" d="M413.82,117.53l6.72-.6-33,17.31.28-2.13C386.36,130.25,415.73,118.91,413.82,117.53Z"/><path class="cls-1" d="M414.52,114.92c.84-6.38,6.23-.94,8.51-6.3-1.52,3.58-2.15,7-5.3,7.07Z"/><path class="cls-2" d="M421,100.17a3.75,3.75,0,0,0,2.7-1.46,10.89,10.89,0,0,1,1.06-1,2.12,2.12,0,0,1,1.26-.49,2.7,2.7,0,0,1-.22,2.2,1.8,1.8,0,0,1-1.32.74C423.39,100.33,421.9,100,421,100.17Z"/><path d="M419.56,83.45a7.3,7.3,0,0,1,1.46-.77,12,12,0,0,0-1.19,1.45Z"/><path d="M419.83,84.13l.68,1.72C419.22,85.7,419.23,85.05,419.83,84.13Z"/><path d="M421,82.68A22.45,22.45,0,0,0,424.1,79l-1.52.45c1.76-1.42,4.93-4.68,6.12-4.12-4,1.67-3.7,3-3,5.5l6-2.64c0,3.43-1.14,3.91-3.1,3.89S423.8,81.51,421,82.68Z"/><path class="cls-2" d="M440,71.55q-3.12,3.54-5.84,6.86c-1.08-1.35-.28-2.74,1.17-4A23.26,23.26,0,0,1,440,71.55Z"/><path d="M448.69,72a.49.49,0,0,1-.28,0c-1.8,1.82-6.53,3.94-3.46,4.09a7,7,0,0,1-3.09,2.14c3.62-2.73.55-5.68,6.58-6.55Z"/><path d="M441.86,78.2a9,9,0,0,1-1.56,1A7.29,7.29,0,0,1,441.86,78.2Z"/><path class="cls-2" d="M404.52,113.94a1.09,1.09,0,0,1,.82,1.1Z"/><path d="M457.48,84.28l1.73,1.49a10.09,10.09,0,0,0-1.47-1Z"/><path d="M352.64,160.38c5-1.29,9.75-2.39,15.21-7.7-2.11-3.86,2.06-2.41.37-6.74-6.46,3.91,24.1-15.13,17.87-14.18l-.7,2.62-.39-4.95c3.74-.57,9.79.5,10.8-3,1.25,1-27.36,14-25.72,14.6-4.86-3.51,35.29-23.39,35.26-26l1.7,2.28c3.65-5.15,5-10.36,8.35-14.21l2.46,2.55c-3.57.54-3.38,3-5.86,5.89,5.15-3.28,7.07-1.9,10.91-4.58-2.1-3.84-4.52-.14-.39-4.94,2.33.9,1,6.93,5.26,3.78,3-.86,3.59-2.61,4.27-4.65s1.32-4.28,4.22-6c-1.39.09-2.84.2-4.35.35A45.37,45.37,0,0,1,436.19,93c1.61-.78,3.27-1.21,4.34-.42a13.85,13.85,0,0,0-5,4.17c-1.6,2-2.48,4.41-1.79,6.52a9.89,9.89,0,0,1,4.24-2.18,21.1,21.1,0,0,0,4-1.44c-.37,1.33-.71,2.64-1,3.93.73,1,1.26.66,1.87,0s1.27-1.54,2-1.51a6.13,6.13,0,0,1,.64,1.54c1-.31,1-1.75.77-3.29s-.58-3.13.09-3.38a10.62,10.62,0,0,0,2.16,3.74c1.08,1.29,2.33,2.22,3.38,1.78.64-3.33-.59-4.16-2-4.77s-3-1-4-4.26a4,4,0,0,1-.68-1.09l.83-.19,3.24,3.94c1.29-1.48,1.2-2.54.39-3.53a21,21,0,0,0-3.36-2.71c-1.67.91-3,1.27-2.18-1.32A8.06,8.06,0,0,1,446.88,85c1.58,1.07,2.83,4.27,4,6.39s2.42,3.23,5.05,1c-1.69-3.5-9.45-10.2-8.15-12.12,1.25,2.61,2.49,3,4.11,3.07a11.29,11.29,0,0,1,5.84,1.38q2,3.66,3.75,7c3-.12,1.42-1.49.27-4.16a32.8,32.8,0,0,0,5.67,6.76c.57.53,1.15,1.06,1.75,1.59s1.05.9,1.58,1.37l2.56,2.1c3.5,2.84,7.18,6,9.09,10.57,4.59,2.64,2.31-1.75,5.59-2-.39,4.79,5.29,5.32,7.47,7.22.48.76,4.13-1.18,4.5-2.91l-7.13-2.82c1.59-1.35,2.93-4.62.65-6-3.45,6.93-4.92-10.12-10.77-3.94l2.56-2.9-8.83-4-.12.58c.21-.24-.16-.55-.89-1l-.62-.32-.34-.17-.6-.36-2.7-1.68c-3.87-2.42-8.29-5.38-11.37-9,1.21.19,4.56,3.07,7,4.69,1.23.82,2.23,1.34,2.65,1.06s.25-1.33-1-3.78a20.57,20.57,0,0,1,5.27,3.4c.93.78,1.89,1.63,2.87,2.54l.34.32.19.19.38.4.77.83c2.09,2.26,4.44,4.83,7.64,6.43l.63-2.88c8,1.86,12.29,11.79,19.05,16.34l-4.13,1.18c1.32,2.87,2.26,7.46,6.26,6.85-2.77-2.08-.11-2.49,1.35-3.27,4.85,1.5,8.69,7.6,14.49,10.63a1.8,1.8,0,0,0-.86,1l6.53,2.63c2,2.48,1.55,4.78,1.53,7.85,1.21.37,3.38,2.28,3.88,0-.35-.56-.7-1.11-1.15-1.21,2.55-.41,2.82.19,3,1a3,3,0,0,0,.6,1.28,2.46,2.46,0,0,0,.33.3l.64.41a18.32,18.32,0,0,0,2.39,1.25c-3.53-.81-3.83.46-3.77,2s.53,3.53-.9,4.51c3.66,2.12,5,1.32,5.55-.17s.25-3.7,1.26-3.86a50.31,50.31,0,0,1,6.53,9.64,31.13,31.13,0,0,0,6.52,8.37c2.66-.45-4.32-5.42-2.88-7.25,1.92,2.33,5,4.58,6.21,4.64-1.21-1.72-2.46-3.48-3.77-5.28,7,9,14,15.75,26.37,24l.72-.77,2.79,2.39-3.32,3.18a39.34,39.34,0,0,0-3.51-1.92c-.77,1.44-3.2,3-5,4.27s-3.08,2.42-1.86,3.36l1.48-1.05-2.22,3.88a28.61,28.61,0,0,0-1.14-4.2c-3.35,2.15-3.94,4.91-5.19,8.49a31.3,31.3,0,0,1-2.55,5.79,24.78,24.78,0,0,1-5,6.1c-3.39-.31-.41-3.87,2.52-7.65s5.88-7.83,2.09-8.8c-3.7,2.12-8.68,5.45-8.11,7.39,2.25.33,4-1.36,5.77-3a15.64,15.64,0,0,1-3.87,5.53c-1.82,1.87-4,3.71-5.93,5.48-4,3.56-7.17,6.8-7.07,10.8q3.38-1.8,7-3.82c-2.83,3.26-6.66,4.78-9.43,5.83l-1,.39-.46.19-.22.09-.15,0a2.77,2.77,0,0,0-1,.35c-.49.32-.63.86-.24,1.81-.61-2.49-1.58-4.63-1.57-7.73-1,2.07-1.17,3.08-1.85,4.36a36,36,0,0,1-2.12,3.49c-1.5,2.25-3,4.4-3.75,6.83,2.63,2.83,4.46-4.53,4.77-3.77l.46,3.46c-6.45,3.22-3.06-.32-10.55,3.89l1.75,1.9c-4.74-.86-4.74,9.73-7.57,2.85l2.72-.44-2.3-2.07-5.37,8.22c-.95-2.3-3.78,1.42-5.05-1.64l-.59,4.45c-4.24-2,.95-8.31-1.13-11-1.5-1.36-2.52,0-2.9.76.76-5.31,7.63-1.3,10.72-4.2l-.45-3.47,2.62,2.84c.75-1.75,0-4.63-.59-6.16,6.66.82,5.43-6.86,10.76-10.45-2.2,5.25,5,.28,5.05,1.63a7,7,0,0,0,1.35-2.65,9.39,9.39,0,0,1,.47-1.09c.19-.39.37-.79.56-1.2.38-.8.75-1.61,1.13-2.37,1.56-3.07,3.23-5.44,6.64-5.5,1.7-.38,1.46.82,1.35,1.72s-.06,1.47,2.53-.46c1.2-1.5,1.78-2.94,1.56-3.84s-1.2-1.28-3-.84a76.14,76.14,0,0,1,8.46-9.1c3.23-3.06,6.73-6.22,9.75-9.25a23.23,23.23,0,0,1,2.17,1.43,18.21,18.21,0,0,0,3.35-2.36,24.06,24.06,0,0,0-7-3.89,48.63,48.63,0,0,0-7.85-2.24c.79-.7-.52-.81,2.07-.63,0-1.36-.89-2.39-2.28-3.18a23.16,23.16,0,0,0-5.26-1.92,61,61,0,0,1-6.2-1.91,15.79,15.79,0,0,1-5.7-3.64,2.44,2.44,0,0,0-.55,3.61,9,9,0,0,0,4.61,2.67q-2.52.59-4.95,1.23a89.37,89.37,0,0,0,15.24,10.61,17,17,0,0,0-1.43,3.51,16.24,16.24,0,0,0-2.24-2.06c-2.89.9-3.94,1.43-4.19,1.88s.32.78.83,1.14,1,.74.59,1.19-1.67,1-4.45,1.53c-.32,1.35.73,1.05,2,.61s2.67-1,2.71.19c-1.71.85-3.72.33-5.77,0s-4.09-.48-5.5.72c2.06-2.85,4.27-5.58,6.63-8.29-4.2-3.06-8.09-6.09-11.9-9.1l-5.64-4.45-6.08-4.72c-.73.39-.25,1.15.22,1.92-7.87.63-33.16-40-41.21-32.6.38-1.73,3.53-1.37.75-3.46-.73.39-2.06.6-2.44,2.32-1.48-5.07-5.46-8.3-9.78-11.47l-3.26-2.4c-.54-.41-1.08-.82-1.62-1.25l-.79-.64L455,114a17.92,17.92,0,0,1-4.11-5.2c-.63,1.84-2.29,1.73-2.73,3a5.52,5.52,0,0,0-1.43-3.61,8.33,8.33,0,0,0-2.4-1.62c-1.29.93-2.4,1.68-3.32,1.05.25.65.48,1.31.69,2l-6.29,3.16c.06.83.9.44,1.44.48-.52.81-1,.66-1.46.14a10.31,10.31,0,0,1-1.34-2.27,26.59,26.59,0,0,0-.6,2.83l-.1.68a2.24,2.24,0,0,1-.16.71l-.55,1.55c-15.82-.51-26.1,17.74-42.56,20.65-.56,4.26-1.73,6.53-5.17,8.72l2.26.07c-2.34,4.53-1-1.51-3.5,1.37-1.11,3.09,1.77,5.15,3.76,1.93,2.35.18,1.79,1.85.89,3.27C376.67,158.38,364.89,161.59,352.64,160.38Z"/><path d="M350.08,330.92c2.17.22-2.91,4.92,2,5.12,12.58-2.55,21.14-18.77,34.09-23.77,4.33-.43,5-1,8.24-2.12a6.9,6.9,0,0,0-1.46-1.38c2.64-2.25,5.92-6.93,9.62-8.11.18-1.22-1.27-3.73-2.15-1.93,2.05-5.44,10.15-2.65,10.72-6.31-3.12.47-.05-3.69-3.26-2.6,3.67-4.14,10.24,3.27,14.19,1-.36-.73-.72-1.48-1.52-1,6.39-.3,8.73-12,14-7.41L433.9,279c3.08.15,3.8,1.62,7-.15.86-2.37-1.87-1.78-2-3.11,2.66,1.33,6.13-3.85,10.87-3,3.18,3-7.64-.73-6.85,4a1,1,0,0,0,1.48.26c-11.07,9.37-27.53,8.34-33.72,19-4-.37-3.45,3.1-2.16,6.07,2.51-.5,8.94-2.7,4.75-7.17l5.44.23c.8-1.2,5.11,3.23,6.25,3.53-2.36,1.33-.27,7.7,3.81,6.81-4.43,5.34-7.54-10.86-10.8-5.46l2.46,3.79c-.83-2.5-6-.26-6.42,2.19l1.21.05c-13.09,9.9-27.2,26.52-39,40.16-10.85-4.75-6.71,12-15.92,8.55-.38,2.44,4.74.81,3,4.43-.89,1.81-3-.13-3.54-.77-.2.61-.41,1.22-.63,1.84C350.54,353.66,346.26,344.55,350.08,330.92Z"/><path class="cls-1" d="M278.15,365c3.25-1.72,9.68-1.5,8.88,2.28.8-3.78.8-3.78,5.55-5.73-.54,2.52,3.42,2.51,5.89,2.74-1.69-2.18-4.4-3-9.82-4.57-6,4.59-15-5.59-20.8-.43C271,361.25,273.68,365.72,278.15,365Z"/><path class="cls-1" d="M297.84,385.73l1-1.38-9.18.82C291.68,384.25,297.88,383.9,297.84,385.73Z"/><path d="M326.81,386.72c-1.29,2.64,2.88,5,2.34,7.56.83-5.62,7.18.1,11.14.09l2.31-4c-3.17-3.77-12.81-4.1-20.71-5.92Z"/><path class="cls-1" d="M333.42,391.18l3-2.3C334.19,389.23,329.25,388.78,333.42,391.18Z"/><path class="cls-1" d="M330.72,375.14c-6.16-1.48,3.43,2.52-3,2.3C330,377.09,332.42,377.32,330.72,375.14Z"/><polygon points="355.26 388.4 341.64 388.07 346.79 390.93 355.26 388.4"/><path d="M354.35,397.68c-1.72-.34-4.16-2.4-1.42-3.44,4.13,4.24,7.92,0,11.82,3.65l-4.47.69c-.06,3.67,9.45-2.07,8.1,4.23,6.5-3.44-3.37-6.18,4.6-8-7.18-.11-12.1-2.39-17.75-4.56,1.46,1.6,2.2,1.48,4.4,3-4.2-.56-10.16.36-15.11-.09C346.43,397.69,350.69,394.59,354.35,397.68Z"/><path d="M375.32,402.35c4.44,1.14,11.35,2.5,13.41-2.09-4.14-4.23-5.7-.34-8.19,1.28-1.23-1-5.66-2.17-3.39-4.35C377.63,398.34,373.62,400.17,375.32,402.35Z"/><path d="M392.18,406.21a45.61,45.61,0,0,1,4.46-3.59l-2.29.33.79-3a35.92,35.92,0,0,1-2.69,3,8.79,8.79,0,0,1-2.18,1.57,4.08,4.08,0,0,1-2.85.19c.95,1.37,1.83,1.41,2.45,1.25A2.3,2.3,0,0,1,392.18,406.21Z"/><path d="M400.22,385.93a10.35,10.35,0,0,0,5.68,2.1c2,.15,4.33-.06,7.44-.13-3.92-.48-8.54-1.23-12.52-1.69-2-.23-3.81-.39-5.28-.41a12.37,12.37,0,0,0-1.93.1,4.65,4.65,0,0,0-.74.14,1.08,1.08,0,0,0-.43.24,3.3,3.3,0,0,1,.59-.67,1,1,0,0,0-.29.05l-.62.19c-.52.17-1.26.41-2.12.74a31.41,31.41,0,0,0-5.79,2.8,9.85,9.85,0,0,1,4.44-.38c.76.08,1.52.2,2.26.31l1.09.17,1.38.19a9.82,9.82,0,0,0,4.69-.25A3.58,3.58,0,0,0,400.22,385.93Z"/><polygon points="391.5 383.99 392.5 383.53 393 383.3 393.25 383.19 393.63 383.1 396.78 382.38 393.63 383.1 393.25 383.19 393 383.3 392.5 383.53 391.5 383.99"/><path d="M404.38,407.34c-1.6-.76-3.31-1.55-5.12-2.35.27.5.51,1,.73,1.47Z"/><path d="M403.76,394c3.41.92,2.94,0,2.36-1.06s-1.3-2.17,2.36-1.47c1.14,0-1.61-.5-4.78-.71s-6.66-.16-7.22.78c.79.55,2.74.27,4.51.31S404.29,392.24,403.76,394Z"/><path d="M407.9,408.32c1-.25,2.05-.49,3.12-.73a19.8,19.8,0,0,1,2,1.69,19.8,19.8,0,0,0-2-1.69C410,407.83,408.91,408.07,407.9,408.32Z"/><path d="M407.68,419.76c.77,0,1.54,0,2.31,0-1,2.7-.63,5.23-.69,7.82a15.18,15.18,0,0,1-.14,1.9,12.38,12.38,0,0,1-.44,2.13,7.3,7.3,0,0,1-2.41,3.6c2.86-.95,5.89,2.32,6.75-2.58-1.53-.76-1.5-2.52-3.31-2.23a2.41,2.41,0,0,1,1.62-1.72,3.44,3.44,0,0,0,1.8-1.26c-1.26-1.63-1.41-3.62-1.53-5.6s-.21-3.88-1.35-4.59c.5,1,0,1.54-.3,2.53a2.51,2.51,0,0,1-.89-2.74,12.48,12.48,0,0,1,1.45-2.9c1.12-1.83,1.91-3.41-1.42-2.15,1,.17.41,1.9-.33,3.58S407.19,418.88,407.68,419.76Z"/><path d="M423.42,412.44l.86-7c1.54.09,1.58,2.21,1.58,4.16s0,3.78,1.39,3.83c.91-.54,1.58-2.72,2.18-4.57s1.13-3.34,1.75-2.25c-3.6,1.28-3.7-1-3.9-2.77-.1-.87-.23-1.57-.83-1.49s-1.69.95-3.69,3.06c-.75-6.14,2.67-6.07,3.73-10.81a10.24,10.24,0,0,0-3.5-.91c-2,.93-4,1.88-5.89,2.84a35.27,35.27,0,0,1,6.46.53c0,2.57-.41,4.84-.63,7.2A25.48,25.48,0,0,0,423.42,412.44Z"/><path d="M422.29,435.4a32.62,32.62,0,0,0-2.36,2.53c.56-.24,1.13-.5,1.69-.76s1.12-.45,1.69-.68v1.16c0,.44,0,.87-.07,1.29a20.76,20.76,0,0,1-.35,2.44,18.43,18.43,0,0,1-1.4,4.23,17.3,17.3,0,0,1-4.38,5.73c-1.57,1.38-3.1,2.3-4.12,3.29a3.6,3.6,0,0,0-1,3.94,22.09,22.09,0,0,1,1.32,4.46c-2.65,1-6.86.44-10.63-.22s-7.22-1.44-10.21-.89c-1.39,1.59-.48,1.94,1.1,2.1s3.61.13,4.23,1c.67,2.81-.8,2.18-2.21,1.41s-2.79-1.66-3.2.73c.18,2.06,2.82,2.95,6.36,3.57s7.8,1,10.93,2c3.62-.9,2.57-2.1,1.84-4.38,2.7,2.08,7.23,2.4,10.52,4.44a8,8,0,0,1,1.14-.63c-1-4.59-.18-6.76.45-9.44a16.66,16.66,0,0,0-.53-10.33c1.56-.71,1.72,1,1.54,2.51s-.7,2.83-.47,1.52l-.07-4.72-.51.3A21.82,21.82,0,0,1,422.52,440c.15-1,.34-2,.56-3,.23-.75.47-1.48.74-2.15a16.66,16.66,0,0,1,1.64-3.24c-1.08,2.42-3.68,4.1-4.66,1.24l3.65-2.34-.66-.77-.33-.39-.34-.49q-.66-1-1.32-1.92-1.33-1.85-2.65-3.41c1.76,2.42.88,6,.39,7.74C419.05,433.36,419,434.94,422.29,435.4Z"/><path d="M428.87,428.2c1-5.59-.39-5.12-1.78-4.71-.69.19-1.4.33-1.82-.25s-.56-1.89-.14-4.74l.36,11.38a13.43,13.43,0,0,0,1.69-.7C427.74,428.86,428.31,428.54,428.87,428.2Z"/><path class="cls-1" d="M419.78,468.6l-.23.18q-3.06-.88-5.88-1.78c2.69,1.83,4.51,1.8,5.48,1.41a18.51,18.51,0,0,0-.8-2.68C418.24,465.46,418.52,466,419.78,468.6Z"/><path class="cls-1" d="M404.39,470.32a36.7,36.7,0,0,0-.64-4.64,30.09,30.09,0,0,1-2.16,2.84C402.49,469.12,403.42,469.72,404.39,470.32Z"/><path d="M389.16,465.92c-1.19,1.3-1,2.38,0,3a6.55,6.55,0,0,0,4.62.39,5.73,5.73,0,0,1-3.74-1.07A2.28,2.28,0,0,1,389.16,465.92Z"/><path class="cls-1" d="M368.36,458.62c6.12-.53-5.54-.71-1.49-5.28C366.24,455.39,363.36,458.3,368.36,458.62Z"/><path d="M347.59,449.22c2.14-1.08,3.11-.32,3.51.79C349.48,450.05,348.17,449.9,347.59,449.22Z"/><path d="M408.53,449.47a5.35,5.35,0,0,1,.13-1.67C408.61,448.37,408.57,448.91,408.53,449.47Z"/><path d="M408.44,450.55c0-.35.06-.72.09-1.08A4.27,4.27,0,0,1,408.44,450.55Z"/><path d="M377.51,451.08h0a6,6,0,0,1,.52.4Z"/><path d="M315.09,391a11.33,11.33,0,0,1-2.86-.23l2.84.19S315.08,391,315.09,391Z"/><path d="M313,384c5.5-2.07,4.08,7.89,12.52,7.2-3.36.06-6.86-.06-10.42-.25C311.28,385.51,319.07,389.13,313,384Z"/><path d="M381.17,390.51c.11-.05.19,0,.3-.09C382,390.34,381.71,390.45,381.17,390.51Z"/><polygon class="cls-1" points="124.48 453.25 125.3 454.25 120.83 456.01 124.48 453.25"/><path class="cls-1" d="M126.5,454.58l7.37-3.23L100.32,482l-.08-2.31C98.23,478.38,128.88,455.26,126.5,454.58Z"/><path class="cls-1" d="M126.79,451.62c-.22-6.92,6.78-3.41,8.34-9.82-1,4.28-1.11,8.07-4.62,9.36Z"/><path class="cls-2" d="M131.33,433.87c2.53-.81,3.2-4.43,4.76-4.73C138.18,432.77,133.26,432.9,131.33,433.87Z"/><path d="M125.88,417.85a3.53,3.53,0,0,1,.82-.77,7.73,7.73,0,0,0-.36,1.34Z"/><path d="M126.34,418.42l1.18,1.42C126.45,419.83,126.23,419.25,126.34,418.42Z"/><path d="M126.7,417.08a11,11,0,0,0,.81-3.33l-1,.49c.75-1.32,1.64-4.11,2.84-3.77-2.32,1.63-1.5,2.62.15,4.61l3.65-2.77C136.59,417.47,130,414.68,126.7,417.08Z"/><path class="cls-2" d="M136.52,406.41l-1.19,5.75C132.13,410.49,135.18,407.55,136.52,406.41Z"/><path d="M144.34,404.82c-.15,1.49-3.79,4.26-.66,3.62-.1,1-.86,1.49-1.57,2.1C143.86,407.87,139,406.7,144.34,404.82Z"/><path d="M142.11,410.54a4.79,4.79,0,0,1-.88,1A3.75,3.75,0,0,1,142.11,410.54Z"/><path class="cls-2" d="M115.47,454.49c.74,0,1,.33,1.12.81Z"/><path d="M153.88,401.44l1.34-1.14a6.29,6.29,0,0,0-.95,1.07Z"/><path d="M66.18,522.58c5.3-3.27,10.43-6.26,15.53-13.86-3.06-3.16,1.86-3.29-.82-7.09-6.48,6.53,24.09-25,17.31-21.59l-.3,3-1.34-4.95c4.07-2.05,11-3.29,11.5-7.25,1.57.54-27.94,25.05-26,25.06-6.06-1.73,35-37.85,34.52-40.57L118.9,457c3.12-6.73,3.71-12.65,6.7-17.9l3.2,1.67c-3.87,1.95-3.2,4.43-5.44,8.36,5.14-5.39,7.53-4.71,11.32-9-3.05-3.14-5.06,1.61-1.35-4.94,2.76,0,2.4,6.76,6.57,1.85,6.55-4.22,1.1-8.05,5.87-12.79L141.3,426c1.72-1.79,4.55-5.56,7.9-5.37-2.31,1.63-6,8.19-3,11.34,1.48-2.62,7.29-5.54,9-7.34l.89,3.3c4,.36,2.24-3.93,6.56-4.23,1.27-3.45-4.4-2-3.88-4.15,1.19.34,7-2.58,7.29-5.54-5.43-3.83-4.31,6.39-11.46,4.35l5.21-3.08c-1.43-7.26-7.07,6.37-9,1.25-1-7.92,11.19-1.4,8.71-10.47-3.12.63-9.83,6.34-10.51,3.87,3.92-.27,2.57-5.15,5.24-8.6l5.87-1.2c.3-3-1-1.82-3.21-1.67,8.19-2.24,14.9-14,26-17.74,4.17-4.91-1.27-2.65-.6-6.27,5.14.7,7.29-5.53,10-7.82.5-.26.42-1.37.1-2.58-.15-1.37-.7-2.68-1.89-2.68l-.31.38-.15.24-.32.48-.63,1-1.27,1.93-2.53,3.85c-1-1.83-4.25-3.49-6.33-1.05,6.63,4.18-12.44,4.85-7.29,11.64l-2.47-3-6.77,9.5.59.17c-.81-1-5.43,8.36-11.24,11.27.52-2.13,9.38-8,1.93-7.06,2-4.76,10.58-7.66,15.86-14.53l-3-.86c2.12-4.34,6.2-7.56,10.61-10.59,2.2-1.52,4.48-3,6.64-4.53q.81-.57,1.59-1.17l.78-.6.38-.3.5-.41c1.9-1.63,3.73-3.27,5.48-5-.77,2.26-1.44,4.44-2,6.54,2.83-1.59,6.09-3.05,8.91-4.85a17.55,17.55,0,0,0,6.91-7.49c-5.57,5.18-3.56.69-3-1.83a57.47,57.47,0,0,1,4.39-4.8c5,.59,10.9,1.81,16.93,3,3,.59,6.1,1.18,9.2,1.68.94.16,1.12.17,1.58.23l1.22.12c.81.07,1.63.11,2.45.1a1.55,1.55,0,0,0-.28,1.27l8.44-.71c3.7,1.26,4.64,3.55,6.57,6.29,1.49-.23,5,.46,4-1.84a3.69,3.69,0,0,0-2-.54c4.76-3.11,2.65,1.63,8.16.19-4.51,2.53.41,4.82-.65,8,6.21-.36,1.6-5.73,2.61-7.11,6.89,3.19,7.32,6.17,14.47,8.11.78-1.95-4.91-2.29-5.12-4.69,2,.91,4.44,1.14,4.95.45l-4.17-2.4a45.47,45.47,0,0,0,22.94,5.58L298.6,357l5.19,1-2.54,3.44c3-.46,5.38,3.43,7.42.68l-1-.46,3.72-.57-4.27,3.09c4.17,2.4,11.72-4.25,18.87-2.32.65,5.39-12.86-.44-15,6,2.21,1.49,6.13,3.32,7.9,1.82,0-1.83-1.7-2.17-3.43-2.51,7-2.3,15.52,4.9,20.56-.15l-4.4-3c5.68.32,8,7.88,10.57,4.44l-5.55,5.74c6.23-2.19,13.37-.25,19.1-1.75.81-3.77-7.66-1.25-7.15-1.94l3-2.29c7.86,3.65,1.94,2.75,11.53,6.74l.54-2.52c2.64,4.46,12.9-1.39,8.33,4.8l-2.44-2.05-.31,3.09,11.9,0c-1.52,2.07,4.16,2.4,2.13,5.15l4.74-1.95c1.16,4.69-8.74,3.79-9.78,7-.2,2,1.85,2.13,2.88,2-5.7,2.29-6.88-5.71-11.95-6.71l-3,2.29.82-3.78c-2.24.34-4.5,2.53-5.52,3.9-4.1-6.06-10.63-.78-18-3.29,6.7-1-3.39-4.35-2.14-5.15-3.45-.69-13.21,4.48-15.34-.67-1.7-2.18,4.73-2,.06-3.67-3.22-.1-5.73,1.5-4,3.67-7.18-.1-15.31-2.49-23-3.74l2.26-2.18c-4.4-3-9.65-.33-12.66,2-.48-1.14-1-.46,0-1.82-5.35-5.27-8.73,3.78-18.58,1.05-.07,3.67,4.37,4.8,7.85,3.65l-1.55,3.9c8.64,1.7,18.53,2.61,26,1.45l-3.76,2.41c5.09,6.53,5.28-4.47,9.86,2.74,4.48-.7-2.67-2.63.81-3.78,2.78,1.69-2,6.87,2.94,8-19.11-1.3-40.4-5.43-60.15-8.28-.51.69.48,1.15,1.46,1.61-2.19,1.19-7.89.12-15-1.82q-2.69-.74-5.6-1.59l-2.93-.88-1.49-.44-1.12-.39c-3-1-6.34-2.15-9.68-3.16-2,1.35-4,2.78-5.78,4.22-.9.71-1.76,1.43-2.54,2.14l-1.22,1.14-1.23,1.23c-3.06,3.24-4.52,6-3.25,8.06-1.79-.51-.53-4-3.58-1,.22.83.08,2.31,1.86,2.82-11.92,2.7-18.54,16.82-30.75,22.48,1.41,1.16-.07,3.79.74,4.78-6.1-.22-8.78,8.16-13.47,9.12l2.39.67-9.76,8.66c.22.83,1.56-.32,2.53-.81-1.48,2.62-3.51,1.29-4.91.13l-1.35,7.23c-17.72,5.63-25.83,28.45-43.63,37.86.15,4.61-.74,7.41-4.17,11l2.54-.81c-1.79,5.59-1.42-1.16-3.65,2.78-.68,3.62,2.91,4.63,4.54.52,2.66-.72,2.34,1.21,1.59,3C92.59,511.17,80.05,519.06,66.18,522.58Z"/><path d="M292.3,445.09c1.84,1.53-6.6,2-2.18,5.29,13.68,5.85,34.48-1.5,50.45,2.68,4.36,2.36,5.47,2.34,9.32,3.48a5.4,5.4,0,0,0-.27-2c4.25-.11,11-1.72,15.36-.34,1.13-.84,1.78-3.71-.46-2.85,6.21-3,11.51,4.26,14.94,1.75-3.27-1.58,2.88-2.92-1-4.07,3.34-.47,5.07,1.77,6.64,4.22.4.61.78,1.21,1.17,1.83.1.15.21.3.3.45l.21.43a8,8,0,0,0,.46.82,4.06,4.06,0,0,0,2.58,2c.07-.78.1-1.57-.69-1.74a6.27,6.27,0,0,0,4.2,1.17,27.31,27.31,0,0,0,4.24-.64c2.63-.5,4.83-.63,8.06,2.59a17.82,17.82,0,0,0-.66-2.85c2.11,1,3.48,1.92,4.94,2.61.73.1,1.31-.19,1.75-1.66-.54-1.69-1.19-2.12-1.83-2.4a3.19,3.19,0,0,1-1.8-1.2c1.4.62,1.79-.91,2.32-2.7s1.19-3.84,3.16-4.79c2.19.66.73,1.78-.8,2.9a5.75,5.75,0,0,0-1.87,1.87c-.34.73-.24,1.64.74,3.07.87.69,1.13.41,1.23-.18a24.54,24.54,0,0,1-1.27,6.59,79.69,79.69,0,0,1-11.08-2.24c-3.34-.92-6.23-1.93-8.65-2.79-1.21-.43-2.32-.83-3.34-1.15-.51-.16-1-.3-1.48-.42l-.35-.08-.19,0-.28,0-1.14-.09a24.66,24.66,0,0,0-9,1c-3.45-2.81-5.65.27-6.81,3.4,2.73,1.18,10.43,3.47,10.09-2.65L384.2,460c1.7-.44,2.17,5.73,3,6.68-3.25-.44-6.36,5.86-1.87,7.71-8.34,1.41,1.62-13.21-5.69-11l-.72,4.51c1.21-2.48-5.4-4-7.68-2.3l1.07.8c-20-.43-46.23,3.77-68,7.06-6.3-10.5-15.74,5.21-21.55-3.26-2.28,1.68,3.76,3.61-.75,5.33-2.26.86-2.71-2-2.67-2.81l-2.05,1.05C274.7,463.19,278,453.38,292.3,445.09Z"/><path class="cls-1" d="M411.08,467.89c-.27-2.66,1.64-5.31,4-2.22-2.32-3.09-2.32-3.09-2.34-6.57,1.55,2.06,2.63.33,3.45-.59-1.92-.83-3.2-.23-5.76,1,.73,3-1.24,3.6-3.15,4.27s-4.08,1.61-2.16,4c.31.18.73.49,1.19.81.67.16,1.37.34,2,.45C409.58,469.21,410.71,469.12,411.08,467.89Z"/><path class="cls-1" d="M430.42,474.27l-.65-1.44-2,4.6C427.74,475.89,429.19,472.93,430.42,474.27Z"/><path d="M439,462.35c1.43,2.47,4.18,2.39,5.74,4.45-3.56-4.43,2-3.06,3.11-4.8l-2.07-3.9c-3.41-1.35-6.27,2.62-9.66,4.75Z"/><path class="cls-1" d="M443.82,462.7l-.73-3C442.72,461,441.06,462.78,443.82,462.7Z"/><path class="cls-1" d="M432.27,452.28c-2.68,1.61,2.63.32.73,3C433.37,454,434.2,453.11,432.27,452.28Z"/><polygon points="447.92 451.16 443.97 456.86 447.3 456.68 447.92 451.16"/><path d="M453.92,458.26a1.9,1.9,0,0,1-2.71-1.86c4,1.26,2.16-3.47,5.7-2.52l-.76,2.45c2.46,2.68,1.19-5.62,5.06-.47-.54-5.33-5.08-3-4.15-7.81-2,3.06-4.91,3.55-7.92,4.45,1.48.52,1.6.11,3.21.23-1.53,1.42-2.54,4.69-4.2,6.52C451.76,461.73,450.84,457.63,453.92,458.26Z"/><path d="M462.8,452.49c2-1.11,4.79-3.14,2.26-7.35-4-1.26-1.79,2.24-1.38,4.49-1-.21-3,.9-3.86-1.67C460.73,448.59,460.86,451.66,462.8,452.49Z"/><path d="M470.27,447.74l-1.37-4.42-.38,1.23-2-2.37c.32.72,3.17,5.65,1.19,6.76C470.09,450.09,468.67,447.62,470.27,447.74Z"/><path d="M457.54,430.55c2.5.74,2.43-.8,3.06-2.84-1.66,1.83-4.47,3.85-4,5.7l-.32-.72a23.92,23.92,0,0,0,.17,6.56C456.6,435.35,462.89,436.21,457.54,430.55Z"/><path d="M454.85,432.17l-.14-3.07Z"/><polygon points="475.11 442.65 471.53 443.65 473.01 444.17 475.11 442.65"/><path d="M463.85,434.89c2.55-1.21-3.29-1.76-1.18-3.28.25-.82-2.93,2.44-1.83,4.18C461.86,436,461.4,432.22,463.85,434.89Z"/><path d="M477.09,441.54l.23-4.3Z"/><path d="M483.94,438.82l-1-2.16c3.33-.18,4.27-5,8.9-2.29-2.13-2-2.72-5.34-5.15-4.53.64,1.43-.06,1.94,1.17,3.28-1.15.19-2.25-1.56-3.29-1.77.15,3.07-3.18,3.26-2.9,5.92.24-.82.7-.51,1.27-.61.09,5-6.36-2.39-3.31,3.67C479.25,438.07,483.43,440.46,483.94,438.82Z"/><path d="M474.06,426.57l-2.44.81c-1.3-2.88,2.23-1.94.81-4.4-1.23-1.34-3.65-.54-3.73-2.07,4.2,5.86-2.36,2.33,3.57,7.9-1.9,2.65-3.48-2.89-5.84-.55l1.63,3.59C469.77,428.08,472.34,430.35,474.06,426.57Z"/><path d="M482.1,421.72l2.38,1.14-2.58-2.27c3.9-3.76,14.91,5.21,16.27,1.67.4-6.09,7.55-3.06,10.39-6.16-.21-3.55-2.59-.16-3.86-1.45-3.05-4.85,3.4,1.16,1.26-3.11-2.34-3.42-6.08-.9-9-1.77-.86,1.41-.05,2.41,1,4.55-1.73-1.58-3.4-1.16-5.13-2.74-.55,4.54-5.65.76-6,5.46-2.7-1.86,1.5-1.94.39-1.67l-1.32,1.13.46.29c.11,4-5.15,4.31-7.65,3.57,1.6.12,3.85,1.66,3.35,3.3l-3.16-2.17.88,6.05C479.42,423.33,485.86,427.27,482.1,421.72Z"/><path d="M475.42,418.6c-4,.69,3.68,4-.48,5.11l3.06-2.84Z"/><path class="cls-1" d="M494.61,415.15l2.94.87C493.64,412.58,495.63,419.69,494.61,415.15Z"/><polygon class="cls-1" points="499.77 411.06 501.91 415.34 501.61 412.21 499.77 411.06"/><path d="M508,411.83c-.41-2.7-2.89-3.28-3.76-1.86C505.45,409.26,507.28,410.41,508,411.83Z"/><path class="cls-1" d="M521.34,412.86c-2.37,1.87,2.84-.73,3.72,3.94C524.14,415,523.71,411.94,521.34,412.86Z"/><path d="M535.89,415.59c-.31,1.38-1.17,1-2,.19A1.81,1.81,0,0,1,535.89,415.59Z"/><path d="M497.22,427.38a2.23,2.23,0,0,1-.91.55C496.61,427.73,496.92,427.57,497.22,427.38Z"/><path d="M497.82,427l-.6.36A2,2,0,0,1,497.82,427Z"/><path d="M521.71,421.12s0,0,0,0c-.16-.07-.28-.1-.47-.2Z"/><path d="M438.67,470.54a2.91,2.91,0,0,1-.93,1.09c.3-.37.61-.73.9-1.11Z"/><path d="M433.38,466.41c.11-3.89,6.44,3.93,8.28-.25a39.48,39.48,0,0,1-3,4.36C433.94,468.25,438.51,467.47,433.38,466.41Z"/><path d="M456.42,441.38c0-.07,0-.1,0-.19C456.53,440.91,456.53,441.11,456.42,441.38Z"/><path class="cls-1" d="M332.74,490.94l-.05,1.29c-.82-.54-1.6-1.09-2.34-1.64Z"/><path class="cls-1" d="M333.05,493.27c1.32.82,2.53,1.64,3.8,2.47l-27.31.74,2-1.78c.56-1.16,5.81-1,11.15-.8S333.46,494.32,333.05,493.27Z"/><path class="cls-1" d="M334.15,491.25c2.17-5.33,3.61,1.94,6.27-1.83-1.78,2.52-3,5.3-4.75,3.95Z"/><path class="cls-2" d="M341.6,481c1.2,1.07,2.62-1.2,3.3-.39C344.48,484.67,342.63,481.51,341.6,481Z"/><path d="M344.81,465.35a.87.87,0,0,1,.55,0,4.93,4.93,0,0,0-.57.77Z"/><path d="M344.79,466.08l0,1.85A1.75,1.75,0,0,1,344.79,466.08Z"/><path d="M345.36,465.31a7.32,7.32,0,0,0,1.38-1.95l-.51-.28c.7-.49,1.94-2,2.27-.94-1.38-.31-1.4,1-1.44,3.55l2.24.34C348.88,472.17,347.36,465.7,345.36,465.31Z"/><path class="cls-2" d="M352.45,463.83l-2.31,3.52C349.51,464,351.59,463.8,352.45,463.83Z"/><path d="M355.85,467.82c-.54,1-2.78.67-1.42,2.27-.37.7-.81.55-1.27.54C354.68,469.79,353.25,465.65,355.85,467.82Z"/><path d="M353.16,470.63a1.18,1.18,0,0,1-.65.17A1,1,0,0,1,353.16,470.63Z"/><path class="cls-2" d="M329.45,485.9a1.75,1.75,0,0,1-.05,1.35Z"/><path d="M360.46,471.61l.87,0a1.85,1.85,0,0,0-.7.17Z"/><path d="M289.71,471.69a34.49,34.49,0,0,0,1.49,6.58,17.25,17.25,0,0,0,4.26,6.59c3.51-3,2,1.42,5.75-1.45-1.09-1.93.42.58,2.51,3.72s4.73,6.83,6.13,7.76c1.37-.46,2-.9,1.37-1.29l-1.07.84-1.08.5c.67-.62,1.34-1.26,2-1.91l1.85-2c.78.58,1.51,1.78,2.53,2.52a2.61,2.61,0,0,0,3.67-.34c0,.62-4.09.76-8.7.81-2.34-5.28-5-11.55-5.36-10.58.78-1.33,2-.81,3.42.58a37.43,37.43,0,0,1,4.52,6.09c8-1.05,15.91-1.59,16.4-2.86l-.08,2.79a18.13,18.13,0,0,0,2.54-2.37c.75-.83,1.31-1.68,2-2.49a21.06,21.06,0,0,1,4-4.11l.64,3.38c-2.06-1.11-2.62,1.19-4.73,2.66,3.65-.64,4.31,1.45,7.09.78-.1-4.39-2.39-2.15,1.12-4.6,1,1.84-1.32,6.65,1.81,5.74,3.79,1.17,3-5.3,6.33-5.69l-2.23-1.64c1.22-.21,3.49-1.15,4.66,1.21-1.38-.31-4.89,2.14-4.79,6.53,1.4-1,4.49.68,5.71.47l-.74,3.06c1.33,2.89,2.1-1.46,3.79,1.18,1.59-1.75-1-4.42-.08-5.68.33,1,3.42,2.7,4.49.69-.76-6.48-3.67,1.92-5.64-4.35l2.92,1.15c1.84-6.38-4.67.08-3.72-5,2.19-6.62,4.57,6.36,6.61-2.07-1.35-1.6-5.68-1.76-5.13-4.07,1.53,2.4,2.62-2.15,4.73-3l2.55,3c1.08-2,.21-2.05-.64-3.37,3.75,3.74,10.06-.65,15.35,3.93,3.14-.92.4-2.83,1.82-5.09,1.67,3.92,4.49.69,6.22.75.52.27,1.45-3.56.95-5.12l-4.36,2.41c.21-2.06-.43-5.43-2-5,1.09,7.52-6.16-4.61-6.47,3.89l.06-3.87L368.52,466l.17.52c0-1.28-4.72,2.66-7.81,1,.89-1.26,6.05.23,3-4,2.29-2.24,6.39,1.27,10.57-.38l-.82-2.61c4.39-3.7,10.2,1.16,15.06.3l-1.44,3.56c1.71,1.36,3.91,4.28,5.52,1.24-2.08.18-1-1.84-.64-3.37,1.41-1,3.14-.92,5-.78l2,.13c.07,0,.15-.15.16-.5,0,0,.08.77.16,1.3a8,8,0,0,0-.16-2.18c.11.32.38,1.1.8,2.12.33.81.74,1.77,1.23,2.74-.07-.56.19-.68-.8-2.56-.12-.16-.23-.32-.17-.11-.72-1.91-.63-1.62-.38-1.21s.61,1,.09-.14a36.49,36.49,0,0,0,2,3.52c.63,1,1.38,1.92,2.23,3.38,0-.94-.84-2.15-1.7-3.36s-1.75-2.44-2.14-3.11c.32.36.7.76,1.09,1.15l.3.29.15.14a1.17,1.17,0,0,0,.27.05l1.11.15a6.71,6.71,0,0,0,4.42-.6c-1.1-1.75-2.88.49-4.56-1.16,1.16-.2,2-1.11,1.66-1.83l-2.76.08c4.49-.38,7.75-2.09,10-6l-.9-.62,2.11-1.52,1.62,3.6c.5-1.64,3.79.13,2.49-2.75l-.58.1.63-2,.92,4.1c2.76-.08.34-8.19,3.6-9.91,3.8,3.61-3.82,5.29-.07,10.85,1.61.11,3.91-.27,3.39-2.13-1.23-1.33-1.93-.83-2.63-.32.35-4.7,7.54-3.22,5.52-9.07l-3.2-.23c1.77-2.24,7.51,2.21,5.89-1.39l2.34,6.57c.23-4.3,3.49-6,4.05-9.6-2.32-3.08-2.94,2.44-3.26,1.72l-.72-3c4.6-.79,2.38,1.14,7.69-.15L439.49,436c3.73,2.07,2.59-6.63,5.51-.16l-2.05-.43,2,2.37,3.24-5.2c1,2.16,2.75-.08,4.05,2.79l0-3.48c3.48,2.89.17,6.56,2,9.33,1.3,1.55,1.94.74,2.15.21,0,4.15-5.73-1.13-7.79.36l.72,3L447,441.64c-.39,1.22.47,3.78,1.12,5.22-5.22-2.6-3.44,4.07-7.15,5.48,1.13-3.68-3.86-1.67-4.06-2.8-1.4,1-.59,9-4.64,6.21-1.93-.83,0-3.47-2.46-2.67a3,3,0,0,0,1.38,4.41c-2,3.06-5.87,4.88-8.81,7.31l-.85-2.57c-3.2-.22-2.86,4-2.13,6.95-.9-.62-.58.09-1.23-1.34-5-1.47.17,6.55-4.37,8.87,2.45,2.68,4.43,1.57,4.61-.78l2.2,3.49c3.51-2.53,6.82-6.2,8.08-10.28l.6,3.38c5.79,2.5-1.57-5.53,4.54-2.32.75-2.46-2.51-.74-2.33-3.09,1.9,0,4.08,5.85,6.21,4.52a90.63,90.63,0,0,1-10.56,10.43c-1.92,1.66-3.87,3.3-5.8,4.92L418,489.85l-3.47,3c.15.86.77.72,1.41.58-.16,1.42-1.53,2.91-3.58,4.4A75.65,75.65,0,0,1,402,496.44l-2.81-.53-2.26-.53c-1.5-.35-3-.68-4.42-.93-5.72-1-10.46-.88-10.82,3.52-.49-1.57,1.1-3.32-1-3.13a5.1,5.1,0,0,0-.23,3.34c-5.27-5.87-12.31.31-18.65-3.53.14,1.8-1.26,2.79-1.28,4.07-2.18-4.21-5.89.3-7.93-2.1l.66,2.09-6.41,0c-.19.76.68.79,1.19,1.07-1.4,1-1.71-1.35-1.85-3.16l-2.85,4.53a9.64,9.64,0,0,0-6.61-2.59,16.57,16.57,0,0,0-3.52.36c-1.6.24-3.25.56-5,.91a93.9,93.9,0,0,1-10.82,1.8c-3.65.31-7.25.16-9.9-1-1,.86-2,1.6-2.93,2.24-1.89.62-3.2,0-4.48-2.21l-.06,2.6c-3.55-.66,1.18-1.84-1.07-3.37a3.07,3.07,0,0,0-2.66,2.17,2.22,2.22,0,0,0,1.17,3c-.1,2.86-1.4,3-2.58,2.42C290.17,495.46,287.17,482.38,289.71,471.69Z"/><path d="M562.49,405.94c-1.69-.81,1.71-3.2-2.11-4.8-9.39-1.53-14.23,9.32-23.64,9.7a16.08,16.08,0,0,0-6.11-.64,11.21,11.21,0,0,0,1.27,1.55c-1.79,1.09-3.8,4-6.52,3.89,0,.95,1.38,3.43,1.86,2.2-1,3.88-7.51-.74-7.56,2.1,2.35.51.44,3,2.79,3.07-2.38,2.34-8.23-5.64-11-4.95.36.71.71,1.43,1.27,1.29-4.87-1.6-5.41,7.34-9.94,2l.87,3c-2.38-1-3.1-2.44-5.33-1.89-.4,1.7,1.63,2,1.88,3.14-2.18-1.86-4.29,1.39-8-.69-2.77-3.4,6,2.8,4.84-1.33-.5-.71-.85-.77-1.17-.64,7.5-4.5,20.26,1.09,23.87-5.89,3.14,1.47,2.32-1.54,1-4.36-1.88-.31-6.58-.36-2.88,4.52l-4.21-1.75c-.48.75-4.27-4.13-5.19-4.71,1.68-.41-.62-6.25-3.66-6.69,2.84-3.11,7,11.09,8.9,7.6l-2.31-3.83c.91,2.3,4.68,2,4.7.06l-.93-.39c9-4.35,18.05-13.93,25.67-21.73,8.86,7,3.87-7.92,11.33-2.42,0-1.9-3.74-2-2.77-4.5.49-1.23,2.34,1,2.8,1.65.1-.44.19-.88.29-1.33C559.69,387.13,564,395.85,562.49,405.94Z"/><path class="cls-1" d="M415.17,562.25c2.66-2.31,8.58-3.32,8.52.55,0-1.94,0-2.9.55-3.74a3.29,3.29,0,0,1,.48-.61c.12-.21.16-.42.26-.64.17-.45.38-1,.58-1.67.25,2.58,1.49,1.85,2.17,1.63a7.42,7.42,0,0,0-1.58-1.82,4.81,4.81,0,0,0-.78-.48l-.42-.2-.23-.11-.9-.1c-4.68,5.66-14.74-2.62-19.11,3.55C408,559.91,411.2,563.79,415.17,562.25Z"/><path class="cls-1" d="M437.59,578.81q0-.76.06-1.53-3.63,1.26-7.94,2.54a11.61,11.61,0,0,1,4.21-1.66C435.53,577.85,437.05,577.91,437.59,578.81Z"/><path d="M453,556.29c1.64,2.41,5.63.29,7.53,2-4.4-3.59,3.44-5.76,5.28-9l-2.34-4c-4.7.6-9.48,8.24-14.72,13.69Z"/><path class="cls-1" d="M459.87,553.26l-.55-3.63C458.57,551.62,455.88,555.39,459.87,553.26Z"/><path class="cls-1" d="M444.94,547.11c-4.13,4.22,3.74-1.46.56,3.63C446.24,548.75,447.59,546.87,444.94,547.11Z"/><polygon points="467.69 534.13 461.06 544.99 465.9 542.3 467.69 534.13"/><path d="M475.18,539.68c-1.1,1.22-4,2.13-3.6-.62,5.54-1.15,3.69-6.43,8.63-7.68l-1.49,4c3.09,2,2.64-8.72,7.38-4.36.09-7-6.84-.48-4.7-7.89-3.44,5.76-7.68,8.56-12.16,12,2.05-.35,2.29-1,4.58-2-2.44,3.1-4.43,8.41-7.12,12.18C471.49,546.11,470.84,541.05,475.18,539.68Z"/><path d="M488.94,525.13c3-3,7.43-7.89,4.48-11.94-5.54,1.15-2.95,4.44-2.73,7.3-1.46.46-4.5,3.45-5.3.48C486.6,521.18,486.29,525.38,488.94,525.13Z"/><path d="M500.5,513l-1.24-5.18-.75,2L496,508c.35.77,3.65,5.59.61,8.59C499.86,516.44,498.21,514,500.5,513Z"/><path d="M485,498.28c3.5-.8,3.64-2.9,4.89-6.21-2.7,3.77-7.08,8.65-6.64,10.86l-.34-.77a35,35,0,0,0-.85,9C482.84,505.68,491.77,502.3,485,498.28Z"/><path d="M480.84,502.5l.3-4.19Z"/><polygon points="508.33 502.37 503 506.39 505.04 506.04 508.33 502.37"/><path d="M493.37,499.75c3.88-3.56-4.45-.07-1.16-3.73.5-1.33-4.63,5.55-3.33,7.19C490.32,502.75,490.27,497.8,493.37,499.75Z"/><path d="M511.37,499.38l1-6.19Z"/><path d="M521.7,490.58l-1.06-2.31c4.84-2.68,7-10.09,13.22-9.7-2.74-1.19-3-5.48-6.68-2.58.69,1.53-.4,2.75,1.15,3.73-1.7,1.12-3-.53-4.45-.07-.29,4.18-5.13,6.88-5.17,10.4.49-1.32,1.09-1.22,1.93-1.78-.69,7-8.77,1.29-5.37,7.54C515.06,493,520.7,493.23,521.7,490.58Z"/><path d="M509.48,480.66l-3.66,2.9c-1.39-3.08,3.55-4.33,1.9-6.74-1.55-1-5.18,1.91-5-.17,5.09,5.12-3.79,5,3.84,8.44-3.18,5.1-4.54-1.5-8.32,3.49l1.75,3.84C503,485.89,506.38,487.19,509.48,480.66Z"/><path d="M521.88,468l3.25-.14-3.35-1.29C528,458.46,542.42,463,545,457c1.58-8.82,11.4-9.81,16-16.21.28-4.81-3.71,1.66-5.33.79-3.6-4.56,4.71-.86,2.34-5.27-2.81-3.08-8.63,3.18-12.73,4.11-1.47,2.6-.47,3.41.71,5.62-2.23-.95-4.71.86-6.94-.08-1.55,6.75-8.27,5.18-9.56,12-3.6-.63,2.48-3.82.82-2.61l-2.08,2.53.61.07c-.5,5.48-8.14,9.79-11.62,10.58,2.28-1,5.28-.49,4.28,2.17l-4.19-.73.26,7.82C517.74,472.21,526.38,473,521.88,468Z"/><path d="M512.75,468.51c-5.93,3.91,4.65,2.94-1.53,7.5l4.88-6.21Z"/><path class="cls-1" d="M541,449.67l4.1-.93C540,446.79,541.74,455.28,541,449.67Z"/><polygon class="cls-1" points="549.14 440.19 551.51 444.61 551.59 440.46 549.14 440.19"/><path d="M560.86,435.27c-.14-3.48-3.63-2.48-5.11.13C557.63,433.52,560.07,433.8,560.86,435.27Z"/><path class="cls-1" d="M582.23,424.32c-2.45,2.85-1.11,1.74,1,.54a10.78,10.78,0,0,1,3.37-1.38c1-.14,1.89.21,2,1.73-.65-.77-1-2.14-1.85-2.69S584.57,422.17,582.23,424.32Z"/><path d="M613.89,404.62a6.7,6.7,0,0,1-5,4.13A17.69,17.69,0,0,1,613.89,404.62Z"/><path d="M542.76,464.87a8.36,8.36,0,0,1-1.41,1.44Z"/><path d="M543.68,463.93l-.92.94A6.88,6.88,0,0,1,543.68,463.93Z"/><path d="M579.81,437.45s0,0,0,0c-.28.08-.5.19-.8.25Z"/><path d="M451.15,568a13.56,13.56,0,0,1-.79,1.29,8.35,8.35,0,0,1-.78,1l.79-1.15.73-1.1Z"/><path d="M444.26,566a2.39,2.39,0,0,1,1.68-2.26,11.24,11.24,0,0,1,3.3-.25c2.47,0,5.27-.23,6.94-3.83-1.52,2.76-3.25,5.53-5.08,8.31-3.19.13-3.11-.92-3.14-1.71,0-.4,0-.73-.53-.83a3.33,3.33,0,0,0-1.12.07C445.79,565.61,445.09,565.81,444.26,566Z"/><path d="M481.57,514.25a1.37,1.37,0,0,0,.07-.29C481.82,513.5,481.78,513.78,481.57,514.25Z"/><polygon class="cls-1" points="243.43 582.56 243.41 583.85 239.17 582.28 243.43 582.56"/><path class="cls-1" d="M244.05,584.88l7.19,2.34-19.51.67-9.22.32-7.18.29-1.7,1.79q-.09-1.17-.12-2.4c-.22-.28.09-.91.79-1.82a53.3,53.3,0,0,1,6.73-.32l10.24,0C238.46,585.83,244.6,585.76,244.05,584.88Z"/><path class="cls-1" d="M246.06,582.82c4-5.4,6.86,1.83,11.85-2-3.33,2.57-5.67,5.4-8.94,4.09Z"/><path class="cls-2" d="M260,572.3c2.29,1,4.95-1.27,6.24-.49C265.54,575.93,262,572.82,260,572.3Z"/><path d="M265.84,556.6a3.11,3.11,0,0,1,1.05-.06,7.49,7.49,0,0,0-1.06.79Z"/><path d="M265.83,557.33l0,1.84C265.05,558.47,265.25,557.89,265.83,557.33Z"/><path d="M266.89,556.54a10,10,0,0,0,2.59-2l-1-.26c1.33-.51,3.65-2,4.29-1-2.62-.27-2.64,1-2.68,3.6l4.26.27C273.67,563.28,270.69,556.87,266.89,556.54Z"/><path class="cls-2" d="M280.31,554.84,276,558.43C274.73,555.08,278.68,554.83,280.31,554.84Z"/><path d="M286.82,558.72c-1,1-5.26.76-2.66,2.32-.68.7-1.51.57-2.39.57C284.64,560.72,281.86,556.64,286.82,558.72Z"/><path d="M281.77,561.61a4.1,4.1,0,0,1-1.23.2A3.14,3.14,0,0,1,281.77,561.61Z"/><path class="cls-2" d="M236.29,577.63a1,1,0,0,1,.3,1.34Z"/><path d="M295.63,562.36h1.64a5.61,5.61,0,0,0-1.32.19Z"/><path d="M186.14,628.75c4.8-3.29,9.46-6.32,13.67-13.79-3.25-3,1.47-3.22-1.46-6.83-2.81,3.24,2.4-3,7.54-9.52.64-.82,1.29-1.65,1.91-2.46s1.31-1.69,1.64-2.22c.81-1.21,1.57-2.38,2.16-3.38,1.17-2,1.68-3.3.43-2.74-.06,1-.08,2-.08,2.94a52.5,52.5,0,0,1-1.17-5.32,16.26,16.26,0,0,1,2.82-1,36.09,36.09,0,0,0,4.81,1.61c1.36.28,2.43.14,3.18-.84.26.48-3,.72-7.29.88l-10.06,10.25c-3.48,3.58-5.9,6.23-5.28,6.22-1.57-.4-.26-3.15,2.53-7,.7-1,1.49-2,2.34-3.11l2.66-3.33c1.84-2.25,3.91-4.68,6-7.14,5.57-.52,11.48-1,16.06-1.43s7.68-.93,8-1.51l.61,2.79c6.29-3.07,10.3-7.18,15.59-9.22l1.26,3.35c-3.93-1-5,1.27-8.92,2.8,6.91-.74,8.19,1.32,13.46.56-.26-4.37-4.57-2.07,2-4.63,1.94,1.82-2.4,6.7,3.53,5.68,7.2,1.06,5.66-5.39,11.91-5.88l-4.25-1.57c2.31-.24,6.6-1.26,8.85,1.07-2.62-.27-9.23,2.28-9,6.67,2.63-1,8.52.54,10.83.29L281.18,584c2.57,2.85,4-1.53,7.2,1.06,3-1.8-1.9-4.39-.24-5.68.64,1,6.53,2.6,8.53.55-1.54-6.45-6.93,2-10.77-4.17l5.57,1.06c3.38-6.44-8.87.23-7.16-4.92,4.06-6.69,8.78,6.21,12.51-2.28C294.23,568,286,568,287,565.68,290,568,292,563.45,296,562.56l4.89,2.92c2-2.06.36-2.07-1.26-3.36,7.16,3.63,19.06-1,29.17,3.45,5.93-1,.7-2.83,3.36-5.14,3.23,3.87,8.53.54,11.81.55,1,.26,2.69-3.6,1.73-5.15l-8.25,2.55c.37-2.06-.9-5.41-3.86-4.91,2.18,7.48-11.75-4.42-12.21,4.08l.05-3.86-10.55,2.8.32.51c0-1.28-8.91,2.81-14.8,1.24,1.67-1.28,11.49,0,5.65-4.1,4.31-2.3,12.13,1.07,20-.71l-1.59-2.58c8.27-3.84,19.37.84,28.57-.17l-2.68,3.61c3.27,1.3,7.49,4.15,10.49,1.06-3.94.25-1.95-1.81-1.26-3.35,5.29-2,13.14,0,20.39-1.48a1.64,1.64,0,0,0,0,1.29l7.59-2.3c3.61.53,4.88,2.6,7.15,4.93,1.32-.51,4.61-.5,3.32-2.57a3.18,3.18,0,0,0-1.88-.16c3.78-4,2.71,1.1,7.49-1.37-3.67,3.34,1.24,4.65.85,8,5.62-1.53.43-5.93,1.11-7.48,6.88,1.83,7.8,4.67,14.69,5.21.37-2.06-4.9-1.31-5.52-3.63,2,.52,4.26.28,4.6-.5l-4.24-1.56a42.22,42.22,0,0,0,10.72,2.1c.91,0,1.81.07,2.73,0h.22l.11,0,.2-.08a1.3,1.3,0,0,0,.63-.82l-.37-1,.48.09a38.45,38.45,0,0,1,1.34,3.81c.05-.27.23-.21.47,0,.45.15,1.45.79.34-1.32l-.28-.1a12.2,12.2,0,0,0-.34-1.47,22,22,0,0,1,1.73,3.8c.85.26.49-1.71-.36-3.3l-.33-.58-.17-.29c0-.11-.17-.12-.07-.38a20.86,20.86,0,0,1,.69-2.46,10.71,10.71,0,0,1,2.6-4.29c2.45,1.13.86,3.68-.79,6.57l-.61,1.1-.29.56c-.07.11-.05.13,0,.16v.11a5.67,5.67,0,0,0,.25,1,12.16,12.16,0,0,0,1.74,3.21,2.93,2.93,0,0,0,1.95-.31,1.34,1.34,0,0,0,.34-.28l.24-.32a4.37,4.37,0,0,0,.25-.4,2.42,2.42,0,0,0,.31-1.64,1.85,1.85,0,0,0-2-.09,3.82,3.82,0,0,0-.44.3l-.22.18-.16.14a1.88,1.88,0,0,0-.3.27,5.76,5.76,0,0,1-.17-.65v-.08l.06-.14.12-.29c.09-.2.18-.39.28-.58a13.59,13.59,0,0,1,1.44-2.14c1.1-1.37,2.43-2.62,3.65-3.86,2.45-2.49,4.5-5,3.53-8.31l-4.59,2c2.93-4.43,10.47-2.4,8.72-6.25l2.3,7.47c1-6.17,6-10.95,7.42-16.36-2.83-2.62-4.63,5.55-5,4.78l-.55-3.63c6.77-4.47,3.24-.14,11.12-5.83l-1.9-1.75c5,.17,4.84-11.16,8-4.25l-2.88.9,2.48,1.86,5.54-9.65c1.05,2.32,4-2.12,5.39.95l.54-4.85c4.54,1.5-.84,9,1.41,11.56,1.62,1.21,2.67-.39,3.06-1.28-.69,5.81-8.07,2.6-11.29,6.19l.54,3.64L468,521.46c-.76,2,.05,4.95.75,6.49-7.09.18-5.63,8.2-11.22,12.88,2.24-6-5.29.49-5.39-.94-2.19,2.44-2.34,13-7.73,12.07-2.65.25.54-4.85-3.09-2-1.6,2.55-1.4,5.42,1.25,5.17a41.48,41.48,0,0,1-2.64,3.82l-1.34,1.68c-.33.4-.68.8-1,1.19-1.42,1.59-2.93,3.07-4.3,4.61-.49,0-1,0-1.43,0a23.88,23.88,0,0,0,0-2.54c-1.71-1.05-2.6-.69-3.49.28a22.83,22.83,0,0,0-2.46,4c-.49-1-.66-.27-.28-1.8a4.71,4.71,0,0,0-.67-.63,4.43,4.43,0,0,0-1-.34,3.52,3.52,0,0,0-1.74,0,9.92,9.92,0,0,0-3.28,2c-2.28,1.77-5,3.95-9.78,3.54.6,3.62,4.86,3.89,7.84,2.09l-.72,4.13c1.85,0,3.76,0,5.67-.15s3.85-.27,5.66-.49A38.09,38.09,0,0,0,437,574.4c.37-.75.65-1.42.9-2.07-.05,1.12-.13,2.28-.25,3.48-.15.32-.32.64-.5,1,.49.33.93.59,1.33.81a2,2,0,0,0,2-1.38,7.12,7.12,0,0,0,.21-2.54,3.06,3.06,0,0,1,.43-2.09c.44-.48,1.28-.63,3.08-.46.84-2.1,0-1.9-.93-1.73s-1.84.36-1.53-1.34c1.21-.5,2.35.91,3.52,2.1s2.44,2.09,4.32.11c-2.7,3.86-5.72,7.9-8.94,12-4.12.29-8.41.52-12.78.72l-11.49.48c-7.39.28-14.77.51-21.91.88-.35.77.64,1,1.62,1.3-6.33,5.65-58.29-8.41-59.78,2.41-1-1.55,2-3.34-1.92-3.1-.34.77-1.34,1.8-.38,3.35-10.09-5.7-23.33.7-35.42-2.95.3,1.8-2.34,2.83-2.36,4.12-4.2-4.15-11.17.47-15.08-1.86l1.29,2.07-12.16.21c-.35.78,1.3.78,2.28,1-2.64,1-3.26-1.3-3.55-3.1l-5.34,4.61c-7.62-3.46-16.07-2.53-24.81-1.09-4.37.72-8.81,1.56-13.26,2l-1.56.16-.93.11a15.95,15.95,0,0,1-5.77-.47,11.19,11.19,0,0,1-1.27.5c.28,2.23.52,3.78.53,5a6.58,6.58,0,0,1-.15,1.61,3.83,3.83,0,0,1-.21.68l-.15.31a1.75,1.75,0,0,1-.31.44l.3-.11a1,1,0,0,1,.18,0l.35,0c.22,0,.45,0,.66.09.1.44.16.73.19.93s0,.17,0,.22a.2.2,0,0,0,0,.07l-.09.1c-.22.21-.42,0-.64-.21-.44-.47-1-1.14-1.85.79-.15,1.76.65,2.86,1.65,3a1.92,1.92,0,0,0,1.54-.5,3.55,3.55,0,0,0,.69-.85,6.27,6.27,0,0,0,.3-.58.24.24,0,0,0,0-.23l-.06-.18a2.94,2.94,0,0,1,1.4,1.13c.17.23.32.47.46.7l.19.33c.05.12.16.17,0,.44C210.5,617.06,199.16,625,186.14,628.75Z"/><path d="M578.18,360.89c.66,1.15-2.17.45-4.63.14s-4.52-.2-2.84,2.4c6,5.67,14.94,9.83,25,14,5,2.08,10.29,4.14,15.25,6.25a104.72,104.72,0,0,1,13.09,6.42c-2.5,2.32-5.07,4.57-7.72,6.7-4.13,2.7-6.36,4.22-8.31,5.65l-6.24,4.7a11.81,11.81,0,0,0,2.86-.24c-2.11,2.25-4.38,5.2-6.92,8.16a46.52,46.52,0,0,1-8.15,7.86c-.28,1.45,1.75,3.4,3.27.61a15,15,0,0,1-4.07,5.1,33.31,33.31,0,0,1-5.26,3.55c-3.46,2-6.31,3.2-7.07,5.77,2.12-1,2,.16,1.76,1.34a3.38,3.38,0,0,0-.07.79.76.76,0,0,0,.21.45.63.63,0,0,0,.53.13,5.53,5.53,0,0,0,1.34-.75c-.2.25-.4.48-.59.7l-.3.32-.22.2a3.92,3.92,0,0,1-.82.55,4.59,4.59,0,0,1-1.81.51,12.34,12.34,0,0,1-4-.55c-2.78-.72-5.59-1.69-7.66-.19.4.73.79,1.47,1.63.87-6.77,1.32-9,14.22-14.69,10.13l.77,3.55c-3.28.32-4.07-1.15-7.38,1.25-.87,2.67,2,1.61,2.19,3-2.84-1-6.42,5.08-11.47,4.91-3.44-2.73,8.12-.44,7.19-5.39-.59-.64-1.08-.46-1.58,0,5.79-5.89,13-9.21,19.66-12.6a62.27,62.27,0,0,0,9.17-5.48,26.28,26.28,0,0,0,3.72-3.41c.27-.31.54-.63.8-1s.72-.91,1-1.37a33.37,33.37,0,0,0,2-2.94c2.66-.72,4-2.22,4.39-3.73a5.24,5.24,0,0,0-1.16-4.33,29.41,29.41,0,0,0-6.44,4.52c-1.78,1.84-2.56,4-.3,6a15,15,0,0,1-3.05.49l-2.89.31c-.82,1.41-5.48-2.66-6.7-2.8,2.48-1.8.14-8.29-4.18-6.69,2.3-3.2,4.36-.59,6.26,2a14.05,14.05,0,0,0,2.74,3.22,1.44,1.44,0,0,0,1.3.26c.43-.16.84-.57,1.35-1.46q-1.35-1.82-2.8-3.53c.52,1.21,2.15,1,3.83,0s3.32-2.68,3.39-3.9l-1.47.36c7.83-7.36,16.42-17.39,23.79-26.7-10.79-3.74-21.82-7.2-31.28-10.16,1.48-2.38.86-3.83-.66-4.74s-3.92-1.26-6.23-1.5a24.56,24.56,0,0,1-6.19-1.07c-1.62-.67-2.65-1.87-2.8-4.32-1.54.2-1.15,1.4-1.1,2.45s-.19,2-2.51,1.77-1.27-2.87-.85-3.57c-.77,0-1.53,0-2.29,0,1.29-5.23,3.17-9.91,8.46-12.78S564.18,359.21,578.18,360.89Z"/></svg>