<?xml version="1.0" encoding="UTF-8"?>
<svg width="18px" height="18px" viewBox="0 0 18 18" version="1.1" xmlns="http://www.w3.org/2000/svg" xmlns:xlink="http://www.w3.org/1999/xlink">
    <!-- Generator: Sketch 52.1 (67048) - http://www.bohemiancoding.com/sketch -->
    <title>madewithlove-icon</title>
    <desc>Created with Sketch.</desc>
    <g id="Product-page" stroke="none" stroke-width="1" fill="none" fill-rule="evenodd">
        <g id="product-page---open-tab" transform="translate(-756.000000, -435.000000)">
            <g id="Group" transform="translate(757.000000, 348.000000)" stroke="#61032E" stroke-linecap="round" stroke-linejoin="round">
                <g id="madewithlove-icon" transform="translate(0.000000, 88.000000)">
                    <path d="M10.5,9 C10.5,9 7.64647059,5.85688235 6.74488235,4.75517647 C6.31023529,4.22417647 6,3.555 6,2.78576471 C6,1.24676471 7.13876471,0 8.54329412,0 C9.33052941,0 10.0335882,0.444176471 10.5,1.05882353 C10.9664118,0.444176471 11.6694706,0 12.4567059,0 C13.8612353,0 15,1.24676471 15,2.78576471 C15,3.555 14.6897647,4.22417647 14.2551176,4.75517647 C13.3535294,5.85688235 10.5,9 10.5,9 Z" id="Stroke-7263"></path>
                    <path d="M7,3 C7,1.89733333 7.89733333,1 9,1" id="Stroke-7265"></path>
                    <path d="M0,14 L2,14 C2,14 2.865,10.3814545 3,8.66654545 C2.525,8.16690909 0,8 0,8 L0,14 Z" id="Stroke-7267"></path>
                    <path d="M11.0771429,12.7572005 L13.7708571,12.0607095 C14.6622857,11.8303568 15.5891429,12.2709607 16,13.120658 L12.132,14.939032 C9.20171429,16.1815241 8.70914286,16.1668554 7.42857143,15.7327709 L2,13.8312744" id="Stroke-7269"></path>
                    <path d="M3,9 L9.63079597,10.6238903 C10.5450817,10.8950442 11,11.4082348 11,12.5256072 L11,12.6536015 L10.0790407,12.9271818 C9.78373306,13.0145334 9.47619048,13.0236325 9.17810219,12.9526594 L6.20834202,12.2477806" id="Stroke-7271"></path>
                </g>
            </g>
            <g id="Page"></g>
        </g>
        <g id="Page"></g>
    </g>
</svg>