<?xml version="1.0" encoding="UTF-8"?>
<svg width="19px" height="19px" viewBox="0 0 19 19" version="1.1" xmlns="http://www.w3.org/2000/svg" xmlns:xlink="http://www.w3.org/1999/xlink">
    <!-- Generator: Sketch 49.3 (51167) - http://www.bohemiancoding.com/sketch -->
    <title>size</title>
    <desc>Created with Sketch.</desc>
    <defs></defs>
    <g id="Page-1" stroke="none" stroke-width="1" fill="none" fill-rule="evenodd" stroke-linecap="round" stroke-linejoin="round">
        <g id="product-page---open-tab" transform="translate(-754.000000, -811.000000)" stroke="#DFBBBB">
            <g id="Group-7" transform="translate(755.000000, 725.000000)">
                <g id="size" transform="translate(0.000000, 87.000000)">
                    <polygon id="Stroke-109" points="0.285714286 16.8571429 11.7142857 16.8571429 11.7142857 5.42857143 0.285714286 5.42857143"></polygon>
                    <polyline id="Stroke-110" points="16.8571429 11.7142857 16.8571429 0.285714286 5.42857143 0.285714286"></polyline>
                    <path d="M5.42857143,0.285714286 L5.42857143,0.571428571" id="Stroke-112"></path>
                    <path d="M5.42857143,1.65714286 L5.42857143,10.8857143" id="Stroke-115" stroke-dasharray="0.9500000000000001,1.9"></path>
                    <polyline id="Stroke-116" points="5.42857143 11.4285714 5.42857143 11.7142857 5.71428571 11.7142857"></polyline>
                    <path d="M6.8,11.7142857 L16.0285714,11.7142857" id="Stroke-117" stroke-dasharray="0.9500000000000001,1.9"></path>
                    <path d="M16.5714286,11.7142857 L16.8571429,11.7142857" id="Stroke-118"></path>
                    <path d="M0.285714286,5.42857143 L5.42857143,0.285714286" id="Stroke-119"></path>
                    <path d="M11.7142857,5.42857143 L16.8571429,0.285714286" id="Stroke-121"></path>
                    <path d="M11.7142857,16.8571429 L16.8571429,11.7142857" id="Stroke-124"></path>
                    <path d="M0.285714286,16.8571429 L0.488,16.6548571" id="Stroke-125"></path>
                    <path d="M1.34937143,15.7934857 L4.79565714,12.3472" id="Stroke-126" stroke-dasharray="1.066,2.132"></path>
                    <path d="M5.22657143,11.9162857 L5.42885714,11.714" id="Stroke-127"></path>
                </g>
            </g>
        </g>
    </g>
</svg>