<?xml version="1.0" encoding="UTF-8"?>
<svg width="20px" height="14px" viewBox="0 0 20 14" version="1.1" xmlns="http://www.w3.org/2000/svg" xmlns:xlink="http://www.w3.org/1999/xlink">
    <!-- Generator: Sketch 52.1 (67048) - http://www.bohemiancoding.com/sketch -->
    <title>student-icon</title>
    <desc>Created with Sketch.</desc>
    <g id="Product-page" stroke="none" stroke-width="1" fill="none" fill-rule="evenodd">
        <g id="product-page---open-tab" transform="translate(-756.000000, -467.000000)">
            <g id="Group" transform="translate(757.000000, 348.000000)" fill="#61032E" stroke="#61032E" stroke-width="0.2">
                <path d="M17.4344601,123.670439 L9.34918741,120.076985 C9.11745315,119.974271 8.85311748,119.974271 8.62150909,120.076985 L0.53611049,123.670439 C0.0822083916,123.870579 -0.123595804,124.400887 0.0765440559,124.854915 C0.167047552,125.06009 0.330935664,125.223978 0.53611049,125.314481 L2.33283776,126.096034 L1.79384476,126.284719 L1.79384476,132.124145 C1.79384476,132.372117 1.99499161,132.573264 2.24308951,132.573264 C2.49118741,132.573264 2.69220839,132.372117 2.69220839,132.124145 L2.69220839,126.841712 L8.98075385,124.487992 L7.88476783,124.002873 L3.50082378,125.646789 L0.895481119,124.487992 L8.98075385,120.894537 L17.0661524,124.487992 L8.98075385,128.081446 L5.6927958,126.62609 L4.48893566,127.075208 L8.61244615,128.871936 C8.84418042,128.974649 9.10851608,128.974649 9.34012448,128.871936 L13.463635,127.075208 L13.463635,129.878173 C12.227551,130.992034 10.6351175,131.629083 8.97181678,131.674901 C7.30851608,131.629083 5.71608252,130.992034 4.4799986,129.878173 L4.4799986,127.075208 L3.58163497,127.407642 L3.58163497,130.255418 L3.85113147,130.515978 C5.25689371,131.798006 7.0787958,132.528579 8.98075385,132.573264 C10.8762923,132.533866 12.6940406,131.81311 14.101565,130.542915 L14.3710615,130.282481 L14.3710615,126.688901 L17.4344601,125.332481 C17.8884881,125.132215 18.0941664,124.601908 17.8940266,124.148006 C17.8035231,123.942831 17.639635,123.778817 17.4344601,123.688439 L17.4344601,123.670439 Z" id="student-icon"></path>
            </g>
            <g id="Page"></g>
        </g>
        <g id="Page"></g>
    </g>
</svg>