<?xml version="1.0" encoding="UTF-8"?>
<svg width="18px" height="16px" viewBox="0 0 18 16" version="1.1" xmlns="http://www.w3.org/2000/svg" xmlns:xlink="http://www.w3.org/1999/xlink">
    <!-- Generator: Sketch 52.1 (67048) - http://www.bohemiancoding.com/sketch -->
    <title>vegan-icon</title>
    <desc>Created with Sketch.</desc>
    <g id="Product-page" stroke="none" stroke-width="1" fill="none" fill-rule="evenodd">
        <g id="product-page---open-tab" transform="translate(-756.000000, -408.000000)">
            <g id="Group" transform="translate(757.000000, 348.000000)" stroke="#61032E" stroke-linecap="round" stroke-linejoin="round">
                <g id="vegan-icon" transform="translate(0.000000, 61.000000)">
                    <path d="M5.67527285,5.7992861 C6.53917074,4.91605482 6.73883722,2.53718767 5.67527285,1.44982152 C4.42338668,0.169919083 1.90826966,0 0.00292954042,0 C0.00292954042,1.9479802 -0.114487966,4.22941935 1.1373982,5.50932179 C2.20096257,6.59668793 4.81137497,6.68251737 5.67527285,5.7992861 L5.67527285,5.7992861 Z" id="Stroke-6"></path>
                    <path d="M12.8,5.05263158 C11.9096,5.48676491 8,7.27825965 8,14.9333333 C8,5.41265965 3.731,3.74652632 3.2,3.2" id="Stroke-8"></path>
                    <path d="M10.3247271,6.86595276 C9.46082926,5.98272149 9.26116278,3.60385433 10.3247271,2.51648819 C11.5766133,1.23658575 14.0917303,1.06666667 15.9970705,1.06666667 C15.9970705,3.01464687 16.114488,5.29608602 14.8626018,6.57598846 C13.7990374,7.6633546 11.188625,7.74918404 10.3247271,6.86595276 L10.3247271,6.86595276 Z" id="Stroke-10"></path>
                </g>
            </g>
            <g id="Page"></g>
        </g>
        <g id="Page"></g>
    </g>
</svg>